<svg width="56" height="56" viewBox="0 0 56 56" fill="none" xmlns="http://www.w3.org/2000/svg">
<rect x="4" y="4" width="48" height="48" rx="24" fill="#E6E9ED" />
<path
    d="M35 17L30 22V33L35 28.5V17ZM37 21V34.5C35.9 34.15 34.7 34 33.5 34C31.8 34 29.35 34.65 28 35.5V22C26.55 20.9 24.45 20.5 22.5 20.5C20.55 20.5 18.45 20.9 17 22V36.65C17 36.9 17.25 37.15 17.5 37.15C17.6 37.15 17.65 37.1 17.75 37.1C19.1 36.45 21.05 36 22.5 36C24.45 36 26.55 36.4 28 37.5C29.35 36.65 31.8 36 33.5 36C35.15 36 36.85 36.3 38.25 37.05C38.35 37.1 38.4 37.1 38.5 37.1C38.75 37.1 39 36.85 39 36.6V22C38.4 21.55 37.75 21.25 37 21ZM26 34.41C24.75 34.09 23.5 34 22.5 34C21.44 34 20.18 34.19 19 34.5V23.13C19.91 22.73 21.14 22.5 22.5 22.5C23.86 22.5 25.09 22.73 26 23.13V34.41Z"
    fill="#3F5F78"
  />
<rect x="4" y="4" width="48" height="48" rx="24" stroke="#F5F6F8" stroke-width="8" />
</svg>
