<svg width="56" height="56" viewBox="0 0 56 56" fill="none" xmlns="http://www.w3.org/2000/svg">
<rect x="4" y="4" width="48" height="48" rx="24" fill="#E6E9ED" />
<path
    d="M28 37C25.4833 37 23.354 36.6123 21.612 35.837C19.8707 35.0623 19 34.1167 19 33V23C19 21.9 19.8793 20.9583 21.638 20.175C23.396 19.3917 25.5167 19 28 19C30.4833 19 32.6043 19.3917 34.363 20.175C36.121 20.9583 37 21.9 37 23V33C37 34.1167 36.129 35.0623 34.387 35.837C32.6457 36.6123 30.5167 37 28 37ZM28 25.025C29.4833 25.025 30.975 24.8123 32.475 24.387C33.975 23.9623 34.8167 23.5083 35 23.025C34.8167 22.5417 33.9793 22.0833 32.488 21.65C30.996 21.2167 29.5 21 28 21C26.4833 21 24.996 21.2123 23.538 21.637C22.0793 22.0623 21.2333 22.525 21 23.025C21.2333 23.525 22.0793 23.9833 23.538 24.4C24.996 24.8167 26.4833 25.025 28 25.025ZM28 30C28.7 30 29.375 29.9667 30.025 29.9C30.675 29.8333 31.296 29.7373 31.888 29.612C32.4793 29.4873 33.0373 29.3333 33.562 29.15C34.0873 28.9667 34.5667 28.7583 35 28.525V25.525C34.5667 25.7583 34.0873 25.9667 33.562 26.15C33.0373 26.3333 32.4793 26.4873 31.888 26.612C31.296 26.7373 30.675 26.8333 30.025 26.9C29.375 26.9667 28.7 27 28 27C27.3 27 26.6167 26.9667 25.95 26.9C25.2833 26.8333 24.654 26.7373 24.062 26.612C23.4707 26.4873 22.9167 26.3333 22.4 26.15C21.8833 25.9667 21.4167 25.7583 21 25.525V28.525C21.4167 28.7583 21.8833 28.9667 22.4 29.15C22.9167 29.3333 23.4707 29.4873 24.062 29.612C24.654 29.7373 25.2833 29.8333 25.95 29.9C26.6167 29.9667 27.3 30 28 30ZM28 35C28.7667 35 29.546 34.9417 30.338 34.825C31.1293 34.7083 31.8583 34.554 32.525 34.362C33.1917 34.1707 33.75 33.954 34.2 33.712C34.65 33.4707 34.9167 33.225 35 32.975V30.525C34.5667 30.7583 34.0873 30.9667 33.562 31.15C33.0373 31.3333 32.4793 31.4873 31.888 31.612C31.296 31.7373 30.675 31.8333 30.025 31.9C29.375 31.9667 28.7 32 28 32C27.3 32 26.6167 31.9667 25.95 31.9C25.2833 31.8333 24.654 31.7373 24.062 31.612C23.4707 31.4873 22.9167 31.3333 22.4 31.15C21.8833 30.9667 21.4167 30.7583 21 30.525V33C21.0833 33.25 21.3457 33.4917 21.787 33.725C22.229 33.9583 22.7833 34.1707 23.45 34.362C24.1167 34.554 24.85 34.7083 25.65 34.825C26.45 34.9417 27.2333 35 28 35Z"
    fill="#3F5F78"
  />
<rect x="4" y="4" width="48" height="48" rx="24" stroke="#F5F6F8" stroke-width="8" />
</svg>
