<svg width="219" height="124" viewBox="0 0 219 124" fill="none" xmlns="http://www.w3.org/2000/svg">
<path
    d="M65.3517 119.861C64.6142 120.56 63.7394 120.91 62.7271 120.91C62.1631 120.91 61.6643 120.811 61.2304 120.615C60.7966 120.418 60.4351 120.156 60.1459 119.828C59.8567 119.501 59.6362 119.122 59.4843 118.693C59.3397 118.263 59.2674 117.815 59.2674 117.35C59.2674 116.854 59.3433 116.403 59.4952 115.995C59.6542 115.58 59.8748 115.224 60.1567 114.925C60.4387 114.627 60.7713 114.394 61.1545 114.226C61.545 114.059 61.9679 113.975 62.4234 113.975C62.7343 113.975 63.0163 114.012 63.2694 114.084C63.5297 114.157 63.7574 114.252 63.9527 114.368C64.1551 114.485 64.3178 114.619 64.4407 114.772C64.5708 114.918 64.6612 115.067 64.7118 115.22H65.5144C65.4059 114.973 65.265 114.743 65.0914 114.532C64.9251 114.321 64.7155 114.139 64.4624 113.986C64.2093 113.833 63.9129 113.713 63.5731 113.626C63.2332 113.538 62.8464 113.495 62.4126 113.495C61.7836 113.495 61.2087 113.586 60.6882 113.768C60.1748 113.95 59.7338 114.212 59.365 114.554C58.9963 114.889 58.7107 115.296 58.5082 115.777C58.3058 116.25 58.2045 116.782 58.2045 117.371C58.2045 117.881 58.2841 118.38 58.4431 118.867C58.6094 119.348 58.8625 119.777 59.2023 120.156C59.5422 120.527 59.976 120.829 60.5038 121.062C61.0316 121.288 61.6606 121.401 62.3909 121.401C62.8536 121.401 63.2658 121.357 63.6273 121.27C63.996 121.183 64.3142 121.077 64.5817 120.953C64.8564 120.822 65.0842 120.684 65.265 120.538C65.4457 120.393 65.5831 120.265 65.6771 120.156L65.3517 119.861Z"
    fill="#013882"
  />
<path
    d="M68.7549 115.69C69.2827 115.69 69.6912 115.766 69.9805 115.919C70.2697 116.065 70.4793 116.257 70.6095 116.498C70.7469 116.738 70.8264 117.015 70.8481 117.328C70.8698 117.641 70.8806 117.961 70.8806 118.289V121.27H70.0021V120.735C69.7925 120.939 69.5249 121.102 69.1996 121.226C68.8742 121.343 68.5488 121.401 68.2235 121.401C67.9126 121.401 67.6378 121.346 67.3992 121.237C67.1606 121.128 66.9618 120.986 66.8027 120.811C66.6437 120.637 66.5244 120.44 66.4448 120.222C66.3653 120.003 66.3255 119.781 66.3255 119.555C66.3255 119.322 66.3689 119.089 66.4557 118.857C66.5424 118.624 66.6726 118.416 66.8461 118.234C67.0196 118.045 67.2329 117.892 67.486 117.775C67.7391 117.659 68.0283 117.601 68.3536 117.601C68.679 117.601 68.9863 117.666 69.2755 117.797C69.5719 117.921 69.8142 118.099 70.0021 118.332V117.863C70.0021 117.266 69.9118 116.822 69.731 116.53C69.5575 116.239 69.2357 116.094 68.7658 116.094C68.5633 116.094 68.3862 116.119 68.2343 116.17C68.0825 116.221 67.9451 116.294 67.8222 116.389C67.7065 116.476 67.5981 116.589 67.4968 116.727C67.3956 116.858 67.2944 117.007 67.1932 117.175L66.6292 116.607C66.7304 116.498 66.8353 116.389 66.9437 116.279C67.0594 116.17 67.1968 116.072 67.3558 115.984C67.5221 115.897 67.7174 115.828 67.9415 115.777C68.1656 115.719 68.4368 115.69 68.7549 115.69ZM70.0021 119.108C69.966 119.02 69.9118 118.918 69.8395 118.802C69.7744 118.685 69.6876 118.573 69.5792 118.463C69.4707 118.354 69.3406 118.263 69.1887 118.19C69.0369 118.11 68.8561 118.07 68.6465 118.07C68.4368 118.07 68.2452 118.114 68.0716 118.201C67.8981 118.281 67.7499 118.391 67.627 118.529C67.5113 118.66 67.4209 118.816 67.3558 118.998C67.2908 119.181 67.2582 119.37 67.2582 119.566C67.2582 119.799 67.298 120.003 67.3775 120.178C67.4643 120.345 67.5728 120.491 67.7029 120.615C67.833 120.731 67.9777 120.819 68.1367 120.877C68.2958 120.935 68.4476 120.964 68.5922 120.964C68.7296 120.964 68.867 120.939 69.0044 120.888C69.149 120.837 69.2827 120.768 69.4056 120.68C69.5358 120.586 69.6515 120.476 69.7527 120.353C69.8539 120.229 69.9371 120.094 70.0021 119.949V119.108Z"
    fill="#013882"
  />
<path
    d="M72.6163 124H73.5382V120.374H73.5816C73.6539 120.564 73.7479 120.724 73.8636 120.855C73.9865 120.986 74.1238 121.092 74.2757 121.172C74.4275 121.252 74.5866 121.31 74.7529 121.346C74.9264 121.383 75.0999 121.401 75.2735 121.401C75.635 121.401 75.9676 121.335 76.2713 121.204C76.5749 121.066 76.8352 120.873 77.0521 120.626C77.2763 120.378 77.4498 120.08 77.5727 119.73C77.6956 119.373 77.7571 118.98 77.7571 118.551C77.7571 118.114 77.6956 117.721 77.5727 117.371C77.4498 117.022 77.2763 116.723 77.0521 116.476C76.8352 116.221 76.5749 116.028 76.2713 115.897C75.9676 115.759 75.635 115.69 75.2735 115.69C74.4131 115.69 73.8491 116.025 73.5816 116.694H73.5382V115.81H72.6163V124ZM73.5382 117.994C73.5382 117.754 73.5743 117.528 73.6466 117.317C73.7262 117.098 73.8346 116.913 73.972 116.76C74.1094 116.6 74.2685 116.476 74.4492 116.389C74.6372 116.294 74.836 116.247 75.0457 116.247C75.2699 116.247 75.4832 116.29 75.6856 116.378C75.8953 116.458 76.076 116.589 76.2279 116.771C76.3797 116.953 76.499 117.189 76.5858 117.481C76.6798 117.772 76.7268 118.121 76.7268 118.529C76.7268 118.944 76.6798 119.297 76.5858 119.588C76.499 119.879 76.3761 120.12 76.217 120.309C76.0652 120.491 75.8881 120.626 75.6856 120.713C75.4832 120.793 75.2699 120.833 75.0457 120.833C74.8433 120.833 74.6517 120.793 74.4709 120.713C74.2901 120.626 74.1311 120.502 73.9937 120.342C73.8563 120.174 73.7443 119.974 73.6575 119.741C73.578 119.508 73.5382 119.242 73.5382 118.944V117.994Z"
    fill="#013882"
  />
<path
    d="M78.6195 116.247V115.81H79.563V114.128H80.4849V115.81H81.7972V116.247H80.4849V119.872C80.4849 119.959 80.4885 120.061 80.4957 120.178C80.503 120.287 80.5247 120.393 80.5608 120.495C80.597 120.589 80.6512 120.669 80.7235 120.735C80.803 120.8 80.9115 120.833 81.0489 120.833C81.2224 120.833 81.367 120.768 81.4827 120.637C81.5984 120.506 81.6924 120.364 81.7647 120.211L82.2744 120.735C81.9201 121.092 81.5188 121.27 81.0706 121.27C80.8826 121.27 80.6982 121.237 80.5174 121.172C80.3367 121.106 80.174 121.008 80.0294 120.877C79.892 120.738 79.7799 120.564 79.6932 120.353C79.6064 120.141 79.563 119.894 79.563 119.61V116.247H78.6195Z"
    fill="#013882"
  />
<path
    d="M83.2288 115.81V119.359C83.2288 119.49 83.2396 119.672 83.2613 119.905C83.2903 120.131 83.3662 120.356 83.4891 120.582C83.612 120.8 83.8036 120.993 84.0639 121.161C84.3314 121.321 84.7038 121.401 85.181 121.401C85.3907 121.408 85.6184 121.365 85.8642 121.27C86.1173 121.183 86.3704 121.011 86.6234 120.757L86.797 120.582H86.8403V121.27H87.7622V115.81H86.8403V119.195C86.8403 119.479 86.8006 119.723 86.7211 119.927C86.6415 120.131 86.5367 120.302 86.4065 120.44C86.2764 120.571 86.1245 120.669 85.951 120.735C85.7775 120.8 85.5967 120.833 85.4087 120.833C85.1051 120.833 84.8665 120.775 84.6929 120.658C84.5266 120.535 84.4001 120.393 84.3134 120.232C84.2338 120.072 84.1868 119.916 84.1724 119.763C84.1579 119.603 84.1507 119.486 84.1507 119.413V115.81H83.2288Z"
    fill="#013882"
  />
<path
    d="M89.5306 115.81V121.27H90.4525V117.972C90.4525 117.673 90.485 117.422 90.5501 117.218C90.6224 117.007 90.7128 116.836 90.8212 116.705C90.9297 116.574 91.049 116.48 91.1791 116.421C91.3093 116.363 91.4358 116.334 91.5587 116.334C91.725 116.334 91.8769 116.389 92.0142 116.498C92.1588 116.607 92.2637 116.709 92.3288 116.804L92.6975 116.126C92.6324 116.039 92.5529 115.966 92.4589 115.908C92.3721 115.85 92.2818 115.806 92.1878 115.777C92.101 115.741 92.0179 115.719 91.9383 115.711C91.866 115.697 91.8118 115.69 91.7756 115.69C91.472 115.69 91.2189 115.773 91.0165 115.941C90.814 116.108 90.6477 116.356 90.5176 116.683H90.4525V115.81H89.5306Z"
    fill="#013882"
  />
<path
    d="M98.4872 118.78V118.551C98.4872 118.063 98.4185 117.641 98.2811 117.284C98.1438 116.927 97.9558 116.632 97.7172 116.399C97.4858 116.166 97.2147 115.992 96.9038 115.875C96.5929 115.759 96.2639 115.701 95.9168 115.701C95.5481 115.701 95.2083 115.766 94.8974 115.897C94.5864 116.021 94.3153 116.207 94.0839 116.454C93.8526 116.694 93.6718 116.989 93.5417 117.339C93.4115 117.681 93.3464 118.07 93.3464 118.507C93.3464 118.871 93.4007 119.228 93.5091 119.577C93.6248 119.919 93.7947 120.229 94.0189 120.505C94.2502 120.775 94.5394 120.993 94.8865 121.161C95.2408 121.321 95.6565 121.401 96.1337 121.401C96.5965 121.401 97.0231 121.321 97.4135 121.161C97.8039 120.993 98.1438 120.757 98.433 120.451L98.0859 120.101C97.9341 120.232 97.7895 120.353 97.6521 120.462C97.522 120.571 97.3882 120.662 97.2508 120.735C97.1134 120.808 96.9688 120.866 96.817 120.91C96.6724 120.946 96.5097 120.964 96.329 120.964C96.1265 120.964 95.9096 120.935 95.6782 120.877C95.4541 120.811 95.2444 120.698 95.0492 120.538C94.854 120.378 94.6913 120.156 94.5611 119.872C94.431 119.588 94.3659 119.224 94.3659 118.78H98.4872ZM94.3659 118.343C94.3659 118.052 94.3948 117.772 94.4527 117.502C94.5178 117.226 94.6118 116.982 94.7347 116.771C94.8648 116.56 95.0275 116.392 95.2227 116.268C95.4179 116.137 95.6493 116.072 95.9168 116.072C96.4302 116.072 96.8278 116.276 97.1098 116.683C97.399 117.084 97.5436 117.637 97.5436 118.343H94.3659Z"
    fill="#013882"
  />
<path
    d="M103.149 116.247V115.81H104.092V114.128H105.014V115.81H106.327V116.247H105.014V119.872C105.014 119.959 105.018 120.061 105.025 120.178C105.032 120.287 105.054 120.393 105.09 120.495C105.126 120.589 105.181 120.669 105.253 120.735C105.332 120.8 105.441 120.833 105.578 120.833C105.752 120.833 105.896 120.768 106.012 120.637C106.128 120.506 106.222 120.364 106.294 120.211L106.804 120.735C106.45 121.092 106.048 121.27 105.6 121.27C105.412 121.27 105.228 121.237 105.047 121.172C104.866 121.106 104.703 121.008 104.559 120.877C104.421 120.738 104.309 120.564 104.223 120.353C104.136 120.141 104.092 119.894 104.092 119.61V116.247H103.149Z"
    fill="#013882"
  />
<path
    d="M107.758 113.626V121.27H108.68V118.114C108.68 117.968 108.691 117.79 108.713 117.579C108.734 117.368 108.792 117.164 108.886 116.967C108.987 116.771 109.136 116.603 109.331 116.465C109.526 116.319 109.797 116.247 110.144 116.247C110.39 116.247 110.585 116.294 110.73 116.389C110.882 116.476 110.997 116.596 111.077 116.749C111.156 116.902 111.207 117.08 111.229 117.284C111.258 117.488 111.272 117.699 111.272 117.917V121.27H112.194V117.666C112.194 117.259 112.136 116.927 112.021 116.672C111.905 116.41 111.76 116.207 111.587 116.061C111.413 115.915 111.222 115.817 111.012 115.766C110.809 115.715 110.614 115.69 110.426 115.69C110.173 115.69 109.906 115.741 109.624 115.843C109.349 115.937 109.089 116.123 108.843 116.399L108.723 116.552H108.68V113.626H107.758Z"
    fill="#013882"
  />
<path
    d="M118.748 118.78V118.551C118.748 118.063 118.68 117.641 118.542 117.284C118.405 116.927 118.217 116.632 117.978 116.399C117.747 116.166 117.476 115.992 117.165 115.875C116.854 115.759 116.525 115.701 116.178 115.701C115.809 115.701 115.469 115.766 115.158 115.897C114.848 116.021 114.576 116.207 114.345 116.454C114.114 116.694 113.933 116.989 113.803 117.339C113.673 117.681 113.608 118.07 113.608 118.507C113.608 118.871 113.662 119.228 113.77 119.577C113.886 119.919 114.056 120.229 114.28 120.505C114.511 120.775 114.801 120.993 115.148 121.161C115.502 121.321 115.918 121.401 116.395 121.401C116.858 121.401 117.284 121.321 117.675 121.161C118.065 120.993 118.405 120.757 118.694 120.451L118.347 120.101C118.195 120.232 118.051 120.353 117.913 120.462C117.783 120.571 117.649 120.662 117.512 120.735C117.375 120.808 117.23 120.866 117.078 120.91C116.934 120.946 116.771 120.964 116.59 120.964C116.388 120.964 116.171 120.935 115.939 120.877C115.715 120.811 115.506 120.698 115.31 120.538C115.115 120.378 114.952 120.156 114.822 119.872C114.692 119.588 114.627 119.224 114.627 118.78H118.748ZM114.627 118.343C114.627 118.052 114.656 117.772 114.714 117.502C114.779 117.226 114.873 116.982 114.996 116.771C115.126 116.56 115.289 116.392 115.484 116.268C115.679 116.137 115.91 116.072 116.178 116.072C116.691 116.072 117.089 116.276 117.371 116.683C117.66 117.084 117.805 117.637 117.805 118.343H114.627Z"
    fill="#013882"
  />
<path
    d="M127.412 117.055C127.412 116.858 127.361 116.676 127.26 116.509C127.159 116.341 127.018 116.199 126.837 116.083C126.664 115.959 126.458 115.864 126.219 115.799C125.988 115.726 125.738 115.69 125.471 115.69C125.218 115.69 124.979 115.722 124.755 115.788C124.538 115.853 124.346 115.952 124.18 116.083C124.021 116.214 123.894 116.378 123.8 116.574C123.706 116.763 123.659 116.986 123.659 117.24C123.659 117.59 123.739 117.866 123.898 118.07C124.057 118.274 124.256 118.438 124.495 118.562C124.733 118.685 124.99 118.787 125.265 118.867C125.547 118.94 125.807 119.024 126.045 119.119C126.284 119.206 126.483 119.319 126.642 119.457C126.801 119.595 126.881 119.785 126.881 120.025C126.881 120.127 126.863 120.232 126.826 120.342C126.797 120.451 126.74 120.553 126.653 120.647C126.566 120.735 126.447 120.811 126.295 120.877C126.143 120.935 125.951 120.964 125.72 120.964C125.431 120.964 125.185 120.92 124.983 120.833C124.787 120.738 124.625 120.629 124.495 120.505C124.372 120.374 124.281 120.243 124.223 120.112C124.173 119.981 124.148 119.872 124.148 119.785H123.443C123.443 119.989 123.49 120.189 123.584 120.385C123.678 120.575 123.819 120.746 124.007 120.899C124.202 121.052 124.437 121.175 124.711 121.27C124.993 121.357 125.319 121.401 125.688 121.401C126.353 121.401 126.852 121.255 127.184 120.964C127.524 120.666 127.694 120.276 127.694 119.796C127.694 119.446 127.611 119.166 127.445 118.955C127.285 118.744 127.083 118.576 126.837 118.452C126.591 118.321 126.324 118.216 126.035 118.136C125.753 118.056 125.489 117.972 125.243 117.885C124.997 117.797 124.791 117.692 124.625 117.568C124.466 117.444 124.386 117.269 124.386 117.044C124.386 116.949 124.404 116.851 124.44 116.749C124.477 116.64 124.538 116.541 124.625 116.454C124.711 116.359 124.827 116.283 124.972 116.225C125.116 116.159 125.297 116.126 125.514 116.126C125.731 116.126 125.919 116.159 126.078 116.225C126.237 116.283 126.371 116.359 126.479 116.454C126.588 116.541 126.667 116.64 126.718 116.749C126.769 116.858 126.794 116.96 126.794 117.055H127.412Z"
    fill="#013882"
  />
<path
    d="M128.621 116.247V115.81H129.565V114.128H130.486V115.81H131.799V116.247H130.486V119.872C130.486 119.959 130.49 120.061 130.497 120.178C130.504 120.287 130.526 120.393 130.562 120.495C130.598 120.589 130.653 120.669 130.725 120.735C130.805 120.8 130.913 120.833 131.05 120.833C131.224 120.833 131.368 120.768 131.484 120.637C131.6 120.506 131.694 120.364 131.766 120.211L132.276 120.735C131.922 121.092 131.52 121.27 131.072 121.27C130.884 121.27 130.7 121.237 130.519 121.172C130.338 121.106 130.175 121.008 130.031 120.877C129.893 120.738 129.781 120.564 129.695 120.353C129.608 120.141 129.565 119.894 129.565 119.61V116.247H128.621Z"
    fill="#013882"
  />
<path
    d="M138.523 118.551C138.523 118.929 138.458 119.293 138.328 119.643C138.198 119.985 138.01 120.287 137.764 120.549C137.525 120.811 137.232 121.019 136.885 121.172C136.545 121.325 136.162 121.401 135.736 121.401C135.302 121.401 134.908 121.325 134.553 121.172C134.206 121.011 133.91 120.8 133.664 120.538C133.426 120.276 133.238 119.974 133.1 119.632C132.97 119.282 132.905 118.922 132.905 118.551C132.905 118.172 132.97 117.812 133.1 117.47C133.238 117.12 133.426 116.814 133.664 116.552C133.91 116.29 134.206 116.083 134.553 115.93C134.908 115.77 135.302 115.69 135.736 115.69C136.162 115.69 136.545 115.77 136.885 115.93C137.232 116.083 137.525 116.29 137.764 116.552C138.01 116.814 138.198 117.12 138.328 117.47C138.458 117.812 138.523 118.172 138.523 118.551ZM137.493 118.551C137.493 118.041 137.438 117.63 137.33 117.317C137.221 116.996 137.08 116.749 136.907 116.574C136.733 116.399 136.542 116.283 136.332 116.225C136.122 116.159 135.92 116.126 135.725 116.126C135.53 116.126 135.327 116.159 135.117 116.225C134.908 116.283 134.712 116.399 134.532 116.574C134.358 116.749 134.214 116.996 134.098 117.317C133.989 117.63 133.935 118.041 133.935 118.551C133.935 119.053 133.989 119.464 134.098 119.785C134.214 120.098 134.358 120.342 134.532 120.516C134.712 120.691 134.908 120.811 135.117 120.877C135.327 120.935 135.53 120.964 135.725 120.964C135.92 120.964 136.122 120.935 136.332 120.877C136.542 120.811 136.733 120.691 136.907 120.516C137.08 120.342 137.221 120.098 137.33 119.785C137.438 119.464 137.493 119.053 137.493 118.551Z"
    fill="#013882"
  />
<path
    d="M139.935 115.81V121.27H140.856V117.972C140.856 117.673 140.889 117.422 140.954 117.218C141.026 117.007 141.117 116.836 141.225 116.705C141.334 116.574 141.453 116.48 141.583 116.421C141.713 116.363 141.84 116.334 141.963 116.334C142.129 116.334 142.281 116.389 142.418 116.498C142.563 116.607 142.668 116.709 142.733 116.804L143.101 116.126C143.036 116.039 142.957 115.966 142.863 115.908C142.776 115.85 142.686 115.806 142.592 115.777C142.505 115.741 142.422 115.719 142.342 115.711C142.27 115.697 142.216 115.69 142.18 115.69C141.876 115.69 141.623 115.773 141.42 115.941C141.218 116.108 141.052 116.356 140.922 116.683H140.856V115.81H139.935Z"
    fill="#013882"
  />
<path
    d="M144.423 115.81V121.27H145.345V115.81H144.423ZM144.293 114.084C144.293 114.245 144.351 114.383 144.466 114.499C144.582 114.616 144.719 114.674 144.878 114.674C145.037 114.674 145.175 114.616 145.29 114.499C145.406 114.383 145.464 114.245 145.464 114.084C145.464 113.924 145.406 113.786 145.29 113.669C145.175 113.553 145.037 113.495 144.878 113.495C144.719 113.495 144.582 113.553 144.466 113.669C144.351 113.786 144.293 113.924 144.293 114.084Z"
    fill="#013882"
  />
<path
    d="M152.227 118.78V118.551C152.227 118.063 152.159 117.641 152.021 117.284C151.884 116.927 151.696 116.632 151.457 116.399C151.226 116.166 150.955 115.992 150.644 115.875C150.333 115.759 150.004 115.701 149.657 115.701C149.288 115.701 148.948 115.766 148.638 115.897C148.327 116.021 148.056 116.207 147.824 116.454C147.593 116.694 147.412 116.989 147.282 117.339C147.152 117.681 147.087 118.07 147.087 118.507C147.087 118.871 147.141 119.228 147.249 119.577C147.365 119.919 147.535 120.229 147.759 120.505C147.99 120.775 148.28 120.993 148.627 121.161C148.981 121.321 149.397 121.401 149.874 121.401C150.337 121.401 150.763 121.321 151.154 121.161C151.544 120.993 151.884 120.757 152.173 120.451L151.826 120.101C151.674 120.232 151.53 120.353 151.392 120.462C151.262 120.571 151.128 120.662 150.991 120.735C150.854 120.808 150.709 120.866 150.557 120.91C150.413 120.946 150.25 120.964 150.069 120.964C149.867 120.964 149.65 120.935 149.418 120.877C149.194 120.811 148.985 120.698 148.789 120.538C148.594 120.378 148.432 120.156 148.301 119.872C148.171 119.588 148.106 119.224 148.106 118.78H152.227ZM148.106 118.343C148.106 118.052 148.135 117.772 148.193 117.502C148.258 117.226 148.352 116.982 148.475 116.771C148.605 116.56 148.768 116.392 148.963 116.268C149.158 116.137 149.39 116.072 149.657 116.072C150.17 116.072 150.568 116.276 150.85 116.683C151.139 117.084 151.284 117.637 151.284 118.343H148.106Z"
    fill="#013882"
  />
<path
    d="M157.099 117.055C157.099 116.858 157.049 116.676 156.948 116.509C156.846 116.341 156.705 116.199 156.525 116.083C156.351 115.959 156.145 115.864 155.906 115.799C155.675 115.726 155.426 115.69 155.158 115.69C154.905 115.69 154.666 115.722 154.442 115.788C154.225 115.853 154.034 115.952 153.867 116.083C153.708 116.214 153.582 116.378 153.488 116.574C153.394 116.763 153.347 116.986 153.347 117.24C153.347 117.59 153.426 117.866 153.585 118.07C153.745 118.274 153.943 118.438 154.182 118.562C154.421 118.685 154.677 118.787 154.952 118.867C155.234 118.94 155.494 119.024 155.733 119.119C155.971 119.206 156.17 119.319 156.329 119.457C156.488 119.595 156.568 119.785 156.568 120.025C156.568 120.127 156.55 120.232 156.514 120.342C156.485 120.451 156.427 120.553 156.34 120.647C156.253 120.735 156.134 120.811 155.982 120.877C155.831 120.935 155.639 120.964 155.408 120.964C155.118 120.964 154.872 120.92 154.67 120.833C154.475 120.738 154.312 120.629 154.182 120.505C154.059 120.374 153.969 120.243 153.911 120.112C153.86 119.981 153.835 119.872 153.835 119.785H153.13C153.13 119.989 153.177 120.189 153.271 120.385C153.365 120.575 153.506 120.746 153.694 120.899C153.889 121.052 154.124 121.175 154.399 121.27C154.681 121.357 155.006 121.401 155.375 121.401C156.04 121.401 156.539 121.255 156.872 120.964C157.211 120.666 157.381 120.276 157.381 119.796C157.381 119.446 157.298 119.166 157.132 118.955C156.973 118.744 156.77 118.576 156.525 118.452C156.279 118.321 156.011 118.216 155.722 118.136C155.44 118.056 155.176 117.972 154.93 117.885C154.684 117.797 154.478 117.692 154.312 117.568C154.153 117.444 154.074 117.269 154.074 117.044C154.074 116.949 154.092 116.851 154.128 116.749C154.164 116.64 154.225 116.541 154.312 116.454C154.399 116.359 154.515 116.283 154.659 116.225C154.804 116.159 154.985 116.126 155.201 116.126C155.418 116.126 155.606 116.159 155.765 116.225C155.924 116.283 156.058 116.359 156.167 116.454C156.275 116.541 156.355 116.64 156.405 116.749C156.456 116.858 156.481 116.96 156.481 117.055H157.099Z"
    fill="#013882"
  />
<path
    d="M167.935 118.551C167.935 118.929 167.87 119.293 167.74 119.643C167.61 119.985 167.422 120.287 167.176 120.549C166.937 120.811 166.644 121.019 166.297 121.172C165.957 121.325 165.574 121.401 165.148 121.401C164.714 121.401 164.32 121.325 163.965 121.172C163.618 121.011 163.322 120.8 163.076 120.538C162.838 120.276 162.65 119.974 162.512 119.632C162.382 119.282 162.317 118.922 162.317 118.551C162.317 118.172 162.382 117.812 162.512 117.47C162.65 117.12 162.838 116.814 163.076 116.552C163.322 116.29 163.618 116.083 163.965 115.93C164.32 115.77 164.714 115.69 165.148 115.69C165.574 115.69 165.957 115.77 166.297 115.93C166.644 116.083 166.937 116.29 167.176 116.552C167.422 116.814 167.61 117.12 167.74 117.47C167.87 117.812 167.935 118.172 167.935 118.551ZM166.905 118.551C166.905 118.041 166.85 117.63 166.742 117.317C166.633 116.996 166.492 116.749 166.319 116.574C166.145 116.399 165.954 116.283 165.744 116.225C165.534 116.159 165.332 116.126 165.137 116.126C164.942 116.126 164.739 116.159 164.529 116.225C164.32 116.283 164.125 116.399 163.944 116.574C163.77 116.749 163.626 116.996 163.51 117.317C163.401 117.63 163.347 118.041 163.347 118.551C163.347 119.053 163.401 119.464 163.51 119.785C163.626 120.098 163.77 120.342 163.944 120.516C164.125 120.691 164.32 120.811 164.529 120.877C164.739 120.935 164.942 120.964 165.137 120.964C165.332 120.964 165.534 120.935 165.744 120.877C165.954 120.811 166.145 120.691 166.319 120.516C166.492 120.342 166.633 120.098 166.742 119.785C166.85 119.464 166.905 119.053 166.905 118.551Z"
    fill="#013882"
  />
<path
    d="M168.804 115.81V116.247H169.748V121.27H170.67V116.247H171.982V115.81H170.67V114.892C170.67 114.805 170.673 114.703 170.681 114.587C170.688 114.463 170.71 114.35 170.746 114.248C170.782 114.139 170.836 114.048 170.908 113.975C170.988 113.902 171.096 113.866 171.234 113.866C171.407 113.866 171.548 113.939 171.657 114.084C171.772 114.23 171.866 114.379 171.939 114.532L172.416 114.019C172.242 113.844 172.062 113.713 171.874 113.626C171.693 113.538 171.487 113.495 171.255 113.495C171.067 113.495 170.883 113.527 170.702 113.593C170.522 113.658 170.359 113.76 170.214 113.899C170.077 114.03 169.965 114.201 169.878 114.412C169.791 114.623 169.748 114.871 169.748 115.155V115.81H168.804Z"
    fill="#013882"
  />
<path
    d="M179.182 119.992L177.306 115.81H176.319L178.748 121.204L178.174 122.624C178.109 122.791 178.022 122.926 177.913 123.028C177.812 123.13 177.693 123.181 177.555 123.181C177.425 123.181 177.299 123.141 177.176 123.061C177.06 122.988 176.97 122.879 176.905 122.733L176.428 123.64C176.565 123.763 176.717 123.854 176.883 123.913C177.049 123.971 177.205 124 177.349 124C177.552 124 177.729 123.949 177.881 123.847C178.033 123.745 178.166 123.611 178.282 123.443C178.398 123.283 178.499 123.101 178.586 122.897C178.673 122.7 178.756 122.504 178.835 122.307L181.46 115.81H180.928L179.226 119.992H179.182Z"
    fill="#013882"
  />
<path
    d="M187.836 118.551C187.836 118.929 187.771 119.293 187.641 119.643C187.511 119.985 187.323 120.287 187.077 120.549C186.838 120.811 186.545 121.019 186.198 121.172C185.858 121.325 185.475 121.401 185.049 121.401C184.615 121.401 184.221 121.325 183.866 121.172C183.519 121.011 183.223 120.8 182.977 120.538C182.739 120.276 182.551 119.974 182.413 119.632C182.283 119.282 182.218 118.922 182.218 118.551C182.218 118.172 182.283 117.812 182.413 117.47C182.551 117.12 182.739 116.814 182.977 116.552C183.223 116.29 183.519 116.083 183.866 115.93C184.221 115.77 184.615 115.69 185.049 115.69C185.475 115.69 185.858 115.77 186.198 115.93C186.545 116.083 186.838 116.29 187.077 116.552C187.323 116.814 187.511 117.12 187.641 117.47C187.771 117.812 187.836 118.172 187.836 118.551ZM186.806 118.551C186.806 118.041 186.751 117.63 186.643 117.317C186.534 116.996 186.393 116.749 186.22 116.574C186.046 116.399 185.855 116.283 185.645 116.225C185.435 116.159 185.233 116.126 185.038 116.126C184.843 116.126 184.64 116.159 184.43 116.225C184.221 116.283 184.026 116.399 183.845 116.574C183.671 116.749 183.527 116.996 183.411 117.317C183.303 117.63 183.248 118.041 183.248 118.551C183.248 119.053 183.303 119.464 183.411 119.785C183.527 120.098 183.671 120.342 183.845 120.516C184.026 120.691 184.221 120.811 184.43 120.877C184.64 120.935 184.843 120.964 185.038 120.964C185.233 120.964 185.435 120.935 185.645 120.877C185.855 120.811 186.046 120.691 186.22 120.516C186.393 120.342 186.534 120.098 186.643 119.785C186.751 119.464 186.806 119.053 186.806 118.551Z"
    fill="#013882"
  />
<path
    d="M189.248 115.81V119.359C189.248 119.49 189.258 119.672 189.28 119.905C189.309 120.131 189.385 120.356 189.508 120.582C189.631 120.8 189.822 120.993 190.083 121.161C190.35 121.321 190.723 121.401 191.2 121.401C191.409 121.408 191.637 121.365 191.883 121.27C192.136 121.183 192.389 121.011 192.642 120.757L192.816 120.582H192.859V121.27H193.781V115.81H192.859V119.195C192.859 119.479 192.819 119.723 192.74 119.927C192.66 120.131 192.555 120.302 192.425 120.44C192.295 120.571 192.143 120.669 191.97 120.735C191.796 120.8 191.616 120.833 191.428 120.833C191.124 120.833 190.885 120.775 190.712 120.658C190.545 120.535 190.419 120.393 190.332 120.232C190.253 120.072 190.206 119.916 190.191 119.763C190.177 119.603 190.17 119.486 190.17 119.413V115.81H189.248Z"
    fill="#013882"
  />
<path
    d="M195.549 115.81V121.27H196.471V117.972C196.471 117.673 196.504 117.422 196.569 117.218C196.641 117.007 196.732 116.836 196.84 116.705C196.949 116.574 197.068 116.48 197.198 116.421C197.328 116.363 197.455 116.334 197.578 116.334C197.744 116.334 197.896 116.389 198.033 116.498C198.178 116.607 198.283 116.709 198.348 116.804L198.716 116.126C198.651 116.039 198.572 115.966 198.478 115.908C198.391 115.85 198.301 115.806 198.207 115.777C198.12 115.741 198.037 115.719 197.957 115.711C197.885 115.697 197.831 115.69 197.794 115.69C197.491 115.69 197.238 115.773 197.035 115.941C196.833 116.108 196.667 116.356 196.536 116.683H196.471V115.81H195.549Z"
    fill="#013882"
  />
<path d="M204.621 113.626H203.699V121.27H204.621V113.626Z" fill="#013882" />
<path
    d="M206.922 115.81V121.27H207.844V115.81H206.922ZM206.792 114.084C206.792 114.245 206.85 114.383 206.965 114.499C207.081 114.616 207.218 114.674 207.378 114.674C207.537 114.674 207.674 114.616 207.79 114.499C207.905 114.383 207.963 114.245 207.963 114.084C207.963 113.924 207.905 113.786 207.79 113.669C207.674 113.553 207.537 113.495 207.378 113.495C207.218 113.495 207.081 113.553 206.965 113.669C206.85 113.786 206.792 113.924 206.792 114.084Z"
    fill="#013882"
  />
<path
    d="M209.369 115.81V116.247H210.313V121.27H211.234V116.247H212.547V115.81H211.234V114.892C211.234 114.805 211.238 114.703 211.245 114.587C211.252 114.463 211.274 114.35 211.31 114.248C211.346 114.139 211.401 114.048 211.473 113.975C211.553 113.902 211.661 113.866 211.798 113.866C211.972 113.866 212.113 113.939 212.221 114.084C212.337 114.23 212.431 114.379 212.503 114.532L212.981 114.019C212.807 113.844 212.626 113.713 212.438 113.626C212.257 113.538 212.051 113.495 211.82 113.495C211.632 113.495 211.448 113.527 211.267 113.593C211.086 113.658 210.923 113.76 210.779 113.899C210.642 114.03 210.529 114.201 210.443 114.412C210.356 114.623 210.313 114.871 210.313 115.155V115.81H209.369Z"
    fill="#013882"
  />
<path
    d="M218.667 118.78V118.551C218.667 118.063 218.598 117.641 218.461 117.284C218.323 116.927 218.135 116.632 217.897 116.399C217.665 116.166 217.394 115.992 217.083 115.875C216.772 115.759 216.443 115.701 216.096 115.701C215.727 115.701 215.388 115.766 215.077 115.897C214.766 116.021 214.495 116.207 214.263 116.454C214.032 116.694 213.851 116.989 213.721 117.339C213.591 117.681 213.526 118.07 213.526 118.507C213.526 118.871 213.58 119.228 213.689 119.577C213.804 119.919 213.974 120.229 214.198 120.505C214.43 120.775 214.719 120.993 215.066 121.161C215.42 121.321 215.836 121.401 216.313 121.401C216.776 121.401 217.202 121.321 217.593 121.161C217.983 120.993 218.323 120.757 218.612 120.451L218.265 120.101C218.113 120.232 217.969 120.353 217.831 120.462C217.701 120.571 217.568 120.662 217.43 120.735C217.293 120.808 217.148 120.866 216.996 120.91C216.852 120.946 216.689 120.964 216.508 120.964C216.306 120.964 216.089 120.935 215.858 120.877C215.633 120.811 215.424 120.698 215.229 120.538C215.033 120.378 214.871 120.156 214.741 119.872C214.61 119.588 214.545 119.224 214.545 118.78H218.667ZM214.545 118.343C214.545 118.052 214.574 117.772 214.632 117.502C214.697 117.226 214.791 116.982 214.914 116.771C215.044 116.56 215.207 116.392 215.402 116.268C215.597 116.137 215.829 116.072 216.096 116.072C216.61 116.072 217.007 116.276 217.289 116.683C217.578 117.084 217.723 117.637 217.723 118.343H214.545Z"
    fill="#013882"
  />
<path
    d="M25.4729 89.5573H15.6903V104.889H17.8594V96.4589H23.9979V96.1531H17.8594V89.863C21.6553 89.863 23.6075 90.0814 25.4729 91.0861V89.5573Z"
    fill="#013882"
  />
<path
    d="M29.4167 105.217C31.0436 105.217 32.7571 104.3 33.9935 102.946V104.889H36.1626V95.76C36.1626 92.8989 34.102 91.8724 31.5858 91.8724C29.8939 91.8724 28.0068 92.331 26.4668 93.0518L26.9006 94.7335C28.2454 93.161 30.0675 92.1344 31.6509 92.1344C33.0391 92.1344 33.9935 92.9862 33.9935 94.799C29.5686 95.8255 25.3171 97.5728 25.3171 101.373C25.3171 103.644 26.8572 105.217 29.4167 105.217ZM30.2627 104.518C28.7226 104.518 27.4862 103.382 27.4862 101.045C27.4862 98.2717 29.1131 96.175 33.9935 95.1048V102.64C33.0391 103.688 31.5425 104.518 30.2627 104.518Z"
    fill="#013882"
  />
<path
    d="M41.026 104.889V98.7522C41.5466 94.9956 42.9348 92.6805 44.6701 92.6805C45.5377 92.6805 46.4921 93.4449 46.4921 95.7818V104.889H48.6612V98.2498C49.0516 94.5369 50.5049 92.746 52.1101 92.746C52.956 92.746 53.8887 93.5104 53.8887 95.7818V104.889H56.0578V96.0439C56.0578 93.3357 54.8648 91.8942 52.8476 91.8942C51.0689 91.8942 49.3553 93.4667 48.6829 96.6555H48.6395C48.6395 93.707 47.7502 91.8942 45.5594 91.8942C43.5421 91.8942 41.7201 94.0346 41.0911 97.4854H41.026V92.2655H38.8569V104.889H41.026Z"
    fill="#013882"
  />
<path
    d="M60.0044 90.9114C60.6768 90.9114 61.2191 90.3654 61.2191 89.6883C61.2191 89.0112 60.6768 88.4652 60.0044 88.4652C59.332 88.4652 58.7897 89.0112 58.7897 89.6883C58.7897 90.3654 59.332 90.9114 60.0044 90.9114ZM61.0889 104.889V92.2655H58.9198V104.889H61.0889Z"
    fill="#013882"
  />
<path d="M66.5818 104.889V89.5573H64.4127V104.889H66.5818Z" fill="#013882" />
<path
    d="M72.3159 110.219C76.9144 110.219 80.2114 107.205 80.2114 102.552V92.2655H78.0423V100.216C77.3916 103.055 75.6346 104.605 74.1813 104.605C72.7063 104.605 71.4482 103.077 71.4482 99.8442V92.2655H69.2791V99.3637C69.2791 102.967 71.3181 105.261 73.574 105.261C75.1574 105.261 77.0228 104.038 77.9772 101.373H78.0423V104.125C78.0423 107.467 76.4588 109.716 73.5523 109.716C72.4677 109.716 71.1229 109.279 69.5394 108.231L69.0839 109.76C70.2119 110.087 71.2964 110.219 72.3159 110.219Z"
    fill="#013882"
  />
<path
    d="M93.3842 89.5573H83.6016V104.889H85.7707V96.4589H91.9093V96.1531H85.7707V89.863C89.5666 89.863 91.5188 90.0814 93.3842 91.0861V89.5573Z"
    fill="#013882"
  />
<path
    d="M99.5516 105.261C103.239 105.261 105.582 102.618 105.582 98.6211C105.582 94.5806 103.239 91.8942 99.5516 91.8942C95.734 91.8942 93.4781 94.5806 93.4781 98.6211C93.4781 102.618 95.734 105.261 99.5516 105.261ZM99.5516 104.955C96.8402 104.955 95.5604 101.919 95.5604 98.6211C95.5604 95.4324 96.8402 92.2 99.5516 92.2C102.089 92.2 103.521 95.4324 103.521 98.6211C103.521 101.919 102.089 104.955 99.5516 104.955Z"
    fill="#013882"
  />
<path
    d="M109.615 104.889V99.4511C110.743 94.7772 112.956 92.3747 115.927 93.7943L116.231 92.2655C113.238 91.2608 110.786 93.9035 109.637 98.5775H109.615V92.2655H107.446V104.889H109.615Z"
    fill="#013882"
  />
<path
    d="M122.62 105.304C124.073 105.304 125.548 104.605 126.372 103.098L125.765 101.766C124.876 103.863 123.487 105.042 122.316 105.042C121.318 105.042 120.494 104.234 120.494 102.618V92.5713H123.813V92.2655H120.494L120.472 87.3732H120.19C120.19 89.317 119.691 91.0861 118.629 92.2655H117.023V92.5713H118.325V101.176C118.325 103.797 120.451 105.304 122.62 105.304Z"
    fill="#013882"
  />
<path
    d="M132.109 105.239C134.278 105.239 136.035 103.47 136.838 100.39H136.903V104.889H139.072V92.2655H136.903V98.7085C136.556 102.269 134.647 104.78 132.629 104.78C131.458 104.78 130.46 103.928 130.46 102.116V92.2655H128.291V101.439C128.291 104.016 130.092 105.239 132.109 105.239Z"
    fill="#013882"
  />
<path
    d="M150.007 91.8942C148.076 91.8942 145.647 93.3357 143.825 96.5026V92.2655H141.656V104.889H143.825V97.0486C145.257 94.3185 147.469 92.6149 149.031 92.6149C150.007 92.6149 150.723 93.3357 150.723 95.0174V104.889H152.892V95.0829C152.892 92.8552 151.504 91.8942 150.007 91.8942Z"
    fill="#013882"
  />
<path
    d="M159.181 105.217C160.808 105.217 162.522 104.3 163.758 102.946V104.889H165.927V95.76C165.927 92.8989 163.866 91.8724 161.35 91.8724C159.658 91.8724 157.771 92.331 156.231 93.0518L156.665 94.7335C158.01 93.161 159.832 92.1344 161.415 92.1344C162.804 92.1344 163.758 92.9862 163.758 94.799C159.333 95.8255 155.082 97.5728 155.082 101.373C155.082 103.644 156.622 105.217 159.181 105.217ZM160.027 104.518C158.487 104.518 157.251 103.382 157.251 101.045C157.251 98.2717 158.878 96.175 163.758 95.1048V102.64C162.804 103.688 161.307 104.518 160.027 104.518Z"
    fill="#013882"
  />
<path
    d="M173.31 105.304C174.763 105.304 176.238 104.605 177.062 103.098L176.455 101.766C175.566 103.863 174.177 105.042 173.006 105.042C172.008 105.042 171.184 104.234 171.184 102.618V92.5713H174.503V92.2655H171.184L171.162 87.3732H170.88C170.88 89.317 170.381 91.0861 169.319 92.2655H167.713V92.5713H169.015V101.176C169.015 103.797 171.141 105.304 173.31 105.304Z"
    fill="#013882"
  />
<path
    d="M184.001 105.195C185.693 105.195 187.493 104.605 189.141 103.295L188.686 101.766C187.016 103.907 185.302 104.911 183.805 104.911C181.398 104.911 179.532 102.531 179.446 98.6867H188.968C189.098 98.1406 189.163 97.6383 189.163 97.1578C189.163 93.6196 186.495 91.8942 183.697 91.8942C180.573 91.8942 177.276 94.0564 177.276 98.2935C177.276 102.487 180.378 105.195 184.001 105.195ZM179.446 98.3809C179.467 94.2967 181.68 92.2 183.719 92.2C185.541 92.2 187.211 93.7725 187.211 97.0049C187.211 97.4636 187.168 97.9004 187.081 98.3809H179.446Z"
    fill="#013882"
  />
<path
    d="M192.243 105.261C192.894 105.261 193.414 104.737 193.414 104.081C193.414 103.404 192.894 102.902 192.243 102.902C191.571 102.902 191.072 103.404 191.072 104.081C191.072 104.737 191.571 105.261 192.243 105.261Z"
    fill="#013882"
  />
<path
    d="M199.385 105.239C201.554 105.239 203.311 103.47 204.113 100.39H204.178V104.889H206.348V92.2655H204.178V98.7085C203.831 102.269 201.923 104.78 199.905 104.78C198.734 104.78 197.736 103.928 197.736 102.116V92.2655H195.567V101.439C195.567 104.016 197.368 105.239 199.385 105.239Z"
    fill="#013882"
  />
<path
    d="M213.36 105.239C216.115 105.239 218.913 104.278 219 101.723C219 97.7693 210.085 96.3497 210.085 94.122C210.085 92.9207 211.386 92.331 213.1 92.331C214.684 92.331 216.831 92.9862 218.371 93.9472L218.61 92.4184C217.286 92.0689 215.811 91.8942 214.423 91.8942C211.408 91.8942 208.567 92.7678 208.567 94.9301C208.567 98.1188 217.633 99.5603 217.633 102.684C217.547 103.928 216.137 104.715 214.271 104.715C212.927 104.715 211.104 104.322 209.152 102.902L208.784 104.431C210.128 104.933 211.777 105.239 213.36 105.239Z"
    fill="#013882"
  />
<path
    d="M23.6558 45.987C26.192 49.7183 28.3028 53.2079 29.9472 56.1097C34.0219 63.2934 36.182 68.4702 36.2039 68.5216L36.6836 69.6796L37.9251 69.616C43.9451 69.3109 49.8776 69.5002 55.5585 70.1804C66.3857 71.4769 76.6104 74.5037 86.6797 79.4024C57.5454 73.7722 28.3505 86.6829 28.3505 86.6829C17.6768 64.8386 4.09536 48.6118 4.09536 48.6118C10.6809 47.3713 17.2566 46.4872 23.6558 45.987Z"
    fill="#1F396D"
  />
<path
    d="M32.0575 32.9666C34.8199 40.0668 37.8532 48.4073 40.3024 56.5198L40.6351 57.6191L41.7643 57.7694C41.849 57.7807 50.4553 58.9607 61.0086 62.6032C69.4076 65.5025 80.5801 70.5245 89.0096 78.5677C71.2641 69.5964 54.151 67.0036 37.8378 67.8321C37.8378 67.8321 29.1319 46.8431 13.1357 29.9198C13.1357 29.9198 21.1778 30.7485 32.0575 32.9666Z"
    fill="#013882"
  />
<path
    d="M44.8385 22.4204C45.8447 29.4501 46.8024 37.3926 47.336 45.045L47.4067 46.0587L48.3513 46.4134C48.4316 46.4447 56.5699 49.5381 66.0657 55.4751C73.3002 59.9996 82.5813 66.9986 89.0249 76.1516C70.8962 59.858 41.997 55.9991 41.997 55.9991C35.7719 35.3851 25.9443 13.6193 25.9443 13.6193C31.3161 16.3154 38.0022 19.3432 44.8385 22.4204Z"
    fill="#C2B894"
  />
<path
    d="M48.8984 44.9331C48.8984 44.9331 81.7216 57.2793 93.9254 81.208L96.7579 58.9281C97.855 50.2946 93.3801 42.8008 87.6684 36.2779C80.3808 27.9577 56.2889 11.2979 42.6423 0.00419606C42.6423 0.00419606 47.3984 23.4365 48.8984 44.9331Z"
    fill="#EFDDBC"
  />
</svg>
