<svg xmlns="http://www.w3.org/2000/svg" fill="none" viewBox="0 0 152 96">
  <g clip-path="url(#a)">
    <g fill="#fff" filter="url(#b)">
      <path
        d="M6.164 21.741c-1.165 0-1.94.538-2.54 1.542V10.75h6.103c2.82 0 4.125.824 5.149 3.617h.283l-.883-4.047H-.008v.18c1.305.144 1.798 1.003 1.798 2.613v19.478c0 1.61-.493 2.47-1.798 2.613v.18h5.43v-.18c-1.304-.144-1.797-1.003-1.797-2.613v-8.879c.635-.824 1.374-1.147 2.15-1.147 1.694 0 3.317 1.325 5.08 1.325 1.27 0 2.081-.68 2.716-1.86l-.177-.11c-.635.824-1.374 1.148-2.15 1.148-1.694 0-3.317-1.327-5.08-1.327Zm12.736-.393c0-.821-.6-1.215-1.34-1.215.67-1.54 2.644-2.651 4.832-2.651 1.763 0 4.725.967 4.725 4.51 0 4.226-12.027 3.511-12.027 9.92 0 2.505 1.94 3.832 4.409 3.832 3.951 0 6.349-3.832 7.618-7.842v5.406c0 2.148 1.128 2.436 2.012 2.436.774 0 1.41-.468 1.798-.968l-.105-.107a1.535 1.535 0 0 1-.953.322c-.529 0-.989-.215-.989-1.469v-10.92c0-2.613-1.728-5.477-6.488-5.477-3.246 0-5.89 1.898-5.89 4.223a1.198 1.198 0 1 0 2.398 0Zm8.217 5.373c-1.234 4.188-3.844 8.555-7.23 8.555-1.765 0-2.893-1.36-2.893-3.508 0-5.55 7.549-5.047 10.123-8.484v3.437Z"
      />
      <path
        d="M32.233 32.592c0 1.61-.495 2.47-1.8 2.614v.179h5.363v-.18c-1.307-.143-1.8-1.003-1.8-2.613v-9.058c.319-2.865 2.681-5.944 5.784-5.944 2.046 0 3.6 1.145 3.6 4.618v10.384c0 1.61-.496 2.47-1.8 2.614v.179h5.36v-.18c-1.304-.143-1.798-1.003-1.798-2.613V24.18c0-3.045 2.47-6.589 5.819-6.589 2.046 0 3.6 1.145 3.6 4.618v11.1c0 2.148 1.128 2.436 2.009 2.436.777 0 1.411-.468 1.8-.968l-.107-.107a1.534 1.534 0 0 1-.951.322c-.53 0-.988-.215-.988-1.469V22.031c0-2.149-1.094-4.906-5.151-4.906-3.103 0-5.219 2.434-6.03 4.868 0-2.148-1.129-4.868-5.151-4.868-3.068 0-5.15 2.363-5.996 4.762v-4.583l-3.386 1.252v.18c1.235 0 1.623.429 1.623 1.682v12.174Z"
      />
      <path
        d="M59.14 11.574c0 .715.53 1.253 1.236 1.253.704 0 1.234-.538 1.234-1.253 0-.716-.53-1.254-1.234-1.254-.705 0-1.235.538-1.235 1.254Zm-1.092 6.98v.18c1.235 0 1.623.43 1.623 1.683V32.59c0 1.61-.495 2.47-1.8 2.613v.18h5.363v-.18c-1.307-.144-1.8-1.003-1.8-2.613V17.303l-3.386 1.252Z"
      />
      <path
        d="M63.161 8.101v.177c1.235 0 1.623.43 1.623 1.684V32.59c0 1.61-.495 2.47-1.8 2.613v.18h5.363v-.18c-1.307-.144-1.8-1.003-1.8-2.613V6.848L63.161 8.1Z"
      />
      <path
        d="M71.414 20.273c-.565-1.504-.388-2.47.916-2.613v-.18h-5.432v.18c1.342.18 2.047 1.11 2.612 2.613l5.925 15.649-1.235 3.293c-1.27 3.402-2.997 3.902-4.056 3.902-1.058 0-1.727-.465-2.046-1.074a1.215 1.215 0 0 0 1.165-1.218c0-.68-.53-1.216-1.2-1.216-.67 0-1.2.536-1.2 1.216 0 1.792 1.554 2.651 3.14 2.651 1.765 0 3.458-.86 4.797-4.37l7.126-18.833c.562-1.504 1.27-2.434 2.609-2.613v-.18h-4.09v.18c1.304.144.774 2.972.21 4.476l-4.269 11.279-4.972-13.142ZM42.97 55.743c-.96 0-1.599.442-2.092 1.268V46.69h5.024c2.323 0 3.4.68 4.242 2.979h.233l-.728-3.331H37.887v.146c1.074.119 1.481.826 1.481 2.152v16.041c0 1.326-.407 2.036-1.481 2.152v.148h4.473v-.148c-1.075-.116-1.482-.826-1.482-2.152v-7.312c.522-.678 1.132-.943 1.771-.943 1.395 0 2.73 1.09 4.183 1.09 1.046 0 1.714-.56 2.236-1.532l-.144-.09c-.524.678-1.134.945-1.773.945-1.393 0-2.73-1.09-4.181-1.09Zm8.87 3.863c0 4.628 2.993 7.665 7.552 7.665 4.562 0 7.553-3.037 7.553-7.665 0-4.63-2.991-7.666-7.552-7.666-4.56 0-7.553 3.036-7.553 7.666Zm1.57 0c0-4.453 2.38-7.373 5.983-7.373 3.601 0 5.984 2.92 5.984 7.373 0 4.451-2.383 7.371-5.984 7.371-3.602 0-5.983-2.92-5.983-7.37Zm16.466 5.071c0 1.326-.405 2.035-1.482 2.152v.148h4.416v-.148c-1.075-.117-1.481-.826-1.481-2.152v-4.335c0-4.363 2.005-7.96 4.444-7.96.495 0 .96.148 1.249.442a.996.996 0 0 0-.929 1.003.987.987 0 1 0 1.974 0c0-1.18-.842-1.887-2.177-1.887-2.209 0-3.805 2.033-4.561 5.602v-5.455l-2.789 1.03v.149c1.017 0 1.336.355 1.336 1.385v10.026ZM81.841 49.11h-.291c0 1.974-1.075 3.124-2.906 3.124v.354h1.745v11.795c0 2.004 1.132 2.888 2.585 2.888 1.306 0 2.41-.765 2.788-2.327l-.146-.032c-.493 1.475-1.654 1.74-2.178 1.74-.522 0-1.597-.205-1.597-1.915V52.588h4.067v-.354H81.84v-3.125Zm5.977 13.917c0 2.063.871 4.244 4.502 4.244 2.673 0 4.532-2.062 5.229-4.069v2.065c0 1.769.928 2.004 1.655 2.004.64 0 1.161-.381 1.482-.794l-.088-.09a1.251 1.251 0 0 1-.783.265c-.436 0-.814-.175-.814-1.208V52.088l-2.788 1.03v.148c1.015 0 1.336.355 1.336 1.385v6.812c0 2.507-2.15 5.427-5.112 5.427-1.802 0-3.166-.945-3.166-3.804V52.088l-2.79 1.03v.148c1.017 0 1.337.355 1.337 1.385v8.376Zm15.597 1.65c0 1.326-.405 2.035-1.481 2.152v.148h4.415v-.148c-1.075-.117-1.481-.826-1.481-2.152v-6.929c0-2.507 2.12-5.425 5.025-5.425 1.773 0 3.109.943 3.109 3.802v9.142c0 1.768.928 2.004 1.656 2.004.639 0 1.161-.382 1.481-.795l-.088-.09a1.252 1.252 0 0 1-.783.266c-.436 0-.814-.176-.814-1.208v-9.465c0-1.77-.959-4.04-4.444-4.04-2.644 0-4.444 2.034-5.142 4.04v-3.892l-2.789 1.03v.149c1.017 0 1.336.355 1.336 1.385v10.026Zm17.261-9.259c0-.678-.493-1.003-1.103-1.003.551-1.268 2.178-2.181 3.98-2.181 1.45 0 3.891.796 3.891 3.716 0 3.479-9.905 2.889-9.905 8.168 0 2.062 1.599 3.153 3.631 3.153 3.254 0 5.228-3.153 6.274-6.457v4.453c0 1.768.929 2.004 1.656 2.004.639 0 1.161-.382 1.482-.795l-.089-.09a1.243 1.243 0 0 1-.783.266c-.435 0-.813-.176-.813-1.208v-8.993c0-2.153-1.424-4.511-5.344-4.511-2.673 0-4.851 1.562-4.851 3.478a.987.987 0 1 0 1.974 0Zm6.768 4.424c-1.017 3.45-3.166 7.047-5.954 7.047-1.453 0-2.381-1.122-2.381-2.89 0-4.57 6.215-4.157 8.335-6.987v2.83Zm7.147-10.732h-.291c0 1.974-1.075 3.124-2.905 3.124v.354h1.744v11.795c0 2.004 1.132 2.888 2.585 2.888 1.306 0 2.41-.765 2.788-2.327l-.146-.032c-.493 1.475-1.654 1.74-2.178 1.74-.522 0-1.597-.205-1.597-1.915V52.588h4.067v-.354h-4.067v-3.125Zm17.458 14.328c-1.393 2.27-3.66 3.274-5.897 3.274-1.8 0-3.602-.974-4.59-3.097-.522-2.299.727-3.773 3.312-4.718l7.321-2.682c-.989-2.684-3.195-4.276-6.189-4.276-4.095 0-6.768 3.037-6.768 7.667 0 4.628 2.673 7.665 6.768 7.665 2.761 0 5.085-1.385 6.304-3.685l-.261-.148Zm-6.914-5.012c-2.496.913-3.949 2.035-3.949 4.127a11.165 11.165 0 0 1-.378-2.947c0-4.453 2.092-7.373 5.198-7.373 2.151 0 3.807 1.388 4.65 3.717.086.236-.031.442-.263.53l-5.258 1.946Z"
      />
    </g>
    <path
      fill="#fff"
      d="M55.967 78.047c-.368 0-.686-.188-.707-.597h-.756c.004.839.686 1.214 1.434 1.214.692 0 1.403-.298 1.403-1.107 0-1.31-1.956-.87-1.956-1.481 0-.259.294-.359.502-.359.374 0 .579.117.618.476h.721c-.024-.784-.651-1.097-1.348-1.097-.618 0-1.265.333-1.265 1.04 0 1.269 1.958.839 1.958 1.506 0 .309-.37.405-.604.405Zm5.461-2.212h.966v-.688h-2.68v.688h.967v2.749h.747v-2.75Zm6.108 1.025c0 .53-.473 1.016-.997 1.016-.522 0-.996-.486-.996-1.016 0-.532.474-1.011.996-1.011.524 0 .997.48.997 1.011Zm.745.004c0-.95-.805-1.768-1.742-1.768-.937 0-1.742.817-1.742 1.768 0 .951.805 1.769 1.742 1.769.937 0 1.742-.818 1.742-1.769Zm3.416.491h.004l.808 1.229h.947l-.972-1.264c.427-.107.773-.49.773-1.072 0-.651-.49-1.102-1.038-1.102h-1.27v3.438h.748v-1.229Zm.399-1.612c.22 0 .448.192.448.505 0 .33-.228.51-.448.51h-.399v-1.015h.399Zm4.546 2.841v-3.438h-.748v3.438h.748Zm4.761-.689H80.19v-.692h1.165v-.686H80.19v-.682h1.215v-.688H79.44v3.437h1.962v-.689Zm4.119.152c-.368 0-.687-.188-.707-.597h-.756c.004.839.686 1.214 1.434 1.214.692 0 1.403-.298 1.403-1.107 0-1.31-1.956-.87-1.956-1.481 0-.259.294-.359.501-.359.374 0 .58.117.619.476h.72c-.024-.784-.65-1.097-1.347-1.097-.618 0-1.266.333-1.266 1.04 0 1.269 1.959.839 1.959 1.506 0 .309-.37.405-.605.405Zm10.08-1.187c0 .53-.473 1.016-.996 1.016-.522 0-.997-.486-.997-1.016 0-.532.475-1.011.997-1.011.523 0 .996.48.996 1.011Zm.746.004c0-.95-.805-1.768-1.742-1.768-.937 0-1.743.817-1.743 1.768 0 .951.806 1.769 1.743 1.769s1.742-.818 1.742-1.769Zm4.584.339v-.686h-1.165v-.682h1.215v-.688h-1.963v3.437h.748v-1.381h1.165Zm8.09.067h-.856l.429-1.225.427 1.225Zm1.266 1.314-1.374-3.438h-.633l-1.375 3.438h.802l.244-.693h1.29l.245.693h.801Zm5.974 0h1.962v-.689h-1.214v-2.748h-.748v3.437Zm5.38 0v-3.438h-.747v3.438h.747Zm4.712-1.381v-.686h-1.165v-.682h1.215v-.688h-1.963v3.437h.748v-1.381h1.165Zm4.76.692H129.9v-.692h1.165v-.686H129.9v-.682h1.214v-.688h-1.962v3.437h1.962v-.689Zm4.24-2.06h.966v-.688h-2.679v.688h.965v2.749h.748v-2.75Zm4.238 2.749v-3.438h-.748v3.438h.748Zm7.019 0-.658-3.438h-.887l-.701 2.412-.709-2.412h-.885l-.658 3.438h.822l.399-2.372.661 2.372h.734l.661-2.372.399 2.372h.822Zm4.488-.689h-1.214v-.692h1.165v-.686h-1.165v-.682h1.214v-.688h-1.962v3.437h1.962v-.689Z"
    />
    <path
      fill="#21c0ad"
      d="M50.564 78.018c.304-.219.436-.48.397-.78-.163-.694-.794-.92-1.942-.61-2.5.708-4.194.886-5.02.577-2.103-.688-4.226-2.69-6.375-5.978-3.14-5.819-8.017-8.958-14.596-9.408.495-3.525.364-6.361-.334-8.461-.245-1.734-.08-3.37.423-4.925 1.214-4.3.587-7.948-1.913-10.953-6.42 1.81-10.195 4.91-11.212 9.293-.647 5.892 2.541 12.741 9.628 20.602C30.176 79.02 37.445 78.508 43.206 78.763c3.877.167 6.308-.088 7.358-.745Z"
    />
    <path
      fill="#fff"
      d="M16.846 63.322c-.639-.809-1.202-1.637-1.738-2.42-.966-3.11-1.048-6.627-.271-10.592.998-4.459 3.79-9.834 5.385-12.366.43-.152.894-.294 1.393-.43.078.128.197.23.275.357-.682.928-2.212 3.04-5.003 9.18-2.288 5.059-2.323 10.478-.04 16.271Zm26.509 15.102c-4.446-.194-9.753.063-16.82-5.243-2.735-3.391-3.822-7.223-3.201-11.446l.047-.207c6.51.436 11.319 3.558 14.427 9.37 2.114 3.278 4.237 5.28 6.306 5.96.86.317 2.52.133 4.986-.586 1.142-.273 1.782-.084 1.942.61.039.303-.093.562-.395.78-1.052.66-3.447.92-7.291.762Z"
    />
  </g>
  <defs>
    <clipPath id="a">
      <path fill="#fff" d="M0 0h152v96H0z" />
    </clipPath>
    <filter
      id="b"
      width="152.716"
      height="60.424"
      x="-.408"
      y="6.848"
      color-interpolation-filters="sRGB"
      filterUnits="userSpaceOnUse"
    >
      <feFlood flood-opacity="0" result="BackgroundImageFix" />
      <feColorMatrix
        in="SourceAlpha"
        result="hardAlpha"
        values="0 0 0 0 0 0 0 0 0 0 0 0 0 0 0 0 0 0 127 0"
      />
      <feOffset dx="-.4" />
      <feComposite in2="hardAlpha" operator="out" />
      <feColorMatrix values="0 0 0 0 0.121569 0 0 0 0 0.772549 0 0 0 0 0.690196 0 0 0 0.25 0" />
      <feBlend in2="BackgroundImageFix" result="effect1_dropShadow_1324_2487" />
      <feBlend in="SourceGraphic" in2="effect1_dropShadow_1324_2487" result="shape" />
    </filter>
  </defs>
</svg>
