<svg width="56" height="56" viewBox="0 0 56 56" fill="none" xmlns="http://www.w3.org/2000/svg">
<rect x="4" y="4" width="48" height="48" rx="24" fill="#E6E9ED" />
<path
    d="M34.6 22.6199C33.16 22.6199 31.8 23.1799 30.83 24.1499L23.8 30.3899C23.16 31.0299 22.31 31.3799 21.4 31.3799C19.53 31.3799 18 29.8699 18 27.9999C18 26.1299 19.53 24.6199 21.4 24.6199C22.31 24.6199 23.16 24.9699 23.84 25.6499L24.97 26.6499L26.5 25.3099L25.22 24.1999C24.7192 23.6972 24.1238 23.2988 23.4681 23.0276C22.8125 22.7564 22.1095 22.6178 21.4 22.6199C18.42 22.6199 16 25.0399 16 27.9999C16 30.9599 18.42 33.3799 21.4 33.3799C22.84 33.3799 24.2 32.8199 25.17 31.8499L32.2 25.6099C32.84 24.9699 33.69 24.6199 34.6 24.6199C36.47 24.6199 38 26.1299 38 27.9999C38 29.8699 36.47 31.3799 34.6 31.3799C33.7 31.3799 32.84 31.0299 32.16 30.3499L31 29.3399L29.5 30.6799L30.78 31.7999C31.2821 32.3 31.878 32.6962 32.5335 32.9656C33.189 33.235 33.8913 33.3724 34.6 33.3699C37.58 33.3699 40 30.9599 40 27.9999C40 24.9999 37.58 22.6199 34.6 22.6199Z"
    fill="#3F5F78"
  />
<rect x="4" y="4" width="48" height="48" rx="24" stroke="#F5F6F8" stroke-width="8" />
</svg>
