<svg
  xmlns="http://www.w3.org/2000/svg"
  xmlns:xlink="http://www.w3.org/1999/xlink"
  width="1000"
  zoomAndPan="magnify"
  viewBox="0 0 750 337.499995"
  height="450"
  preserveAspectRatio="xMidYMid meet"
  version="1.0"
><defs><g /><clipPath id="b18ade795c"><path
        d="M 42 230 L 163 230 L 163 289 L 42 289 Z M 42 230 "
        clip-rule="nonzero"
      /></clipPath><clipPath id="d6147ecfd4"><path
        d="M 48.214844 160.710938 L 181.296875 171.285156 L 171.429688 295.476562 L 38.347656 284.902344 Z M 48.214844 160.710938 "
        clip-rule="nonzero"
      /></clipPath><clipPath id="4b5720f978"><path
        d="M 181.378906 171.289062 L 48.292969 160.714844 L 38.425781 284.910156 L 171.511719 295.484375 Z M 181.378906 171.289062 "
        clip-rule="nonzero"
      /></clipPath><clipPath id="97344933db"><path
        d="M 165.132812 238.085938 L 42.753906 228.363281 L 38.25 285.066406 L 160.625 294.789062 Z M 165.132812 238.085938 "
        clip-rule="nonzero"
      /></clipPath><clipPath id="ad559f23be"><path
        d="M 165.132812 238.085938 L 42.9375 228.378906 L 38.449219 284.902344 L 160.640625 294.613281 Z M 165.132812 238.085938 "
        clip-rule="nonzero"
      /></clipPath><clipPath id="5552185cb2"><path
        d="M 54 208 L 166 208 L 166 274 L 54 274 Z M 54 208 "
        clip-rule="nonzero"
      /></clipPath><clipPath id="e278e91a70"><path
        d="M 48.214844 160.710938 L 181.296875 171.285156 L 171.429688 295.476562 L 38.347656 284.902344 Z M 48.214844 160.710938 "
        clip-rule="nonzero"
      /></clipPath><clipPath id="f40a6e9a7f"><path
        d="M 181.378906 171.289062 L 48.292969 160.714844 L 38.425781 284.910156 L 171.511719 295.484375 Z M 181.378906 171.289062 "
        clip-rule="nonzero"
      /></clipPath><clipPath id="0599e64090"><path
        d="M 71 184 L 166 184 L 166 270 L 71 270 Z M 71 184 "
        clip-rule="nonzero"
      /></clipPath><clipPath id="65e48f221e"><path
        d="M 48.214844 160.710938 L 181.296875 171.285156 L 171.429688 295.476562 L 38.347656 284.902344 Z M 48.214844 160.710938 "
        clip-rule="nonzero"
      /></clipPath><clipPath id="283b9a2047"><path
        d="M 181.378906 171.289062 L 48.292969 160.714844 L 38.425781 284.910156 L 171.511719 295.484375 Z M 181.378906 171.289062 "
        clip-rule="nonzero"
      /></clipPath><clipPath id="a963174eef"><path
        d="M 94 164 L 176 164 L 176 277 L 94 277 Z M 94 164 "
        clip-rule="nonzero"
      /></clipPath><clipPath id="504ba605ad"><path
        d="M 48.214844 160.710938 L 181.296875 171.285156 L 171.429688 295.476562 L 38.347656 284.902344 Z M 48.214844 160.710938 "
        clip-rule="nonzero"
      /></clipPath><clipPath id="1667f1c3e3"><path
        d="M 181.378906 171.289062 L 48.292969 160.714844 L 38.425781 284.910156 L 171.511719 295.484375 Z M 181.378906 171.289062 "
        clip-rule="nonzero"
      /></clipPath><clipPath id="0639f79b3f"><path
        d="M 190 229 L 311 229 L 311 288 L 190 288 Z M 190 229 "
        clip-rule="nonzero"
      /></clipPath><clipPath id="068427ec43"><path
        d="M 171.035156 171.054688 L 304.066406 159.78125 L 314.585938 283.921875 L 181.558594 295.195312 Z M 171.035156 171.054688 "
        clip-rule="nonzero"
      /></clipPath><clipPath id="49911b58cc"><path
        d="M 171.035156 171.054688 L 304.066406 159.78125 L 314.585938 283.921875 L 181.558594 295.195312 Z M 171.035156 171.054688 "
        clip-rule="nonzero"
      /></clipPath><clipPath id="676423ffa2"><path
        d="M 187.636719 237.765625 L 309.960938 227.398438 L 314.765625 284.074219 L 192.441406 294.445312 Z M 187.636719 237.765625 "
        clip-rule="nonzero"
      /></clipPath><clipPath id="c73177cdb1"><path
        d="M 187.636719 237.765625 L 309.777344 227.414062 L 314.566406 283.914062 L 192.425781 294.265625 Z M 187.636719 237.765625 "
        clip-rule="nonzero"
      /></clipPath><clipPath id="adafcf8ba1"><path
        d="M 187 207 L 299 207 L 299 273 L 187 273 Z M 187 207 "
        clip-rule="nonzero"
      /></clipPath><clipPath id="10f2ada61b"><path
        d="M 171.035156 171.054688 L 304.066406 159.78125 L 314.585938 283.921875 L 181.558594 295.195312 Z M 171.035156 171.054688 "
        clip-rule="nonzero"
      /></clipPath><clipPath id="9ca37247c0"><path
        d="M 171.035156 171.054688 L 304.066406 159.78125 L 314.585938 283.921875 L 181.558594 295.195312 Z M 171.035156 171.054688 "
        clip-rule="nonzero"
      /></clipPath><clipPath id="a13211bb28"><path
        d="M 187 183 L 281 183 L 281 270 L 187 270 Z M 187 183 "
        clip-rule="nonzero"
      /></clipPath><clipPath id="1819350479"><path
        d="M 171.035156 171.054688 L 304.066406 159.78125 L 314.585938 283.921875 L 181.558594 295.195312 Z M 171.035156 171.054688 "
        clip-rule="nonzero"
      /></clipPath><clipPath id="0d78a35688"><path
        d="M 171.035156 171.054688 L 304.066406 159.78125 L 314.585938 283.921875 L 181.558594 295.195312 Z M 171.035156 171.054688 "
        clip-rule="nonzero"
      /></clipPath><clipPath id="a3faf3ed38"><path
        d="M 177 163 L 258 163 L 258 277 L 177 277 Z M 177 163 "
        clip-rule="nonzero"
      /></clipPath><clipPath id="c5c1aa53e3"><path
        d="M 171.035156 171.054688 L 304.066406 159.78125 L 314.585938 283.921875 L 181.558594 295.195312 Z M 171.035156 171.054688 "
        clip-rule="nonzero"
      /></clipPath><clipPath id="668d011f57"><path
        d="M 171.035156 171.054688 L 304.066406 159.78125 L 314.585938 283.921875 L 181.558594 295.195312 Z M 171.035156 171.054688 "
        clip-rule="nonzero"
      /></clipPath></defs><g fill="#ffffff" fill-opacity="1"><g
      transform="translate(13.916284, 136.771279)"
    ><g><path
          d="M 40.507812 -51 L 40.507812 -68.195312 C 40.507812 -68.195312 37.519531 -60.835938 22.949219 -60.835938 L 13.769531 -60.835938 L 13.769531 -94.859375 C 13.769531 -97.992188 14.132812 -100.179688 14.644531 -101.5625 L 32.492188 -101.5625 C 66.589844 -101.5625 70.597656 -90.5625 70.597656 -90.5625 L 67.609375 -104.476562 L 1.820312 -104.476562 C 1.820312 -104.476562 4.882812 -103.457031 4.882812 -94.785156 L 4.882812 -10.199219 C 4.882812 -1.53125 1.820312 -0.0742188 1.820312 -0.0742188 L 16.757812 -0.0742188 C 16.757812 -0.0742188 13.769531 -1.53125 13.769531 -10.199219 L 13.769531 -58.359375 L 22.949219 -58.359375 C 37.519531 -58.359375 40.507812 -51 40.507812 -51 Z M 40.507812 -51 "
        /></g></g></g><g fill="#ffffff" fill-opacity="1"><g
      transform="translate(91.508863, 136.771279)"
    ><g><path
          d="M 61.417969 -32.421875 C 61.417969 -17.777344 51.65625 -4.152344 34.097656 -4.152344 C 20.035156 -4.152344 11.074219 -11.21875 11.074219 -25.28125 C 11.074219 -53.257812 57.921875 -47.792969 60.980469 -56.171875 C 54.789062 -47.648438 1.820312 -57.628906 1.820312 -22.511719 C 1.820312 -14.570312 8.304688 0 32.203125 0 C 48.59375 0 57.121094 -9.691406 61.417969 -19.453125 L 61.417969 -9.691406 C 61.417969 -0.875 67.027344 0 73.292969 0 C 73.292969 0 70.308594 -0.945312 70.308594 -9.617188 L 70.308594 -52.238281 C 70.378906 -65.570312 66.589844 -78.03125 42.109375 -78.03125 C 28.777344 -78.03125 15.371094 -73.367188 8.742188 -59.449219 L 16.539062 -54.277344 C 19.527344 -67.101562 29.359375 -75.625 42.039062 -75.625 C 59.378906 -75.625 61.417969 -63.96875 61.417969 -52.164062 Z M 61.417969 -32.421875 "
        /></g></g></g><g fill="#ffffff" fill-opacity="1"><g
      transform="translate(171.797144, 136.771279)"
    ><g><path
          d="M 13.769531 -77.957031 L 1.894531 -73.367188 C 1.894531 -73.367188 4.882812 -71.910156 4.882812 -63.167969 L 4.882812 -9.691406 C 4.882812 -1.019531 1.820312 0 1.820312 0 C 9.691406 0 13.769531 -1.53125 13.769531 -8.597656 Z M 87.355469 0 L 102.289062 0 C 102.289062 0 99.304688 -0.945312 99.304688 -9.617188 L 99.230469 -58.796875 C 99.230469 -81.527344 58.359375 -87.863281 57.046875 -56.171875 C 61.636719 -78.757812 90.414062 -80.726562 90.414062 -59.523438 C 90.414062 -13.113281 90.414062 -9.691406 90.414062 -9.691406 C 90.414062 -1.019531 87.355469 0 87.355469 0 Z M 44.589844 0 L 59.523438 0 C 59.523438 0 56.464844 -0.945312 56.464844 -9.617188 L 56.464844 -58.796875 C 56.464844 -81.527344 15.519531 -87.863281 14.28125 -56.171875 C 18.871094 -78.757812 47.648438 -80.726562 47.648438 -59.523438 C 47.648438 -13.113281 47.648438 -9.691406 47.648438 -9.691406 C 47.648438 -1.019531 44.589844 0 44.589844 0 Z M 44.589844 0 "
        /></g></g></g><g fill="#ffffff" fill-opacity="1"><g
      transform="translate(281.082457, 136.771279)"
    ><g><path
          d="M 9.179688 -97.773438 C 5.171875 -97.773438 1.820312 -94.421875 1.820312 -90.34375 C 1.820312 -86.335938 5.171875 -83.058594 9.179688 -83.058594 C 13.261719 -83.058594 16.539062 -86.335938 16.539062 -90.34375 C 16.539062 -94.421875 13.261719 -97.773438 9.179688 -97.773438 Z M 2.550781 0 L 17.484375 0 C 17.484375 0 14.5 -0.945312 14.5 -9.617188 L 14.425781 -78.03125 L 2.550781 -73.441406 C 2.550781 -73.441406 5.609375 -71.984375 5.609375 -63.3125 L 5.609375 -9.691406 C 5.609375 -1.019531 2.550781 0 2.550781 0 Z M 2.550781 0 "
        /></g></g></g><g fill="#ffffff" fill-opacity="1"><g
      transform="translate(305.562352, 136.771279)"
    ><g><path
          d="M 4.882812 -96.679688 L 4.882812 -9.691406 C 4.882812 -1.019531 1.820312 0 1.820312 0 L 16.757812 0 C 16.757812 0 13.769531 -0.945312 13.769531 -9.617188 L 13.695312 -111.472656 L 1.820312 -106.878906 C 1.820312 -106.878906 4.882812 -105.351562 4.882812 -96.679688 Z M 4.882812 -96.679688 "
        /></g></g></g><g fill="#ffffff" fill-opacity="1"><g
      transform="translate(329.313687, 136.771279)"
    ><g><path
          d="M 13.769531 -22.074219 C 13.769531 -68.414062 13.769531 -78.101562 13.769531 -78.101562 L 1.820312 -73.441406 C 1.820312 -73.441406 4.882812 -72.492188 4.882812 -63.824219 L 4.882812 -20.398438 C 4.882812 3.351562 50.925781 10.636719 55.734375 -21.929688 C 48.449219 3.496094 13.769531 3.277344 13.769531 -22.074219 Z M 65.0625 -78.03125 L 53.183594 -73.441406 C 53.183594 -73.441406 56.171875 -71.984375 56.246094 -63.457031 L 56.246094 -7.578125 C 56.246094 3.351562 56.464844 24.988281 34.316406 24.988281 C 12.167969 24.988281 7.722656 6.484375 7.722656 6.484375 C 7.722656 16.246094 17.046875 29.144531 34.167969 29.144531 C 64.40625 29.144531 65.132812 7.941406 65.132812 -7.503906 Z M 65.0625 -78.03125 "
        /></g></g></g><g fill="#ffffff" fill-opacity="1"><g
      transform="translate(401.442002, 136.771279)"
    ><g><path
          d="M 71.617188 -66.152344 L 97.480469 -0.0742188 L 134.421875 -94.277344 C 137.773438 -102.945312 141.414062 -104.476562 141.414062 -104.476562 L 133.691406 -104.476562 C 133.691406 -104.476562 136.097656 -102.945312 132.746094 -94.277344 L 101.125 -13.476562 L 69.503906 -94.277344 C 66.082031 -102.945312 68.558594 -104.476562 68.558594 -104.476562 L 53.621094 -104.476562 C 53.621094 -104.476562 57.191406 -102.945312 60.617188 -94.277344 L 70.816406 -68.265625 L 49.324219 -13.476562 L 17.703125 -94.277344 C 14.351562 -102.945312 16.757812 -104.476562 16.757812 -104.476562 L 1.820312 -104.476562 C 1.820312 -104.476562 5.464844 -102.945312 8.886719 -94.277344 L 45.753906 -0.0742188 Z M 71.617188 -66.152344 "
        /></g></g></g><g fill="#ffffff" fill-opacity="1"><g
      transform="translate(549.851477, 136.771279)"
    ><g><path
          d="M 9.179688 -97.773438 C 5.171875 -97.773438 1.820312 -94.421875 1.820312 -90.34375 C 1.820312 -86.335938 5.171875 -83.058594 9.179688 -83.058594 C 13.261719 -83.058594 16.539062 -86.335938 16.539062 -90.34375 C 16.539062 -94.421875 13.261719 -97.773438 9.179688 -97.773438 Z M 2.550781 0 L 17.484375 0 C 17.484375 0 14.5 -0.945312 14.5 -9.617188 L 14.425781 -78.03125 L 2.550781 -73.441406 C 2.550781 -73.441406 5.609375 -71.984375 5.609375 -63.3125 L 5.609375 -9.691406 C 5.609375 -1.019531 2.550781 0 2.550781 0 Z M 2.550781 0 "
        /></g></g></g><g fill="#ffffff" fill-opacity="1"><g
      transform="translate(574.331373, 136.771279)"
    ><g><path
          d="M 60.617188 -20.617188 C 60.617188 -14.71875 56.972656 -1.894531 36.71875 -1.894531 C 14.9375 -1.894531 9.253906 -17.046875 8.015625 -20.472656 L 1.820312 -12.96875 C 4.078125 -9.980469 11.148438 0 36.574219 0 C 62.074219 0 72.199219 -9.324219 72.199219 -22.148438 C 72.199219 -49.179688 15.082031 -36.648438 15.082031 -58.359375 C 15.082031 -69.871094 25.207031 -75.84375 35.261719 -75.84375 C 61.855469 -75.84375 62.21875 -59.449219 62.21875 -59.449219 L 65.0625 -71.398438 C 65.0625 -71.398438 54.714844 -77.882812 36.355469 -77.882812 C 7.066406 -77.882812 5.828125 -61.34375 5.828125 -58.285156 C 5.828125 -28.558594 60.617188 -42.257812 60.617188 -20.617188 Z M 60.617188 -20.617188 "
        /></g></g></g><g fill="#ffffff" fill-opacity="1"><g
      transform="translate(653.526823, 136.771279)"
    ><g><path
          d="M 11 -40.726562 L 11 -41.675781 L 75.625 -41.675781 C 75.625 -67.902344 60.617188 -77.957031 40 -77.957031 C 19.308594 -77.957031 1.820312 -61.855469 1.820312 -40.363281 C 1.820312 -18.871094 17.777344 0.0742188 42.765625 0.0742188 C 59.085938 0.0742188 72.054688 -10.855469 73.292969 -22.441406 C 68.265625 1.164062 11.511719 6.121094 11 -40.726562 Z M 40 -74.605469 C 59.015625 -74.605469 67.320312 -61.34375 67.320312 -43.933594 L 11.074219 -43.933594 C 12.3125 -61.78125 25.207031 -74.605469 40 -74.605469 Z M 40 -74.605469 "
        /></g></g></g><g fill="#ffffff" fill-opacity="1"><g
      transform="translate(370.233984, 271.518687)"
    ><g><path
          d="M 70.410156 -29.433594 C 68.488281 -31.691406 65.996094 -33.53125 63.53125 -35.128906 C 56.777344 -39.496094 48.945312 -41.074219 41.046875 -42.039062 C 36.980469 -42.507812 32.921875 -42.859375 29.238281 -43.121094 C 26.664062 -43.246094 24.210938 -43.382812 21.640625 -43.503906 L 19.308594 -43.652344 C 18.570312 -43.703125 17.339844 -43.832031 16.910156 -44.523438 C 16.464844 -45.335938 16.882812 -46.105469 17.527344 -47.019531 C 18.183594 -47.8125 18.960938 -48.621094 19.621094 -49.414062 C 20.082031 -49.699219 20.410156 -50.097656 20.738281 -50.492188 C 22.5 -52.488281 24.398438 -54.375 26.304688 -56.140625 C 30 -59.660156 34.078125 -62.96875 38.144531 -66.402344 C 49.789062 -76.15625 62.515625 -84.796875 75.847656 -92.148438 C 80.71875 -94.800781 86.078125 -97.503906 92.726562 -98.128906 C 93.332031 -98.183594 94.054688 -98.253906 94.78125 -98.320312 C 97.707031 -98.351562 99.707031 -97.808594 100.921875 -96.582031 C 102.242188 -95.488281 102.777344 -93.707031 102.652344 -91.132812 C 102.308594 -85.734375 100.300781 -81.15625 98.671875 -77.710938 C 96.507812 -73.480469 94.226562 -69.242188 92.0625 -65.011719 L 88.75 -58.726562 C 88.140625 -57.449219 87.722656 -56.675781 89.035156 -55.703125 C 89.554688 -55.386719 89.796875 -55.410156 89.796875 -55.410156 C 90.15625 -55.441406 90.476562 -55.960938 90.925781 -56.367188 C 97.605469 -64.4375 105.351562 -75.410156 106.152344 -90.246094 C 106.339844 -93.433594 105.339844 -96.265625 103.335938 -98.152344 C 100.941406 -100.242188 97.433594 -101.253906 93.191406 -100.976562 L 92.222656 -100.886719 C 88.355469 -100.523438 84.554688 -99.433594 80.21875 -97.558594 C 57.164062 -87.21875 35.726562 -72.640625 14.902344 -52.871094 C 13.675781 -51.660156 12.691406 -50.46875 11.96875 -49.058594 C 10.613281 -46.613281 10.46875 -44.28125 11.726562 -42.570312 C 12.972656 -40.980469 15.273438 -39.855469 18.34375 -39.65625 C 22.53125 -39.199219 26.675781 -39.222656 30.820312 -39.246094 C 33.867188 -39.289062 36.921875 -39.210938 39.980469 -39.132812 C 49.292969 -38.667969 58.410156 -37.695312 67.082031 -31.074219 C 70.753906 -28.371094 72.550781 -26.097656 72.734375 -24.164062 C 73.046875 -22.121094 71.746094 -20.414062 68.726562 -18.789062 C 50.894531 -8.695312 34.707031 3.320312 20.855469 16.820312 C 15.375 22.09375 10.226562 28.308594 9.605469 37.269531 C 9.214844 42.1875 10.84375 46.546875 14.054688 49.535156 C 17.261719 52.527344 22.039062 54.03125 27.5 53.757812 C 27.863281 53.726562 28.832031 53.632812 28.832031 53.632812 C 34.996094 53.054688 40.640625 50.816406 46.003906 46.894531 C 48.285156 45.214844 50.554688 43.417969 52.703125 41.628906 C 58.253906 37.082031 63.492188 31.832031 67.695312 25.949219 C 72.214844 19.546875 75.433594 12.292969 77.023438 4.582031 C 77.835938 0.234375 78.152344 -4.183594 77.984375 -8.558594 C 77.96875 -10.023438 77.820312 -11.59375 77.550781 -13.152344 C 76.628906 -19.042969 74.238281 -25.039062 70.410156 -29.433594 Z M 74.765625 -18.136719 C 75.148438 -17.929688 75.425781 -17.589844 75.59375 -17.117188 C 76.210938 -15.710938 76.480469 -14.152344 76.605469 -12.820312 C 76.964844 -10.292969 76.84375 -7.722656 76.390625 -4.75 C 75.84375 -0.1875 74.261719 3.742188 72.964844 6.792969 C 64.191406 27.621094 50.714844 41.207031 31.980469 48.214844 C 30.5625 48.714844 29.015625 49.105469 27.441406 49.25 C 26.960938 49.296875 26.476562 49.34375 25.992188 49.386719 C 22.332031 49.367188 19.4375 48.417969 17.441406 46.65625 C 15.433594 44.773438 14.570312 42.046875 14.734375 38.617188 C 14.925781 32.867188 17.128906 27.78125 21.628906 22.480469 C 26.242188 17.042969 31.699219 11.53125 37.5625 6.464844 C 42.980469 1.808594 48.769531 -2.761719 55.296875 -7.277344 C 58.378906 -9.519531 61.605469 -11.53125 64.699219 -13.652344 C 66.3125 -14.65625 67.921875 -15.664062 69.535156 -16.667969 L 70.117188 -16.96875 C 70.917969 -17.53125 72.179688 -18.378906 73.390625 -18.496094 C 73.871094 -18.539062 74.367188 -18.464844 74.765625 -18.136719 Z M 74.765625 -18.136719 "
        /></g></g></g><g fill="#ffffff" fill-opacity="1"><g
      transform="translate(467.915864, 262.324264)"
    ><g><path
          d="M 64.046875 -65.914062 C 63.519531 -66.351562 62.550781 -66.261719 61.585938 -66.167969 C 61.332031 -66.265625 60.96875 -66.234375 60.726562 -66.210938 C 49.730469 -66.394531 40.246094 -66.113281 31.542969 -65.292969 L 20.902344 -64.292969 L 21.085938 -64.917969 C 23.519531 -71.488281 26.789062 -76.917969 29.839844 -82.085938 C 30.898438 -83.769531 31.839844 -85.445312 32.890625 -87.25 C 33.828125 -88.925781 34.332031 -90.070312 32.636719 -91.253906 C 32.105469 -91.691406 31.597656 -91.886719 31.117188 -91.839844 C 30.390625 -91.773438 29.976562 -91 29.425781 -90.339844 C 29.328125 -90.085938 29.230469 -89.835938 29 -89.691406 C 23.691406 -82.605469 19.722656 -75.523438 16.890625 -68.058594 C 15.636719 -64.527344 13.042969 -63.550781 9.550781 -63.101562 C 6.042969 -62.769531 2.550781 -62.320312 -0.957031 -61.988281 C -4.703125 -61.636719 -8.464844 -61.40625 -12.210938 -61.050781 C -15.957031 -60.699219 -19.71875 -60.46875 -23.464844 -60.113281 C -30.476562 -59.457031 -39.652344 -58.46875 -48.640625 -56.769531 L -49.003906 -56.734375 C -49.003906 -56.734375 -50.332031 -56.609375 -50.574219 -56.585938 C -51.664062 -56.484375 -51.882812 -56.222656 -51.683594 -55.386719 C -51.394531 -54.925781 -51.238281 -54.574219 -50.84375 -54.246094 C -50.457031 -54.039062 -49.960938 -53.960938 -49.480469 -54.007812 C -48.875 -54.066406 -48.28125 -54.242188 -47.6875 -54.421875 C -43.085938 -56.074219 -37.898438 -56.683594 -32.941406 -57.148438 C -31.007812 -57.332031 -28.953125 -57.523438 -27.03125 -57.828125 C -22.460938 -58.503906 -17.382812 -58.980469 -11.214844 -59.5625 C -7.46875 -59.914062 -3.722656 -60.265625 0.148438 -60.628906 C 3.773438 -60.972656 7.535156 -61.203125 11.160156 -61.542969 L 11.402344 -61.566406 L 11.546875 -61.335938 C 13.199219 -59.296875 12.796875 -58.40625 12.515625 -57.527344 C 11.433594 -54.742188 10.367188 -51.835938 9.296875 -48.929688 C 6.933594 -42.972656 4.589844 -36.777344 2.617188 -30.492188 L 2.160156 -28.863281 C -3.824219 -9.519531 -9.871094 10.441406 -9.757812 32.386719 L -9.777344 33.484375 C -9.722656 36.652344 -9.765625 40.070312 -8.347656 43.472656 C -6.941406 46.757812 -4.617188 48.121094 -1.113281 47.792969 L -0.992188 47.78125 C -0.265625 47.714844 0.558594 47.390625 0.203125 46.207031 C 0.15625 45.722656 -0.117188 45.382812 -0.394531 45.042969 C -0.648438 44.945312 -0.902344 44.847656 -1.15625 44.746094 C -2.738281 44.773438 -3.75 44.382812 -4.542969 43.726562 C -5.613281 42.726562 -5.738281 41.398438 -5.863281 40.070312 C -5.898438 39.707031 -5.921875 39.464844 -5.953125 39.101562 C -6.816406 31.253906 -6.488281 23.050781 -5.070312 13.527344 C -1.253906 -10.738281 7.644531 -32.796875 16.242188 -54.21875 L 17.910156 -58.519531 C 18.804688 -60.679688 20.460938 -61.199219 23 -61.441406 C 23 -61.441406 23 -61.441406 23.121094 -61.449219 C 25.175781 -61.644531 27.351562 -61.847656 29.40625 -62.042969 L 35.574219 -62.625 C 43.792969 -63.398438 52.390625 -64.085938 61.449219 -63.71875 L 61.933594 -63.761719 C 62.425781 -63.6875 63.042969 -63.625 63.527344 -63.667969 C 64.734375 -63.78125 64.8125 -64.277344 64.644531 -64.75 C 64.597656 -65.234375 64.433594 -65.707031 64.046875 -65.914062 Z M 64.046875 -65.914062 "
        /></g></g></g><g fill="#ffffff" fill-opacity="1"><g
      transform="translate(494.875116, 259.786692)"
    ><g><path
          d="M 41.558594 -23.667969 C 41.316406 -23.648438 41.074219 -23.625 40.953125 -23.613281 C 39.742188 -23.5 38.8125 -23.046875 37.890625 -22.472656 C 37.078125 -22.027344 36.386719 -21.597656 35.429688 -21.386719 C 33.519531 -20.960938 31.484375 -20.527344 29.066406 -20.300781 C 28.101562 -20.207031 27.121094 -20.238281 26.035156 -20.136719 C 24.332031 -20.097656 23.207031 -20.355469 22.535156 -21.027344 C 21.875 -21.574219 21.664062 -22.527344 21.898438 -23.894531 C 22.277344 -26.367188 22.039062 -28.90625 21.0625 -31.496094 C 19.921875 -34.5625 18.296875 -36.238281 15.898438 -37.109375 C 14.765625 -37.492188 13.777344 -37.640625 12.929688 -37.5625 C 11.480469 -37.425781 10.207031 -36.695312 9.097656 -35.496094 C 7.652344 -34.015625 6.339844 -32.429688 5.144531 -30.855469 C -0.199219 -24.128906 -2.777344 -16.570312 -2.609375 -8.292969 C -2.433594 -5.136719 -2.128906 -1.875 1.328125 -0.125 C 2.496094 0.617188 3.742188 0.867188 4.949219 0.753906 C 6.761719 0.582031 8.484375 -0.554688 9.613281 -1.515625 C 14.386719 -5.257812 17.734375 -9.839844 19.554688 -15.132812 C 20.4375 -17.414062 21.554688 -18.492188 23.488281 -18.675781 C 24.214844 -18.746094 25.070312 -18.703125 26.0625 -18.550781 C 28.042969 -18.25 30 -18.191406 31.8125 -18.363281 C 33.988281 -18.566406 36.007812 -19.121094 38.128906 -19.933594 C 39.304688 -20.410156 42.9375 -21.96875 42.558594 -23.398438 C 42.558594 -23.398438 42.292969 -23.617188 41.558594 -23.667969 Z M 16.535156 -19.972656 C 16.570312 -19.609375 16.605469 -19.246094 16.519531 -18.875 C 14.832031 -13.46875 12.183594 -6.636719 5.5 -2.46875 C 4.929688 -2.050781 4.335938 -1.871094 3.730469 -1.816406 C 3.007812 -1.746094 2.378906 -1.929688 1.851562 -2.371094 C 1.1875 -2.917969 0.722656 -3.972656 0.597656 -5.300781 C -0.0078125 -13.050781 2.566406 -19.390625 6.785156 -26.375 C 7.09375 -27.011719 7.433594 -27.289062 7.917969 -27.332031 C 8.761719 -27.414062 9.566406 -26.636719 10.238281 -25.964844 C 10.636719 -25.636719 10.902344 -25.417969 11.167969 -25.199219 C 12.464844 -24.347656 13.789062 -23.25 14.980469 -22.265625 C 15.375 -21.9375 15.90625 -21.5 16.578125 -20.832031 C 16.492188 -20.457031 16.515625 -20.214844 16.535156 -19.972656 Z M 17.167969 -24.910156 C 17.09375 -24.417969 17.019531 -23.921875 16.953125 -23.304688 L 16.890625 -22.691406 L 16.363281 -23.128906 C 15.832031 -23.566406 15.316406 -23.882812 14.664062 -24.308594 C 12.714844 -25.589844 10.765625 -26.871094 11.371094 -29.488281 C 11.546875 -30.234375 12.640625 -31.558594 13.851562 -31.671875 C 14.332031 -31.71875 14.828125 -31.644531 15.226562 -31.3125 C 17.726562 -29.355469 17.449219 -27.132812 17.167969 -24.910156 Z M 17.167969 -24.910156 "
        /></g></g></g><g fill="#ffffff" fill-opacity="1"><g
      transform="translate(542.023566, 255.348788)"
    ><g><path
          d="M 50.945312 -23.699219 C 50.582031 -23.664062 50.242188 -23.390625 49.769531 -23.222656 C 49.539062 -23.078125 49.1875 -22.925781 48.957031 -22.78125 C 48.246094 -22.59375 47.53125 -22.402344 46.804688 -22.335938 C 42.332031 -21.914062 37.378906 -24.007812 33.605469 -27.800781 C 30.230469 -31.261719 28.125 -32.894531 26.191406 -32.710938 C 24.984375 -32.597656 23.601562 -31.738281 21.464844 -29.828125 C 18.316406 -26.972656 15.425781 -24.015625 12.421875 -20.925781 L 7.742188 -16.21875 C 7.414062 -15.820312 7.085938 -15.425781 6.648438 -14.894531 C 5.773438 -13.835938 4.90625 -12.660156 3.371094 -12.148438 L 3.007812 -12.113281 L 2.863281 -12.34375 C 2.191406 -13.011719 3.53125 -16.917969 3.53125 -16.917969 C 4.226562 -18.570312 4.804688 -20.210938 5.382812 -21.851562 C 6.242188 -24.371094 6.972656 -27 7.820312 -29.640625 L 8.449219 -32.019531 C 8.550781 -32.273438 8.757812 -32.65625 8.855469 -32.910156 C 9.136719 -33.789062 9.664062 -34.695312 9.21875 -35.503906 C 8.933594 -35.964844 8.535156 -36.296875 7.898438 -36.601562 C 7.511719 -36.808594 7.136719 -36.894531 6.777344 -36.859375 C 5.808594 -36.769531 5.195312 -35.492188 4.671875 -34.589844 L 4.585938 -34.214844 C 0.488281 -25.902344 -2.550781 -16.714844 -4.847656 -6.128906 L -4.921875 -5.636719 C -5.28125 -4.257812 -5.625 -2.761719 -3.6875 -1.605469 C -3.039062 -1.175781 -2.410156 -0.992188 -1.925781 -1.039062 C -1.082031 -1.117188 -0.664062 -1.890625 -0.25 -2.660156 C -0.03125 -2.925781 0.1875 -3.1875 0.40625 -3.453125 L 3.023438 -6.75 C 8.804688 -14 14.816406 -21.398438 21.921875 -27.554688 C 23.949219 -29.332031 25.078125 -30.289062 26.410156 -30.414062 C 28.101562 -30.574219 29.566406 -29.25 32.789062 -26.136719 C 36.667969 -22.476562 42.105469 -20.429688 46.699219 -20.859375 C 48.515625 -21.03125 50.171875 -21.554688 51.421875 -22.523438 C 51.882812 -22.8125 51.96875 -23.1875 51.835938 -23.296875 C 51.828125 -23.417969 51.5625 -23.636719 50.945312 -23.699219 Z M 50.945312 -23.699219 "
        /></g></g></g><g fill="#ffffff" fill-opacity="1"><g
      transform="translate(599.327052, 249.955029)"
    ><g><path
          d="M 40.273438 -23.0625 C 38.707031 -24.132812 29.234375 -13.363281 27.765625 -12.125 C 23.378906 -8.175781 18.34375 -4.652344 12.316406 -2.621094 C 9.480469 -1.625 5.726562 -0.0507812 2.554688 -2.679688 C -0.488281 -5.199219 1.546875 -8.195312 2.285156 -10.703125 C 5.179688 -20.125 9.496094 -28.703125 13.929688 -37.289062 C 14.421875 -38.558594 15.867188 -40.035156 13.53125 -41.523438 C 11.316406 -43.019531 10.390625 -41.226562 9.511719 -40.167969 C 2.902344 -31.375 -1.519531 -21.324219 -3.507812 -10.035156 C -4.066406 -6.933594 -3.835938 -3.175781 0.0859375 -0.375 C 3.886719 2.4375 7.335938 1.503906 10.523438 0.351562 C 18.078125 -2.3125 24.625 -6.585938 30.273438 -11.386719 C 33.089844 -13.847656 35.777344 -16.417969 38.328125 -19.097656 C 38.996094 -19.769531 40.839844 -20.917969 40.726562 -22.128906 C 40.679688 -22.613281 40.527344 -22.964844 40.273438 -23.0625 Z M 18.183594 -47.8125 C 20.820312 -48.304688 22.542969 -49.445312 22.171875 -52.09375 C 21.207031 -54.5625 19.558594 -55.261719 17.644531 -54.835938 C 14.875 -54.453125 13.417969 -53.097656 14.441406 -50.023438 C 15.238281 -48.023438 16.515625 -47.414062 18.183594 -47.8125 Z M 18.183594 -47.8125 "
        /></g></g></g><g fill="#ffffff" fill-opacity="1"><g
      transform="translate(645.387457, 245.619538)"
    ><g><path
          d="M 39.550781 -21.652344 C 39.101562 -21.242188 38.664062 -20.714844 38.226562 -20.183594 C 37.886719 -19.910156 37.679688 -19.523438 37.339844 -19.246094 C 35.5625 -17.375 33.875 -15.871094 32.066406 -14.359375 C 28.109375 -11.0625 24.058594 -8.730469 19.941406 -7.121094 C 17.242188 -6.011719 14.988281 -5.3125 12.328125 -5.0625 C 10.757812 -4.914062 9.296875 -4.898438 7.679688 -5.234375 C 5.699219 -5.535156 4.277344 -6.378906 3.316406 -7.507812 C 2.5 -8.40625 2.15625 -9.472656 2.296875 -10.582031 L 2.460938 -11.453125 C 2.832031 -15.269531 3.300781 -19.335938 8.664062 -20.695312 C 16.054688 -22.488281 20.90625 -25.386719 23.902344 -29.8125 C 25.183594 -31.765625 26.113281 -33.558594 24.058594 -35.925781 C 22.691406 -37.503906 20.921875 -38.191406 18.984375 -38.011719 C 18.382812 -37.953125 17.777344 -37.898438 17.074219 -37.585938 C 5.402344 -33.316406 -1.167969 -25.378906 -2.320312 -14.296875 C -2.738281 -10.964844 -1.730469 -8.007812 0.542969 -5.90625 C 2.933594 -3.8125 6.324219 -2.789062 10.324219 -3.046875 L 10.929688 -3.101562 C 23.378906 -4.273438 31.558594 -11.996094 39.394531 -19.441406 L 40.183594 -20.125 C 40.742188 -20.667969 41.75 -21.613281 41.429688 -22.4375 C 40.824219 -22.382812 40.121094 -22.070312 39.550781 -21.652344 Z M 9.59375 -25.050781 C 12.8125 -29.746094 16.5 -32.042969 21.199219 -33.949219 L 22.25 -34.414062 L 21.738281 -33.390625 C 19.28125 -28.402344 15.691406 -26.359375 10.136719 -24.492188 L 8.949219 -24.136719 Z M 9.59375 -25.050781 "
        /></g></g></g><g fill="#ffffff" fill-opacity="1"><g
      transform="translate(692.777677, 241.158877)"
    ><g><path
          d="M 38.980469 -25.136719 C 38.847656 -25.246094 38.460938 -25.453125 37.496094 -25.359375 C 35.683594 -25.191406 33.332031 -24.238281 32.386719 -23.90625 C 26.984375 -21.6875 20.519531 -19.128906 14.625 -15.648438 C 13.703125 -15.070312 12.882812 -14.75 12.035156 -14.671875 C 9.617188 -14.441406 8.070312 -16.613281 5.851562 -19.457031 C 4.871094 -20.828125 3.765625 -22.1875 2.5625 -23.292969 C 0.425781 -25.285156 0.109375 -27.332031 1.414062 -29.039062 C 5.652344 -34.558594 11.652344 -38.175781 19.320312 -39.628906 L 19.671875 -39.78125 C 19.914062 -39.804688 20.144531 -39.949219 20.507812 -39.984375 C 21.355469 -40.0625 22.125 -39.648438 22.675781 -38.96875 C 23.515625 -37.828125 23.125 -36.8125 22.71875 -35.921875 C 22.03125 -34.152344 21.222656 -32.367188 20.546875 -30.472656 C 20.035156 -29.449219 19.875 -28.582031 20.910156 -27.945312 C 21.292969 -27.738281 21.667969 -27.652344 22.03125 -27.6875 C 22.636719 -27.742188 23.085938 -28.152344 23.535156 -28.558594 C 25.792969 -30.480469 26.929688 -32.660156 27.292969 -35.253906 C 27.695312 -37.488281 27.148438 -39.390625 25.804688 -40.726562 C 24.601562 -41.832031 22.851562 -42.277344 20.675781 -42.074219 L 20.070312 -42.015625 C 10.929688 -40.667969 3.402344 -36.421875 -2.183594 -29.675781 C -3.816406 -27.570312 -3.707031 -25.140625 -1.621094 -22.410156 L -0.519531 -21.050781 C 0.476562 -19.558594 1.589844 -18.078125 2.828125 -16.609375 C 6.246094 -12.664062 6.125 -10.089844 2.558594 -7.800781 C -3.070312 -4.101562 -8.773438 0.09375 -12.503906 5.8125 C -15.367188 10.351562 -14.902344 15.308594 -11.496094 17.792969 C -10.199219 18.644531 -8.570312 19.101562 -6.996094 18.953125 C -4.578125 18.726562 -2.144531 17.398438 -0.0390625 15.128906 C 5.515625 9.359375 8.5 3.46875 9.015625 -2.679688 C 9.601562 -9.441406 13.824219 -12.523438 18.429688 -15.394531 C 21.4375 -17.140625 24.808594 -18.921875 29.035156 -20.660156 C 31.140625 -21.59375 33.382812 -22.414062 35.511719 -23.101562 C 35.742188 -23.246094 36.105469 -23.277344 36.457031 -23.433594 C 37.414062 -23.644531 39.445312 -24.082031 39.257812 -24.792969 Z M -3.917969 15.371094 C -4.609375 15.800781 -5.664062 16.265625 -6.996094 16.390625 C -8.082031 16.496094 -8.964844 16.210938 -9.625 15.664062 C -10.164062 15.105469 -10.488281 14.28125 -10.589844 13.191406 C -10.535156 9.894531 -7.324219 6.421875 -4.867188 3.996094 L -4.089844 3.191406 C -2.777344 1.601562 -1.199219 0.234375 0.601562 -1.398438 C 0.953125 -1.554688 1.402344 -1.960938 2.105469 -2.269531 C 3.132812 -2.976562 5.207031 -4.269531 5.273438 -4.886719 L 6.140625 -4.726562 C 5.457031 4.851562 2.277344 11.25 -3.917969 15.371094 Z M -3.917969 15.371094 "
        /></g></g></g><g clip-path="url(#b18ade795c)"><g clip-path="url(#d6147ecfd4)"><g
        clip-path="url(#4b5720f978)"
      ><g clip-path="url(#97344933db)"><g clip-path="url(#ad559f23be)"><path
              fill="#ffffff"
              d="M 70.1875 230.683594 C 74.019531 235.832031 77.230469 240.664062 79.742188 244.6875 C 85.964844 254.648438 89.339844 261.871094 89.375 261.941406 L 90.125 263.558594 L 91.898438 263.398438 C 100.484375 262.628906 108.972656 262.570312 117.132812 263.21875 C 132.679688 264.453125 147.460938 268.175781 162.128906 274.5625 C 120.171875 268.199219 79.160156 288.136719 79.160156 288.136719 C 62.6875 257.75 42.375 235.496094 42.375 235.496094 C 51.71875 233.367188 61.066406 231.75 70.1875 230.683594 "
              fill-opacity="1"
              fill-rule="nonzero"
            /></g></g></g></g></g><g clip-path="url(#5552185cb2)"><g clip-path="url(#e278e91a70)"><g
        clip-path="url(#f40a6e9a7f)"
      ><path
          fill="#ffffff"
          d="M 81.472656 211.746094 C 85.816406 221.664062 90.613281 233.324219 94.566406 244.691406 L 95.101562 246.234375 L 96.722656 246.382812 C 96.847656 246.394531 109.214844 247.589844 124.5 252.167969 C 136.667969 255.808594 152.914062 262.308594 165.410156 273.246094 C 139.546875 261.515625 114.945312 258.789062 91.671875 260.875 C 91.671875 260.875 78.058594 231.589844 54.253906 208.480469 C 54.253906 208.480469 65.796875 209.207031 81.472656 211.746094 "
          fill-opacity="1"
          fill-rule="nonzero"
        /></g></g></g><g clip-path="url(#0599e64090)"><g clip-path="url(#65e48f221e)"><g
        clip-path="url(#283b9a2047)"
      ><path
          fill="#ffffff"
          d="M 99.152344 196.078125 C 100.984375 205.992188 102.792969 217.203125 103.980469 228.027344 L 104.140625 229.460938 L 105.507812 229.910156 C 105.625 229.949219 117.429688 233.882812 131.332031 241.777344 C 141.925781 247.789062 155.578125 257.199219 165.300781 269.820312 C 138.480469 247.722656 96.957031 243.859375 96.957031 243.859375 C 86.914062 214.972656 71.65625 184.648438 71.65625 184.648438 C 79.484375 188.171875 89.210938 192.09375 99.152344 196.078125 "
          fill-opacity="1"
          fill-rule="nonzero"
        /></g></g></g><g clip-path="url(#a963174eef)"><g clip-path="url(#504ba605ad)"><g
        clip-path="url(#1667f1c3e3)"
      ><path
          fill="#ffffff"
          d="M 106.207031 227.78125 C 106.207031 227.78125 153.808594 243.460938 172.585938 276.71875 L 175.394531 244.960938 C 176.480469 232.65625 169.671875 222.277344 161.144531 213.34375 C 150.265625 201.949219 114.902344 179.664062 94.765625 164.410156 C 94.765625 164.410156 102.871094 197.375 106.207031 227.78125 "
          fill-opacity="1"
          fill-rule="nonzero"
        /></g></g></g><g clip-path="url(#0639f79b3f)"><g clip-path="url(#068427ec43)"><g
        clip-path="url(#49911b58cc)"
      ><g clip-path="url(#676423ffa2)"><g clip-path="url(#c73177cdb1)"><path
              fill="#ffffff"
              d="M 282.542969 229.859375 C 278.738281 235.03125 275.550781 239.878906 273.058594 243.917969 C 266.890625 253.910156 263.550781 261.152344 263.519531 261.222656 L 262.777344 262.839844 L 261.003906 262.691406 C 252.414062 261.96875 243.921875 261.953125 235.769531 262.644531 C 220.226562 263.960938 205.464844 267.761719 190.832031 274.226562 C 232.753906 267.640625 273.871094 287.363281 273.871094 287.363281 C 290.183594 256.890625 310.378906 234.527344 310.378906 234.527344 C 301.023438 232.449219 291.667969 230.878906 282.542969 229.859375 "
              fill-opacity="1"
              fill-rule="nonzero"
            /></g></g></g></g></g><g clip-path="url(#adafcf8ba1)"><g clip-path="url(#10f2ada61b)"><g
        clip-path="url(#9ca37247c0)"
      ><path
          fill="#ffffff"
          d="M 271.15625 210.988281 C 266.867188 220.925781 262.128906 232.609375 258.238281 244 L 257.707031 245.542969 L 256.085938 245.703125 C 255.964844 245.714844 243.605469 246.972656 228.339844 251.632812 C 216.195312 255.339844 199.980469 261.925781 187.542969 272.929688 C 213.34375 261.058594 237.933594 258.203125 261.214844 260.164062 C 261.214844 260.164062 274.671875 230.8125 298.355469 207.574219 C 298.355469 207.574219 286.816406 208.363281 271.15625 210.988281 "
          fill-opacity="1"
          fill-rule="nonzero"
        /></g></g></g><g clip-path="url(#a13211bb28)"><g clip-path="url(#1819350479)"><g
        clip-path="url(#0d78a35688)"
      ><path
          fill="#ffffff"
          d="M 253.394531 195.410156 C 251.617188 205.335938 249.863281 216.554688 248.734375 227.382812 L 248.582031 228.816406 L 247.214844 229.277344 C 247.101562 229.316406 235.316406 233.3125 221.457031 241.277344 C 210.894531 247.347656 197.289062 256.828125 187.636719 269.5 C 214.335938 247.261719 255.839844 243.179688 255.839844 243.179688 C 265.730469 214.238281 280.828125 183.835938 280.828125 183.835938 C 273.019531 187.402344 263.316406 191.375 253.394531 195.410156 "
          fill-opacity="1"
          fill-rule="nonzero"
        /></g></g></g><g clip-path="url(#a3faf3ed38)"><g clip-path="url(#c5c1aa53e3)"><g
        clip-path="url(#668d011f57)"
      ><path
          fill="#ffffff"
          d="M 246.503906 227.148438 C 246.503906 227.148438 198.984375 243.082031 180.386719 276.4375 L 177.410156 244.695312 C 176.257812 232.394531 183.015625 221.980469 191.496094 213.003906 C 202.3125 201.550781 237.558594 179.082031 257.613281 163.71875 C 257.613281 163.71875 249.683594 196.726562 246.503906 227.148438 "
          fill-opacity="1"
          fill-rule="nonzero"
        /></g></g></g></svg>
