<svg xmlns="http://www.w3.org/2000/svg" fill="none" viewBox="0 0 1008 624">
  <path
    fill="#07222d"
    d="M894.625 104.876c11.495 13.596 20.208 29.82 25.534 47.548 5.326 17.728 7.139 36.536 5.312 55.124.613-5.841 12.706-14.164 16.756-16.888 6.694-4.485 13.92-6.449 21.09-8.869-24.232 6.867-38.05 37.387-46.071 61.168-8.894 26.44-15.882 55.491-34.93 74.115 37.585 10.743 80.548-15.887 92.346-57.177-5.57 29.786-26.83 55.213-53.048 63.474 4.993.8 9.737 2.939 13.829 6.233 4.091 3.294 7.408 7.645 9.666 12.682-12.162-15.634-33.614-15.203-52.095-13.594-10.29.924-21.124 2.065-29.564 8.703-20.171 15.875-14.873 51.007-26.366 75.395-3.97 8.413-10.017 15.571-13.125 24.427-3.404 9.616-2.995 20.27-2.564 30.634L828.031 624h-70.87c14.12-47.052 21.117-96.404 20.704-146.026-.182-21.361-1.94-43.507-11.345-62.08-12.876-25.338-40.194-40.541-66.083-36.741 13.107-5.149 27.494-4.399 40.115 2.091a1675.203 1675.203 0 0 1-69.203-78.461c-16.189 3.547-32.752-1.482-49.179-3.193-16.428-1.71-35.169 1.103-45.209 15.748 7.905-10.444 18.555-17.842 30.438-21.145-19.397-9.203-34.884-26.38-43.258-47.978 20.704 32.015 58.845 48.624 93.492 40.719-20.897-20.993-28.645-53.211-37.437-83.035-8.793-29.823-21.873-61.458-47.433-74.508 15.464 4.795 29.193 14.884 39.253 28.848-6.115-44.102 10.335-91.219 41.556-119.091-34.034 41.58-42.146 107.055-19.559 157.39.312-12.56 3.087-24.892 8.128-36.125 5.042-11.234 12.227-21.097 21.051-28.893-24.958 24.781-25.457 70.035-10.324 103.254 15.134 33.219 42.294 57.215 68.625 80.133 3.12-8.054 4.703-16.746 4.649-25.521-.055-8.776-1.747-17.442-4.967-25.447l8.373 26.973c15.304-33.346 11.878-76.371-8.464-106.169 9.455 9.862 16.676 22.09 21.071 35.678 4.394 13.588 5.835 28.147 4.205 42.479 3.699-5.603 8.481-10.204 13.99-13.461 5.509-3.257 11.604-5.086 17.832-5.353-15.224.735-26.489 16.534-31.765 32.484-5.275 15.951-6.909 33.447-14.09 48.46l60.967 68.832c4.163 4.701 8.985 9.73 14.907 9.781 5.595-5.652 9.939-12.675 12.693-20.519 2.753-7.844 3.84-16.294 3.175-24.686s-3.064-16.498-7.009-23.679c-3.944-7.182-9.326-13.244-15.723-17.71 5.906 2.998 11.19 7.334 15.517 12.731 4.327 5.398 7.604 11.74 9.623 18.625 4.3-28.569-3.982-57.62-14.521-84.099-10.539-26.478-23.541-52.045-29.497-80.234-2.938-13.873-4.163-28.278-8.803-41.555-4.64-13.278-13.614-25.782-26.093-28.886 6.274 1.057 12.222 3.81 17.327 8.018 5.104 4.209 9.212 9.745 11.965 16.129.346-14.087 3.482-27.914 9.185-40.487 5.702-12.572 13.828-23.576 23.794-32.222-24.811 29.431-32.355 75.56-18.458 112.871.942-10.257 4.484-20 10.211-28.088-7.023 18.903-5.06 40.783 1.429 59.926s17.131 36.107 27.67 52.843l14.238-28.632c-13.807 27.175-10.903 63.739 6.965 87.773 17.607-17.813 34.364-38.008 42.452-62.941 8.089-24.934 5.673-55.682-11.22-74.306 6.958 6.383 12.541 14.432 16.337 23.551 3.796 9.118 5.707 19.073 5.593 29.128 19.036-41.58 14.748-95.108-10.426-132.318Z"
  />
  <path
    fill="#085332"
    d="M895.839 103.597c3.766-3.94 1.134-16.559-1.429-20.436-4.266-6.448-13.966-9.565-20.739-9.73-1.068 7.316-.383 14.817 1.986 21.74a12.16 12.16 0 0 0 1.486 3.143 12.443 12.443 0 0 0 2.779 2.533 25.33 25.33 0 0 0 7.703 4.485c2.814.862 6.081.482 8.214-1.735Z"
  />
  <path
    fill="#628f30"
    d="M927.615 155.541c4.697 2.407 14.147-5.068 16.393-9.211 3.721-6.854 2.643-18.054.204-25.123-6.462 1.675-12.414 5.223-17.255 10.287a11.84 11.84 0 0 0-2.042 2.724 14.316 14.316 0 0 0-1.135 3.801 32.32 32.32 0 0 0-.794 9.667c.443 3.268 1.986 6.499 4.629 7.855Z"
  />
  <path
    fill="#b9f4d4"
    d="M908.01 117.825c3.892 1.837 11.209-5.068 12.843-8.666 2.722-6.056 1.361-15.609-.908-21.538-.431-1.128-9.348 5.334-10.119 6.03-2.374 2.04-4.184 4.787-5.219 7.926a19.699 19.699 0 0 0-.635 9.812 9.105 9.105 0 0 0 1.314 3.769 7.97 7.97 0 0 0 2.724 2.667Z"
  />
  <path
    fill="#628f30"
    d="M900.07 121.625c-.409 4.7-9.303 8.602-12.945 8.476-6.058-.216-12.933-6.094-16.529-11.149-.681-.963 8.645-6.652 9.564-7.07 2.732-1.357 5.753-1.825 8.713-1.35 2.96.476 5.74 1.875 8.02 4.036a8.406 8.406 0 0 1 2.359 3.096 9.418 9.418 0 0 1 .818 3.961Z"
  />
  <path
    fill="#085332"
    d="M964.042 179.562c3.471 4.269 14.748 1.533 18.322-1.267 5.842-4.65 8.792-15.431 9.075-22.995-6.519-1.304-13.232-.658-19.456 1.875a10.063 10.063 0 0 0-2.836 1.596 13.234 13.234 0 0 0-2.348 3.066 30.344 30.344 0 0 0-4.141 8.527c-.806 3.129-.522 6.791 1.384 9.198Z"
  />
  <path
    fill="#b9f4d4"
    d="M951.11 192.928c-1.713 4.308 4.322 12.593 7.555 14.481 5.367 3.129 13.943 1.774 19.287-.659 1.009-.469-4.629-10.528-5.242-11.402-1.784-2.68-4.21-4.742-6.998-5.95a14.33 14.33 0 0 0-8.76-.879 7.164 7.164 0 0 0-3.404 1.406 8.278 8.278 0 0 0-2.438 3.003Z"
  />
  <path
    fill="#628f30"
    d="M947.933 183.996c-4.197-.532-7.555-10.516-7.374-14.595.284-6.753 5.673-14.342 10.21-18.269.863-.748 5.798 9.768 6.161 10.794a19.556 19.556 0 0 1 1.077 9.751c-.474 3.299-1.776 6.38-3.755 8.885a7.891 7.891 0 0 1-2.784 2.577 6.967 6.967 0 0 1-3.535.857Z"
  />
  <path
    fill="#085332"
    d="M884.336 180.842c3.858-3.801 1.487-16.47-.998-20.461-4.118-6.563-13.75-9.946-20.523-10.275-1.222 7.283-.694 14.798 1.532 21.778a12.276 12.276 0 0 0 1.418 3.18 12.329 12.329 0 0 0 2.723 2.648 25.557 25.557 0 0 0 7.612 4.688c2.791.887 6.07.595 8.236-1.558Z"
  />
  <path
    fill="#b9f4d4"
    d="M896.213 195.436c3.845 1.939 11.344-4.738 13.023-8.336 2.837-5.967 1.691-15.558-.453-21.538-.409-1.128-9.462 5.068-10.211 5.765-2.412 1.973-4.276 4.667-5.377 7.771a19.678 19.678 0 0 0-.851 9.776 9.16 9.16 0 0 0 1.215 3.81 8.013 8.013 0 0 0 2.654 2.752Z"
  />
  <path
    fill="#628f30"
    d="M888.193 198.908c-.499 4.688-9.473 8.362-13.126 8.134-6.046-.368-12.796-6.424-16.279-11.58-.658-.976 8.781-6.411 9.711-6.816 2.76-1.283 5.788-1.67 8.736-1.116 2.948.553 5.697 2.025 7.929 4.245 1.917 1.799 3.324 4.498 3.029 7.133Z"
  />
  <path
    fill="#085332"
    d="M979.586 259.936c5.434 3.142 17.017-5.144 19.91-9.895 4.764-7.88 4.064-21.247 1.534-29.786-7.759 1.567-15.004 5.401-21.002 11.111a13.171 13.171 0 0 0-2.564 3.104 17.213 17.213 0 0 0-1.486 4.498 38.15 38.15 0 0 0-1.429 11.402c.295 3.852 1.974 7.792 5.037 9.566Z"
  />
  <path
    fill="#b9f4d4"
    d="M972.904 277.685c-.307 5.587 9.484 12.011 13.784 12.669 7.147 1.001 16.192-4.485 21.252-9.679.95-.988-9.08-9.578-10.067-10.262-2.98-2.161-6.447-3.337-10-3.391-3.554-.053-7.048 1.017-10.08 3.087-2.564 1.609-4.674 4.421-4.889 7.576Z"
  />
  <path
    fill="#628f30"
    d="M963.247 272.389c-4.867 1.343-12.32-8.222-13.614-12.834-2.189-7.601.976-18.585 4.629-25.085.692-1.267 10.086 8.172 10.88 9.16 2.448 2.875 4.116 6.465 4.813 10.355.697 3.89.393 7.921-.877 11.626-.998 3.104-3.085 5.98-5.831 6.778Z"
  />
  <path
    fill="#085332"
    d="M947.434 343.337c-2.53 5.068 3.471 16.293 7.011 19.144 5.876 4.725 16.052 4.396 22.61 2.217-1-7.402-3.741-14.375-7.942-20.208a10.871 10.871 0 0 0-2.269-2.534 11.319 11.319 0 0 0-3.403-1.52 23.877 23.877 0 0 0-8.645-1.66c-2.893.216-5.933 1.711-7.362 4.561Z"
  />
  <path
    fill="#628f30"
    d="M934.116 336.547c-4.255-.418-9.382 8.691-9.961 12.758-.942 6.74 2.995 15.457 6.807 20.398.726.924 7.51-8.337 8.066-9.274 1.716-2.768 2.696-6.021 2.826-9.383.131-3.363-.594-6.699-2.089-9.621-1.168-2.509-3.256-4.637-5.649-4.878Z"
  />
  <path
    fill="#b9f4d4"
    d="M938.414 327.539c-.907-4.662 6.558-11.478 10.097-12.606 5.877-1.875 14.113 1.406 18.969 5.068.919.684-6.478 9.35-7.25 10.072-2.252 2.245-5.028 3.731-8.006 4.284-2.978.554-6.036.154-8.818-1.155-2.348-.988-4.492-3.04-4.992-5.663Zm-90.835-94.424c3.857 1.875 11.458-4.409 13.228-7.805 2.938-5.65 1.895-14.759-.193-20.473-5.242 1.476-10.04 4.474-13.909 8.691a9.414 9.414 0 0 0-1.633 2.268c-.421.997-.7 2.061-.828 3.155a26.711 26.711 0 0 0-.511 7.88 8.641 8.641 0 0 0 1.216 3.682 7.534 7.534 0 0 0 2.63 2.602Z"
  />
  <path
    fill="#085332"
    d="M843.789 245.594c0 3.801 7 7.741 9.972 7.931 4.924.317 10.891-3.915 14.136-7.728.612-.722-6.592-6.094-7.318-6.5-2.127-1.33-4.549-1.957-6.983-1.809-2.435.148-4.781 1.066-6.767 2.646a6.616 6.616 0 0 0-2.117 2.315 7.528 7.528 0 0 0-.923 3.145Z"
  />
  <path
    fill="#628f30"
    d="M836.915 242.452c-3.279 1.178-8.77-4.979-9.87-8.071-1.815-5.131-.102-12.783 2.133-17.42.419-.874 7.238 5.068 7.816 5.714 1.798 1.838 3.092 4.207 3.733 6.833a16.01 16.01 0 0 1-.114 8.003 7.318 7.318 0 0 1-1.307 2.976 6.341 6.341 0 0 1-2.391 1.965Z"
  />
  <path
    fill="#085332"
    d="M812.024 64.347c4.81 3.535 16.382-2.914 19.49-7.031 5.162-6.842 5.672-19.397 4.084-27.657-7.383.601-14.492 3.377-20.602 8.045a11.717 11.717 0 0 0-2.677 2.61 15.412 15.412 0 0 0-1.736 4.028 35.209 35.209 0 0 0-2.36 10.503c-.068 3.636 1.146 7.5 3.801 9.502Z"
  />
  <path
    fill="#b9f4d4"
    d="M804.253 80.184c-.783 5.194 7.794 12.29 11.753 13.328 6.58 1.723 15.52-2.394 20.704-6.69.987-.81-7.601-9.945-8.474-10.705-2.589-2.355-5.723-3.843-9.037-4.291-3.315-.449-6.676.16-9.693 1.757-2.553 1.28-4.822 3.7-5.253 6.601Z"
  />
  <path
    fill="#628f30"
    d="M795.709 74.127c-4.674.735-10.778-9.045-11.606-13.492-1.361-7.4 2.575-17.256 6.569-22.932.748-1.077 8.69 8.767 9.336 9.768 2.026 2.955 3.263 6.488 3.568 10.194.305 3.705-.334 7.431-1.843 10.749-1.191 2.85-3.392 5.308-6.024 5.713Z"
  />
  <path
    fill="#085332"
    d="M747.711 110.324c2.144-5.967-5.831-17.344-10.074-19.916-7.034-4.27-18.152-2.331-25.083 1.077 2.009 7.96 5.873 15.182 11.197 20.93a11.576 11.576 0 0 0 2.825 2.407 12.05 12.05 0 0 0 3.902 1.14c3.179.766 6.45.928 9.677.481 3.2-.658 6.342-2.762 7.556-6.119Z"
  />
  <path
    fill="#b9f4d4"
    d="M763.172 115.708c4.708-.19 9.212-10.997 9.337-15.545.193-7.601-5.208-16.47-10.018-21.31-.907-.912-7.204 10.313-7.691 11.403-1.544 3.305-2.218 7.032-1.943 10.747.275 3.716 1.488 7.268 3.497 10.246 1.611 2.559 4.163 4.561 6.818 4.459Z"
  />
  <path
    fill="#628f30"
    d="M759.589 126.262c1.566 4.966-5.786 13.607-9.529 15.393-6.206 2.977-15.645.646-21.431-2.534-1.134-.621 5.956-11.275 6.705-12.188 2.189-2.814 5.047-4.88 8.243-5.958a15.92 15.92 0 0 1 9.818-.136c2.7.71 5.309 2.623 6.194 5.423Z"
  />
  <path
    fill="#085332"
    d="M722.661 182.121c4.538-3.99 2.62-18.294.079-22.804-4.209-7.602-14.748-12.074-22.258-12.948a51.918 51.918 0 0 0 .431 24.375c.288 1.29.755 2.521 1.384 3.649a14.177 14.177 0 0 0 2.882 3.155c2.425 2.424 5.198 4.377 8.202 5.777 3.063 1.14 6.75 1.051 9.28-1.204Z"
  />
  <path
    fill="#b9f4d4"
    d="M733.747 195.36c4.174 2.445 12.876-4.447 14.997-8.336 3.517-6.449 2.802-17.205.76-24.072-.385-1.267-10.834 4.979-11.741 5.676-2.803 2.02-5.037 4.886-6.442 8.264-1.406 3.379-1.926 7.134-1.5 10.829.193 3.104 1.52 6.258 3.926 7.639Z"
  />
  <path
    fill="#628f30"
    d="M725.896 202.544c-.84 5.181-11.05 8.615-15.1 8.095-6.716-.849-13.886-8.095-17.471-14.101-.681-1.127 10.21-6.499 11.231-6.866a15.88 15.88 0 0 1 9.799-.624c3.254.832 6.229 2.678 8.58 5.324 2.019 2.141 3.437 5.245 2.961 8.172ZM656.681 35.55c4.913 3.37 16.28-3.522 19.286-7.754 4.947-7.031 5.094-19.599 3.245-27.796-7.363.897-14.382 3.957-20.341 8.868a12.393 12.393 0 0 0-2.598 2.712 16.333 16.333 0 0 0-1.656 4.105 35.93 35.93 0 0 0-2.042 10.578c.011 3.573 1.338 7.4 4.106 9.287Z"
  />
  <path
    fill="#b9f4d4"
    d="M649.341 51.678c-.624 5.22 8.157 11.985 12.15 12.872 6.637 1.482 15.44-2.965 20.5-7.45.953-.848-7.941-9.666-8.803-10.388-2.668-2.264-5.856-3.634-9.194-3.953-3.338-.318-6.689.428-9.661 2.154-2.451 1.355-4.64 3.826-4.992 6.765Z"
  />
  <path
    fill="#085332"
    d="M640.617 45.964c-4.64.887-11.05-8.64-12.003-13.062-1.577-7.335 2.053-17.344 5.865-23.16.726-1.101 8.962 8.426 9.643 9.414 2.119 2.88 3.464 6.37 3.879 10.067.416 3.697-.115 7.45-1.53 10.825-1.112 2.863-3.234 5.41-5.854 5.916ZM665.2 128.91c4.538 3.116 15.089-3.269 17.846-7.184 4.537-6.512 4.719-18.167 3.006-25.756-6.822.814-13.328 3.633-18.855 8.171a11.398 11.398 0 0 0-2.405 2.534 14.807 14.807 0 0 0-1.543 3.801 33.041 33.041 0 0 0-1.883 9.806c.034 3.332 1.27 6.879 3.834 8.628Z"
  />
  <path
    fill="#b9f4d4"
    d="M658.394 143.86c-.579 4.84 7.567 11.098 11.265 11.922 6.138 1.381 14.306-2.75 18.991-6.905.885-.786-7.317-8.957-8.157-9.616-2.464-2.088-5.408-3.353-8.49-3.649-3.082-.296-6.176.389-8.924 1.977-2.326 1.241-4.356 3.534-4.685 6.271Z"
  />
  <path
    fill="#628f30"
    d="M650.314 138.551c-4.311.836-10.21-7.994-11.129-12.099-1.464-6.791 1.906-16.065 5.445-21.462.669-1.013 8.293 7.817 8.928 8.729 1.953 2.664 3.194 5.888 3.579 9.304.385 3.415-.1 6.883-1.4 10.004-1.033 2.699-2.995 5.068-5.423 5.524Z"
  />
  <path
    fill="#085332"
    d="M572.287 124.159c3.165-6.449-4.538-20.6-9.019-24.173-7.465-5.93-20.341-5.41-28.634-2.597 1.323 9.36 4.846 18.16 10.21 25.503a13.585 13.585 0 0 0 2.847 3.167 14.964 14.964 0 0 0 4.289 1.901c3.573 1.127 7.238 2.267 10.947 2.014 3.71-.253 7.567-2.166 9.36-5.815Z"
  />
  <path
    fill="#628f30"
    d="M589.189 132.647c5.389.507 11.821-11.085 12.479-16.229 1.135-8.539-3.902-19.536-8.769-25.757-.919-1.165-9.45 10.63-10.142 11.821-2.153 3.519-3.371 7.647-3.514 11.906-.142 4.259.796 8.477 2.708 12.166 1.554 3.154 4.209 5.815 7.238 6.093Z"
  />
  <path
    fill="#b9f4d4"
    d="M583.824 144.1c1.134 5.879-8.237 14.583-12.707 16.04-7.419 2.432-17.868-1.647-24.039-6.196-1.135-.861 8.145-11.909 9.076-12.821 2.829-2.866 6.328-4.778 10.09-5.516 3.763-.737 7.635-.27 11.17 1.348 3.017 1.254 5.74 3.826 6.41 7.145Zm-19.605 97.224c4.912-4.903 1.872-21.094-1.305-26.137-5.275-8.361-17.584-12.669-26.229-13.087-1.559 9.323-.874 18.942 1.986 27.873a15.265 15.265 0 0 0 1.815 4.066 15.901 15.901 0 0 0 3.483 3.37c3.04 2.395 6.148 4.827 9.722 5.968 3.574 1.14 7.76.722 10.528-2.053Z"
  />
  <path
    fill="#085332"
    d="M577.642 255.603c4.924 2.47 14.453-6.069 16.631-10.668 3.631-7.601 2.145-19.878-.601-27.543-.522-1.444-12.082 6.512-13.08 7.374-3.088 2.516-5.473 5.958-6.878 9.928a25.03 25.03 0 0 0-1.064 12.496c.511 3.522 2.269 7.019 4.992 8.413Z"
  />
  <path
    fill="#628f30"
    d="M565.616 264.408c-.636 5.98-12.094 10.693-16.757 10.414-7.725-.469-16.347-8.197-20.817-14.772-.84-1.267 11.22-8.21 12.4-8.717 3.522-1.652 7.391-2.156 11.16-1.455 3.768.702 7.282 2.582 10.134 5.421 2.439 2.293 4.243 5.688 3.88 9.109Z"
  />
  <path
    fill="#b9f4d4"
    d="M572.095 315.617c-4.265-3.889-15.882 1.001-19.15 4.586-5.502 5.955-7.09 17.851-6.285 25.884 7.079.227 14.086-1.644 20.307-5.423a11.577 11.577 0 0 0 2.78-2.204 14.617 14.617 0 0 0 2.042-3.649 33.453 33.453 0 0 0 3.154-9.743c.385-3.446-.443-7.247-2.848-9.451Z"
  />
  <path
    fill="#628f30"
    d="M580.92 301.39c1.134-4.853-6.365-12.53-10.041-13.937-6.114-2.356-14.986.596-20.295 4.118-.999.671 6.375 10.3 7.147 11.111 2.264 2.518 5.12 4.269 8.238 5.049 3.118.78 6.371.558 9.38-.64 2.53-.925 4.89-2.952 5.571-5.701Z"
  />
  <path
    fill="#085332"
    d="M588.987 311.347c4.538-.19 9.473 9.768 9.87 14.101.658 7.184-3.948 16.141-8.236 21.107-.806.951-7.511-9.274-8.044-10.3-1.677-3.035-2.552-6.539-2.522-10.106.031-3.566.964-7.051 2.692-10.051 1.384-2.546 3.687-4.649 6.24-4.751Zm108.296 66.755c-1.747-5.828-13.886-8.564-18.401-7.5-7.499 1.761-14.51 10.896-17.653 18.168 5.884 4.409 12.713 6.989 19.786 7.475a9.85 9.85 0 0 0 3.403-.216 12.386 12.386 0 0 0 3.472-1.862c2.737-1.643 5.21-3.784 7.317-6.335 1.951-2.686 3.074-6.486 2.076-9.73Z"
  />
  <path
    fill="#b9f4d4"
    d="M711.53 371.298c3.324-3.408.59-14.392-1.849-17.736-4.05-5.626-12.967-8.388-19.138-8.565-1.135 0 .487 12.505.76 13.658.715 3.475 2.298 6.652 4.565 9.164 2.267 2.511 5.125 4.254 8.243 5.025 2.575.684 5.547.368 7.419-1.546Z"
  />
  <path
    fill="#628f30"
    d="M713.618 384.513c3.903 2.533 3.404 13.936 1.634 17.813-2.87 6.461-11.027 11.313-17.017 12.973-1.135.317-1.94-12.327-1.895-13.505.024-3.566.952-7.05 2.677-10.05 1.725-3.001 4.176-5.394 7.068-6.902 2.371-1.343 5.332-1.748 7.533-.329Zm67.572-142.251c2.836 5.004 14.748 4.472 18.741 2.318 6.648-3.572 11.345-13.936 12.786-21.537-6.409-2.609-13.322-3.274-20.035-1.926a9.941 9.941 0 0 0-3.131 1.064 12.756 12.756 0 0 0-2.859 2.635c-2.219 2.252-4.089 4.898-5.536 7.83-1.282 3.003-1.566 6.803.034 9.616Z"
  />
  <path
    fill="#b9f4d4"
    d="M764.126 243.58c-4.163-1.356-5.99-12.138-5.173-16.23 1.361-6.778 7.998-13.404 13.262-16.47.998-.583 4.345 11.022 4.538 12.15a20.203 20.203 0 0 1-.461 10.088c-1.004 3.247-2.811 6.11-5.212 8.257-1.917 1.875-4.606 2.977-6.954 2.205Z"
  />
  <path
    fill="#085332"
    d="M769.253 252.271c-2.405 4.029 2.393 13.607 5.377 16.153 4.946 4.219 13.841 4.536 19.649 3.117 1.135-.266-3.018-11.567-3.505-12.568-1.381-3.069-3.512-5.638-6.146-7.409-2.634-1.772-5.664-2.673-8.739-2.6-2.564-.025-5.275 1.026-6.636 3.307Z"
  />
  <path
    fill="#b9f4d4"
    d="M807.656 143.771c3.29 2.42 11.209-1.989 13.33-4.814 3.528-4.675 3.891-13.265 2.791-18.903-5.05.409-9.912 2.306-14.09 5.499a8.012 8.012 0 0 0-1.827 1.786 11.007 11.007 0 0 0-1.225 2.762 24.4 24.4 0 0 0-1.611 7.183 8.381 8.381 0 0 0 .594 3.609 7.525 7.525 0 0 0 2.038 2.878Z"
  />
  <path
    fill="#628f30"
    d="M802.312 154.565c-.533 3.56 5.332 8.413 8.043 9.122 4.538 1.178 10.607-1.634 14.158-4.573.67-.558-5.207-6.804-5.808-7.323-1.772-1.608-3.916-2.621-6.183-2.924-2.267-.303-4.564.118-6.625 1.213a5.854 5.854 0 0 0-2.284 1.753 6.793 6.793 0 0 0-1.301 2.732Z"
  />
  <path
    fill="#085332"
    d="M796.469 150.46c-3.199.494-7.374-6.182-7.941-9.236-.931-5.067 1.758-11.795 4.481-15.671.522-.735 5.945 5.992 6.398 6.676 1.382 2.03 2.222 4.455 2.423 6.995a14.88 14.88 0 0 1-1.288 7.36 6.543 6.543 0 0 1-1.615 2.491 5.625 5.625 0 0 1-2.458 1.385Z"
  />
  <path
    fill="#b9f4d4"
    d="M721.005 261.393c2.53-1.622 2.564-8.957 1.6-11.479-1.6-4.18-6.58-7.31-10.301-8.387a26.198 26.198 0 0 0-1.441 12.277c.06.671.209 1.329.442 1.951a7.423 7.423 0 0 0 1.237 1.824 15.35 15.35 0 0 0 3.721 3.598c.714.469 1.52.733 2.347.771a4.599 4.599 0 0 0 2.395-.555Z"
  />
  <path
    fill="#628f30"
    d="M725.645 268.968c1.929 1.584 6.807-1.14 8.101-2.901 2.2-2.939 2.575-8.412 2.019-12.023-.102-.684-5.775 1.584-6.285 1.85-1.54.773-2.854 2.015-3.791 3.583a10.868 10.868 0 0 0-1.507 5.285 5.345 5.345 0 0 0 .263 2.307 4.844 4.844 0 0 0 1.2 1.899Z"
  />
  <path
    fill="#085332"
    d="M721.266 271.921c-.782 2.534-6.137 3.395-8.134 2.787-3.324-1.001-6.421-5.245-7.816-8.564-.261-.621 5.547-2.395 6.103-2.534a8.1 8.1 0 0 1 4.966.517c1.578.693 2.948 1.871 3.951 3.398.46.595.785 1.305.947 2.071a5.442 5.442 0 0 1-.017 2.325Z"
  />
  <path
    fill="#b9f4d4"
    d="M801.449 315.148c2.484-4.396-2.394-14.734-5.434-17.47-5.037-4.536-14.136-4.789-20.092-3.193.57 6.65 2.703 13.013 6.183 18.446a10.12 10.12 0 0 0 1.94 2.369 10.728 10.728 0 0 0 2.961 1.546 21.538 21.538 0 0 0 7.635 1.939 7.244 7.244 0 0 0 3.815-.858c1.188-.635 2.216-1.59 2.992-2.779Z"
  />
  <path
    fill="#628f30"
    d="M813.055 321.938c3.766.609 8.747-7.259 9.439-10.844 1.134-5.98-2.008-13.937-5.207-18.586-.602-.874-7.068 7.044-7.601 7.855-1.657 2.38-2.676 5.235-2.939 8.235-.263 3.001.24 6.023 1.452 8.716a7.725 7.725 0 0 0 1.921 2.977 6.652 6.652 0 0 0 2.935 1.647Z"
  />
  <path
    fill="#085332"
    d="M808.823 329.756c.601 4.206-6.353 9.895-9.564 10.705-5.332 1.369-12.536-2.014-16.722-5.511-.783-.671 6.194-8.007 6.909-8.615 2.106-1.885 4.647-3.066 7.329-3.407 2.682-.341 5.396.173 7.828 1.481a6.99 6.99 0 0 1 2.693 2.099 8.077 8.077 0 0 1 1.527 3.248Z"
  />
  <path
    fill="#754c24"
    d="M581.923 497.968h-7.575v58.78h7.575v-58.78Zm189.389 0h-7.576v58.78h7.576v-58.78Zm7.56 64.325H566.787c-1.204 0-2.18 1.09-2.18 2.434v4.005c0 1.344.976 2.434 2.18 2.434h212.085c1.204 0 2.18-1.09 2.18-2.434v-4.005c0-1.344-.976-2.434-2.18-2.434Zm-1.066 26.618H571.102v7.764h206.704v-7.764Z"
  />
  <path
    fill="#754c24"
    d="m583.007 571.166-19.447 49.908h-8.691l19.535-49.908h8.603Zm180.729 0 19.445 49.908h8.693l-19.534-49.908h-8.604Z"
  />
  <path
    fill="#c69c6d"
    d="M785.546 481.332H561.198c-1.703 0-3.083 1.404-3.083 3.137v18.125c0 1.733 1.38 3.137 3.083 3.137h224.348c1.702 0 3.083-1.404 3.083-3.137v-18.125c0-1.733-1.381-3.137-3.083-3.137Zm0 31.054H561.198c-1.703 0-3.083 1.404-3.083 3.137v18.125c0 1.733 1.38 3.137 3.083 3.137h224.348c1.702 0 3.083-1.404 3.083-3.137v-18.125c0-1.733-1.381-3.137-3.083-3.137Zm0 37.708H561.198c-1.703 0-3.083 1.404-3.083 3.136v5.927c0 1.732 1.38 3.136 3.083 3.136h224.348c1.702 0 3.083-1.404 3.083-3.136v-5.927c0-1.732-1.381-3.136-3.083-3.136Z"
  />
  <path
    fill="#91b44a"
    d="M216.804 553.023c-61.354 0-111.091-2.665-111.091-5.954 0-3.288 49.737-5.954 111.091-5.954 61.354 0 111.091 2.666 111.091 5.954 0 3.289-49.737 5.954-111.091 5.954Z"
  />
  <path
    fill="#b9cc59"
    d="M449.697 537.3c-10.813 0-19.578-1.196-19.578-2.671 0-1.475 8.765-2.671 19.578-2.671 10.813 0 19.578 1.196 19.578 2.671 0 1.475-8.765 2.671-19.578 2.671Z"
  />
  <path
    fill="#91b44a"
    d="M331.81 537.667c-10.813 0-19.578-1.196-19.578-2.672 0-1.475 8.765-2.671 19.578-2.671 10.813 0 19.579 1.196 19.579 2.671 0 1.476-8.766 2.672-19.579 2.672Zm-186.459 0c-10.813 0-19.578-1.196-19.578-2.672 0-1.475 8.765-2.671 19.578-2.671 10.813 0 19.579 1.196 19.579 2.671 0 1.476-8.766 2.672-19.579 2.672Zm232.868-.851c-6.658 0-12.055-.979-12.055-2.187 0-1.207 5.397-2.186 12.055-2.186 6.657 0 12.054.979 12.054 2.186 0 1.208-5.397 2.187-12.054 2.187Zm-267.486 0c-6.658 0-12.055-.979-12.055-2.187 0-1.207 5.397-2.186 12.055-2.186 6.657 0 12.054.979 12.054 2.186 0 1.208-5.397 2.187-12.054 2.187Z"
  />
  <path
    fill="#4d2049"
    d="M486.648 229.322c.549.249 1.087.516 1.624.789-.537-.259-1.075-.536-1.624-.789Zm6.354 3.423 3.064 1.898-3.066-1.898h.002Zm6.066 3.897 2.938 2.085-2.94-2.085h.002Zm5.814 4.256 2.815 2.25-2.816-2.248.001-.002Zm5.567 4.576 2.689 2.399h.01v-.011l-2.688-2.397h-.011l-.001.005.001.004Zm5.309 4.867 2.555 2.538a.013.013 0 0 0 .006.001l.006-.003.003-.006-.001-.006-2.557-2.537-.012.013Zm5.041 5.14 2.418 2.675.003.003h.009l.004-.003.002-.004.001-.004-.001-.004-.002-.004-2.418-2.666h-.016l-.001.004.001.003Zm4.762 5.397 2.273 2.79a.013.013 0 0 0 .01.004.014.014 0 0 0 .01-.004.017.017 0 0 0 .003-.01c0-.003-.001-.007-.003-.009l-2.276-2.788-.004-.003-.005-.001-.004.001-.004.003a.013.013 0 0 0-.004.009c0 .003.002.006.004.008Zm4.472 5.636 2.124 2.903c.001.001.003.003.005.003a.008.008 0 0 0 .005.002l.006-.002c.002 0 .004-.002.005-.003a.021.021 0 0 0 .004-.011c0-.004-.002-.007-.004-.01l-2.125-2.903h-.02a.013.013 0 0 0-.004.01c0 .004.001.008.004.011Zm4.174 5.859 1.971 3.007a.018.018 0 0 0 .012.005.021.021 0 0 0 .013-.005.015.015 0 0 0 .004-.011.02.02 0 0 0-.004-.012l-1.973-3.007a.022.022 0 0 0-.005-.004l-.006-.001-.006.001-.006.004a.021.021 0 0 0-.004.012c0 .004.002.008.004.011Zm3.859 6.064 1.812 3.103a.024.024 0 0 0 .014.005.024.024 0 0 0 .013-.005.021.021 0 0 0 .005-.013.024.024 0 0 0-.005-.014l-1.814-3.104a.016.016 0 0 0-.011-.005c-.004 0-.009 0-.012.003a.014.014 0 0 0-.008.009.017.017 0 0 0-.001.012l.007.009Zm3.547 6.253 1.652 3.184a.022.022 0 0 0 .013.01c.005.001.01.001.015-.001a.02.02 0 0 0 .006-.014.02.02 0 0 0-.006-.014l-1.653-3.184a.01.01 0 0 0-.005-.006l-.006-.004-.008-.001-.008.002-.006.004-.004.007-.001.008.002.007.009.002Zm3.221 6.42 1.488 3.267a.02.02 0 0 0 .004.008l.007.006a.028.028 0 0 0 .009.001.019.019 0 0 0 .008-.002.022.022 0 0 0 .008-.005l.006-.007.001-.009-.002-.009-1.493-3.269-.005-.007a.03.03 0 0 0-.007-.005l-.009-.001-.008.002a.023.023 0 0 0-.009.014.023.023 0 0 0 .002.016Zm2.899 6.571 1.329 3.337c.001.003.002.006.005.008a.016.016 0 0 0 .008.006.03.03 0 0 0 .009.002.03.03 0 0 0 .01-.002.033.033 0 0 0 .013-.013.025.025 0 0 0 .001-.019l-1.331-3.336-.004-.008a.016.016 0 0 0-.008-.006l-.009-.002-.009.001a.03.03 0 0 0-.013.014.023.023 0 0 0-.001.018Zm2.576 6.704 1.165 3.396c.003.007.007.013.014.016a.027.027 0 0 0 .02.002.026.026 0 0 0 .016-.013c.004-.006.004-.014.002-.021l-1.169-3.396c-.001-.003-.002-.007-.005-.009l-.008-.007a.036.036 0 0 0-.01-.002.03.03 0 0 0-.01.002.02.02 0 0 0-.014.013.025.025 0 0 0-.001.019Zm2.249 6.817 1.005 3.446a.036.036 0 0 0 .015.019.034.034 0 0 0 .024.004.032.032 0 0 0 .022-.039l-1.01-3.446a.032.032 0 0 0-.014-.016.029.029 0 0 0-.022-.003.032.032 0 0 0-.016.014.03.03 0 0 0-.004.021Zm1.933 6.922.849 3.487a.038.038 0 0 0 .016.023.039.039 0 0 0 .028.005.021.021 0 0 0 .013-.005.047.047 0 0 0 .01-.01l.005-.013-.001-.014-.854-3.487-.005-.012-.01-.009-.012-.004a.033.033 0 0 0-.014 0 .043.043 0 0 0-.02.015.034.034 0 0 0-.005.024Zm1.621 6.984.694 3.52c.003.011.009.02.018.026.009.006.02.009.031.008a.041.041 0 0 0 .027-.017.039.039 0 0 0 .008-.031l-.7-3.52a.04.04 0 0 0-.017-.025.038.038 0 0 0-.029-.007.049.049 0 0 0-.025.017.038.038 0 0 0-.007.029Zm1.316 7.053.547 3.547a.05.05 0 0 0 .006.017c.004.005.008.01.013.013.005.004.01.007.016.008a.06.06 0 0 0 .019.001.05.05 0 0 0 .03-.019.046.046 0 0 0 .009-.034l-.552-3.549a.048.048 0 0 0-.019-.029.042.042 0 0 0-.061.01.044.044 0 0 0-.008.033v.002Zm1.021 7.102.404 3.565a.05.05 0 0 0 .02.034.049.049 0 0 0 .038.011.058.058 0 0 0 .035-.019.058.058 0 0 0 .011-.038l-.408-3.565a.049.049 0 0 0-.019-.033.032.032 0 0 0-.017-.009.044.044 0 0 0-.02-.002c-.006.001-.012.002-.018.006a.044.044 0 0 0-.015.012.056.056 0 0 0-.009.017.046.046 0 0 0-.002.02v.001Zm.738 7.136.267 3.579c0 .015.006.029.017.04a.056.056 0 0 0 .04.017c.015 0 .03-.006.041-.017a.06.06 0 0 0 .016-.04l-.27-3.579a.066.066 0 0 0-.006-.02.07.07 0 0 0-.013-.017.07.07 0 0 0-.019-.01.05.05 0 0 0-.021-.002.046.046 0 0 0-.021.005.076.076 0 0 0-.017.013.052.052 0 0 0-.011.019.076.076 0 0 0-.003.021v-.009Zm.465 7.159.134 3.586a.067.067 0 0 0 .02.044.064.064 0 0 0 .089-.004.06.06 0 0 0 .017-.045l-.139-3.588a.043.043 0 0 0-.006-.022.045.045 0 0 0-.014-.019.072.072 0 0 0-.021-.012.045.045 0 0 0-.023-.003.06.06 0 0 0-.023.005.062.062 0 0 0-.019.014.056.056 0 0 0-.015.043v.001Zm.211 7.172v3.587c0 .009.002.018.005.026a.062.062 0 0 0 .015.022.055.055 0 0 0 .022.014.07.07 0 0 0 .074-.014.068.068 0 0 0 .021-.048l-.014-3.587a.065.065 0 0 0-.02-.047.066.066 0 0 0-.046-.019.058.058 0 0 0-.026.005.06.06 0 0 0-.021.014.062.062 0 0 0-.015.021.075.075 0 0 0-.004.026h.009Zm-.051 7.175-.049 1.792-.059 1.792c0 .019.007.038.02.052a.084.084 0 0 0 .051.024c.01 0 .02-.001.029-.005a.06.06 0 0 0 .024-.015.055.055 0 0 0 .017-.023.089.089 0 0 0 .007-.028l.057-1.795.046-1.792a.086.086 0 0 0-.004-.028.097.097 0 0 0-.015-.024c-.007-.006-.014-.012-.023-.015a.066.066 0 0 0-.027-.006.066.066 0 0 0-.028.005.06.06 0 0 0-.024.015.087.087 0 0 0-.016.023.067.067 0 0 0-.006.028Zm-.329 7.162-.315 3.574c-.002.02.005.04.018.056a.077.077 0 0 0 .053.028.08.08 0 0 0 .087-.072l.31-3.568a.077.077 0 0 0-.04-.075.096.096 0 0 0-.029-.008.077.077 0 0 0-.084.069v-.004Zm-.706 7.139-.46 3.557a.092.092 0 0 0 .017.062.089.089 0 0 0 .056.032.088.088 0 0 0 .063-.017.084.084 0 0 0 .033-.056l.455-3.56a.113.113 0 0 0-.002-.032.073.073 0 0 0-.015-.029.069.069 0 0 0-.024-.021.067.067 0 0 0-.031-.01.07.07 0 0 0-.032.002.07.07 0 0 0-.029.014.082.082 0 0 0-.031.054v.004Zm-.982 7.105-.583 3.538a.09.09 0 0 0 .076.095.087.087 0 0 0 .063-.013.089.089 0 0 0 .039-.052l.578-3.537a.093.093 0 0 0-.016-.067.094.094 0 0 0-.059-.036.088.088 0 0 0-.067.016.09.09 0 0 0-.037.058l.006-.002Zm-1.223 7.069-.697 3.519a.094.094 0 0 0-.013.043.084.084 0 0 0 .008.044.095.095 0 0 0 .027.036.098.098 0 0 0 .086.018.105.105 0 0 0 .04-.022.094.094 0 0 0 .025-.037.1.1 0 0 0 .005-.045l.691-3.524a.089.089 0 0 0-.014-.069.093.093 0 0 0-.059-.039.095.095 0 0 0-.108.073l.009.003Zm-1.448 7.027-.807 3.495a.108.108 0 0 0 .013.078.128.128 0 0 0 .028.029.104.104 0 0 0 .038.015.1.1 0 0 0 .077-.013.105.105 0 0 0 .046-.063l.798-3.5a.099.099 0 0 0-.015-.071.097.097 0 0 0-.176.026l-.002.004Zm-1.675 6.978-.914 3.469a.11.11 0 0 0 .041.118.129.129 0 0 0 .039.019.125.125 0 0 0 .043.002.11.11 0 0 0 .074-.043.099.099 0 0 0 .018-.039l.907-3.474a.105.105 0 0 0-.017-.075.114.114 0 0 0-.063-.044.11.11 0 0 0-.128.064v.003Zm-1.872 6.925-1.019 3.441c-.005.015-.006.031-.005.047a.115.115 0 0 0 .015.044.116.116 0 0 0 .03.036.13.13 0 0 0 .042.022.123.123 0 0 0 .15-.082l1.01-3.446a.113.113 0 0 0 .004-.045.133.133 0 0 0-.013-.043.137.137 0 0 0-.029-.034.107.107 0 0 0-.041-.021.113.113 0 0 0-.045-.004.108.108 0 0 0-.043.013.118.118 0 0 0-.056.069v.003Zm-2.091 6.866-1.123 3.407a.128.128 0 0 0 .084.161.121.121 0 0 0 .098-.006.123.123 0 0 0 .064-.075l1.115-3.416a.118.118 0 0 0-.007-.094.126.126 0 0 0-.168-.054.124.124 0 0 0-.063.072v.005Zm-2.299 6.798-1.222 3.372a.137.137 0 0 0 .087.164.138.138 0 0 0 .173-.071l1.22-3.38a.132.132 0 0 0-.081-.171.129.129 0 0 0-.052-.007.131.131 0 0 0-.12.088l-.005.005Zm-2.505 6.733-1.331 3.335a.135.135 0 0 0-.01.056c0 .019.004.038.012.056a.167.167 0 0 0 .033.047.15.15 0 0 0 .161.028.144.144 0 0 0 .078-.079l1.324-3.342a.13.13 0 0 0 .012-.055.155.155 0 0 0-.011-.056.132.132 0 0 0-.032-.046.137.137 0 0 0-.048-.031.154.154 0 0 0-.056-.01.141.141 0 0 0-.101.047.132.132 0 0 0-.029.048l-.002.002Zm-2.713 6.639-1.434 3.292a.15.15 0 0 0 .004.114.16.16 0 0 0 .081.081.155.155 0 0 0 .201-.071l1.426-3.297a.154.154 0 0 0-.085-.186.155.155 0 0 0-.11-.004.153.153 0 0 0-.085.069l.002.002Zm-2.922 6.559-1.537 3.244a.161.161 0 0 0 0 .122.167.167 0 0 0 .299.018l1.532-3.253a.165.165 0 0 0 .018-.061.148.148 0 0 0-.008-.063.147.147 0 0 0-.033-.055.158.158 0 0 0-.114-.053.17.17 0 0 0-.063.01.16.16 0 0 0-.09.088l-.004.003Zm-3.126 6.462-1.642 3.184a.178.178 0 0 0 .21.222.185.185 0 0 0 .102-.064l1.635-3.202a.179.179 0 0 0 .049-.153.196.196 0 0 0-.032-.076.19.19 0 0 0-.063-.053.189.189 0 0 0-.081-.019.189.189 0 0 0-.081.019.182.182 0 0 0-.095.13l-.002.012Zm-3.334 6.36-1.746 3.138a.183.183 0 0 0-.023.068.17.17 0 0 0 .04.134.174.174 0 0 0 .056.044c.021.012.044.02.068.023a.17.17 0 0 0 .071-.006.188.188 0 0 0 .109-.088l1.74-3.148a.177.177 0 0 0 .017-.136.185.185 0 0 0-.031-.063.212.212 0 0 0-.053-.046.182.182 0 0 0-.246.068l-.002.012Zm-3.546 6.248-1.85 3.08a.19.19 0 0 0-.026.07.189.189 0 0 0 .092.19.191.191 0 0 0 .146.021.19.19 0 0 0 .118-.087l1.844-3.09a.185.185 0 0 0 .009-.135.187.187 0 0 0-.219-.128.184.184 0 0 0-.114.074v.005Zm-3.741 6.129-1.949 3.008a.174.174 0 0 0-.029.072.182.182 0 0 0 .001.077c.006.026.016.05.032.071.015.022.034.04.056.054a.21.21 0 0 0 .152.028.212.212 0 0 0 .126-.088l1.946-3.027a.195.195 0 0 0 .027-.147.198.198 0 0 0-.359-.064l-.003.016Zm-3.954 6.005-2.052 2.948a.224.224 0 0 0-.037.076.211.211 0 0 0 .162.255.221.221 0 0 0 .085 0 .21.21 0 0 0 .135-.094l2.049-2.961a.199.199 0 0 0 .033-.153.224.224 0 0 0-.029-.074.209.209 0 0 0-.342-.005l-.004.008Zm-4.153 5.86-2.152 2.879a.218.218 0 0 0 .212.345.22.22 0 0 0 .144-.087l2.138-2.891a.218.218 0 0 0 .047-.161.21.21 0 0 0-.164-.181.226.226 0 0 0-.086-.002.221.221 0 0 0-.141.093l.002.005Zm-4.352 5.72-2.248 2.803a.221.221 0 0 0-.041.079.236.236 0 0 0-.008.088c.004.03.013.058.027.084a.236.236 0 0 0 .137.109.236.236 0 0 0 .173-.02.218.218 0 0 0 .068-.057l2.236-2.814a.232.232 0 0 0 .046-.165.23.23 0 0 0-.165-.188.226.226 0 0 0-.237.079l.012.002Zm-4.548 5.566-2.344 2.724a.235.235 0 0 0 .199.369.241.241 0 0 0 .157-.063l2.343-2.735a.23.23 0 0 0-.028-.326.232.232 0 0 0-.257-.029.229.229 0 0 0-.071.056l.001.004Zm-4.729 5.408-2.438 2.643a.24.24 0 0 0-.045.166.24.24 0 0 0 .077.155.247.247 0 0 0 .325.01l2.439-2.654a.24.24 0 0 0-.016-.338.241.241 0 0 0-.341.016l-.001.002Zm-4.932 5.241-2.53 2.556a.256.256 0 0 0-.087.292.26.26 0 0 0 .15.149.256.256 0 0 0 .294-.087l2.53-2.569a.249.249 0 0 0 0-.353.256.256 0 0 0-.178-.074.256.256 0 0 0-.179.074v.012Zm-5.103 5.068-2.618 2.468a.263.263 0 0 0-.112.187.26.26 0 0 0 .013.111.253.253 0 0 0 .149.159.264.264 0 0 0 .307-.078l2.619-2.477a.259.259 0 0 0 .08-.179.258.258 0 0 0-.437-.192l-.001.001Zm-5.277 4.89-2.701 2.376a.267.267 0 0 0-.004.36c.044.05.105.082.171.091a.28.28 0 0 0 .189-.046l2.703-2.39a.264.264 0 0 0-.062-.438.274.274 0 0 0-.205-.011.245.245 0 0 0-.089.053l-.002.005Zm-5.442 4.702-2.783 2.283a.28.28 0 0 0 .155.483.282.282 0 0 0 .201-.051l2.783-2.3a.275.275 0 0 0 .099-.187.277.277 0 0 0-.252-.299.284.284 0 0 0-.203.063v.008Zm-5.603 4.521-2.85 2.188a.284.284 0 0 0-.052.406c.023.03.053.055.086.073a.289.289 0 0 0 .322-.022l2.84-2.199a.284.284 0 0 0-.145-.507.304.304 0 0 0-.112.009.28.28 0 0 0-.099.05l.01.002Zm-5.755 4.324-2.931 2.091a.299.299 0 0 0 .132.537.302.302 0 0 0 .224-.054l2.935-2.104a.294.294 0 0 0 .114-.305.303.303 0 0 0-.133-.181.293.293 0 0 0-.327.012l-.014.004Zm-5.897 4.136-2.998 1.991a.325.325 0 0 0-.094.083.315.315 0 0 0-.055.237.314.314 0 0 0 .136.202.316.316 0 0 0 .242.04.303.303 0 0 0 .113-.054l3.002-2.006a.298.298 0 0 0 .128-.192.293.293 0 0 0-.045-.226.316.316 0 0 0-.084-.083.32.32 0 0 0-.11-.045.293.293 0 0 0-.228.046l-.007.007Zm-6.029 3.935-3.062 1.895a.312.312 0 0 0-.073.415.312.312 0 0 0 .181.135.313.313 0 0 0 .227-.02l3.066-1.907a.309.309 0 0 0 .018-.518.318.318 0 0 0-.349-.012l-.008.012Zm-6.155 3.74-3.123 1.797a.327.327 0 0 0-.152.197.326.326 0 0 0 .478.364l3.125-1.808a.318.318 0 0 0-.078-.584.324.324 0 0 0-.244.032l-.006.002Zm-6.274 3.546-3.177 1.698a.33.33 0 0 0 .066.605.336.336 0 0 0 .251-.02l3.182-1.71a.329.329 0 0 0-.19-.621.343.343 0 0 0-.125.042l-.007.006Zm-6.378 3.346-3.228 1.603a.336.336 0 0 0-.168.198.337.337 0 0 0 .216.428.345.345 0 0 0 .26-.016l3.233-1.613a.317.317 0 0 0 .112-.079.333.333 0 0 0 .056-.382.315.315 0 0 0-.085-.107.334.334 0 0 0-.257-.077.331.331 0 0 0-.13.042l-.009.003Zm-6.481 3.156-3.274 1.506a.354.354 0 0 0 .295.635l3.28-1.518a.349.349 0 0 0 .243-.189.35.35 0 0 0 .003-.306.367.367 0 0 0-.097-.124.366.366 0 0 0-.299-.073.37.37 0 0 0-.144.066l-.007.003Zm-6.572 2.963-3.318 1.415a.385.385 0 0 0-.116.079.377.377 0 0 0-.077.117.345.345 0 0 0-.026.138c0 .047.01.094.029.137a.37.37 0 0 0 .336.218.367.367 0 0 0 .138-.029l3.322-1.415a.348.348 0 0 0 .115-.079.349.349 0 0 0 .072-.387.351.351 0 0 0-.197-.189.354.354 0 0 0-.273.004l-.005-.009Zm-6.655 2.774-3.356 1.316a.367.367 0 0 0-.011.68.37.37 0 0 0 .283.004l3.362-1.328a.38.38 0 0 0 .13-.073.372.372 0 0 0 .124-.263.366.366 0 0 0-.525-.34l-.007.004Zm-6.731 2.587-3.385 1.224a.38.38 0 0 0-.216.48.38.38 0 0 0 .476.228l3.398-1.238a.376.376 0 1 0-.258-.708l-.015.014Zm-6.798 2.407-3.422 1.135a.398.398 0 0 0-.239.191.372.372 0 0 0-.025.303.384.384 0 0 0 .356.263.387.387 0 0 0 .154-.026l3.429-1.148a.381.381 0 0 0 .241-.483.387.387 0 0 0-.487-.239l-.007.004Zm-6.858 2.227-3.451 1.049a.394.394 0 0 0 .232.753l3.458-1.061a.397.397 0 0 0 .225-.193.387.387 0 0 0-.163-.521.399.399 0 0 0-.295-.033l-.006.006Zm-6.914 2.053-3.476.965a.405.405 0 0 0-.31.339.397.397 0 0 0 .012.161.393.393 0 0 0 .198.247.404.404 0 0 0 .317.029l3.483-.975a.394.394 0 0 0 .314-.338.392.392 0 0 0-.214-.407.41.41 0 0 0-.319-.022l-.005.001Zm-6.964 1.886-3.5.885a.411.411 0 0 0-.111.753.419.419 0 0 0 .315.046l3.504-.884a.408.408 0 0 0-.203-.791l-.005-.009Zm-7.007 1.72-3.518.801a.42.42 0 1 0 .188.821l3.525-.811a.44.44 0 0 0 .159-.06.429.429 0 0 0 .185-.276.417.417 0 0 0-.533-.475h-.006Zm-7.044 1.562-3.537.722a.425.425 0 0 0-.268.664.445.445 0 0 0 .277.18c.056.01.114.009.169-.002l3.544-.733a.427.427 0 0 0 .312-.501.428.428 0 0 0-.49-.332l-.007.002Zm-7.08 1.404-3.549.647a.444.444 0 0 0-.356.511.443.443 0 0 0 .514.353l3.564-.657a.436.436 0 0 0-.161-.854h-.012Zm-7.105 1.257-3.563.573a.446.446 0 1 0 .144.884l3.563-.584a.436.436 0 0 0 .29-.179.44.44 0 0 0-.262-.689.443.443 0 0 0-.174-.005h.002Zm-7.131 1.118-3.574.5a.459.459 0 0 0-.391.516.46.46 0 0 0 .519.388l3.581-.513a.454.454 0 0 0 .194-.799.46.46 0 0 0-.324-.096l-.005.004Zm-7.151.962-3.583.433a.469.469 0 0 0-.409.519.465.465 0 0 0 .523.406l3.59-.442a.46.46 0 1 0-.114-.914l-.007-.002Zm-7.17.833-3.592.368a.474.474 0 1 0 .098.944l3.599-.378a.473.473 0 0 0 .42-.517.468.468 0 0 0-.52-.417h-.005Zm-7.184.702-3.598.305a.481.481 0 0 0-.273.851.493.493 0 0 0 .355.113l3.605-.315a.484.484 0 0 0 .41-.516.481.481 0 0 0-.494-.438h-.005Zm-7.196.577-3.601.242a.503.503 0 0 0-.436.334.496.496 0 0 0 .026.376.487.487 0 0 0 .286.248c.061.02.127.028.191.024l3.61-.251a.485.485 0 0 0 .274-.845.493.493 0 0 0-.342-.128h-.008Zm-7.205.463-3.606.177a.487.487 0 0 0-.195.044.495.495 0 0 0-.126.833.51.51 0 0 0 .373.122l3.611-.191a.497.497 0 0 0 .46-.521.5.5 0 0 0-.511-.471l-.006.007Zm-7.214.326-3.606.125a.515.515 0 0 0-.495.527.512.512 0 0 0 .531.492l3.615-.134a.51.51 0 0 0 .514-.525.519.519 0 0 0-.048-.197.512.512 0 0 0-.503-.288h-.008Zm-7.215.223-3.608.069a.527.527 0 0 0-.476.329.52.52 0 0 0 .295.672.53.53 0 0 0 .201.036l3.616-.078a.523.523 0 0 0 .498-.322.51.51 0 0 0-.133-.574.529.529 0 0 0-.388-.132h-.005Zm-7.217.111-3.61.018a.532.532 0 0 0-.328.873.54.54 0 0 0 .328.177l3.617-.023a.53.53 0 0 0 .436-.116.532.532 0 0 0 .191-.406.524.524 0 0 0-.191-.407.535.535 0 0 0-.436-.116h-.007Zm-7.222.009-3.609-.034a.53.53 0 0 0-.497.323.523.523 0 0 0 .11.579.52.52 0 0 0 .376.159l3.617.029a.537.537 0 0 0 .539-.527.533.533 0 0 0-.53-.535l-.006.006Zm-7.219-.094-3.61-.083a.532.532 0 0 0-.399.897.535.535 0 0 0 .374.164l3.619.08a.536.536 0 0 0 .546-.519.53.53 0 0 0-.523-.542l-.007.003Zm-7.216-.192-3.608-.131a.55.55 0 0 0-.537.308.533.533 0 0 0 .101.608.531.531 0 0 0 .181.122c.067.029.14.043.214.043l3.615.127a.54.54 0 0 0 .415-.906.542.542 0 0 0-.378-.171h-.003Zm-7.216-.287-3.606-.177a.55.55 0 0 0-.578.519.548.548 0 0 0 .523.574l3.613.177a.558.558 0 0 0 .395-.14.55.55 0 0 0 .179-.377.535.535 0 0 0-.313-.518.553.553 0 0 0-.207-.051l-.006-.007Zm-7.211-.381-3.604-.225a.562.562 0 0 0-.402.138.55.55 0 0 0 .334.965l3.61.219a.559.559 0 0 0 .383-.148.544.544 0 0 0 .047-.756.558.558 0 0 0-.362-.193h-.006Zm-7.205-.47-3.601-.266a.56.56 0 0 0-.468.921.566.566 0 0 0 .384.192l3.606.262a.571.571 0 0 0 .406-.133.556.556 0 0 0 .058-.782.56.56 0 0 0-.382-.191l-.003-.003Zm-7.199-.553-3.597-.31a.562.562 0 0 0-.43.119.55.55 0 0 0-.183.615.568.568 0 0 0 .517.386l3.604.304a.572.572 0 0 0 .411-.129.548.548 0 0 0 .174-.597.557.557 0 0 0-.489-.388h-.007Zm-7.199-.638-3.594-.353a.573.573 0 0 0-.624.51.563.563 0 0 0 .128.416.574.574 0 0 0 .386.204l3.601.345a.56.56 0 0 0 .416-.127.562.562 0 0 0-.308-.998l-.005.003Zm-7.179-.721-3.59-.389a.58.58 0 0 0-.638.507.577.577 0 0 0 .511.634l3.596.383a.566.566 0 0 0 .433-.115.576.576 0 0 0 .218-.389.58.58 0 0 0-.021-.227.591.591 0 0 0-.287-.342.59.59 0 0 0-.22-.062h-.002Zm-7.176-.796-3.587-.427a.58.58 0 0 0-.43.12.592.592 0 0 0-.148.171.591.591 0 0 0-.053.44.586.586 0 0 0 .492.419l3.592.423a.579.579 0 0 0 .624-.507.581.581 0 0 0-.487-.638l-.003-.001Zm-7.171-.872-3.579-.464a.6.6 0 0 0-.448.106.583.583 0 0 0 .071.984c.07.037.146.06.225.067l3.587.46a.587.587 0 0 0 .631-.505.584.584 0 0 0-.482-.648h-.005Zm-7.159-.946-3.576-.498a.593.593 0 0 0-.648.503.585.585 0 0 0 .107.428c.09.123.224.207.375.234l3.582.496a.598.598 0 0 0 .423-.124.586.586 0 0 0-.26-1.039h-.003Zm-7.148-1.014-3.563-.531a.6.6 0 0 0-.68.498.591.591 0 0 0 .502.675l3.577.53a.593.593 0 0 0 .554-.931.6.6 0 0 0-.376-.24l-.014-.001Zm-7.093-1.179-3.526-.739h-.011a.6.6 0 0 0-.688.465.6.6 0 0 0 .441.701l3.545.741a.606.606 0 0 0 .465-.071.59.59 0 0 0 .005-1.006.598.598 0 0 0-.224-.085l-.007-.006Zm-7.044-1.531-3.506-.839a.602.602 0 0 0-.725.442.592.592 0 0 0 .073.451.603.603 0 0 0 .372.268l3.521.84a.602.602 0 0 0 .753-.673.608.608 0 0 0-.253-.393.616.616 0 0 0-.221-.093l-.014-.003Zm-7.003-1.719-3.487-.918a.61.61 0 0 0-.448.07.596.596 0 0 0-.216.808.599.599 0 0 0 .354.281l3.501.92a.602.602 0 0 0 .674-.88.607.607 0 0 0-.367-.277l-.011-.004Zm-6.962-1.873-3.465-.992a.604.604 0 0 0-.769.644.609.609 0 0 0 .224.402.606.606 0 0 0 .21.107l3.479.994a.607.607 0 0 0 .721-.417.595.595 0 0 0-.388-.734l-.012-.004Zm-6.922-2.021-3.444-1.062a.609.609 0 0 0-.757.398.596.596 0 0 0 .401.752l3.456 1.061a.61.61 0 0 0 .728-.405.602.602 0 0 0-.372-.743l-.012-.001Zm-6.877-2.165-3.421-1.136a.602.602 0 0 0-.464.032.597.597 0 0 0-.305.348.581.581 0 0 0-.03.234.596.596 0 0 0 .413.53l3.435 1.14a.612.612 0 0 0 .753-.387.602.602 0 0 0-.37-.758l-.011-.003Zm-6.83-2.307-3.397-1.209a.608.608 0 0 0-.736.827.61.61 0 0 0 .324.314l3.41 1.21a.624.624 0 0 0 .472-.015.61.61 0 0 0 .293-.815.6.6 0 0 0-.355-.309l-.011-.003Zm-6.78-2.451-3.37-1.279a.612.612 0 0 0-.795.818.62.62 0 0 0 .357.318l3.385 1.28a.624.624 0 0 0 .473-.006.61.61 0 0 0 .311-.81.615.615 0 0 0-.349-.318l-.012-.003Zm-6.723-2.593-3.341-1.352a.626.626 0 0 0-.47.003.616.616 0 0 0-.33.332.6.6 0 0 0 .003.466.604.604 0 0 0 .334.328l3.346 1.36a.615.615 0 0 0 .799-.335.607.607 0 0 0-.338-.793l-.003-.009Zm-6.666-2.74-3.309-1.426a.62.62 0 0 0-.781.33.61.61 0 0 0 .291.792l3.323 1.431a.615.615 0 0 0 .817-.784.615.615 0 0 0-.327-.336l-.014-.007Zm-6.6-2.89-3.275-1.502a.616.616 0 0 0-.837.768.613.613 0 0 0 .321.344l3.287 1.508a.626.626 0 0 0 .689-.096.621.621 0 0 0 .201-.433.599.599 0 0 0-.374-.582l-.012-.007Zm-6.527-3.045-3.235-1.581a.623.623 0 0 0-.807.291.612.612 0 0 0 .26.812l3.25 1.592a.611.611 0 0 0 .472.03.606.606 0 0 0 .355-.31.602.602 0 0 0 .031-.469.634.634 0 0 0-.313-.353l-.013-.012Zm-6.45-3.203-3.194-1.663a.627.627 0 0 0-.826.267.616.616 0 0 0 .249.826l3.207 1.668a.634.634 0 0 0 .473.043.636.636 0 0 0 .364-.303.603.603 0 0 0-.073-.68.627.627 0 0 0-.189-.151l-.011-.007Zm-6.363-3.369-3.147-1.746h-.009a.624.624 0 0 0-.832.247.618.618 0 0 0 .225.834l3.162 1.753a.636.636 0 0 0 .475.059.637.637 0 0 0 .377-.293.628.628 0 0 0 .055-.472.614.614 0 0 0-.299-.371l-.007-.011Zm-6.269-3.536-3.095-1.838a.627.627 0 0 0-.853.214.613.613 0 0 0 .216.847l3.11 1.843a.625.625 0 0 0 .83-.228.615.615 0 0 0-.19-.833l-.018-.005Zm-6.168-3.71-3.039-1.923a.632.632 0 0 0-.468-.081.605.605 0 0 0-.389.271.61.61 0 0 0 .016.684.62.62 0 0 0 .175.167l3.055 1.933a.624.624 0 0 0 .837-.202.612.612 0 0 0-.169-.838l-.017-.011Zm-6.05-3.891-2.977-2.015h-.008a.614.614 0 0 0-.47-.108.627.627 0 0 0-.405.259.606.606 0 0 0 .001.693.623.623 0 0 0 .177.17l2.993 2.029c.136.089.302.121.461.089a.617.617 0 0 0 .49-.713.614.614 0 0 0-.252-.393l-.01-.011Zm-5.922-4.078-2.91-2.112h-.008a.619.619 0 0 0-.861.133.61.61 0 0 0 .134.856l2.924 2.122a.611.611 0 0 0 .46.112.619.619 0 0 0 .517-.701.62.62 0 0 0-.247-.401l-.009-.009Zm-5.78-4.272-2.833-2.211h-.009a.615.615 0 0 0-.864.103.609.609 0 0 0 .103.857l2.851 2.226a.618.618 0 0 0 .976-.557.609.609 0 0 0-.215-.405l-.009-.013Zm-5.626-4.471-2.749-2.312h-.009a.615.615 0 0 0-.864.07.608.608 0 0 0 .072.858l2.765 2.328a.619.619 0 0 0 .85-.083.61.61 0 0 0-.056-.847l-.009-.014Zm-5.453-4.676-2.657-2.414-.009-.009a.613.613 0 0 0-1.024.474c.007.16.078.312.198.421l2.672 2.434a.615.615 0 0 0 1.005-.48.606.606 0 0 0-.178-.417l-.007-.009Zm-5.263-4.883-2.555-2.52h-.01a.598.598 0 0 0-.434-.187.603.603 0 0 0-.438.178.614.614 0 0 0-.177.436.604.604 0 0 0 .191.431l2.571 2.54a.604.604 0 0 0 .438.197.606.606 0 0 0 .447-.179.597.597 0 0 0 .177-.444.6.6 0 0 0-.201-.434l-.01-.018Zm-5.06-5.094-2.443-2.627v-.009a.609.609 0 0 0-1.027.393.6.6 0 0 0 .136.424l2.459 2.653a.604.604 0 0 0 .667.177.608.608 0 0 0 .402-.557.598.598 0 0 0-.178-.439l-.017-.015Zm-4.819-5.308-2.316-2.733-.009-.01a.611.611 0 0 0-.65-.196.604.604 0 0 0-.276.97l2.336 2.756a.606.606 0 0 0 .837.052.602.602 0 0 0 .09-.828l-.012-.011Zm-4.577-5.519-2.188-2.83-.009-.013a.606.606 0 0 0-1.064.292.594.594 0 0 0 .106.437l2.204 2.863a.601.601 0 0 0 .4.23.622.622 0 0 0 .447-.118.607.607 0 0 0 .232-.397.596.596 0 0 0-.119-.444l-.009-.02Zm-4.304-5.727-2.044-2.942-.009-.012a.605.605 0 0 0-1.013.004.599.599 0 0 0 .023.675l2.06 2.967a.598.598 0 0 0 .386.249.6.6 0 0 0 .451-.096.608.608 0 0 0 .251-.385.594.594 0 0 0-.096-.448l-.01-.012Zm-4.011-5.932-1.89-3.039v-.014a.595.595 0 0 0-.373-.267.599.599 0 0 0-.65.893l1.904 3.068a.608.608 0 0 0 .813.172.593.593 0 0 0 .212-.798l-.016-.015Zm-3.702-6.129-1.728-3.135v-.014a.597.597 0 0 0-1.05.57l1.741 3.163a.603.603 0 0 0 .813.237.605.605 0 0 0 .288-.355.589.589 0 0 0-.05-.452l-.014-.014Zm-3.368-6.314-1.555-3.221v-.014a.593.593 0 0 0-.813-.318.585.585 0 0 0-.333.599c.01.081.036.159.077.23l1.566 3.251a.607.607 0 0 0 .58.391.597.597 0 0 0 .554-.426.592.592 0 0 0-.065-.478l-.01-.014Zm-3.019-6.485-1.378-3.301v-.014a.59.59 0 0 0-.76-.292.587.587 0 0 0-.332.739l1.384 3.333a.598.598 0 0 0 .548.365.59.59 0 0 0 .42-.172.599.599 0 0 0 .175-.417.583.583 0 0 0-.045-.225l-.012-.016Zm-2.665-6.635-1.192-3.361v-.014a.582.582 0 0 0-.745-.357.577.577 0 0 0-.359.74l1.197 3.402a.574.574 0 0 0 .3.333c.07.034.145.053.222.057a.583.583 0 0 0 .588-.775l-.01-.025Zm-2.291-6.77-1.004-3.43v-.016a.571.571 0 0 0-.277-.351.596.596 0 0 0-.446-.051.597.597 0 0 0-.349.28.582.582 0 0 0-.044.444l1.009 3.462a.58.58 0 0 0 .722.395.582.582 0 0 0 .398-.717l-.009-.016Zm-1.916-6.886-.816-3.48v-.016a.57.57 0 0 0-.69-.426.575.575 0 0 0-.43.684l.819 3.512a.566.566 0 0 0 .253.37.588.588 0 0 0 .443.077.594.594 0 0 0 .365-.263.573.573 0 0 0 .063-.443l-.007-.015Zm-1.536-6.981-.627-3.519v-.014a.572.572 0 0 0-1.026-.226.563.563 0 0 0-.095.423l.627 3.548a.563.563 0 0 0 .235.367.569.569 0 0 0 .636.015.559.559 0 0 0 .252-.356.567.567 0 0 0 .005-.222l-.007-.016Zm-1.164-7.046-.442-3.538v-.014a.562.562 0 0 0-.629-.487.568.568 0 0 0-.375.212.556.556 0 0 0-.115.413l.44 3.575a.57.57 0 0 0 1.01.279.56.56 0 0 0 .116-.415l-.005-.025Zm-.794-7.111-.263-3.565v-.014a.557.557 0 0 0-.596-.495.561.561 0 0 0-.52.575l.26 3.594a.558.558 0 0 0 .599.497.56.56 0 0 0 .52-.576v-.016Zm-.435-7.136-.089-3.573v-.015a.55.55 0 0 0-.566-.508.55.55 0 0 0-.54.535l.084 3.602a.547.547 0 0 0 .355.501.558.558 0 0 0 .756-.528v-.014Zm-.095-7.158.069-3.577v-.012a.544.544 0 0 0-.538-.584.541.541 0 0 0-.401.163.549.549 0 0 0-.157.402l-.073 3.598a.546.546 0 0 0 .54.557.566.566 0 0 0 .392-.153.547.547 0 0 0 .169-.383v-.011Zm.213-7.145.215-3.571v-.011a.534.534 0 0 0-.303-.517.554.554 0 0 0-.597.081.545.545 0 0 0-.183.37l-.223 3.593a.545.545 0 0 0 .305.52.539.539 0 0 0 .6-.08.538.538 0 0 0 .184-.372l.002-.013Zm.504-7.136.38-3.555v-.013a.528.528 0 0 0-.278-.525.524.524 0 0 0-.41-.043.524.524 0 0 0-.32.256.533.533 0 0 0-.062.199l-.386 3.58a.54.54 0 0 0 .871.474.534.534 0 0 0 .198-.359l.007-.014Zm323.479-174.264 3.33-1.386a.058.058 0 0 0 .032-.077.059.059 0 0 0-.032-.03.058.058 0 0 0-.045 0l-3.337 1.384a.06.06 0 0 0-.032.079.046.046 0 0 0 .013.02.066.066 0 0 0 .02.014.069.069 0 0 0 .024.005.06.06 0 0 0 .023-.005l.004-.004Zm6.692-2.681 3.404-1.198a.052.052 0 0 0 .031-.027.046.046 0 0 0 .005-.02.045.045 0 0 0-.004-.02.04.04 0 0 0-.01-.018.055.055 0 0 0-.017-.013c-.006-.003-.013-.004-.02-.005a.045.045 0 0 0-.02.004l-3.41 1.192a.06.06 0 0 0-.032.029.055.055 0 0 0-.002.042.052.052 0 0 0 .029.031.06.06 0 0 0 .042.003h.004Zm6.848-2.3 3.467-1.006a.051.051 0 0 0 .029-.023.047.047 0 0 0-.019-.065.047.047 0 0 0-.037-.004l-3.472 1.003a.056.056 0 0 0-.017.009.047.047 0 0 0-.013.015.055.055 0 0 0-.006.018c0 .007 0 .013.002.02a.056.056 0 0 0 .009.017c.004.005.01.009.015.012a.06.06 0 0 0 .019.006.04.04 0 0 0 .019-.002h.004Zm6.961-1.916 3.517-.819a.034.034 0 0 0 .017-.005.033.033 0 0 0 .014-.012.048.048 0 0 0 .008-.016.04.04 0 0 0-.001-.019.035.035 0 0 0-.008-.016.04.04 0 0 0-.014-.012.04.04 0 0 0-.018-.004.038.038 0 0 0-.018.003l-3.521.812a.047.047 0 0 0-.023.021.048.048 0 0 0-.004.031c.002.011.008.02.017.027.008.006.019.01.03.009h.004Zm7.056-1.544 3.563-.632a.03.03 0 0 0 .013-.005.032.032 0 0 0 .01-.01.033.033 0 0 0 0-.04c-.002-.004-.006-.007-.01-.01a.021.021 0 0 0-.013-.005.033.033 0 0 0-.014 0l-3.563.626a.038.038 0 0 0-.015.005.057.057 0 0 0-.011.011.035.035 0 0 0-.006.014.043.043 0 0 0 0 .016c0 .005.001.01.004.015l.01.011a.04.04 0 0 0 .015.006h.015l.002-.002Zm7.128-1.175 3.584-.453a.027.027 0 0 0 .018-.011.027.027 0 0 0 .007-.02.026.026 0 0 0-.007-.019.032.032 0 0 0-.018-.012l-3.588.448a.037.037 0 0 0-.024.01.035.035 0 0 0-.01.024c0 .009.004.017.01.023.007.007.015.01.024.01h.004Zm7.177-.817 3.601-.278a.025.025 0 0 0 .019-.009.032.032 0 0 0 .007-.019.025.025 0 0 0-.01-.018.03.03 0 0 0-.02-.007l-3.603.274a.026.026 0 0 0-.011.003l-.009.006a.047.047 0 0 0-.005.01c-.001.004-.002.008-.001.012a.02.02 0 0 0 .003.01.02.02 0 0 0 .006.009c.003.003.006.004.01.006l.011.001h.002Zm7.212-.47 3.611-.11a.029.029 0 0 0 .018-.007.029.029 0 0 0 .007-.018.026.026 0 0 0-.007-.017.025.025 0 0 0-.018-.008l-3.613.108a.031.031 0 0 0-.018.009.024.024 0 0 0-.007.018c0 .007.003.013.008.017a.027.027 0 0 0 .019.008Zm7.224-.138 3.613.049a.027.027 0 0 0 .017-.006.027.027 0 0 0 .006-.017.01.01 0 0 0-.001-.008l-.004-.008a.03.03 0 0 0-.007-.005.03.03 0 0 0-.009-.002l-3.615-.051a.02.02 0 0 0-.016.007.02.02 0 0 0-.007.016c0 .006.002.012.007.017.004.005.01.007.016.008Zm7.226.174 3.608.202a.02.02 0 0 0 .021-.021.02.02 0 0 0-.021-.021l-3.61-.204a.025.025 0 0 0-.012.008.023.023 0 0 0-.004.014c0 .005.001.01.004.014a.02.02 0 0 0 .012.008h.002Zm7.208.475 3.597.345a.014.014 0 0 0 .009 0 .011.011 0 0 0 .008-.003.013.013 0 0 0 .006-.007c.002-.003.002-.006.002-.009 0-.003 0-.006-.002-.009-.001-.002-.003-.005-.006-.006l-.008-.004-.009.001-3.597-.354a.02.02 0 0 0-.014.006.016.016 0 0 0-.006.013c0 .006.002.01.006.014a.02.02 0 0 0 .014.006v.007Zm7.186.757 3.581.48h.008a.011.011 0 0 0 .008-.003l.005-.006c.002-.003.002-.005.002-.008s0-.006-.002-.008l-.005-.007a.069.069 0 0 0-.008-.003l-.008.001-3.581-.481a.011.011 0 0 0-.008 0l-.006.003a.01.01 0 0 0-.005.006l-.002.007a.009.009 0 0 0 0 .007l.003.006a.01.01 0 0 0 .006.005l.007.001h.005Zm7.152 1.024 3.564.605.006.001.006-.003.005-.004a.014.014 0 0 0 .002-.006.015.015 0 0 0-.004-.011c-.003-.003-.006-.006-.01-.007l-3.563-.608a.009.009 0 0 0-.007 0 .014.014 0 0 0-.006.002l-.004.006-.001.006a.006.006 0 0 0 0 .006.01.01 0 0 0 .002.006l.004.005a.014.014 0 0 0 .006.002Zm7.113 1.272 3.538.725c.002.002.006.003.009.003a.016.016 0 0 0 .009-.003v-.005l-.002-.006-.004-.004a.008.008 0 0 0-.005-.002l-3.54-.727a.012.012 0 0 0-.01.002.016.016 0 0 0-.006.008l-.001.006.002.005.004.005a.014.014 0 0 0 .006.002v-.009Zm7.063 1.509 3.514.837s.014 0 .014-.009c.002-.002.002-.005.002-.007 0-.003 0-.005-.002-.007l-3.515-.839s-.014 0-.014.009a.011.011 0 0 0-.003.008c0 .003.001.006.003.008h.001Zm7.017 1.734 3.487.943h.013l.002-.007-.002-.006-3.487-.944c-.002-.002-.004-.002-.006-.002-.003 0-.005 0-.007.002a.014.014 0 0 0-.002.007l.002.007Zm27.488 8.845 3.369 1.3-3.367-1.302-.002.002Zm6.72 2.639 3.337 1.376-3.337-1.376ZM43.934 513.793h8.773v1.435h-8.773v-1.435Z"
  />
  <path fill="#4d2049" d="M44.412 514.509h7.65v1.886h-7.65v-1.886Z" />
  <path fill="#4d2049" d="M44.95 515.864h6.58v1.487h-6.58v-1.487Z" />
  <path fill="#4d2049" d="M43.933 517.35h8.987v2.284h-8.987v-2.284Z" />
  <path fill="#4d2049" d="M44.412 518.997h7.65v8.074h-7.65v-8.074Z" />
  <path
    fill="#170011"
    d="m387.213 482.368 3.058 52.404a.47.47 0 0 1-.131.358.499.499 0 0 1-.352.15h-4.431a.482.482 0 0 1-.483-.493l1.618-53.563.721 1.144Z"
  />
  <path
    fill="#170011"
    d="m392.01 486.151-4.005 9.771-.225-3.833c-.005-.101 4.23-7.047 4.23-7.047v1.109Zm-11.954 3.334 5.835 11.702-.163 5.346-5.813-16.05.141-.998Zm5.536 21.529-10.451-8.7-4.825-9.114v.729l3.88 9.531 11.282 11.359.114-3.805Z"
  />
  <path
    fill="#170011"
    d="m381.007 493.497-7.072-4.012v.591l7.87 5.624-.798-2.203Zm19.259 2.984-3.514 7.863s-7.864 6.722-7.875 6.563l-.194-3.336 7.23-4.32 3.986-6.77h.367Z"
  />
  <path fill="#170011" d="m395.811 494.332-.644 9.363-1.667.998 1.872-10.757.439.396Z" />
  <path
    fill="#b9cc59"
    d="M407.767 477.577c-1.767 0-3.2-1.081-3.2-2.413 0-1.333 1.433-2.413 3.2-2.413 1.767 0 3.2 1.08 3.2 2.413 0 1.332-1.433 2.413-3.2 2.413Zm-.525 2.863c0 .634.645 1.147 1.442 1.147.796 0 1.443-.513 1.443-1.147 0-.633-.645-1.144-1.443-1.144s-1.442.513-1.442 1.144Zm-15.907-21.898a2.418 2.418 0 0 1-2.426-2.41 2.418 2.418 0 0 1 2.426-2.409 2.419 2.419 0 0 1 2.427 2.409 2.419 2.419 0 0 1-2.427 2.41Zm-6.467 4.264a1.35 1.35 0 0 1 1.124-1.548c.741-.12 1.439.38 1.56 1.116a1.35 1.35 0 0 1-1.124 1.548c-.741.12-1.44-.38-1.56-1.116Zm-27.574 15.376c-.576-1.382.249-3.033 1.842-3.687 1.593-.655 3.351-.064 3.927 1.318.576 1.382-.249 3.033-1.842 3.687-1.593.654-3.351.064-3.927-1.318Z"
  />
  <path
    fill="#4f2c4d"
    d="m132.045 496.481-3.517 7.863s-7.864 6.722-7.873 6.563l-.194-3.336 7.228-4.32 3.987-6.77h.369Z"
  />
  <path fill="#4f2c4d" d="m127.592 494.332-.643 9.363-1.67.998 1.875-10.757.438.396Z" />
  <path
    fill="#b9cc59"
    d="M139.546 477.577c-1.767 0-3.2-1.081-3.2-2.413 0-1.333 1.433-2.413 3.2-2.413 1.767 0 3.2 1.08 3.2 2.413 0 1.332-1.433 2.413-3.2 2.413Zm-.524 2.863c0 .634.647 1.147 1.443 1.147s1.443-.513 1.443-1.147c0-.633-.647-1.144-1.443-1.144s-1.443.513-1.443 1.144Zm-15.906-21.898a2.418 2.418 0 0 1-2.426-2.41 2.418 2.418 0 0 1 2.426-2.409 2.418 2.418 0 0 1 2.427 2.409 2.418 2.418 0 0 1-2.427 2.41Zm-6.078 4.985a1.343 1.343 0 0 1 0-1.909 1.367 1.367 0 0 1 1.923 0c.53.527.531 1.382 0 1.909a1.367 1.367 0 0 1-1.923 0ZM89.07 478.183c-.576-1.382.248-3.033 1.841-3.687 1.593-.655 3.352-.064 3.927 1.318.576 1.382-.249 3.033-1.842 3.687-1.593.654-3.35.064-3.927-1.318Z"
  />
  <path
    fill="#170011"
    d="m167.814 414.097-9.889 24.106s-.535-9.211-.553-9.457c-.018-.246 10.434-17.386 10.434-17.386l.008 2.737Zm20.366 25.482-8.668 19.396s-19.399 16.572-19.42 16.187c-.021-.386-.479-8.231-.479-8.231l17.829-10.65 9.833-16.699.905-.003Z"
  />
  <path fill="#170011" d="m177.193 434.279-1.585 23.094-4.118 2.46 4.62-26.531 1.083.977Z" />
  <path
    fill="#cadb5e"
    d="M206.682 392.946c-4.359 0-7.893-2.665-7.893-5.952 0-3.288 3.534-5.953 7.893-5.953s7.892 2.665 7.892 5.953c0 3.287-3.533 5.952-7.892 5.952Zm2.264 9.895c-1.965 0-3.558-1.266-3.558-2.827s1.593-2.827 3.558-2.827c1.965 0 3.558 1.266 3.558 2.827s-1.593 2.827-3.558 2.827Zm-42.794-56.843c-3.305 0-5.984-2.661-5.984-5.942 0-3.282 2.679-5.942 5.984-5.942s5.985 2.66 5.985 5.942c0 3.281-2.68 5.942-5.985 5.942Zm-15.863 10.696a3.33 3.33 0 0 1 2.494-4.007c1.804-.423 3.611.686 4.036 2.476a3.33 3.33 0 0 1-2.494 4.007c-1.804.423-3.61-.686-4.036-2.476Zm259.806 7.399c-2.54 0-4.598-1.636-4.598-3.653 0-2.017 2.058-3.653 4.598-3.653s4.598 1.636 4.598 3.653c0 2.017-2.058 3.653-4.598 3.653Z"
  />
  <path
    fill="#b2d547"
    d="M246.267 353.209c-1.836-4.406.793-9.669 5.871-11.754 5.078-2.086 10.683-.204 12.519 4.202 1.835 4.407-.793 9.67-5.872 11.755-5.078 2.086-10.683.204-12.518-4.203Z"
  />
  <path
    fill="#f3f8ff"
    d="M317.618 455.059a1.583 1.583 0 0 1-1.589-1.578c0-.871.711-1.578 1.589-1.578s1.589.707 1.589 1.578c0 .872-.711 1.578-1.589 1.578Zm-1.582 5.749a1.578 1.578 0 0 1 1.314-1.81 1.588 1.588 0 0 1 1.823 1.305 1.579 1.579 0 0 1-1.314 1.81 1.587 1.587 0 0 1-1.823-1.305Zm1.582 16.001a1.584 1.584 0 0 1-1.589-1.578c0-.872.711-1.578 1.589-1.578s1.589.706 1.589 1.578c0 .871-.711 1.578-1.589 1.578Zm0 7.058a1.584 1.584 0 0 1-1.589-1.578c0-.872.711-1.578 1.589-1.578s1.589.706 1.589 1.578c0 .871-.711 1.578-1.589 1.578Zm-152.989-28.808a1.584 1.584 0 0 1-1.589-1.578c0-.871.712-1.578 1.589-1.578.878 0 1.59.707 1.59 1.578 0 .872-.712 1.578-1.59 1.578Zm-1.587 5.748a1.578 1.578 0 0 1 1.314-1.81 1.588 1.588 0 0 1 1.823 1.305 1.579 1.579 0 0 1-1.314 1.81 1.587 1.587 0 0 1-1.823-1.305Zm1.587 16.002a1.584 1.584 0 0 1-1.589-1.578c0-.872.712-1.578 1.589-1.578.878 0 1.59.706 1.59 1.578 0 .871-.712 1.578-1.59 1.578Zm0 7.058a1.584 1.584 0 0 1-1.589-1.578c0-.872.712-1.578 1.589-1.578.878 0 1.59.706 1.59 1.578 0 .871-.712 1.578-1.59 1.578Z"
  />
  <path
    fill="#b9cc59"
    d="M497.179 443.251c-2.818 0-5.103-1.723-5.103-3.849 0-2.126 2.285-3.849 5.103-3.849 2.818 0 5.102 1.723 5.102 3.849 0 2.126-2.284 3.849-5.102 3.849Zm1.464 6.395c-1.27 0-2.3-.818-2.3-1.827 0-1.01 1.03-1.828 2.3-1.828 1.271 0 2.3.818 2.3 1.828 0 1.009-1.029 1.827-2.3 1.827Zm-29.151-37.045a3.832 3.832 0 0 1-2.094-5.02c.818-1.96 3.082-2.891 5.056-2.079a3.832 3.832 0 0 1 2.094 5.02c-.817 1.96-3.081 2.891-5.056 2.079Zm-6.678 8.876a2.16 2.16 0 0 1-2.168-2.153 2.16 2.16 0 0 1 2.168-2.153 2.16 2.16 0 0 1 2.168 2.153 2.16 2.16 0 0 1-2.168 2.153Zm-46.126 22.728c-.918-2.205.397-4.837 2.937-5.881 2.541-1.043 5.345-.102 6.263 2.103.918 2.205-.397 4.838-2.937 5.881-2.541 1.043-5.345.102-6.263-2.103Z"
  />
  <path
    fill="#fff"
    d="M288.187 614.488c-15.017 0-27.191-12.088-27.191-26.998 0-14.911 12.174-26.998 27.191-26.998 15.018 0 27.192 12.087 27.192 26.998 0 14.91-12.174 26.998-27.192 26.998Z"
  />
  <path
    fill="#4d4d4d"
    d="M286.784 612.305c13.642 0 24.741-11.019 24.741-24.565 0-13.547-11.099-24.566-24.741-24.566s-24.742 11.021-24.742 24.566c0 13.545 11.1 24.565 24.742 24.565Zm0-48.604c13.35 0 24.212 10.791 24.212 24.039 0 13.247-10.868 24.04-24.212 24.04-13.345 0-24.213-10.791-24.213-24.04 0-13.25 10.863-24.035 24.213-24.035v-.004Z"
  />
  <path
    fill="#4d4d4d"
    d="M293.185 586.008h.033l10.363-1.35a.262.262 0 0 0 .21-.289.26.26 0 0 0-.278-.226l-10.362 1.35a.258.258 0 0 0-.225.29.263.263 0 0 0 .259.225Zm3.761 16.6a.264.264 0 0 0 .25-.178.265.265 0 0 0 .001-.16.264.264 0 0 0-.094-.131l-7.418-5.498a.257.257 0 0 0-.094-.052.258.258 0 0 0-.107-.011.263.263 0 0 0-.228.2.253.253 0 0 0-.002.106.262.262 0 0 0 .119.173l7.418 5.498a.257.257 0 0 0 .155.053Zm-21.943 2.178a.27.27 0 0 0 .152-.05.254.254 0 0 0 .094-.127l2.822-7.678a.259.259 0 0 0-.162-.319.258.258 0 0 0-.193.006.257.257 0 0 0-.137.136l-2.82 7.678a.244.244 0 0 0-.016.1.24.24 0 0 0 .024.098.25.25 0 0 0 .147.134.27.27 0 0 0 .089.022Zm-8.668-18.363h.011l7.732-.311a.259.259 0 0 0 .232-.269.254.254 0 0 0-.077-.174.264.264 0 0 0-.176-.075l-7.733.311a.26.26 0 0 0-.256.265.26.26 0 0 0 .267.255v-.002Zm17.063-7.677a.264.264 0 0 0 .261-.257l.105-8.611a.257.257 0 0 0-.075-.184.24.24 0 0 0-.084-.057.242.242 0 0 0-.1-.021.267.267 0 0 0-.263.255l-.105 8.611a.257.257 0 0 0 .074.185.258.258 0 0 0 .184.079h.003Z"
  />
  <path
    fill="#2b0833"
    d="M312.516 573.402h-5.642l-3.326 10.998 7.506 7.159 5.956-4.069-4.494-14.088Zm-17.657-13.382v4.668l-11.285 5.187-7.629-3.839v-5.544l18.914-.472Zm-32.81 16.184h3.136l1.149 9.959-3.239 8.091h-3.136l-.835-10.893 2.925-7.157Zm21.419 2.282 9.718 7.262-3.656 11.102h-11.704l-3.761-10.998 9.403-7.366Zm26.811 26.664-2.672-4.566-10.658 1.764-3.763 8.818 3.344 3.839 13.749-9.855Zm-32.034 9.34 1.566-3.635-4.806-6.328-7.942-2.284-1.776 2.284 12.958 9.963Z"
  />
  <path
    fill="#9b6496"
    d="M284.243 608.732a27.35 27.35 0 0 0 13.262-3.432 27.112 27.112 0 0 0 9.893-9.416 26.835 26.835 0 0 0 1.125-26.314 26.935 26.935 0 0 1 5.634 9.922 26.832 26.832 0 0 1-2.777 22.095 27.065 27.065 0 0 1-7.917 8.242 27.309 27.309 0 0 1-10.635 4.268c-3.81.655-7.718.496-11.461-.467a27.245 27.245 0 0 1-10.248-5.117 27.037 27.037 0 0 1-7.211-8.858 27.114 27.114 0 0 0 9.185 6.709 27.286 27.286 0 0 0 11.15 2.368Z"
    opacity=".2"
  />
  <path
    fill="#fbc5a9"
    d="M137.139 523.03s-11.652 8.465-12.737 8.935c-1.221.531-5.112.909-6.714.985-1.601.076-54.226-37.896-54.226-37.896l6.04-12.825 47.654 27.298 9.769-7.199 10.214 20.702Z"
  />
  <path
    fill="#fbc5a9"
    d="M122.723 505.42s1.842 12.701 9.443 21.199l4.988-3.589-10.221-20.697-4.21 3.087Z"
  />
  <path
    fill="#2b0833"
    d="m146.576 521.734-7.55 4.884s-9.593-6.116-16.304-24.214l9.84-9.121 14.014 28.451Z"
  />
  <path
    fill="#170011"
    d="M126.656 498.759s-1.378 3.109 1.371 8.831c2.543 5.289 14.913 16.498 14.913 16.498l3.636-2.355-18.807-24.008-1.113 1.034Z"
  />
  <path
    fill="#2f0927"
    d="M181.643 490.895s-1.106.531-6.293 0c-5.186-.531-38.326-8.406-40.213-8.861-1.887-.454-9.382-6.474-9.621-10.677-.239-4.203 5.149-7.497 10.583-7.384 5.434.113 45.924 22.892 46.335 24.536.412 1.643-.288 2.268-.791 2.386Z"
  />
  <path fill="#2b0833" d="m178.15 487.486-9.209 17.494-11.556-12.155 8.009-13.971 12.756 8.632Z" />
  <path
    fill="#170011"
    d="M170.444 482.269s-4.141 13.075.673 18.575l-2.173 4.128-11.556-12.154 8.008-13.975 5.048 3.426Z"
  />
  <path
    fill="#9b6496"
    d="M188.371 520.318s1.288-5.061-2.881-5.747c-4.169-.687-15.043 3.4-20.779 9.135-5.737 5.735-5.089 15.99.188 15.512 5.278-.478 8.287-2.455 8.287-2.455l15.185-16.445Z"
  />
  <path
    fill="#2f0927"
    d="M217.726 451.022s-4.376 6.694-7.804 3.929c-2.95-2.381 3.255-13.244 7.545-17.336a5.438 5.438 0 0 1 4.415-1.509c1.109.138 2.149.625 2.09 1.973-.126 2.832-6.246 12.943-6.246 12.943Z"
  />
  <path
    fill="#fbc5a9"
    d="m177.963 513.279 9.281 8.431c1.678 1.743 3.563 6.519 4.176 8.262.613 1.742 24.23 69.42 24.23 69.42l-14.825 2.719-29.913-64.581a2.41 2.41 0 0 0-.371-.567l-11.335-12.868 13.273-11.339 5.484.523Z"
  />
  <path
    fill="#2f0927"
    d="M109.064 406.44s-1.974 11.996 3.192 11.985c5.017-.01 8.116-14.932 6.758-21.714-1.357-6.782-5.206-4.843-5.959-3.508-.754 1.336-3.991 13.237-3.991 13.237Z"
  />
  <path
    fill="#fbc5a9"
    d="M182.078 517.019s-10.259 4.656-14.308 16.805l-8.572-9.729 13.273-11.34 5.492.531 4.115 3.733Zm35.217-81.939 5.794 2.804 38.289-12.015s7.056-10.791 7.455-11.251c.399-.459 4.005-.852 4.691-.511.686.342 2.574 3.862 2.574 3.862s4.633-1.192 5.32-.342c.688.851-.572 2.387-.572 2.387s1.201-.228 1.659.113c.458.341 0 3.124 0 3.124s1.144-.285 1.374.398c.23.683-.802 3.351-.802 3.351s.401.454.458 1.415c.057.96-1.425 3.237-2.404 3.748-.978.511-16.188 1.704-16.188 1.704s-38.898 18.839-40.042 19.52c-1.144.681-5.033.512-5.721.455-.687-.057-12.241-7.497-12.241-7.497l4.062-8.617 6.294-2.648Z"
  />
  <path
    fill="#4f2c4d"
    d="M166.378 481.047s-1.627 6.316-2.265 8.198c0 0 .62 1.139.667 1.787.046.647-1.023 1.494-1.023 1.494l15.459 18.134s6.368 2.266 8.311 4.377c1.944 2.11.845 5.28.845 5.28s.399-3.77-1.45-4.585c-1.85-.816-8.866 1.111-15.543 6.862-6.678 5.751-9.486 13.06-8.615 15.188.872 2.128 8.602.177 9.513-.423 0 0-5.547 3.277-9.087 2.169-3.54-1.107-31.421-30.073-33.242-32.135-1.82-2.063-3.643-7.43-2.891-13.471.752-6.041 6.216-25.965 6.216-25.965l33.105 13.09Z"
  />
  <path
    fill="#fbc5a9"
    d="M123.836 397.309s-9.222-2.427-10.822-2.498c-1.599-.071-46.744 12.422-46.744 12.422s-11.187-.796-12.269-.531c-1.081.265-5.715 5.774-5.906 6.6-.19.826.137 1.219.077 1.709-.06.49-.535 1.682.087 2.315.622.634.836.984.96 1.592.125.609.21 1.262.77 1.552.56.29-.082 1.852 1.144 2.627 1.226.775 2.875-.29 2.875-.29s1.793.874 2.429 1.167c.636.294 3.584.082 4.176-.354.591-.435 7.8-7.96 7.8-7.96s44.591-5.233 45.409-5.197c.817.035 8.865 1.318 8.865 1.318l3.526-10.022-2.377-4.45Zm98.035 39.982s-5.644 3.361-6.824 14.18l-8.108-5.13 4.062-8.616 6.295-2.654 4.575 2.22Z"
  />
  <path
    fill="#2f0927"
    d="M176.907 489.853s-4.88-.708-13.068-4.674c-8.189-3.966-31.813-12.586-31.813-12.586l1.247-4.644 44.879 19.537-1.245 2.367Z"
    opacity=".59"
  />
  <path
    fill="#fbc5a9"
    d="M115.095 395.17s1.497 9.985-2.333 15.438c0 0 .89-.629 9.531 1.67l3.92-10.518-2.38-4.451-8.738-2.139Z"
  />
  <path
    fill="#e34051"
    d="M171.917 405.168s-3.376-1.174-4.81-1.571c-1.434-.396-14.474-2.101-14.474-2.101s-.971-1.415-1.486-1.534c-.515-.118-1.488 1.136-1.488 1.136l-27.63-6.369s-5.205-3.578-6.807-3.237a3.168 3.168 0 0 0-2.174 1.704s1.03-1.193 2.117-.625c1.087.568 2.745 7.099 1.773 14.256-.973 7.158-4.642 11.025-5.949 10.706 0 0-2.01.605-2.277-6.545 0 0-.902 6.848 2.735 7.731 4.136 1.004 30.031 6.787 30.031 6.787l-3.207 28.114s-12.488 10.485-13.257 14.911c-.594 3.421.336 8.093 5.485 10.308 0 0-4.407-3.453-4.178-8.962.23-5.508 20.074 3.793 28.482 8.451 8.407 4.658 16.532 9.375 22.71 10.279 6.179.904 4.119 2.273 4.119 2.273s1.545.114 2.06-3.067c.515-3.181 3.775-24.536 4.06-25.673.285-1.138 5.27-18.104 5.27-18.104s16.017 10.906 17.047 11.53c1.03.625 2.906 2.042 6.608-3.097 0 0-3.547 3.453-5.407 2.643-2.316-1.01 2.918-10.11 4.119-11.985 1.201-1.875 7.444-9.671 8.472-5.411 0 0 .509-1.007-1.035-1.858-1.545-.851-6.922-3.635-6.922-3.635s-12.071-11.796-13.729-13.423c-1.659-1.628-8.196-5.548-9.185-6.002-.988-.455-3.367.463-3.367.463l-15.707-6.087-1.999-2.006Z"
  />
  <path
    fill="#d20031"
    d="M141.484 425.52c2.366-.548 4.424-2.328 4.424-2.328s-13.016-2.112-18.443-5.42c-5.427-3.308-3.842-22.374-10.443-25.889-6.601-3.515-13.456 7.359-13.456 7.359l1.332 23.062 31.803 5.484 4.783-2.268Zm51.54 18.516 1.885-7.819s-.699 6.114 3.777 9.624c4.475 3.509 10.287 3.097 15.046-3.646 4.758-6.744 9.911-7.552 10.239-4.122l-5.764 19.977-18.853-3.612-6.33-10.402Z"
  />
  <path
    fill="#4a2247"
    d="M214.402 375.359a5.01 5.01 0 0 0-1.762-1.134 5.387 5.387 0 0 0-2.111-.387 4.468 4.468 0 0 0-2.101.562 3.976 3.976 0 0 0-1.501 1.479 9.178 9.178 0 0 1 1.781-.87 6.066 6.066 0 0 1 1.841-.32 8.668 8.668 0 0 1 1.901.177c.659.131 1.31.295 1.952.493Zm1.83 53.893a9.98 9.98 0 0 0 1.154-2.477c.28-.875.459-1.778.535-2.692.07-.92.038-1.845-.095-2.758a13.302 13.302 0 0 0-.693-2.682 14.893 14.893 0 0 0-2.85-4.743 15.968 15.968 0 0 0-2.037-1.905 20.367 20.367 0 0 0-2.316-1.551 22.433 22.433 0 0 0-5.113-2.142c-.225-.059-.447-.122-.675-.177-.228-.055-.453-.106-.665-.161l-1.302-.333c-.43-.131-.852-.279-1.278-.416l-.319-.104-.312-.126-.623-.249a20.864 20.864 0 0 1-4.65-2.669 18.145 18.145 0 0 1-2.01-1.798c-.164-.155-.306-.33-.46-.497-.153-.166-.292-.341-.436-.516a9.518 9.518 0 0 1-.793-1.099c.415.812.921 1.573 1.511 2.27a17.43 17.43 0 0 0 1.919 1.962 19.724 19.724 0 0 0 4.648 2.954l.634.281.318.142.324.118c.435.154.869.315 1.307.46l1.335.372c.226.065.442.12.657.176.216.057.432.121.645.177a22.105 22.105 0 0 1 4.909 2.104 19.32 19.32 0 0 1 2.223 1.468 15.722 15.722 0 0 1 1.951 1.79 14.757 14.757 0 0 1 2.279 3.241c.203.393.392.792.561 1.201a12.885 12.885 0 0 1 .989 5.181c-.011.444-.043.885-.098 1.332a13.4 13.4 0 0 1-.244 1.318c-.104.438-.232.869-.385 1.292a8.62 8.62 0 0 1-.545 1.256Zm-36.763-63.473a12.619 12.619 0 0 1-.456-2.512 9.166 9.166 0 0 1 .132-2.452 8.859 8.859 0 0 1 .798-2.317 16.66 16.66 0 0 1 1.356-2.174 6.613 6.613 0 0 0-1.935 1.831 6.477 6.477 0 0 0-1.069 2.501 6.637 6.637 0 0 0 .476 3.993c.181.406.416.786.698 1.13Z"
  />
  <path
    fill="#4a2247"
    d="M179.47 365.778s-3.661-4.534-8.924-3.701c-5.263.834-10.831 8.861-7.855 18.555 2.975 9.694 14.338 18.928 16.779 20.75 2.441 1.822 9.992 7.573 15.712 9.845 5.721 2.271 25.093 9.844 26.39 20.219 0 0 .381-5.907-8.924-14.047a71.276 71.276 0 0 0-10.831-7.158c-6.025-3.184-14.338-10.677-16.247-14.084-1.908-3.407-6.1-30.379-6.1-30.379Z"
  />
  <path
    fill="#333"
    d="M179.47 365.779s-9.119 2.19-9.902 12.399c-.784 10.208 6.535 16.518 10.378 17.751l4.304-4.038-4.78-26.112Z"
  />
  <path
    fill="#4a2247"
    d="M206.63 390.652s5.331-1.415 3.041-8.801c0 0 2.804 4.486 7.724 2.271 0 0-3.548 1.534-5.149-1.988-1.602-3.522-2.974-6.703-5.32-6.248 0 0 1.487-4.316-2.288-6.701-3.775-2.384-6.236-3.409-6.578-7.101 0 0-.401 3.636.914 5 0 0-6.989-5.981-18.648-1.647-12.069 4.486-9.732 19.513-5.295 24.268l31.599.947Z"
  />
  <path
    fill="#fbc5a9"
    d="M205.479 377.754s1.603.379 1.83 3.407c.226 3.029-.763 24.992-10.45 26.507 0 0-3.126.454-6.634-2.348l-2.366 6.737 4.81 2.423s-4.043 4.316-8.313 4.316c-4.271 0-11.365-8.936-12.432-13.631l3.965 1.211 4.811-12.646s-5.753-1.076-6.357-6.391a4.46 4.46 0 0 1 .534-2.755 3.747 3.747 0 0 1 1.697-1.556 4.267 4.267 0 0 1 4.539.642 5.117 5.117 0 0 1 1.399 2.032c1.145 2.896 2.059 2.159 2.46-2.897 0 0 5.315 1.862 12.871-3.407 6.911-4.824 7.636-1.644 7.636-1.644Z"
  />
  <path
    fill="#000"
    d="m184.928 382.918.064-.217c-2.733-.809-4.057-2.51-4.687-3.795a7.043 7.043 0 0 1-.722-2.63h-.228c0 .048.178 5.047 5.573 6.642Zm.101-7.451c2.423 0 5.008-.686 7.062-1.415 6.084-2.149 9.227-1.686 10.793-.92 1.326.651 1.641 1.576 1.645 1.592l.217-.069c-.012-.042-.338-1.019-1.749-1.714-1.604-.793-4.811-1.277-10.982.902-3.136 1.108-7.523 2.123-10.607.708-1.833-.849-2.342-2.187-2.348-2.199l-.215.078c.021.056.534 1.426 2.448 2.317 1.118.515 2.403.72 3.736.72Z"
  />
  <path
    fill="#000"
    d="M189.038 374.503a11.986 11.986 0 0 0 2.784-.354l-.053-.221c-1.892.453-4.6.686-6.756-.778a5.307 5.307 0 0 1-1.782-1.973l-.208.09c.023.039 1.477 3.236 6.015 3.236Z"
  />
  <path
    fill="#4a2247"
    d="M161.857 375.359a16.355 16.355 0 0 0-.237 1.946 22.254 22.254 0 0 0-.041 1.967c.029 1.318.167 2.631.412 3.926a21.772 21.772 0 0 0 2.827 7.391 21.113 21.113 0 0 0 2.432 3.164l.7.708.741.668c.125.108.244.225.375.33l.393.307c.266.198.522.412.797.6a23.123 23.123 0 0 0 7.14 3.361 30.602 30.602 0 0 1-6.739-3.892 22.14 22.14 0 0 1-5.11-5.696 22.909 22.909 0 0 1-1.73-3.421 25.324 25.324 0 0 1-1.174-3.664 29.432 29.432 0 0 1-.647-3.812c-.039-.322-.059-.644-.089-.967-.03-.324-.039-.646-.05-.972a26.353 26.353 0 0 1-.02-.972c.002-.324.008-.646.02-.972Z"
  />
  <path
    fill="#fbc5a9"
    d="M190.223 405.32s-2.919-2.405-4.691-4.507c0 0 1.621 5.234 3.7 7.331l.991-2.824Zm-12.343-14.659c1.069 1.062 2.46 1.416 3.098.779.638-.637.289-2.013-.784-3.076-1.072-1.064-2.46-1.416-3.098-.781-.638.635-.285 2.008.784 3.078Z"
  />
  <path fill="#2f0927" d="M192.668 414.483s1.563-1.742-2.115-1.061l2.115 1.061Z" />
  <path
    fill="#4a2247"
    d="M194.91 413.872c-.141.53-.301 1.061-.47 1.576-.169.515-.341 1.042-.535 1.555a37.396 37.396 0 0 1-1.234 3.037 27.965 27.965 0 0 1-1.511 2.892 18.258 18.258 0 0 1-1.891 2.625 9.979 9.979 0 0 1-2.419 2.056 6.418 6.418 0 0 1-2.949.909 8.137 8.137 0 0 1-3.091-.488c-1-.364-1.943-.867-2.8-1.495-1.745-1.238-3.207-2.864-4.455-4.631-.32-.435-.609-.895-.903-1.35a19.398 19.398 0 0 1-.819-1.404 34.554 34.554 0 0 1-1.435-2.924c-.224-.496-.418-1.003-.62-1.509-.101-.253-.178-.512-.281-.766a9.978 9.978 0 0 1-.273-.772l-.253-.773c-.083-.26-.158-.53-.237-.781-.165-.531-.292-1.051-.438-1.578a49.425 49.425 0 0 1-1.183-6.452c.076 2.199.335 4.388.773 6.545a37.402 37.402 0 0 0 1.899 6.342c.2.517.43 1.021.651 1.53.116.251.242.499.356.749.114.249.248.497.38.743.253.493.534.974.812 1.455.278.482.583.95.905 1.416 1.261 1.834 2.778 3.538 4.622 4.863.928.67 1.948 1.206 3.028 1.592a8.762 8.762 0 0 0 3.412.506 7.198 7.198 0 0 0 3.295-1.074l.187-.112.178-.124.356-.251c.23-.177.442-.353.661-.545.219-.191.41-.394.606-.597.196-.204.383-.416.559-.636 1.436-1.738 2.452-3.739 3.28-5.782.406-1.028.766-2.07 1.069-3.128.311-1.059.568-2.134.768-3.219Z"
  />
  <path
    fill="#2f0927"
    d="M183.305 430.874a1.59 1.59 0 0 1 1.191-1.913 1.602 1.602 0 0 1 1.927 1.183 1.59 1.59 0 0 1-1.191 1.913 1.604 1.604 0 0 1-1.927-1.183Z"
  />
  <path
    fill="#d20031"
    d="M149.664 401.098c.345.55.643 1.127.891 1.726a14.43 14.43 0 0 1 1 3.68 15 15 0 0 1 .139 1.894 17.749 17.749 0 0 1-.382 3.791 30.41 30.41 0 0 1-1.049 3.733 14.425 14.425 0 0 0 1.591-3.6c.187-.638.328-1.288.422-1.946.088-.66.132-1.325.132-1.99a13.945 13.945 0 0 0-.187-1.988 11.481 11.481 0 0 0-.511-1.93 10.776 10.776 0 0 0-.843-1.801 7.608 7.608 0 0 0-1.203-1.569Zm2.976.398c.334.61.656 1.199.961 1.797.304.598.593 1.196.858 1.802.141.301.253.613.387.917.134.304.244.617.346.936.238.624.406 1.27.634 1.931a6.947 6.947 0 0 0-.091-2.075l-.048-.258c-.018-.085-.043-.168-.064-.253-.043-.177-.091-.336-.137-.504-.116-.329-.227-.66-.373-.977a9.597 9.597 0 0 0-1.035-1.809 7.138 7.138 0 0 0-1.438-1.507Zm-23.281-.872a41.288 41.288 0 0 1-2.122-1.139c-.342-.2-.677-.407-.999-.627a9.645 9.645 0 0 1-.925-.697 7.953 7.953 0 0 1-1.503-1.735 8.186 8.186 0 0 0-.754-.978 2.95 2.95 0 0 0-1.019-.708c.289.272.539.583.741.924.205.33.356.69.549 1.05.184.372.401.728.648 1.062.254.341.547.651.873.925.321.27.665.512 1.028.723a9.303 9.303 0 0 0 3.483 1.2Zm86.549 31.599a2.608 2.608 0 0 0-.803-.61 3.815 3.815 0 0 0-.937-.331c-.326-.073-.66-.1-.993-.081a2.511 2.511 0 0 0-.985.246c.302.124.613.227.93.309.301.082.597.152.891.218.294.065.602.12.914.166.325.051.654.079.983.083Z"
  />
  <path
    fill="#2b0833"
    d="M164.111 489.242a10.333 10.333 0 0 0-1.38-2.68 15.972 15.972 0 0 0-1.96-2.299 15.362 15.362 0 0 0-1.13-1.007c-.198-.156-.394-.313-.595-.465-.201-.152-.413-.29-.622-.432-.418-.28-.851-.54-1.297-.776-.449-.232-.91-.438-1.382-.618.356.367.739.678 1.101 1.017.361.34.739.651 1.092.991.732.648 1.425 1.327 2.138 1.997.713.671 1.372 1.375 2.042 2.084a69.28 69.28 0 0 1 1.993 2.188Zm-.355 3.282c-.5-.411-1.037-.777-1.604-1.091a12.74 12.74 0 0 0-.858-.451c-.293-.138-.585-.278-.882-.404a22.079 22.079 0 0 0-3.701-1.173c-.636-.118-1.268-.258-1.911-.329-.323-.037-.642-.083-.964-.111-.323-.028-.645-.042-.968-.06l-.484-.023h-.485c-.322 0-.645 0-.967.019-.644.036-1.287.099-1.925.193.638.127 1.271.193 1.9.294.315.051.629.101.942.145l.471.065.466.083c.312.053.622.105.934.151l.928.177.465.081c.153.028.307.066.46.097l.923.19c1.225.276 2.441.582 3.648.935a42.9 42.9 0 0 1 3.612 1.212Z"
  />
  <path
    fill="#2f0927"
    d="m204.525 567.062-13.263 14.411 8.429 18.196 14.975-3.173-10.141-29.434Z"
  />
  <path
    fill="#9b6496"
    d="M205.029 573.05a52.237 52.237 0 0 0-3.093 2.383c-.507.408-.997.833-1.494 1.25l-1.467 1.281-1.441 1.309c-.472.446-.951.885-1.415 1.337a54.425 54.425 0 0 0-2.722 2.795 53.369 53.369 0 0 0 3.095-2.382c.506-.407.996-.834 1.493-1.251l1.466-1.281 1.441-1.309c.472-.446.952-.884 1.415-1.339.934-.9 1.851-1.822 2.722-2.793Zm.371 3.103a42.947 42.947 0 0 0-2.866 2.123c-.93.741-1.85 1.48-2.74 2.259a81.807 81.807 0 0 0-2.634 2.381c-.851.812-1.703 1.647-2.494 2.533a42.03 42.03 0 0 0 2.867-2.123 88.234 88.234 0 0 0 2.734-2.264 83.467 83.467 0 0 0 2.632-2.385c.86-.814 1.705-1.638 2.501-2.524Z"
  />
  <path
    fill="#fbc5a9"
    d="M187.118 522.972c-.212.566-.387 1.128-.602 1.65-.09.242-.214.47-.369.676a.48.48 0 0 1-.093.087c-.016.014-.064.017-.096.033s-.112.02-.167.032c-.056.012-.132.012-.198.019-.545.036-1.137.023-1.723.029-.586.005-1.183.014-1.782.078a8.632 8.632 0 0 0 1.745.475 7.77 7.77 0 0 0 1.827.123c.082-.009.161-.016.245-.029.089-.015.178-.035.265-.06.11-.034.213-.085.306-.152.084-.065.156-.142.216-.228.1-.143.18-.299.237-.464a3.42 3.42 0 0 0 .13-.458 5.375 5.375 0 0 0 .059-1.811Zm-65.155-4.562a6.885 6.885 0 0 0-.378-2.212 8.672 8.672 0 0 0-.992-2.034 9.351 9.351 0 0 0-.686-.911c-.13-.138-.26-.278-.396-.412-.067-.067-.13-.138-.201-.2l-.219-.177a6.63 6.63 0 0 0-1.933-1.166c.534.531 1.08 1.005 1.539 1.561.25.258.456.553.686.824.23.271.426.571.613.884.394.597.751 1.218 1.069 1.858.328.628.618 1.291.898 1.985Z"
  />
  <path fill="#2f0927" d="m89.467 493.75-4.862 16.358-19.807-14.203 6.04-12.825 18.629 10.67Z" />
  <path
    fill="#9b6496"
    d="M84.986 493.705a36.79 36.79 0 0 0-1.2 2.994 66.631 66.631 0 0 0-1.871 6.151c-.257 1.042-.5 2.088-.67 3.154a35.91 35.91 0 0 0 1.203-2.995c.361-1.01.698-2.027 1.01-3.051.311-1.024.602-2.057.858-3.099.257-1.042.501-2.086.67-3.154Zm-2.14-1.287a30.69 30.69 0 0 0-1.139 2.701 54.895 54.895 0 0 0-1.75 5.567c-.236.945-.457 1.895-.607 2.868.433-.885.798-1.791 1.14-2.703.342-.913.658-1.833.948-2.76.29-.927.561-1.863.798-2.807.237-.945.46-1.895.61-2.866Z"
  />
  <path
    fill="#fbc5a9"
    d="M52.025 422.998c.035 0 .07-.007.103-.02a.273.273 0 0 0 .087-.059c.024-.022 2.21-2.221 2.889-2.681.505-.343 1.398-.272 1.7-.215a.27.27 0 0 0 .105-.002.267.267 0 0 0 .21-.319.266.266 0 0 0-.117-.171.27.27 0 0 0-.099-.039c-.053-.011-1.31-.237-2.1.299-.722.49-2.876 2.653-2.967 2.747a.27.27 0 0 0-.079.188.257.257 0 0 0 .08.187.27.27 0 0 0 .085.062.281.281 0 0 0 .103.023Z"
  />
  <path
    fill="#000"
    d="M48.395 423.215a.213.213 0 0 0 .102-.399l-1.322-.708a.215.215 0 0 0-.29.088.208.208 0 0 0-.015.161.215.215 0 0 0 .104.126l1.322.708a.23.23 0 0 0 .1.024Z"
  />
  <path fill="#2f0927" d="m87.826 413.399-4.878-10.746L69 406.479l-.588 9.186 19.414-2.266Z" />
  <path
    fill="#fbc5a9"
    d="M277.338 421.116a.229.229 0 0 0 .064 0l3.337-.801a.284.284 0 0 0 .095-.044.28.28 0 0 0 .07-.076.247.247 0 0 0 .036-.098.255.255 0 0 0-.004-.103.27.27 0 0 0-.324-.196l-3.337.803a.267.267 0 0 0-.179.1.262.262 0 0 0 .044.375.27.27 0 0 0 .198.056v-.016Zm-4.252 5.585a.255.255 0 0 0 .109-.024.26.26 0 0 0 .089-.065.263.263 0 0 0-.018-.375c-.443-.398-.63-.826-.524-1.201a1.113 1.113 0 0 1 .891-.727c.975-.177.975-.177 7.898-.566l.989-.053a.27.27 0 0 0 .253-.28.264.264 0 0 0-.178-.236.258.258 0 0 0-.103-.015l-.989.055c-6.959.382-6.959.382-7.971.575a1.646 1.646 0 0 0-1.304 1.104c-.095.336-.132 1.008.678 1.739.05.044.114.068.18.069Z"
  />
  <path
    fill="#fbc5a9"
    d="M278.387 429.955a.267.267 0 1 0 .057-.53 41.875 41.875 0 0 1-3.073-1.033c-2.672-1.028-2.662-1.497-2.662-1.501 0-.03.178-.707 5.126-.191 2.585.266 5.167.722 5.197.727a.27.27 0 0 0 .314-.219.27.27 0 0 0-.221-.311c-.025 0-2.628-.464-5.233-.731-4.869-.5-5.609.071-5.701.623-.075.41.203 1.021 3.029 2.107 1.5.575 3.059 1.027 3.114 1.04a.258.258 0 0 0 .053.019Zm-1.18-4.378c.06.001.12-.006.178-.021a1.084 1.084 0 0 0 .748-.626c.346-.748.143-2.146-.602-4.157-.534-1.461-1.185-2.737-1.192-2.751a.265.265 0 0 0-.155-.133.266.266 0 0 0-.322.372c.693 1.369 2.364 5.195 1.781 6.448a.552.552 0 0 1-.39.332c-.52.129-2.034-1.257-4.589-5.59-.091-.152-.214-.353-.442-.235a.269.269 0 0 0-.136.269c-.383 2.427-2.182 4.166-2.2 4.184a.255.255 0 0 0-.087.187.26.26 0 0 0 .162.253.265.265 0 0 0 .104.021.25.25 0 0 0 .104-.02.278.278 0 0 0 .088-.059 8.857 8.857 0 0 0 2.227-3.857c2.154 3.575 3.741 5.383 4.723 5.383Z"
  />
  <path
    fill="#fbc5a9"
    d="M273.582 424.314a.27.27 0 0 0 .261-.204.258.258 0 0 0-.018-.173.262.262 0 0 0-.122-.126c-.534-.265-.802-.53-.775-.764.038-.327.633-.654.911-.766a.248.248 0 0 0 .128-.026c.201-.094.217-.23.196-.326a.275.275 0 0 0-.26-.21c-.164 0-1.303.431-1.484 1.162-.129.517.222.989 1.044 1.405a.27.27 0 0 0 .119.028Z"
  />
  <path fill="#2f0927" d="m264.945 433.868-5.979-7.217-13.654 4.256 2.148 11.442 17.485-8.481Z" />
  <path
    fill="#5c69af"
    d="m199.901 598.083 13.812-3.77s12.1 3.117 13.198 3.227c1.097.109 11.253-1.628 13.58-1.983 2.161-.329 6.93.615 9.861 6.465a1.432 1.432 0 0 1-.276 1.662 1.475 1.475 0 0 1-.504.323l-41.366 15.463s-2.008.495-3.029-2.873c-.841-2.76-4.743-13.174-6.127-16.851a1.259 1.259 0 0 1 .386-1.424c.137-.111.295-.192.465-.239Z"
  />
  <path
    fill="#2f0927"
    d="m250.096 601.536-44.194 16.683.918 5.247 45.747-17.271.128-5.641-2.599.982Z"
  />
  <path
    fill="#f3f8ff"
    d="M220.085 601.078a5.14 5.14 0 0 0 .748-1.062 8.182 8.182 0 0 0 .839-2.363c.086-.427.115-.862.088-1.297a5.07 5.07 0 0 0-.749 1.062 8.199 8.199 0 0 0-.837 2.363 5.086 5.086 0 0 0-.089 1.297Zm5.584.249c.233-.264.424-.562.564-.884a5.096 5.096 0 0 0 .451-1.923c.016-.35-.023-.7-.116-1.039a3.295 3.295 0 0 0-.566.885 4.806 4.806 0 0 0-.317.939 4.945 4.945 0 0 0-.132.984c-.016.35.023.7.116 1.038Zm-11.242 2.167c.433.015.857-.126 1.193-.396 1.214-1.026 1.969-2.721 2.185-4.906.099-.994.087-1.996-.036-2.988l-.011-.079-.046-.067c-.157-.23-3.896-5.661-7.647-6.079a3.753 3.753 0 0 0-1.653.171 3.717 3.717 0 0 0-1.413.868c-2.443 2.254-.629 6.885 2.425 10.292 2.115 2.36 3.83 3.184 5.003 3.184Zm2.649-8.107c.078.652.511 5.13-1.915 7.171-.912.771-3.1-.373-5.203-2.719-3.729-4.162-4.067-7.831-2.473-9.303a3.016 3.016 0 0 1 2.495-.852c3.221.362 6.652 5.078 7.096 5.703Z"
  />
  <path
    fill="#f3f8ff"
    d="m217.099 595.64.356-.03c5.12-.446 5.744-3.538 5.776-4.856.057-2.477-1.682-5.063-3.581-5.318a1.648 1.648 0 0 0-1.425.469c-1.942 1.877-1.192 9.084-1.16 9.39l.034.345Zm2.293-9.516c.053 0 .106.004.158.011 1.545.207 3.013 2.477 2.963 4.599-.032 1.354-.713 3.657-4.775 4.131-.201-2.215-.356-7.17.982-8.456a.937.937 0 0 1 .672-.285Z"
  />
  <path
    fill="#f3f8ff"
    d="M214.994 607.894a.351.351 0 0 0 .346-.441c-.02-.074-1.867-7.539 2.336-11.953.044-.051 3.65-4.045 9.902-3.343a.354.354 0 0 0 .32-.576.358.358 0 0 0-.24-.132c-6.637-.744-10.355 3.395-10.512 3.572-1.849 1.946-2.87 4.743-2.946 8.095-.038 1.515.112 3.03.447 4.509a.353.353 0 0 0 .347.269Z"
  />
  <path
    fill="#5c69af"
    d="m75.053 485.433-9.9 11.144s-11.658 3.915-12.622 4.412c-.964.497-8.374 7.368-10.102 8.905-1.603 1.428-6.04 3.205-11.632-.041a1.414 1.414 0 0 1-.675-1.516c.042-.193.123-.376.24-.536l26.012-36.11s1.384-1.484 4.059.74c2.674 2.223 14.62 13.002 14.62 13.002Z"
  />
  <path
    fill="#f3f8ff"
    d="M56.228 494.43c-.07.423-.084.854-.04 1.28a7.998 7.998 0 0 0 .593 2.396c.162.397.377.772.638 1.114.07-.423.084-.854.042-1.281a8.098 8.098 0 0 0-.597-2.395 4.959 4.959 0 0 0-.636-1.114Zm-4.731 2.784c-.053.342-.05.69.009 1.031a4.975 4.975 0 0 0 .673 1.829.547.547 0 0 0 .332.809.558.558 0 0 0 .598-.217.547.547 0 0 0-.272-.831 5.089 5.089 0 0 0-.675-1.829 3.31 3.31 0 0 0-.665-.792Zm17.545 2.595c1.039 0 2.042-.158 2.876-.575a3.672 3.672 0 0 0 1.267-1.028c.34-.432.576-.936.692-1.472.786-3.166-3.224-6.014-7.593-7.18-4.32-1.159-6.268-.177-6.622 1.028-.444 1.494-.143 3.297.866 5.211a13.43 13.43 0 0 0 1.653 2.441l.055.062.075.03c.194.08 3.626 1.483 6.731 1.483Zm-6.168-10.052a12.82 12.82 0 0 1 3.228.48c5.33 1.427 7.599 4.265 7.088 6.329a2.918 2.918 0 0 1-1.593 2.036c-2.838 1.415-8.222-.617-8.931-.897-.42-.499-3.207-3.943-2.316-6.923.197-.673 1.147-1.025 2.524-1.025Z"
  />
  <path
    fill="#f3f8ff"
    d="M63.864 507.33a2.87 2.87 0 0 0 1.228-.255 1.613 1.613 0 0 0 .92-1.151c.58-2.588-3.956-8.122-4.148-8.357l-.223-.267-.275.214c-3.976 3.111-2.806 6-2.118 7.099 1.02 1.629 2.991 2.717 4.616 2.717Zm-2.33-9.04c1.37 1.718 4.178 5.711 3.78 7.48a.906.906 0 0 1-.534.667c-1.383.656-3.825-.434-4.931-2.199-.704-1.131-1.4-3.379 1.689-5.948h-.004Z"
  />
  <path
    fill="#f3f8ff"
    d="M55.064 506.451a.344.344 0 0 0 .16-.037c5.88-2.942 6.685-8.344 6.717-8.574.467-2.586-.214-5.443-1.974-8.245a18.069 18.069 0 0 0-2.819-3.475.362.362 0 0 0-.507.027.355.355 0 0 0 .026.504c.057.051 5.632 5.206 4.57 11.088 0 .066-.807 5.284-6.334 8.052a.353.353 0 0 0 .16.669v-.009Z"
  />
  <path
    fill="#9b6496"
    d="M442.777 532.347s5.115-2.515 1.012-6.722c-4.103-4.206-26.5 4.681-28.28 8.419-1.78 3.738-3.104 6.43 5.042 5.349 8.146-1.081 22.226-7.046 22.226-7.046Z"
  />
  <path
    fill="#fbc5a9"
    d="m437.805 519.544 2.763 11.953 48.933 9.929.677 13.621s-61.771-5.837-63.248-6.071c-1.477-.233-5.244-3.807-5.948-4.971-.703-1.164-4.504-19.605-4.504-19.605l21.327-4.856Z"
  />
  <path
    fill="#9b6496"
    d="M381.81 540.065s8.986 2.028 9.086-5.634c.1-7.661-20.514-18.031-26.179-18.811-5.666-.78-8.757 4.18-2.377 10.914 6.38 6.735 19.47 13.531 19.47 13.531Z"
  />
  <path
    fill="#fbc5a9"
    d="M439.969 528.904s-13.772 2.653-20.031 11.404l-3.469-15.906 21.335-4.858 2.165 9.36Zm-49.934-4.499s-7.903 12.896-8.374 13.674c-.47.779-10.953 61.605-10.953 61.605l-14.711 1.787s4.069-62.072 4.226-63.861c.157-1.788.939-9.709 1.643-11.42.703-1.711 7.126-14.138 7.126-14.138l21.043 7.382v4.971Z"
  />
  <path
    fill="#2b3383"
    d="M377.211 480.018s-9.174-5.426-4.291-7.462c4.884-2.036 14.555-.971 14.555-.971l-10.264 8.433Z"
  />
  <path
    fill="#fbc5a9"
    d="M385.221 532.019s-10.659-9.255-22.055-8.532l5.823-11.433 21.046 7.38v4.971l-4.814 7.614Z"
  />
  <path
    fill="#2b0833"
    d="M435.841 486.545s9.386 38.633 9.739 40.497c.353 1.865.249 3.83-2.803 5.307 0 0 2.92-2.43 1.903-4.295-1.017-1.864-13.303 1.435-20.501 4.776-7.198 3.342-9.154 5.594-8.841 6.137.314.543 5.213.428 5.213.428s-5.761 1.281-6.544-.662c-.782-1.942-8.612-38.068-8.612-38.068s-13.54 34.415-14.552 36.825c-1.012 2.409-4.971 3.43-9.039 2.575 0 0 6.455.842 7.943-2.731 1.488-3.573-10.72-12.508-16.748-15.459-6.027-2.951-14.632-4.973-13.772-1.321a14.056 14.056 0 0 0 3.102 5.98s-3.102-2.251-4.041-6.913c-.938-4.661 7.278-9.244 7.278-9.244l15.335-40.009 54.94 16.177Z"
  />
  <path
    fill="#170011"
    d="M396.403 489.945s1.486 5.204 8.997 10.72l-12.362 40.631-12.828-.808 8.764-3.931s9.701-26.414 10.483-29.52c.782-3.107 1.174-7.149-.547-9.634-1.721-2.486-2.507-5.594-2.507-7.458Zm39.648-2.439s-6.478 1.343-20.25-2.342-31.64-7.113-38.14-6.321l3.248-8.475 54.932 16.177.21.961Z"
  />
  <path
    fill="#2f0927"
    d="M348.597 428.961s1.541 13.36 8.646 9.795c7.105-3.564.891-26.181-5.594-26.071l-3.052 16.276Z"
  />
  <path
    fill="#fbc5a9"
    d="m351.649 412.685-25.979-24.899s-1.959-10.41-2.503-11.187c-.543-.776-4.342-3.768-5.398-4.235-1.057-.467-2.27.623-3.207 3.538 0 0-7.747-.311-8.88.078-1.133.389 0 2.33 0 2.33s-.939-.078-1.448.467c-.51.545.313 2.018 1.174 2.68 0 0-1.096.543-.821 1.553.274 1.01 1.917 2.176 1.917 2.176a2.81 2.81 0 0 0 .078 2.018c.469 1.01 2.386 2.992 2.895 3.147.51.156 11.267 2.477 11.267 2.477s29.889 38.767 30.906 39.777c1.018 1.01 8.137 1.631 8.137 1.631l-.392-15.77s-5.4-4.577-7.746-5.781Z"
  />
  <path
    fill="#2f0927"
    d="M464.377 422.015s2.096-10.335-5.451-7.853c-7.547 2.482-11.312 16.452-11.047 20.303.266 3.851 4.378 7.76 9.468-.92 5.09-8.681 7.03-11.53 7.03-11.53Z"
  />
  <path
    fill="#fbc5a9"
    d="M351.646 412.685s4.098 2.461 4.667 10.791c.49 7.177-1.816 10.058-1.816 10.058l5.286.708-.392-15.771-7.745-5.786Zm100.517 3.527s11.658 5.643 13.302 7.016c1.645 1.372 29.811 28.563 29.811 28.563s12.517 4.739 13.223 5.594c.705.854 4.146 7.925 4.454 9.167.308 1.242-.47 1.592-.891 1.747-.42.156-.586.545-.782 1.439-.196.893-.47 1.204-1.488 1.282-1.017.078-1.172.465-1.247 1.086-.075.621 0 1.555-1.247 1.516-1.247-.039-1.682.31-1.878.816-.196.506-.392 1.553-1.682 1.358-1.29-.194-3.207-2.135-3.207-2.135s-4.067-.389-5.084-.971c-1.018-.582-2.778-4.506-3.013-5.671-.235-1.166-.939-7.809-.939-7.809s-35.326-26.064-36.265-26.373c-.939-.31-9.468-4.6-9.468-4.6l6.401-12.025Z"
  />
  <path
    fill="#fff"
    d="m380.167 410.704-21.321 3.962s-4.148-3.264-7.198-1.981c0 0 4.381 1.282 5.945 11.07s-.939 15.848-3.919 14.916c-2.981-.932-4.617-7.691-5.085-9.71 0 0 .547 10.954 6.337 10.572 5.79-.382 20.352-2.019 22.271-1.791l5.512-24.785-2.542-2.253Z"
  />
  <path
    fill="#ffefef"
    d="M380.168 410.704s-2.673 9.136-4.125 17.551-11.424 7.641-12.596 4.124c-.903-2.708-3.182-20.403-11.798-19.694l-8.908 23.985 17.953 11.522 24.322-7.06-4.848-30.428Z"
  />
  <path
    fill="#fbc5a9"
    d="M456.258 418.229s-3.827 5.828-3.501 13.479l-7.009-3.462 6.414-12.029 4.096 2.012Z"
  />
  <path
    fill="#5c69ad"
    d="M391.084 409.43s-4.343-.186-5.829 0c-1.486.186-5.087 1.274-5.087 1.274s-3.481 17.635-2.934 27.889c.547 10.255 1.409 19.733 1.642 23.073.234 3.34.314 4.584.314 4.584s-8.058 5.671-8.058 8.003c0 2.331 6.08 5.765 6.08 5.765s-5.847-4.29-5.22-5.765c.627-1.476 12.518-1.4 26.212 2.874 13.693 4.274 30.045 9.788 38.417 9.4 0 0-6.494-28.201-6.808-29.909-.313-1.709.713-27.269.713-27.269l-6.503-24.545-12.949.329-19.99 4.297Z"
  />
  <path
    fill="#fff"
    d="M429.982 444.429s-.561 3.028-2.204 3.028c-1.643 0-6.948-4.197-9.232-16.393-2.425-12.973-2.035-25.351 1.566-26.158l4.849-4.477s13.616 29.082 13.849 29.16c.233.078-8.828 14.84-8.828 14.84Z"
  />
  <path fill="#ffefef" d="M418.853 406.909s-4.373 15.013 11.479 27.334l.178-4.894-11.657-22.44Z" />
  <path
    fill="#502b4d"
    d="M411.014 385.029s2.348-5.827 2.523-7.867c.175-2.039-2.567-8.332-5.537-11.128-2.97-2.797-5.083-.991-5.083-.991s-.822-2.855-2.817-3.495c-1.996-.641-6.337.53-9.086 1.34-2.75.811-9.978 3.262-12.324 2.447 0 0 1.995 1.456 4.165 1.282 0 0-5.574 3.438-6.396 5.767-.821 2.33-1.233 9.44-1.348 12.12 0 0 .821-1.923 2.346-3.321a15.98 15.98 0 0 0-.939 5.243c.48-.87 1.009-1.713 1.584-2.524l25.636 5.866 7.276-4.739Z"
  />
  <path
    fill="#fbc5a9"
    d="M378.093 383.902s1.645 16.043 9.206 20.209c0 0 2.179 1.602 7.46-.262v4.422l-9.087 2.855s3.052 3.262 9.087 3.204c6.034-.058 16.314-9.199 16.314-9.199h-3.579l-1.937-13.633s6.632.582 6.455-4.837c0 0-.117-4.021-3.991-4.194 0 0-2.699-.292-3.579 2.213-.88 2.505-2.523.708-3.227-1.923 0 0-1.877.354-2.758-.058-.88-.412-3.698-5.594-4.275-9.671-.011-.002-9.276 2.289-16.089 10.874Z"
  />
  <path
    fill="#fbc5a9"
    d="M402.682 397.728s-2.523 4.138-7.923 6.119v3.434s7.043-1.278 7.923-9.553Zm4.405-10.967c-1.202.76-1.769 2.015-1.265 2.802.504.787 1.889.808 3.091.049 1.203-.759 1.771-2.015 1.265-2.802-.506-.787-1.888-.806-3.091-.049Z"
  />
  <path
    fill="#842a88"
    d="M398.514 369.646a2.994 2.994 0 0 0-.316-1.074 2.51 2.51 0 0 0-.755-.895 2.346 2.346 0 0 0-.545-.281 3.558 3.558 0 0 0-.585-.14 4.812 4.812 0 0 0-.575-.062c-.193-.019-.38-.016-.57-.021-.191-.006-.38 0-.569 0-.188 0-.377.012-.564.032l-.563.049-.558.076-.28.039-.276.051-.554.103c-.356.078-.729.177-1.094.255-1.445.379-2.85.897-4.194 1.548a22.549 22.549 0 0 0-3.807 2.299c1.37-.571 2.715-1.146 4.08-1.659a42.981 42.981 0 0 1 4.147-1.329 26.453 26.453 0 0 1 4.253-.778 9.082 9.082 0 0 1 1.069-.03c.169.002.337.018.503.05.076.023.158.037.235.067.076.028.151.061.224.097.592.299 1.034.922 1.294 1.603Zm-10.131 1.547c-1.067.3-2.098.716-3.074 1.239a20.752 20.752 0 0 0-2.806 1.769c-.89.66-1.717 1.4-2.471 2.211-.187.207-.369.414-.55.623-.182.208-.339.436-.504.658l-.245.334a6.008 6.008 0 0 0-.22.354c-.145.235-.287.472-.419.707.212-.177.411-.369.609-.557.1-.092.194-.189.292-.283l.309-.269.6-.543c.207-.173.412-.35.615-.531a50.096 50.096 0 0 1 2.521-2.004 95.972 95.972 0 0 1 2.629-1.879c.893-.61 1.798-1.206 2.714-1.829Zm19.912 8.98a9.297 9.297 0 0 0-.241-1.415c-.108-.46-.237-.915-.376-1.366a23.44 23.44 0 0 0-1.006-2.653 16.42 16.42 0 0 0-1.379-2.502 7.214 7.214 0 0 0-.935-1.121 2.638 2.638 0 0 0-.613-.441 1.062 1.062 0 0 0-.375-.106.511.511 0 0 0-.356.113.612.612 0 0 1 .595.198c.159.155.299.328.415.517.242.391.461.796.658 1.212.41.822.785 1.668 1.17 2.512.385.843.768 1.693 1.167 2.536.202.423.406.844.618 1.263l.658 1.253Z"
  />
  <path
    fill="#842a88"
    d="M410.369 381.183a3.227 3.227 0 0 0-.119-.575 9.44 9.44 0 0 0-.178-.556 14.577 14.577 0 0 0-.424-1.073 18.755 18.755 0 0 0-1.069-2.04 17.582 17.582 0 0 0-1.315-1.891 11.33 11.33 0 0 0-1.604-1.673c.307.721.668 1.39 1.028 2.057s.747 1.316 1.137 1.963a46.507 46.507 0 0 0 1.869 2.856l.34.463c.107.156.23.306.335.469Z"
  />
  <path
    fill="#4a2247"
    d="M402.917 365.043a13.092 13.092 0 0 1 2.193-2.694 13.544 13.544 0 0 1 2.753-2.019c1.006-.551 2.07-.99 3.173-1.309a28.63 28.63 0 0 1 3.441-.752 11.705 11.705 0 0 0-3.598.103 11.222 11.222 0 0 0-3.435 1.215 10.25 10.25 0 0 0-2.823 2.3c-.777.932-1.417 1.994-1.704 3.156Z"
  />
  <path
    fill="#502b4d"
    d="M403.328 364.192s.976-6.393-2.701-7.868l-1.247 1.01a8.856 8.856 0 0 1 2.79 2.966 8.778 8.778 0 0 1 1.158 3.892Z"
  />
  <path
    fill="#842a88"
    d="M404.305 381.882a3.155 3.155 0 0 0-.868-.021 4.609 4.609 0 0 0-1.497.433 3.55 3.55 0 0 0-.725.462c.268.141.565.216.868.219a2.802 2.802 0 0 0 1.596-.467c.253-.16.466-.374.626-.626Z"
  />
  <path
    fill="#2b3383"
    d="M385.663 411.132a6.626 6.626 0 0 1-.645-.855c-.196-.353 4.697-.417 4.697-.417l-4.052 1.272Z"
  />
  <path
    fill="#fff"
    d="M420.034 419.094s-2.584-5.36-1.41-11.421c1.174-6.06 13.459-2.33 30.985 4.661 0 0 12.753 0 14.319 2.565 1.566 2.565.451 7.115.451 7.115s.8-6.92-2.251-7.677c-3.05-.757-9.546 5.378-11.19 10.817-1.644 5.44-2.346 12.206 0 13.206 2.346.999 6.414-4.815 6.414-4.815s-3.13 6.292-6.494 5.282c-3.364-1.01-20.266-8.858-22.534-10.26-2.268-1.403-6.414-5.744-8.29-9.473Z"
  />
  <path
    fill="#fbc5a9"
    d="M500.52 473.927a.273.273 0 0 0 .167-.058.258.258 0 0 0 .067-.08.262.262 0 0 0-.026-.294l-3.677-4.544a.272.272 0 0 0-.18-.098.261.261 0 0 0-.196.057.266.266 0 0 0-.098.178.261.261 0 0 0 .057.195l3.677 4.545a.265.265 0 0 0 .209.099Z"
  />
  <path fill="#2f0927" d="m494.758 451.293-4.264 7.191-18.037-13.255 9.794-5.988 12.507 12.052Z" />
  <path
    fill="#ffefef"
    d="M406.732 411.636c-1.603.798-3.18 1.601-4.778 2.354-1.598.754-3.207 1.465-4.871 1.946-.406.119-.82.209-1.238.271a5.07 5.07 0 0 1-.615.053h-.641a19.03 19.03 0 0 1-2.587-.288 44.412 44.412 0 0 1-5.144-1.301c.783.435 1.594.816 2.429 1.141.837.331 1.694.61 2.567.833a14.54 14.54 0 0 0 2.694.453c.231.013.463.014.695.022.238-.001.476-.016.712-.046.463-.062.92-.157 1.369-.285a18.792 18.792 0 0 0 2.549-.957 29.86 29.86 0 0 0 2.398-1.226 34.884 34.884 0 0 0 4.461-2.97Zm-43.74 5.905a6.02 6.02 0 0 0-.932-1.102 9.959 9.959 0 0 0-2.3-1.61 5.19 5.19 0 0 0-1.37-.485c.29.384.616.739.973 1.062.345.314.71.606 1.092.873.382.27.781.515 1.196.733.426.225.876.402 1.341.529Z"
  />
  <path
    fill="#fbc5a9"
    d="M311.625 387.292a.238.238 0 0 0 .07-.011c3.677-.985 4.726-2.232 5.006-2.722.079-.12.133-.254.159-.394a1.08 1.08 0 0 0-.009-.424c-.33-1.155-1.748-1.151-2.947-1.019-1.768.195-7.253 1.957-7.483 2.031a.262.262 0 0 0-.199.232.238.238 0 0 0 .012.106.257.257 0 0 0 .139.159.274.274 0 0 0 .212.007c.057-.017 5.667-1.818 7.379-2.008 1.885-.208 2.26.232 2.375.637a.583.583 0 0 1-.101.411c-.193.336-1.099 1.512-4.681 2.476a.27.27 0 0 0-.195.222.244.244 0 0 0 .007.104c.016.055.05.103.096.137a.28.28 0 0 0 .16.056Z"
  />
  <path
    fill="#fbc5a9"
    d="M313.45 384.078c2.022 0 4.296-5.038 4.563-5.646a.265.265 0 0 0-.138-.35.27.27 0 0 0-.352.138c-.998 2.274-3.045 5.724-4.276 5.292-.045-.014-.11-.049-.169-.177-.547-1.187 1.069-5.825 1.739-7.512a.264.264 0 0 0-.06-.294.27.27 0 0 0-.437.099c-.255.642-2.47 6.322-1.729 7.929a.836.836 0 0 0 .48.459c.122.042.25.063.379.062Z"
  />
  <path
    fill="#fbc5a9"
    d="M305.407 381.544h.016l7.536-.443a.262.262 0 0 0 .251-.281.265.265 0 0 0-.283-.249l-7.536.444a.263.263 0 0 0-.175.458.26.26 0 0 0 .191.072v-.001Zm.272-3.148h7.862a.268.268 0 0 0 .268-.265.268.268 0 0 0-.268-.265h-7.862a.267.267 0 0 0-.189.453.27.27 0 0 0 .189.077Z"
  />
  <path fill="#2f0927" d="m325.672 387.786-4.33 5.825 9.219 11.941 10.369-3.142-15.258-14.624Z" />
  <path
    fill="#000"
    d="M365.634 510.478c.025-.016 2.519-1.476 4.899-2.086l-.059-.226c-2.414.619-4.935 2.096-4.96 2.11l.12.202Z"
  />
  <path
    fill="#fbc5a9"
    d="M375.01 532.019c.138.689.4 1.348.772 1.945a8.253 8.253 0 0 0 1.302 1.658 8.078 8.078 0 0 0 1.675 1.29 6.507 6.507 0 0 0 1.96.771c-.535-.48-1.059-.885-1.554-1.336-.495-.451-.985-.884-1.455-1.349a32.697 32.697 0 0 1-1.367-1.44 68.598 68.598 0 0 1-1.333-1.539Z"
  />
  <path fill="#2f0927" d="M373.613 582.905 357.63 576.6l-1.634 24.872 14.711-1.789 2.906-16.778Z" />
  <path
    fill="#9b6496"
    d="M372.037 586.089a54.46 54.46 0 0 0-3.552-1.739 90.343 90.343 0 0 0-3.631-1.55c-1.221-.488-2.45-.96-3.69-1.402a54.02 54.02 0 0 0-3.768-1.214 53.458 53.458 0 0 0 3.552 1.739 92.673 92.673 0 0 0 3.631 1.55c1.221.488 2.45.958 3.692 1.402 1.242.444 2.489.862 3.766 1.214Zm-.939 1.553c-1.109-.568-2.242-1.062-3.385-1.546a77.06 77.06 0 0 0-3.455-1.359 86.421 86.421 0 0 0-3.51-1.206 46.339 46.339 0 0 0-3.581-1.016c1.108.57 2.241 1.07 3.385 1.548a84.899 84.899 0 0 0 6.963 2.563c1.177.379 2.369.736 3.583 1.016Z"
  />
  <path
    fill="#fbc5a9"
    d="M440.566 532.558a7.006 7.006 0 0 0-2.268-.343 8.665 8.665 0 0 0-2.294.303 7.21 7.21 0 0 0-2.128.951 5.124 5.124 0 0 0-1.603 1.653c.621-.396 1.27-.746 1.944-1.046a14.396 14.396 0 0 1 2.024-.708 22.32 22.32 0 0 1 2.116-.465c.72-.125 1.45-.233 2.209-.345Z"
  />
  <path fill="#2f0927" d="m476.317 538.997-7.344 14.316 21.205 1.734-.677-13.621-13.184-2.429Z" />
  <path
    fill="#9b6496"
    d="M478.176 541.452a35.945 35.945 0 0 0-1.666 2.762 62.506 62.506 0 0 0-1.482 2.849c-.471.963-.92 1.932-1.337 2.919-.417.987-.819 1.98-1.152 3.007a35.375 35.375 0 0 0 1.665-2.759 64.686 64.686 0 0 0 1.483-2.85c.47-.961.917-1.933 1.336-2.919.419-.985.82-1.981 1.153-3.009Zm1.853.832c-.559.789-1.047 1.609-1.521 2.439-.474.83-.914 1.674-1.336 2.528-.423.854-.82 1.721-1.194 2.599a27.485 27.485 0 0 0-1.005 2.688c.559-.787 1.049-1.608 1.523-2.437.474-.83.912-1.675 1.335-2.53.422-.854.819-1.719 1.192-2.598.372-.88.721-1.768 1.006-2.689Z"
  />
  <path
    fill="#e34051"
    d="m488.993 541.298-.46 13.416s5.58 10.437 5.924 11.419c.344.982.967 10.701 1.153 12.914.178 2.057 2.102 6.232 8.204 7.634a1.374 1.374 0 0 0 1.098-.209 1.364 1.364 0 0 0 .581-.947l5.523-42.252s.019-1.957-3.348-2.155c-3.367-.198-18.675.18-18.675.18Z"
  />
  <path
    fill="#f3f8ff"
    d="M496.248 559.079a5.527 5.527 0 0 0-1.165.405 9.368 9.368 0 0 0-2.021 1.287c-.316.264-.602.56-.853.885a5.38 5.38 0 0 0 1.165-.405 8.758 8.758 0 0 0 1.053-.58c.338-.215.66-.451.966-.708a5.5 5.5 0 0 0 .855-.884Zm1.467 5.074a3.706 3.706 0 0 0-.975.163 5.739 5.739 0 0 0-1.701.842 3.534 3.534 0 0 0-.713.674c.331-.008.659-.063.975-.163a5.735 5.735 0 0 0 1.692-.843c.271-.191.513-.417.722-.673Zm-7.545-5.793.101-.009c.216-.019 5.294-.508 6.968-3.775.572-1.116-.135-3.154-4.012-5.22s-8.678-2.715-10.275.085a3.594 3.594 0 0 0-.295 3.135c1.238 3.398 7.165 5.66 7.417 5.749l.096.035Zm-3.269-9.917c1.795 0 3.992.672 5.904 1.691 2.557 1.364 4.121 3.101 3.64 4.041-1.333 2.6-5.456 3.2-6.154 3.285-.762-.303-5.778-2.387-6.797-5.185a2.715 2.715 0 0 1 .235-2.399c.576-1.008 1.746-1.431 3.172-1.431v-.002Z"
  />
  <path
    fill="#f3f8ff"
    d="M485.937 564.52c.475.001.948-.059 1.407-.177 1.247-.326 4.059-1.61 3.33-6.499l-.064-.428-.435.054c-.737.094-7.249.984-8.573 3.185a1.66 1.66 0 0 0-.132 1.503c.536 1.403 2.496 2.362 4.467 2.362Zm3.919-6.107c.396 3.678-1.521 4.759-2.731 5.075-1.913.503-4.299-.313-4.81-1.641a.787.787 0 0 1 .064-.733c.443-.737 1.976-1.471 4.313-2.066a34.41 34.41 0 0 1 3.154-.635h.01Z"
  />
  <path
    fill="#f3f8ff"
    d="M489.267 568.491a.445.445 0 0 0 .403-.254.44.44 0 0 0 .015-.338c-2.022-5.553.879-9.691.909-9.73v-.014c3.159-4.795 10.465-4.741 10.538-4.739a.45.45 0 0 0 .416-.267.445.445 0 0 0-.09-.483.45.45 0 0 0-.313-.134 17.83 17.83 0 0 0-4.33.589c-3.132.815-5.539 2.386-6.96 4.543-.196.276-3.172 4.62-1.016 10.537a.449.449 0 0 0 .428.29Z"
  />
  <path
    fill="#e34051"
    d="m370.83 598.979-14.832 1.405s-9.701 6.835-10.64 7.302c-.939.467-10.563 2.33-12.755 2.797-2.032.432-5.954 2.873-6.568 9.061a1.354 1.354 0 0 0 .349 1.053 1.376 1.376 0 0 0 1.021.45h42.91s1.96-.231 1.721-3.573c-.238-3.341-1.206-18.495-1.206-18.495Z"
  />
  <path fill="#2f0927" d="M326.094 619.025h45.875l.088 4.975h-46.574l-2.035-4.975h2.646Z" />
  <path
    fill="#f3f8ff"
    d="M352.635 608.541a5.422 5.422 0 0 0-.556-1.095 9.039 9.039 0 0 0-1.548-1.822 5.478 5.478 0 0 0-.995-.728c.143.385.329.752.555 1.095a9.128 9.128 0 0 0 1.551 1.823c.303.278.636.522.993.727Zm-4.883 2.097a3.515 3.515 0 0 0-.29-.939 5.769 5.769 0 0 0-1.053-1.56 3.55 3.55 0 0 0-.768-.619c.052.324.149.64.288.939.131.286.286.561.464.822.176.262.374.508.593.736.225.241.483.45.766.621Zm10.045-1.609c1.184 0 2.811-1.201 4.158-4.713 1.573-4.105 1.603-8.894-1.407-10.106a3.655 3.655 0 0 0-1.598-.304 3.654 3.654 0 0 0-1.572.416c-3.235 1.657-4.725 7.783-4.787 8.043l-.023.099.023.099c.046.209 1.188 5.146 4.666 6.369a1.6 1.6 0 0 0 .54.097Zm1.256-14.24c.399.005.792.087 1.16.242 2.446.985 2.294 5.358.908 8.971-1.031 2.692-2.565 4.456-3.563 4.102-2.769-.977-3.9-4.953-4.073-5.636.205-.791 1.639-5.995 4.305-7.361a2.735 2.735 0 0 1 1.263-.315v-.003Z"
  />
  <path
    fill="#f3f8ff"
    d="M350.671 603.269a9.193 9.193 0 0 0 2.477-.377l.42-.118-.112-.42a33.634 33.634 0 0 0-1.194-3.559c-1.012-2.521-2.052-4.024-3.094-4.474a1.689 1.689 0 0 0-1.518.066c-1.646.884-2.336 3.833-1.426 6.064.394.95 1.533 2.818 4.447 2.818Zm1.805-1.116c-3.624.865-4.951-.885-5.423-2.035-.747-1.82-.241-4.273 1.021-4.953a.798.798 0 0 1 .739-.03c1.559.669 3.072 4.952 3.669 7.018h-.006Z"
  />
  <path
    fill="#f3f8ff"
    d="M359.36 613.022h.052a.456.456 0 0 0 .298-.165.457.457 0 0 0 .08-.153.454.454 0 0 0 .014-.172 17.43 17.43 0 0 0-1.144-4.187c-1.219-2.979-3.098-5.146-5.434-6.271-.299-.156-5.023-2.527-10.656.353a.437.437 0 0 0-.192.597.445.445 0 0 0 .6.191c5.268-2.698 9.799-.382 9.836-.354 5.203 2.496 6.097 9.701 6.104 9.773a.445.445 0 0 0 .442.388Z"
  />
  <path
    fill="#b9cc59"
    d="M10.877 526.876s15.54 13.444 12.43 47.603H19.98s4.107-31.909-9.102-47.603Zm3.938 47.603H12.43S11.985 560.706 0 557.29c0 0 12.873.807 14.814 17.189Zm10.131 0h2.385s.444-13.773 12.43-17.189c-.001 0-12.875.807-14.815 17.189Zm-23.171-6.171s6.993-.992 8.436 6.171H8.429s-1.022-6.556-6.654-6.171Z"
  />
  <path
    fill="#f53683"
    d="M32.666 534.996a2.2 2.2 0 0 1-2.208-2.191 2.2 2.2 0 0 1 2.208-2.192 2.2 2.2 0 0 1 2.207 2.192 2.2 2.2 0 0 1-2.207 2.191Z"
  />
  <path
    fill="#461c42"
    d="M23.767 513.596a.907.907 0 0 0 .566.842.925.925 0 0 0 1-.198.905.905 0 0 0-.14-1.401.916.916 0 0 0-.509-.154.912.912 0 0 0-.918.911Zm-11.98 42.449a1.506 1.506 0 0 1 1.251-1.726 1.514 1.514 0 0 1 1.738 1.243 1.506 1.506 0 0 1-1.251 1.726 1.514 1.514 0 0 1-1.738-1.243Zm52.107 7.589a1.387 1.387 0 0 1-.754-1.818 1.403 1.403 0 0 1 1.83-.749 1.387 1.387 0 0 1 .755 1.818 1.404 1.404 0 0 1-1.83.749Zm253.55-2.331a2.244 2.244 0 0 1-1.218-2.943 2.271 2.271 0 0 1 2.964-1.21 2.244 2.244 0 0 1 1.219 2.943 2.273 2.273 0 0 1-2.965 1.21Z"
  />
  <path
    fill="#f53683"
    d="M305.691 542.462a1.195 1.195 0 0 1 1.064-1.314 1.198 1.198 0 0 1 1.324 1.056 1.194 1.194 0 0 1-1.064 1.314 1.198 1.198 0 0 1-1.324-1.056Z"
  />
  <path
    fill="#461c42"
    d="M265.011 615.802a1.833 1.833 0 0 1 .155-2.602 1.866 1.866 0 0 1 2.621.154 1.833 1.833 0 0 1-.156 2.602 1.865 1.865 0 0 1-2.62-.154Zm228.68-27.301a2.205 2.205 0 0 1 2.112-2.296 2.208 2.208 0 0 1 2.313 2.096 2.206 2.206 0 0 1-2.111 2.297 2.21 2.21 0 0 1-2.314-2.097Z"
  />
  <path
    fill="#f53683"
    d="M481.491 575.935a.997.997 0 0 1-1.001-.994.997.997 0 0 1 1.001-.994.997.997 0 0 1 1.001.994.997.997 0 0 1-1.001.994Zm-65.534 32.05c-2.04 0-3.693-1.642-3.693-3.667s1.653-3.667 3.693-3.667 3.693 1.642 3.693 3.667-1.653 3.667-3.693 3.667Zm-331.589-1.052c-1.811 0-3.28-1.458-3.28-3.257 0-1.799 1.469-3.257 3.28-3.257 1.812 0 3.28 1.458 3.28 3.257 0 1.799-1.468 3.257-3.28 3.257Z"
  />
  <path
    fill="#461c42"
    d="M152.341 585.569a1.83 1.83 0 0 1-1.837-1.824 1.83 1.83 0 0 1 1.837-1.824c1.014 0 1.837.817 1.837 1.824a1.831 1.831 0 0 1-1.837 1.824Z"
  />
</svg>
