<svg xmlns="http://www.w3.org/2000/svg" fill="none" viewBox="0 0 18 18">
  <path
    fill="currentColor"
    d="M11.7 9a2.7 2.7 0 1 1-5.4 0c0-.154.017-.304.044-.45H5.4v3.597c0 .25.203.453.453.453h6.296a.453.453 0 0 0 .451-.453V8.55h-.944c.028.146.044.296.044.45ZM9 10.8a1.8 1.8 0 1 0 0-3.6 1.8 1.8 0 0 0 0 3.6Zm2.16-3.69h1.08a.271.271 0 0 0 .27-.27V5.76a.27.27 0 0 0-.27-.27h-1.08a.27.27 0 0 0-.27.27v1.08c0 .148.122.27.27.27ZM9 .36a8.64 8.64 0 1 0 0 17.28A8.64 8.64 0 0 0 9 .36Zm4.5 12.14c0 .55-.45 1-1 1h-7c-.55 0-1-.45-1-1v-7c0-.55.45-1 1-1h7c.55 0 1 .45 1 1v7Z"
  />
</svg>
