<svg width="215" height="123" viewBox="0 0 215 123" fill="none" xmlns="http://www.w3.org/2000/svg">
<path
    d="M61.37 118.903C60.6326 119.595 59.7579 119.941 58.7458 119.941C58.1819 119.941 57.683 119.844 57.2493 119.649C56.8155 119.454 56.454 119.195 56.1648 118.871C55.8757 118.546 55.6552 118.172 55.5033 117.746C55.3588 117.321 55.2865 116.878 55.2865 116.417C55.2865 115.927 55.3624 115.48 55.5142 115.076C55.6732 114.666 55.8937 114.313 56.1757 114.017C56.4576 113.722 56.7902 113.491 57.1733 113.325C57.5637 113.16 57.9867 113.077 58.4421 113.077C58.753 113.077 59.0349 113.113 59.288 113.185C59.5482 113.257 59.776 113.35 59.9711 113.466C60.1736 113.581 60.3362 113.714 60.4591 113.866C60.5893 114.01 60.6796 114.158 60.7302 114.309H61.5327C61.4243 114.064 61.2833 113.837 61.1098 113.628C60.9435 113.419 60.7339 113.239 60.4808 113.087C60.2278 112.936 59.9314 112.817 59.5916 112.731C59.2518 112.644 58.865 112.601 58.4313 112.601C57.8023 112.601 57.2276 112.691 56.707 112.871C56.1938 113.051 55.7528 113.311 55.3841 113.65C55.0154 113.981 54.7298 114.385 54.5274 114.86C54.3249 115.329 54.2237 115.855 54.2237 116.438C54.2237 116.943 54.3032 117.437 54.4623 117.919C54.6286 118.395 54.8816 118.82 55.2214 119.195C55.5612 119.562 55.9949 119.862 56.5227 120.092C57.0504 120.316 57.6794 120.427 58.4096 120.427C58.8723 120.427 59.2843 120.384 59.6458 120.298C60.0145 120.211 60.3326 120.107 60.6001 119.984C60.8748 119.854 61.1026 119.717 61.2833 119.573C61.464 119.429 61.6014 119.303 61.6954 119.195L61.37 118.903Z"
    fill="white"
  />
<path
    d="M64.7728 114.774C65.3006 114.774 65.7091 114.849 65.9982 115.001C66.2874 115.145 66.4971 115.336 66.6272 115.574C66.7645 115.812 66.8441 116.085 66.8658 116.395C66.8875 116.705 66.8983 117.022 66.8983 117.346V120.298H66.0199V119.768C65.8103 119.97 65.5428 120.132 65.2174 120.254C64.8921 120.37 64.5668 120.427 64.2415 120.427C63.9306 120.427 63.6559 120.373 63.4173 120.265C63.1787 120.157 62.9799 120.016 62.8209 119.844C62.6618 119.671 62.5425 119.476 62.463 119.26C62.3835 119.044 62.3437 118.824 62.3437 118.6C62.3437 118.37 62.3871 118.139 62.4739 117.909C62.5606 117.678 62.6908 117.473 62.8643 117.292C63.0378 117.105 63.251 116.954 63.5041 116.838C63.7571 116.723 64.0463 116.665 64.3716 116.665C64.6969 116.665 65.0042 116.73 65.2934 116.86C65.5898 116.983 65.8319 117.159 66.0199 117.39V116.925C66.0199 116.334 65.9296 115.894 65.7488 115.606C65.5753 115.318 65.2536 115.174 64.7837 115.174C64.5813 115.174 64.4041 115.199 64.2523 115.249C64.1005 115.3 63.9631 115.372 63.8402 115.466C63.7246 115.552 63.6161 115.664 63.5149 115.801C63.4137 115.93 63.3125 116.078 63.2113 116.244L62.6474 115.682C62.7486 115.574 62.8534 115.466 62.9619 115.357C63.0775 115.249 63.2149 115.152 63.3739 115.066C63.5402 114.979 63.7354 114.911 63.9595 114.86C64.1836 114.803 64.4547 114.774 64.7728 114.774ZM66.0199 118.157C65.9838 118.071 65.9296 117.97 65.8573 117.855C65.7922 117.739 65.7054 117.628 65.597 117.519C65.4885 117.411 65.3584 117.321 65.2066 117.249C65.0548 117.17 64.874 117.13 64.6644 117.13C64.4547 117.13 64.2632 117.174 64.0897 117.26C63.9161 117.339 63.7679 117.447 63.645 117.584C63.5294 117.714 63.439 117.869 63.3739 118.049C63.3089 118.229 63.2763 118.417 63.2763 118.611C63.2763 118.842 63.3161 119.044 63.3956 119.217C63.4824 119.382 63.5908 119.526 63.721 119.649C63.8511 119.764 63.9957 119.851 64.1547 119.908C64.3138 119.966 64.4656 119.995 64.6102 119.995C64.7475 119.995 64.8849 119.97 65.0222 119.919C65.1668 119.869 65.3006 119.8 65.4235 119.714C65.5536 119.62 65.6693 119.512 65.7705 119.39C65.8717 119.267 65.9548 119.134 66.0199 118.99V118.157Z"
    fill="white"
  />
<path
    d="M68.6338 123H69.5555V119.411H69.5989C69.6712 119.599 69.7652 119.757 69.8809 119.887C70.0038 120.017 70.1411 120.121 70.2929 120.2C70.4448 120.28 70.6038 120.337 70.7701 120.373C70.9436 120.409 71.1171 120.427 71.2906 120.427C71.6521 120.427 71.9846 120.362 72.2883 120.233C72.5919 120.096 72.8522 119.905 73.0691 119.66C73.2932 119.415 73.4667 119.119 73.5896 118.773C73.7125 118.42 73.7739 118.031 73.7739 117.606C73.7739 117.174 73.7125 116.784 73.5896 116.438C73.4667 116.093 73.2932 115.797 73.0691 115.552C72.8522 115.3 72.5919 115.109 72.2883 114.979C71.9846 114.842 71.6521 114.774 71.2906 114.774C70.4303 114.774 69.8664 115.105 69.5989 115.768H69.5555V114.893H68.6338V123ZM69.5555 117.055C69.5555 116.817 69.5917 116.593 69.664 116.384C69.7435 116.168 69.852 115.984 69.9893 115.833C70.1267 115.675 70.2857 115.552 70.4665 115.466C70.6544 115.372 70.8532 115.325 71.0629 115.325C71.287 115.325 71.5003 115.368 71.7027 115.455C71.9124 115.534 72.0931 115.664 72.2449 115.844C72.3967 116.024 72.516 116.258 72.6028 116.547C72.6967 116.835 72.7437 117.181 72.7437 117.584C72.7437 117.995 72.6967 118.345 72.6028 118.633C72.516 118.921 72.3931 119.159 72.2341 119.346C72.0822 119.526 71.9051 119.66 71.7027 119.746C71.5003 119.826 71.287 119.865 71.0629 119.865C70.8605 119.865 70.6689 119.826 70.4881 119.746C70.3074 119.66 70.1484 119.537 70.011 119.379C69.8736 119.213 69.7616 119.015 69.6748 118.784C69.5953 118.554 69.5555 118.291 69.5555 117.995V117.055Z"
    fill="white"
  />
<path
    d="M74.6362 115.325V114.893H75.5797V113.228H76.5014V114.893H77.8136V115.325H76.5014V118.914C76.5014 119 76.505 119.101 76.5123 119.217C76.5195 119.325 76.5412 119.429 76.5773 119.53C76.6135 119.624 76.6677 119.703 76.74 119.768C76.8195 119.833 76.928 119.865 77.0653 119.865C77.2388 119.865 77.3834 119.8 77.4991 119.671C77.6148 119.541 77.7087 119.4 77.781 119.249L78.2907 119.768C77.9365 120.121 77.5352 120.298 77.087 120.298C76.899 120.298 76.7147 120.265 76.534 120.2C76.3532 120.135 76.1905 120.038 76.046 119.908C75.9086 119.771 75.7965 119.599 75.7098 119.39C75.623 119.181 75.5797 118.936 75.5797 118.654V115.325H74.6362Z"
    fill="white"
  />
<path
    d="M79.245 114.893V118.406C79.245 118.536 79.2558 118.716 79.2775 118.946C79.3064 119.17 79.3824 119.393 79.5053 119.617C79.6282 119.833 79.8197 120.024 80.08 120.189C80.3475 120.348 80.7198 120.427 81.197 120.427C81.4066 120.434 81.6343 120.391 81.8801 120.298C82.1332 120.211 82.3862 120.042 82.6392 119.789L82.8127 119.617H82.8561V120.298H83.7779V114.893H82.8561V118.244C82.8561 118.525 82.8163 118.766 82.7368 118.968C82.6573 119.17 82.5525 119.339 82.4223 119.476C82.2922 119.606 82.1404 119.703 81.9669 119.768C81.7934 119.833 81.6126 119.865 81.4247 119.865C81.121 119.865 80.8825 119.808 80.709 119.692C80.5427 119.57 80.4162 119.429 80.3294 119.271C80.2499 119.112 80.2029 118.957 80.1884 118.806C80.174 118.647 80.1667 118.532 80.1667 118.46V114.893H79.245Z"
    fill="white"
  />
<path
    d="M85.5461 114.893V120.298H86.4678V117.033C86.4678 116.738 86.5004 116.489 86.5654 116.287C86.6377 116.078 86.7281 115.909 86.8365 115.779C86.945 115.649 87.0642 115.556 87.1944 115.498C87.3245 115.44 87.451 115.412 87.5739 115.412C87.7402 115.412 87.892 115.466 88.0294 115.574C88.174 115.682 88.2788 115.783 88.3439 115.876L88.7126 115.206C88.6475 115.12 88.568 115.048 88.474 114.99C88.3872 114.932 88.2969 114.889 88.2029 114.86C88.1161 114.824 88.033 114.803 87.9535 114.795C87.8812 114.781 87.827 114.774 87.7908 114.774C87.4872 114.774 87.2341 114.857 87.0317 115.022C86.8293 115.188 86.663 115.433 86.5329 115.757H86.4678V114.893H85.5461Z"
    fill="white"
  />
<path
    d="M94.5016 117.833V117.606C94.5016 117.123 94.4329 116.705 94.2955 116.352C94.1582 115.999 93.9702 115.707 93.7316 115.476C93.5003 115.246 93.2292 115.073 92.9183 114.958C92.6075 114.842 92.2785 114.785 91.9315 114.785C91.5628 114.785 91.223 114.849 90.9122 114.979C90.6013 115.102 90.3302 115.285 90.0988 115.53C89.8675 115.768 89.6868 116.06 89.5566 116.406C89.4265 116.745 89.3614 117.13 89.3614 117.563C89.3614 117.923 89.4157 118.276 89.5241 118.622C89.6398 118.961 89.8097 119.267 90.0338 119.541C90.2651 119.808 90.5543 120.024 90.9013 120.189C91.2556 120.348 91.6712 120.427 92.1484 120.427C92.6111 120.427 93.0376 120.348 93.428 120.189C93.8184 120.024 94.1582 119.789 94.4474 119.487L94.1003 119.141C93.9485 119.271 93.8039 119.39 93.6666 119.498C93.5364 119.606 93.4027 119.696 93.2653 119.768C93.128 119.84 92.9834 119.898 92.8316 119.941C92.687 119.977 92.5243 119.995 92.3436 119.995C92.1412 119.995 91.9243 119.966 91.6929 119.908C91.4688 119.844 91.2592 119.732 91.064 119.573C90.8688 119.415 90.7061 119.195 90.576 118.914C90.4459 118.633 90.3808 118.273 90.3808 117.833H94.5016ZM90.3808 117.401C90.3808 117.112 90.4097 116.835 90.4675 116.568C90.5326 116.294 90.6266 116.053 90.7495 115.844C90.8796 115.635 91.0423 115.469 91.2375 115.347C91.4327 115.217 91.664 115.152 91.9315 115.152C92.4448 115.152 92.8424 115.354 93.1244 115.757C93.4136 116.154 93.5581 116.702 93.5581 117.401H90.3808Z"
    fill="white"
  />
<path
    d="M99.1627 115.325V114.893H100.106V113.228H101.028V114.893H102.34V115.325H101.028V118.914C101.028 119 101.032 119.101 101.039 119.217C101.046 119.325 101.068 119.429 101.104 119.53C101.14 119.624 101.194 119.703 101.266 119.768C101.346 119.833 101.454 119.865 101.592 119.865C101.765 119.865 101.91 119.8 102.026 119.671C102.141 119.541 102.235 119.4 102.308 119.249L102.817 119.768C102.463 120.121 102.062 120.298 101.614 120.298C101.426 120.298 101.241 120.265 101.06 120.2C100.88 120.135 100.717 120.038 100.572 119.908C100.435 119.771 100.323 119.599 100.236 119.39C100.15 119.181 100.106 118.936 100.106 118.654V115.325H99.1627Z"
    fill="white"
  />
<path
    d="M103.771 112.731V120.298H104.693V117.174C104.693 117.029 104.704 116.853 104.726 116.644C104.747 116.435 104.805 116.233 104.899 116.039C105.001 115.844 105.149 115.678 105.344 115.541C105.539 115.397 105.81 115.325 106.157 115.325C106.403 115.325 106.598 115.372 106.743 115.466C106.895 115.552 107.01 115.671 107.09 115.822C107.169 115.974 107.22 116.15 107.242 116.352C107.271 116.554 107.285 116.763 107.285 116.979V120.298H108.207V116.73C108.207 116.327 108.149 115.999 108.033 115.747C107.918 115.487 107.773 115.285 107.599 115.141C107.426 114.997 107.234 114.9 107.025 114.849C106.822 114.799 106.627 114.774 106.439 114.774C106.186 114.774 105.919 114.824 105.637 114.925C105.362 115.019 105.102 115.203 104.856 115.476L104.737 115.628H104.693V112.731H103.771Z"
    fill="white"
  />
<path
    d="M114.76 117.833V117.606C114.76 117.123 114.692 116.705 114.554 116.352C114.417 115.999 114.229 115.707 113.99 115.476C113.759 115.246 113.488 115.073 113.177 114.958C112.866 114.842 112.537 114.785 112.19 114.785C111.822 114.785 111.482 114.849 111.171 114.979C110.86 115.102 110.589 115.285 110.358 115.53C110.126 115.768 109.945 116.06 109.815 116.406C109.685 116.745 109.62 117.13 109.62 117.563C109.62 117.923 109.674 118.276 109.783 118.622C109.898 118.961 110.068 119.267 110.292 119.541C110.524 119.808 110.813 120.024 111.16 120.189C111.514 120.348 111.93 120.427 112.407 120.427C112.87 120.427 113.296 120.348 113.687 120.189C114.077 120.024 114.417 119.789 114.706 119.487L114.359 119.141C114.207 119.271 114.063 119.39 113.925 119.498C113.795 119.606 113.661 119.696 113.524 119.768C113.387 119.84 113.242 119.898 113.09 119.941C112.946 119.977 112.783 119.995 112.602 119.995C112.4 119.995 112.183 119.966 111.952 119.908C111.728 119.844 111.518 119.732 111.323 119.573C111.128 119.415 110.965 119.195 110.835 118.914C110.705 118.633 110.64 118.273 110.64 117.833H114.76ZM110.64 117.401C110.64 117.112 110.668 116.835 110.726 116.568C110.791 116.294 110.885 116.053 111.008 115.844C111.138 115.635 111.301 115.469 111.496 115.347C111.691 115.217 111.923 115.152 112.19 115.152C112.704 115.152 113.101 115.354 113.383 115.757C113.672 116.154 113.817 116.702 113.817 117.401H110.64Z"
    fill="white"
  />
<path
    d="M123.423 116.125C123.423 115.93 123.372 115.75 123.271 115.585C123.17 115.419 123.029 115.278 122.848 115.163C122.675 115.04 122.469 114.947 122.23 114.882C121.999 114.81 121.749 114.774 121.482 114.774C121.229 114.774 120.99 114.806 120.766 114.871C120.549 114.936 120.358 115.033 120.191 115.163C120.032 115.293 119.906 115.455 119.812 115.649C119.718 115.837 119.671 116.057 119.671 116.309C119.671 116.655 119.75 116.929 119.909 117.13C120.068 117.332 120.267 117.494 120.506 117.617C120.744 117.739 121.001 117.84 121.276 117.919C121.558 117.991 121.818 118.074 122.057 118.168C122.295 118.255 122.494 118.366 122.653 118.503C122.812 118.64 122.892 118.827 122.892 119.065C122.892 119.166 122.874 119.271 122.837 119.379C122.808 119.487 122.751 119.588 122.664 119.681C122.577 119.768 122.458 119.844 122.306 119.908C122.154 119.966 121.963 119.995 121.731 119.995C121.442 119.995 121.196 119.952 120.994 119.865C120.799 119.771 120.636 119.663 120.506 119.541C120.383 119.411 120.293 119.281 120.235 119.152C120.184 119.022 120.159 118.914 120.159 118.827H119.454C119.454 119.029 119.501 119.227 119.595 119.422C119.689 119.609 119.83 119.779 120.018 119.93C120.213 120.081 120.448 120.204 120.723 120.298C121.005 120.384 121.33 120.427 121.699 120.427C122.364 120.427 122.863 120.283 123.195 119.995C123.535 119.699 123.705 119.314 123.705 118.838C123.705 118.492 123.622 118.215 123.455 118.006C123.296 117.797 123.094 117.631 122.848 117.509C122.602 117.379 122.335 117.274 122.046 117.195C121.764 117.116 121.5 117.033 121.254 116.947C121.008 116.86 120.802 116.756 120.636 116.633C120.477 116.511 120.397 116.338 120.397 116.114C120.397 116.02 120.415 115.923 120.452 115.822C120.488 115.714 120.549 115.617 120.636 115.53C120.723 115.437 120.838 115.361 120.983 115.303C121.128 115.239 121.308 115.206 121.525 115.206C121.742 115.206 121.93 115.239 122.089 115.303C122.248 115.361 122.382 115.437 122.49 115.53C122.599 115.617 122.678 115.714 122.729 115.822C122.78 115.93 122.805 116.031 122.805 116.125H123.423Z"
    fill="white"
  />
<path
    d="M124.632 115.325V114.893H125.575V113.228H126.497V114.893H127.809V115.325H126.497V118.914C126.497 119 126.501 119.101 126.508 119.217C126.515 119.325 126.537 119.429 126.573 119.53C126.609 119.624 126.663 119.703 126.736 119.768C126.815 119.833 126.923 119.865 127.061 119.865C127.234 119.865 127.379 119.8 127.495 119.671C127.61 119.541 127.704 119.4 127.777 119.249L128.286 119.768C127.932 120.121 127.531 120.298 127.083 120.298C126.895 120.298 126.71 120.265 126.529 120.2C126.349 120.135 126.186 120.038 126.041 119.908C125.904 119.771 125.792 119.599 125.705 119.39C125.619 119.181 125.575 118.936 125.575 118.654V115.325H124.632Z"
    fill="white"
  />
<path
    d="M134.532 117.606C134.532 117.981 134.467 118.341 134.337 118.687C134.207 119.026 134.019 119.325 133.773 119.584C133.535 119.844 133.242 120.049 132.895 120.2C132.555 120.352 132.172 120.427 131.746 120.427C131.312 120.427 130.918 120.352 130.564 120.2C130.216 120.042 129.92 119.833 129.674 119.573C129.436 119.314 129.248 119.015 129.11 118.676C128.98 118.33 128.915 117.973 128.915 117.606C128.915 117.231 128.98 116.874 129.11 116.536C129.248 116.19 129.436 115.887 129.674 115.628C129.92 115.368 130.216 115.163 130.564 115.012C130.918 114.853 131.312 114.774 131.746 114.774C132.172 114.774 132.555 114.853 132.895 115.012C133.242 115.163 133.535 115.368 133.773 115.628C134.019 115.887 134.207 116.19 134.337 116.536C134.467 116.874 134.532 117.231 134.532 117.606ZM133.502 117.606C133.502 117.101 133.448 116.694 133.34 116.384C133.231 116.067 133.09 115.822 132.917 115.649C132.743 115.476 132.552 115.361 132.342 115.303C132.132 115.239 131.93 115.206 131.735 115.206C131.539 115.206 131.337 115.239 131.127 115.303C130.918 115.361 130.723 115.476 130.542 115.649C130.368 115.822 130.224 116.067 130.108 116.384C130 116.694 129.945 117.101 129.945 117.606C129.945 118.103 130 118.51 130.108 118.827C130.224 119.137 130.368 119.379 130.542 119.552C130.723 119.725 130.918 119.844 131.127 119.908C131.337 119.966 131.539 119.995 131.735 119.995C131.93 119.995 132.132 119.966 132.342 119.908C132.552 119.844 132.743 119.725 132.917 119.552C133.09 119.379 133.231 119.137 133.34 118.827C133.448 118.51 133.502 118.103 133.502 117.606Z"
    fill="white"
  />
<path
    d="M135.944 114.893V120.298H136.866V117.033C136.866 116.738 136.898 116.489 136.963 116.287C137.036 116.078 137.126 115.909 137.234 115.779C137.343 115.649 137.462 115.556 137.592 115.498C137.722 115.44 137.849 115.412 137.972 115.412C138.138 115.412 138.29 115.466 138.427 115.574C138.572 115.682 138.677 115.783 138.742 115.876L139.111 115.206C139.045 115.12 138.966 115.048 138.872 114.99C138.785 114.932 138.695 114.889 138.601 114.86C138.514 114.824 138.431 114.803 138.351 114.795C138.279 114.781 138.225 114.774 138.189 114.774C137.885 114.774 137.632 114.857 137.43 115.022C137.227 115.188 137.061 115.433 136.931 115.757H136.866V114.893H135.944Z"
    fill="white"
  />
<path
    d="M140.432 114.893V120.298H141.353V114.893H140.432ZM140.302 113.185C140.302 113.343 140.359 113.48 140.475 113.596C140.591 113.711 140.728 113.768 140.887 113.768C141.046 113.768 141.184 113.711 141.299 113.596C141.415 113.48 141.473 113.343 141.473 113.185C141.473 113.026 141.415 112.889 141.299 112.774C141.184 112.659 141.046 112.601 140.887 112.601C140.728 112.601 140.591 112.659 140.475 112.774C140.359 112.889 140.302 113.026 140.302 113.185Z"
    fill="white"
  />
<path
    d="M148.235 117.833V117.606C148.235 117.123 148.167 116.705 148.029 116.352C147.892 115.999 147.704 115.707 147.465 115.476C147.234 115.246 146.963 115.073 146.652 114.958C146.341 114.842 146.012 114.785 145.665 114.785C145.297 114.785 144.957 114.849 144.646 114.979C144.335 115.102 144.064 115.285 143.833 115.53C143.601 115.768 143.421 116.06 143.29 116.406C143.16 116.745 143.095 117.13 143.095 117.563C143.095 117.923 143.149 118.276 143.258 118.622C143.374 118.961 143.543 119.267 143.768 119.541C143.999 119.808 144.288 120.024 144.635 120.189C144.989 120.348 145.405 120.427 145.882 120.427C146.345 120.427 146.771 120.348 147.162 120.189C147.552 120.024 147.892 119.789 148.181 119.487L147.834 119.141C147.682 119.271 147.538 119.39 147.4 119.498C147.27 119.606 147.137 119.696 146.999 119.768C146.862 119.84 146.717 119.898 146.565 119.941C146.421 119.977 146.258 119.995 146.077 119.995C145.875 119.995 145.658 119.966 145.427 119.908C145.203 119.844 144.993 119.732 144.798 119.573C144.603 119.415 144.44 119.195 144.31 118.914C144.18 118.633 144.115 118.273 144.115 117.833H148.235ZM144.115 117.401C144.115 117.112 144.144 116.835 144.201 116.568C144.266 116.294 144.36 116.053 144.483 115.844C144.613 115.635 144.776 115.469 144.971 115.347C145.166 115.217 145.398 115.152 145.665 115.152C146.179 115.152 146.576 115.354 146.858 115.757C147.147 116.154 147.292 116.702 147.292 117.401H144.115Z"
    fill="white"
  />
<path
    d="M153.107 116.125C153.107 115.93 153.056 115.75 152.955 115.585C152.854 115.419 152.713 115.278 152.532 115.163C152.359 115.04 152.153 114.947 151.914 114.882C151.683 114.81 151.433 114.774 151.166 114.774C150.913 114.774 150.674 114.806 150.45 114.871C150.233 114.936 150.042 115.033 149.875 115.163C149.716 115.293 149.59 115.455 149.496 115.649C149.402 115.837 149.355 116.057 149.355 116.309C149.355 116.655 149.434 116.929 149.593 117.13C149.752 117.332 149.951 117.494 150.19 117.617C150.428 117.739 150.685 117.84 150.96 117.919C151.242 117.991 151.502 118.074 151.74 118.168C151.979 118.255 152.178 118.366 152.337 118.503C152.496 118.64 152.575 118.827 152.575 119.065C152.575 119.166 152.557 119.271 152.521 119.379C152.492 119.487 152.434 119.588 152.348 119.681C152.261 119.768 152.142 119.844 151.99 119.908C151.838 119.966 151.646 119.995 151.415 119.995C151.126 119.995 150.88 119.952 150.678 119.865C150.482 119.771 150.32 119.663 150.19 119.541C150.067 119.411 149.976 119.281 149.919 119.152C149.868 119.022 149.843 118.914 149.843 118.827H149.138C149.138 119.029 149.185 119.227 149.279 119.422C149.373 119.609 149.514 119.779 149.702 119.93C149.897 120.081 150.132 120.204 150.407 120.298C150.689 120.384 151.014 120.427 151.383 120.427C152.048 120.427 152.547 120.283 152.879 119.995C153.219 119.699 153.389 119.314 153.389 118.838C153.389 118.492 153.306 118.215 153.139 118.006C152.98 117.797 152.778 117.631 152.532 117.509C152.286 117.379 152.019 117.274 151.73 117.195C151.448 117.116 151.184 117.033 150.938 116.947C150.692 116.86 150.486 116.756 150.32 116.633C150.161 116.511 150.081 116.338 150.081 116.114C150.081 116.02 150.099 115.923 150.135 115.822C150.172 115.714 150.233 115.617 150.32 115.53C150.407 115.437 150.522 115.361 150.667 115.303C150.811 115.239 150.992 115.206 151.209 115.206C151.426 115.206 151.614 115.239 151.773 115.303C151.932 115.361 152.066 115.437 152.174 115.53C152.283 115.617 152.362 115.714 152.413 115.822C152.463 115.93 152.489 116.031 152.489 116.125H153.107Z"
    fill="white"
  />
<path
    d="M163.941 117.606C163.941 117.981 163.876 118.341 163.746 118.687C163.616 119.026 163.428 119.325 163.182 119.584C162.943 119.844 162.651 120.049 162.304 120.2C161.964 120.352 161.581 120.427 161.154 120.427C160.72 120.427 160.326 120.352 159.972 120.2C159.625 120.042 159.329 119.833 159.083 119.573C158.844 119.314 158.656 119.015 158.519 118.676C158.389 118.33 158.324 117.973 158.324 117.606C158.324 117.231 158.389 116.874 158.519 116.536C158.656 116.19 158.844 115.887 159.083 115.628C159.329 115.368 159.625 115.163 159.972 115.012C160.326 114.853 160.72 114.774 161.154 114.774C161.581 114.774 161.964 114.853 162.304 115.012C162.651 115.163 162.943 115.368 163.182 115.628C163.428 115.887 163.616 116.19 163.746 116.536C163.876 116.874 163.941 117.231 163.941 117.606ZM162.911 117.606C162.911 117.101 162.857 116.694 162.748 116.384C162.64 116.067 162.499 115.822 162.325 115.649C162.152 115.476 161.96 115.361 161.75 115.303C161.541 115.239 161.338 115.206 161.143 115.206C160.948 115.206 160.746 115.239 160.536 115.303C160.326 115.361 160.131 115.476 159.95 115.649C159.777 115.822 159.632 116.067 159.517 116.384C159.408 116.694 159.354 117.101 159.354 117.606C159.354 118.103 159.408 118.51 159.517 118.827C159.632 119.137 159.777 119.379 159.95 119.552C160.131 119.725 160.326 119.844 160.536 119.908C160.746 119.966 160.948 119.995 161.143 119.995C161.338 119.995 161.541 119.966 161.75 119.908C161.96 119.844 162.152 119.725 162.325 119.552C162.499 119.379 162.64 119.137 162.748 118.827C162.857 118.51 162.911 118.103 162.911 117.606Z"
    fill="white"
  />
<path
    d="M164.81 114.893V115.325H165.754V120.298H166.676V115.325H167.988V114.893H166.676V113.985C166.676 113.898 166.679 113.797 166.686 113.682C166.694 113.559 166.715 113.448 166.751 113.347C166.788 113.239 166.842 113.149 166.914 113.077C166.994 113.005 167.102 112.969 167.239 112.969C167.413 112.969 167.554 113.041 167.662 113.185C167.778 113.329 167.872 113.477 167.944 113.628L168.421 113.12C168.248 112.947 168.067 112.817 167.879 112.731C167.698 112.644 167.492 112.601 167.261 112.601C167.073 112.601 166.889 112.633 166.708 112.698C166.527 112.763 166.365 112.864 166.22 113.001C166.083 113.131 165.971 113.3 165.884 113.509C165.797 113.718 165.754 113.963 165.754 114.244V114.893H164.81Z"
    fill="white"
  />
<path
    d="M175.187 119.033L173.311 114.893H172.324L174.753 120.233L174.178 121.638C174.113 121.804 174.027 121.937 173.918 122.038C173.817 122.139 173.698 122.189 173.56 122.189C173.43 122.189 173.304 122.15 173.181 122.07C173.065 121.998 172.975 121.89 172.91 121.746L172.433 122.643C172.57 122.766 172.722 122.856 172.888 122.914C173.054 122.971 173.21 123 173.354 123C173.557 123 173.734 122.95 173.886 122.849C174.038 122.748 174.171 122.614 174.287 122.449C174.403 122.29 174.504 122.11 174.591 121.908C174.677 121.714 174.76 121.519 174.84 121.324L177.464 114.893H176.933L175.23 119.033H175.187Z"
    fill="white"
  />
<path
    d="M183.84 117.606C183.84 117.981 183.775 118.341 183.644 118.687C183.514 119.026 183.326 119.325 183.081 119.584C182.842 119.844 182.549 120.049 182.202 120.2C181.862 120.352 181.479 120.427 181.053 120.427C180.619 120.427 180.225 120.352 179.871 120.2C179.524 120.042 179.227 119.833 178.981 119.573C178.743 119.314 178.555 119.015 178.418 118.676C178.287 118.33 178.222 117.973 178.222 117.606C178.222 117.231 178.287 116.874 178.418 116.536C178.555 116.19 178.743 115.887 178.981 115.628C179.227 115.368 179.524 115.163 179.871 115.012C180.225 114.853 180.619 114.774 181.053 114.774C181.479 114.774 181.862 114.853 182.202 115.012C182.549 115.163 182.842 115.368 183.081 115.628C183.326 115.887 183.514 116.19 183.644 116.536C183.775 116.874 183.84 117.231 183.84 117.606ZM182.809 117.606C182.809 117.101 182.755 116.694 182.647 116.384C182.538 116.067 182.397 115.822 182.224 115.649C182.05 115.476 181.859 115.361 181.649 115.303C181.439 115.239 181.237 115.206 181.042 115.206C180.847 115.206 180.644 115.239 180.435 115.303C180.225 115.361 180.03 115.476 179.849 115.649C179.675 115.822 179.531 116.067 179.415 116.384C179.307 116.694 179.253 117.101 179.253 117.606C179.253 118.103 179.307 118.51 179.415 118.827C179.531 119.137 179.675 119.379 179.849 119.552C180.03 119.725 180.225 119.844 180.435 119.908C180.644 119.966 180.847 119.995 181.042 119.995C181.237 119.995 181.439 119.966 181.649 119.908C181.859 119.844 182.05 119.725 182.224 119.552C182.397 119.379 182.538 119.137 182.647 118.827C182.755 118.51 182.809 118.103 182.809 117.606Z"
    fill="white"
  />
<path
    d="M185.251 114.893V118.406C185.251 118.536 185.262 118.716 185.284 118.946C185.313 119.17 185.389 119.393 185.511 119.617C185.634 119.833 185.826 120.024 186.086 120.189C186.354 120.348 186.726 120.427 187.203 120.427C187.413 120.434 187.641 120.391 187.886 120.298C188.139 120.211 188.392 120.042 188.645 119.789L188.819 119.617H188.862V120.298H189.784V114.893H188.862V118.244C188.862 118.525 188.823 118.766 188.743 118.968C188.663 119.17 188.559 119.339 188.429 119.476C188.298 119.606 188.147 119.703 187.973 119.768C187.8 119.833 187.619 119.865 187.431 119.865C187.127 119.865 186.889 119.808 186.715 119.692C186.549 119.57 186.422 119.429 186.336 119.271C186.256 119.112 186.209 118.957 186.195 118.806C186.18 118.647 186.173 118.532 186.173 118.46V114.893H185.251Z"
    fill="white"
  />
<path
    d="M191.552 114.893V120.298H192.474V117.033C192.474 116.738 192.507 116.489 192.572 116.287C192.644 116.078 192.734 115.909 192.843 115.779C192.951 115.649 193.07 115.556 193.201 115.498C193.331 115.44 193.457 115.412 193.58 115.412C193.746 115.412 193.898 115.466 194.036 115.574C194.18 115.682 194.285 115.783 194.35 115.876L194.719 115.206C194.654 115.12 194.574 115.048 194.48 114.99C194.393 114.932 194.303 114.889 194.209 114.86C194.122 114.824 194.039 114.803 193.96 114.795C193.887 114.781 193.833 114.774 193.797 114.774C193.493 114.774 193.24 114.857 193.038 115.022C192.835 115.188 192.669 115.433 192.539 115.757H192.474V114.893H191.552Z"
    fill="white"
  />
<path d="M200.623 112.731H199.701V120.298H200.623V112.731Z" fill="white" />
<path
    d="M202.923 114.893V120.298H203.845V114.893H202.923ZM202.793 113.185C202.793 113.343 202.851 113.48 202.967 113.596C203.083 113.711 203.22 113.768 203.379 113.768C203.538 113.768 203.675 113.711 203.791 113.596C203.907 113.48 203.965 113.343 203.965 113.185C203.965 113.026 203.907 112.889 203.791 112.774C203.675 112.659 203.538 112.601 203.379 112.601C203.22 112.601 203.083 112.659 202.967 112.774C202.851 112.889 202.793 113.026 202.793 113.185Z"
    fill="white"
  />
<path
    d="M205.37 114.893V115.325H206.314V120.298H207.235V115.325H208.547V114.893H207.235V113.985C207.235 113.898 207.239 113.797 207.246 113.682C207.253 113.559 207.275 113.448 207.311 113.347C207.347 113.239 207.402 113.149 207.474 113.077C207.553 113.005 207.662 112.969 207.799 112.969C207.973 112.969 208.114 113.041 208.222 113.185C208.338 113.329 208.432 113.477 208.504 113.628L208.981 113.12C208.808 112.947 208.627 112.817 208.439 112.731C208.258 112.644 208.052 112.601 207.821 112.601C207.633 112.601 207.449 112.633 207.268 112.698C207.087 112.763 206.924 112.864 206.78 113.001C206.642 113.131 206.53 113.3 206.444 113.509C206.357 113.718 206.314 113.963 206.314 114.244V114.893H205.37Z"
    fill="white"
  />
<path
    d="M214.667 117.833V117.606C214.667 117.123 214.598 116.705 214.461 116.352C214.323 115.999 214.135 115.707 213.897 115.476C213.665 115.246 213.394 115.073 213.083 114.958C212.773 114.842 212.444 114.785 212.097 114.785C211.728 114.785 211.388 114.849 211.077 114.979C210.766 115.102 210.495 115.285 210.264 115.53C210.033 115.768 209.852 116.06 209.722 116.406C209.592 116.745 209.526 117.13 209.526 117.563C209.526 117.923 209.581 118.276 209.689 118.622C209.805 118.961 209.975 119.267 210.199 119.541C210.43 119.808 210.719 120.024 211.066 120.189C211.421 120.348 211.836 120.427 212.313 120.427C212.776 120.427 213.203 120.348 213.593 120.189C213.983 120.024 214.323 119.789 214.612 119.487L214.265 119.141C214.114 119.271 213.969 119.39 213.832 119.498C213.701 119.606 213.568 119.696 213.43 119.768C213.293 119.84 213.148 119.898 212.997 119.941C212.852 119.977 212.689 119.995 212.509 119.995C212.306 119.995 212.089 119.966 211.858 119.908C211.634 119.844 211.424 119.732 211.229 119.573C211.034 119.415 210.871 119.195 210.741 118.914C210.611 118.633 210.546 118.273 210.546 117.833H214.667ZM210.546 117.401C210.546 117.112 210.575 116.835 210.633 116.568C210.698 116.294 210.792 116.053 210.915 115.844C211.045 115.635 211.207 115.469 211.403 115.347C211.598 115.217 211.829 115.152 212.097 115.152C212.61 115.152 213.007 115.354 213.289 115.757C213.579 116.154 213.723 116.702 213.723 117.401H210.546Z"
    fill="white"
  />
<path
    d="M21.496 88.906H11.7145V104.083H13.8833V95.7378H20.0212V95.4351H13.8833V89.2087C17.6788 89.2087 19.6308 89.4249 21.496 90.4194V88.906Z"
    fill="white"
  />
<path
    d="M25.4394 104.407C27.066 104.407 28.7794 103.499 30.0156 102.159V104.083H32.1844V95.046C32.1844 92.2138 30.124 91.1977 27.6082 91.1977C25.9165 91.1977 24.0296 91.6517 22.4897 92.3652L22.9235 94.0299C24.2682 92.4733 26.09 91.4571 27.6733 91.4571C29.0613 91.4571 30.0156 92.3003 30.0156 94.0947C25.5912 95.1108 21.3403 96.8404 21.3403 100.602C21.3403 102.851 22.8801 104.407 25.4394 104.407ZM26.2852 103.715C24.7453 103.715 23.5091 102.591 23.5091 100.278C23.5091 97.5322 25.1357 95.4567 30.0156 94.3974V101.856C29.0613 102.894 27.5648 103.715 26.2852 103.715Z"
    fill="white"
  />
<path
    d="M37.0472 104.083V98.0078C37.5677 94.2893 38.9558 91.9976 40.6909 91.9976C41.5584 91.9976 42.5127 92.7543 42.5127 95.0676V104.083H44.6815V97.5106C45.0719 93.8353 46.525 92.0625 48.13 92.0625C48.9758 92.0625 49.9084 92.8192 49.9084 95.0676V104.083H52.0773V95.327C52.0773 92.6462 50.8844 91.2193 48.8674 91.2193C47.0889 91.2193 45.3755 92.7759 44.7032 95.9324H44.6598C44.6598 93.0137 43.7706 91.2193 41.5801 91.2193C39.5631 91.2193 37.7412 93.338 37.1123 96.7539H37.0472V91.5869H34.8784V104.083H37.0472Z"
    fill="white"
  />
<path
    d="M56.0233 90.2464C56.6957 90.2464 57.2379 89.706 57.2379 89.0358C57.2379 88.3655 56.6957 87.8251 56.0233 87.8251C55.351 87.8251 54.8088 88.3655 54.8088 89.0358C54.8088 89.706 55.351 90.2464 56.0233 90.2464ZM57.1078 104.083V91.5869H54.9389V104.083H57.1078Z"
    fill="white"
  />
<path d="M62.6 104.083V88.906H60.4312V104.083H62.6Z" fill="white" />
<path
    d="M68.3334 109.358C72.9313 109.358 76.2279 106.375 76.2279 101.77V91.5869H74.0591V99.4563C73.4084 102.267 71.6517 103.802 70.1986 103.802C68.7238 103.802 67.4658 102.289 67.4658 99.0888V91.5869H65.297V98.6132C65.297 102.18 67.3357 104.45 69.5913 104.45C71.1745 104.45 73.0397 103.24 73.994 100.602H74.0591V103.326C74.0591 106.634 72.4759 108.861 69.5696 108.861C68.4852 108.861 67.1405 108.428 65.5573 107.391L65.1018 108.904C66.2296 109.228 67.314 109.358 68.3334 109.358Z"
    fill="white"
  />
<path
    d="M89.3992 88.906H79.6178V104.083H81.7866V95.7378H87.9244V95.4351H81.7866V89.2087C85.5821 89.2087 87.534 89.4249 89.3992 90.4194V88.906Z"
    fill="white"
  />
<path
    d="M95.5658 104.45C99.2529 104.45 101.595 101.834 101.595 97.8781C101.595 93.8785 99.2529 91.2193 95.5658 91.2193C91.7487 91.2193 89.4931 93.8785 89.4931 97.8781C89.4931 101.834 91.7487 104.45 95.5658 104.45ZM95.5658 104.148C92.8548 104.148 91.5752 101.143 91.5752 97.8781C91.5752 94.7217 92.8548 91.522 95.5658 91.522C98.1034 91.522 99.5348 94.7217 99.5348 97.8781C99.5348 101.143 98.1034 104.148 95.5658 104.148Z"
    fill="white"
  />
<path
    d="M105.628 104.083V98.6997C106.756 94.0731 108.968 91.6949 111.94 93.1002L112.243 91.5869C109.25 90.5924 106.799 93.2083 105.65 97.8349H105.628V91.5869H103.459V104.083H105.628Z"
    fill="white"
  />
<path
    d="M118.631 104.494C120.084 104.494 121.559 103.802 122.383 102.31L121.776 100.991C120.887 103.067 119.499 104.234 118.328 104.234C117.33 104.234 116.506 103.434 116.506 101.834V91.8895H119.824V91.5869H116.506L116.484 86.7441H116.202C116.202 88.6682 115.703 90.4194 114.641 91.5869H113.036V91.8895H114.337V100.408C114.337 103.002 116.462 104.494 118.631 104.494Z"
    fill="white"
  />
<path
    d="M128.119 104.429C130.288 104.429 132.045 102.678 132.847 99.6293H132.912V104.083H135.081V91.5869H132.912V97.9646C132.565 101.489 130.657 103.975 128.64 103.975C127.469 103.975 126.471 103.132 126.471 101.337V91.5869H124.302V100.667C124.302 103.218 126.102 104.429 128.119 104.429Z"
    fill="white"
  />
<path
    d="M146.015 91.2193C144.085 91.2193 141.656 92.6462 139.834 95.781V91.5869H137.665V104.083H139.834V96.3215C141.265 93.6191 143.478 91.9328 145.039 91.9328C146.015 91.9328 146.731 92.6462 146.731 94.3109V104.083H148.9V94.3758C148.9 92.1706 147.512 91.2193 146.015 91.2193Z"
    fill="white"
  />
<path
    d="M155.188 104.407C156.815 104.407 158.528 103.499 159.765 102.159V104.083H161.933V95.046C161.933 92.2138 159.873 91.1977 157.357 91.1977C155.666 91.1977 153.779 91.6517 152.239 92.3652L152.673 94.0299C154.017 92.4733 155.839 91.4571 157.422 91.4571C158.81 91.4571 159.765 92.3003 159.765 94.0947C155.34 95.1108 151.089 96.8404 151.089 100.602C151.089 102.851 152.629 104.407 155.188 104.407ZM156.034 103.715C154.494 103.715 153.258 102.591 153.258 100.278C153.258 97.5322 154.885 95.4567 159.765 94.3974V101.856C158.81 102.894 157.314 103.715 156.034 103.715Z"
    fill="white"
  />
<path
    d="M169.315 104.494C170.768 104.494 172.243 103.802 173.067 102.31L172.46 100.991C171.571 103.067 170.183 104.234 169.011 104.234C168.014 104.234 167.19 103.434 167.19 101.834V91.8895H170.508V91.5869H167.19L167.168 86.7441H166.886C166.886 88.6682 166.387 90.4194 165.324 91.5869H163.72V91.8895H165.021V100.408C165.021 103.002 167.146 104.494 169.315 104.494Z"
    fill="white"
  />
<path
    d="M180.005 104.386C181.696 104.386 183.497 103.802 185.145 102.505L184.689 100.991C183.019 103.11 181.306 104.105 179.81 104.105C177.402 104.105 175.537 101.748 175.45 97.943H184.971C185.102 97.4025 185.167 96.9053 185.167 96.4296C185.167 92.9273 182.499 91.2193 179.701 91.2193C176.578 91.2193 173.281 93.3596 173.281 97.5538C173.281 101.705 176.383 104.386 180.005 104.386ZM175.45 97.6403C175.472 93.5975 177.684 91.522 179.723 91.522C181.545 91.522 183.215 93.0786 183.215 96.2783C183.215 96.7323 183.171 97.1647 183.085 97.6403H175.45Z"
    fill="white"
  />
<path
    d="M188.246 104.45C188.897 104.45 189.418 103.932 189.418 103.283C189.418 102.613 188.897 102.116 188.246 102.116C187.574 102.116 187.075 102.613 187.075 103.283C187.075 103.932 187.574 104.45 188.246 104.45Z"
    fill="white"
  />
<path
    d="M195.387 104.429C197.556 104.429 199.313 102.678 200.115 99.6293H200.18V104.083H202.349V91.5869H200.18V97.9646C199.833 101.489 197.925 103.975 195.908 103.975C194.736 103.975 193.739 103.132 193.739 101.337V91.5869H191.57V100.667C191.57 103.218 193.37 104.429 195.387 104.429Z"
    fill="white"
  />
<path
    d="M209.361 104.429C212.115 104.429 214.913 103.478 215 100.948C215 97.035 206.086 95.6297 206.086 93.4245C206.086 92.2354 207.387 91.6517 209.101 91.6517C210.684 91.6517 212.831 92.3003 214.371 93.2515L214.61 91.7382C213.287 91.3923 211.812 91.2193 210.424 91.2193C207.409 91.2193 204.568 92.0841 204.568 94.2244C204.568 97.3809 213.634 98.8078 213.634 101.899C213.547 103.132 212.137 103.91 210.272 103.91C208.927 103.91 207.105 103.521 205.153 102.116L204.785 103.629C206.129 104.126 207.778 104.429 209.361 104.429Z"
    fill="white"
  />
<path
    fillRule="evenodd"
    clipRule="evenodd"
    d="M38.4108 0.288934C38.6243 1.12131 40.1928 9.71421 40.8532 13.6706C42.5546 23.8612 43.7642 33.0138 44.4867 41.1645C44.6391 42.8837 44.794 44.3627 44.831 44.451C44.8698 44.5438 45.6838 44.9367 46.7573 45.3807C55.3864 48.9505 64.6326 54.2811 71.8647 59.8555C76.8679 63.712 80.9933 67.7097 84.5025 72.102C86.2881 74.337 87.4532 76.034 88.8694 78.4626L89.9184 80.2614L90.0989 79.2733C90.1981 78.7299 90.8707 73.2102 91.5935 67.0073C92.9063 55.741 92.9075 55.7281 92.8168 54.53C92.4694 49.9434 90.8729 45.7267 87.725 41.0823C86.5909 39.409 84.1301 36.375 82.7771 34.9817C78.862 30.9503 72.0613 25.4427 58.8376 15.5941C49.0804 8.3273 43.9206 4.40349 39.8128 1.12674C39.0386 0.509225 38.3896 0.00218441 38.3704 2.64903e-05C38.3513 -0.00213143 38.3694 0.127825 38.4108 0.288934ZM21.7292 13.6072C21.7262 13.6341 21.9599 14.178 22.2486 14.8158C22.8466 16.1371 24.3148 19.5049 25.1 21.3563C29.9593 32.8141 33.837 43.0545 37.0269 52.8544L37.9393 55.6572L39.3606 55.8875C48.141 57.3099 58.334 60.3206 66.4067 63.8761C72.8879 66.7305 78.4064 70.0428 83.4852 74.1267C84.2583 74.7483 84.9107 75.2411 84.9348 75.2217C85.0352 75.1415 81.2054 70.5441 79.8845 69.1593C73.5785 62.5476 65.6421 56.6982 55.8494 51.4446C52.0251 49.393 47.3287 47.2181 43.8993 45.9104C43.6275 45.8068 43.3948 45.713 43.3824 45.7022C43.3699 45.6914 43.2401 44.2998 43.0939 42.6099C42.7612 38.7641 42.5728 36.9021 42.1686 33.4623C41.8445 30.7047 40.7777 22.7028 40.6896 22.3678C40.6631 22.2676 40.5681 22.1545 40.4784 22.1167C37.3935 20.8166 25.5944 15.4578 22.9313 14.1473C22.2732 13.8235 21.7323 13.5805 21.7292 13.6072ZM9.1874 30.0967C9.28586 30.2143 10.0477 31.0556 10.8804 31.9662C18.9651 40.8086 27.4571 53.7059 32.8253 65.2946C33.1865 66.0747 33.5659 66.8904 33.6682 67.1073L33.8543 67.5015L34.9778 67.4393C40.3691 67.1401 45.9085 67.3212 51.811 67.9895C58.182 68.7109 63.2014 69.7309 69.0538 71.4935C74.0234 72.9903 79.3492 75.0623 83.8466 77.2487C84.5354 77.5835 85.0789 77.8148 85.0543 77.7626C84.9846 77.6144 82.3515 75.3787 81.1421 74.4409C77.3077 71.4676 72.6619 68.6734 67.5776 66.2827C61.9255 63.625 55.3672 61.3145 48.5372 59.5748C45.1723 58.7178 40.3308 57.7134 38.6522 57.5241C38.1984 57.4729 37.5498 57.37 37.2109 57.2954C36.7028 57.1835 36.5872 57.1207 36.5518 56.9368C36.3646 55.9656 33.5941 47.7741 31.6657 42.4906C30.6231 39.6339 28.0526 32.8739 27.9741 32.7823C27.9442 32.7474 23.582 31.9359 21.8491 31.6428C18.4733 31.072 14.5493 30.5083 11.7548 30.1929C9.06684 29.8894 9.0121 29.8874 9.1874 30.0967ZM17.0751 45.9978C12.6382 46.4356 4.61922 47.598 1.04384 48.3217L0 48.5329L2.30071 51.4454C5.89642 55.9974 8.9691 60.277 12.5322 65.6957C16.3942 71.5691 20.241 78.1408 23.3126 84.1128C23.879 85.214 24.3967 86.1432 24.4631 86.1778C24.5295 86.2124 25.1414 86.0156 25.8229 85.7405C32.5269 83.0347 41.5249 80.4873 49.1543 79.1354C57.1345 77.7213 63.5296 77.2413 71.5701 77.453C73.2907 77.4983 81.7126 78.4076 82.3698 78.6191C83.2502 78.9024 82.501 78.4864 80.575 77.6225C67.4215 71.7223 53.7643 68.8774 39.3677 69.0385C37.2099 69.0627 33.2485 69.1899 32.9352 69.245C32.8089 69.2673 32.6809 69.0813 32.4618 68.5573C31.9352 67.2976 30.3314 63.9387 29.2552 61.8418C27.2165 57.8693 25.229 54.4206 22.563 50.2301C20.9734 47.7314 19.6459 45.7631 19.5495 45.7619C19.508 45.7614 18.3945 45.8675 17.0751 45.9978Z"
    fill="white"
  />
</svg>
