<svg width="30" height="30" viewBox="0 0 30 30" fill="none" xmlns="http://www.w3.org/2000/svg">
<path
    d="M8.24997 4.5C8.12036 4.49997 7.99295 4.53354 7.88017 4.59742C7.76739 4.6613 7.6731 4.75332 7.60647 4.8645L3.10647 12.3645C3.02659 12.498 2.99018 12.6529 3.00227 12.808C3.01436 12.9631 3.07437 13.1105 3.17397 13.23L14.424 26.73C14.4944 26.8144 14.5824 26.8823 14.682 26.9289C14.7815 26.9755 14.8901 26.9997 15 26.9997C15.1099 26.9997 15.2184 26.9755 15.318 26.9289C15.4175 26.8823 15.5056 26.8144 15.576 26.73L26.826 13.23C26.9256 13.1105 26.9856 12.9631 26.9977 12.808C27.0098 12.6529 26.9734 12.498 26.8935 12.3645L22.3935 4.8645C22.3269 4.75332 22.2326 4.6613 22.1198 4.59742C22.007 4.53354 21.8796 4.49997 21.75 4.5H8.24997ZM5.07447 12L8.67447 6H11.643L9.24298 12H5.07447ZM9.23697 13.5L12.6375 22.2435L5.35197 13.5H9.23697ZM15 24.18L10.8465 13.5H19.1535L15 24.18ZM10.8585 12L13.2585 6H16.7415L19.1415 12H10.86H10.8585ZM20.7585 12L18.3585 6H21.3255L24.9255 12H20.757H20.7585ZM20.763 13.5H24.648L17.3625 22.2435L20.763 13.5Z"
    fill="#21C0AD"
  />
</svg>
