<svg width="15" height="14" viewBox="0 0 15 14" fill="none" xmlns="http://www.w3.org/2000/svg">
<g clip-path="url(#clip0_1313_495)">
<path
      d="M2.57769 9.02213L1.8388 12.211C1.81331 12.3276 1.81419 12.4484 1.84136 12.5646C1.86853 12.6808 1.92132 12.7894 1.99586 12.8826C2.0704 12.9758 2.16482 13.0511 2.27221 13.1031C2.3796 13.1552 2.49726 13.1825 2.61658 13.1832C2.67218 13.1889 2.7282 13.1889 2.7838 13.1832L5.99214 12.4444L12.1521 6.30769L8.71436 2.87769L2.57769 9.02213Z"
      fill="#21C0AD"
    />
<path
      d="M14.0884 3.23557L11.7939 0.941127C11.6431 0.791041 11.4389 0.706787 11.2261 0.706787C11.0134 0.706787 10.8092 0.791041 10.6584 0.941127L9.38281 2.21668L12.8167 5.65057L14.0923 4.37502C14.1669 4.29999 14.226 4.21098 14.2662 4.11308C14.3064 4.01519 14.327 3.91032 14.3266 3.80449C14.3262 3.69865 14.305 3.59393 14.2641 3.49631C14.2233 3.39869 14.1635 3.31008 14.0884 3.23557Z"
      fill="#21C0AD"
    />
</g>
<defs>
<clipPath id="clip0_1313_495">
<rect width="14" height="14" fill="white" transform="translate(0.9375)" />
</clipPath>
</defs>
</svg>
