<svg width="176" height="65" viewBox="0 0 176 65" fill="none" xmlns="http://www.w3.org/2000/svg">
<path
    d="M52.5988 42.9313C53.2341 42.9313 53.6274 42.4118 53.6274 41.7624C53.5971 40.6261 52.5383 38.613 49.8762 38.613C46.7602 38.613 45.0056 40.9832 45.0056 45.2041V48.2561H41.9805V48.6457H45.0056V61.9576C45.0056 63.4186 44.5821 64.1979 43.4628 64.3278V64.4901H48.0611V64.3278C46.9417 64.1979 46.5182 63.4186 46.5182 61.9576V48.6457H50.7535V48.2561H46.5182V44.6521C46.5182 40.7559 47.5468 38.9377 49.7854 38.9377C51.0862 38.9377 52.1148 39.5871 52.5988 40.7235C52.024 40.7235 51.5702 41.2105 51.5702 41.8274C51.5702 42.4443 52.024 42.9313 52.5988 42.9313Z"
    fill="black"
  />
<path
    d="M53.8944 56.3731C53.8944 61.4706 57.0103 64.8148 61.7599 64.8148C66.5094 64.8148 69.6253 61.4706 69.6253 56.3731C69.6253 51.2756 66.5094 47.9314 61.7599 47.9314C57.0103 47.9314 53.8944 51.2756 53.8944 56.3731ZM55.528 56.3731C55.528 51.4704 58.0086 48.2561 61.7599 48.2561C65.5111 48.2561 67.9917 51.4704 67.9917 56.3731C67.9917 61.2758 65.5111 64.4901 61.7599 64.4901C58.0086 64.4901 55.528 61.2758 55.528 56.3731Z"
    fill="black"
  />
<path
    d="M75.1103 61.9576C75.1103 63.4186 74.6868 64.1979 73.5675 64.3278V64.4901H78.1657V64.3278C77.0464 64.1979 76.6229 63.4186 76.6229 61.9576V57.1848C76.6229 52.3795 78.7102 48.4184 81.2514 48.4184C81.7657 48.4184 82.2497 48.5807 82.5522 48.9054C82.0077 48.9379 81.5841 49.4249 81.5841 50.0093C81.5841 50.6262 82.0379 51.1132 82.6127 51.1132C83.1875 51.1132 83.6413 50.6262 83.6413 50.0093C83.6413 48.7106 82.764 47.9314 81.3724 47.9314C79.0733 47.9314 77.4094 50.1717 76.6229 54.1003V48.0937L73.7187 49.2301V49.3924C74.7775 49.3924 75.1103 49.7821 75.1103 50.9184V61.9576Z"
    fill="black"
  />
<path
    d="M89.9991 44.8144H89.6966C89.6966 46.9898 88.5772 48.2561 86.6714 48.2561V48.6457H88.4865V61.6329C88.4865 63.8407 89.6663 64.8148 91.1789 64.8148C92.5402 64.8148 93.6898 63.9706 94.083 62.2498L93.9318 62.2173C93.4175 63.8407 92.2074 64.1329 91.6629 64.1329C91.1184 64.1329 89.9991 63.9057 89.9991 62.0225V48.6457H94.2343V48.2561H89.9991V44.8144Z"
    fill="black"
  />
<path
    d="M98.6475 60.1394C98.6475 62.4121 99.555 64.8148 103.337 64.8148C106.12 64.8148 108.056 62.542 108.782 60.3342V62.6069C108.782 64.555 109.75 64.8148 110.506 64.8148C111.172 64.8148 111.716 64.3927 112.049 63.9381L111.958 63.8407C111.777 64.0031 111.474 64.1329 111.141 64.1329C110.688 64.1329 110.294 63.9381 110.294 62.8018V48.0937L107.39 49.2301V49.3924C108.449 49.3924 108.782 49.7821 108.782 50.9184V58.4186C108.782 61.1783 106.543 64.3927 103.458 64.3927C101.582 64.3927 100.16 63.3537 100.16 60.2043V48.0937L97.2559 49.2301V49.3924C98.3147 49.3924 98.6475 49.7821 98.6475 50.9184V60.1394Z"
    fill="black"
  />
<path
    d="M117.32 61.9576C117.32 63.4186 116.896 64.1979 115.777 64.3278V64.4901H120.375V64.3278C119.256 64.1979 118.832 63.4186 118.832 61.9576V54.3276C118.832 51.5678 121.041 48.3535 124.066 48.3535C125.911 48.3535 127.303 49.3924 127.303 52.5418V62.6069C127.303 64.555 128.271 64.8148 129.027 64.8148C129.693 64.8148 130.237 64.3927 130.57 63.9381L130.479 63.8407C130.298 64.0031 129.995 64.1329 129.662 64.1329C129.209 64.1329 128.815 63.9381 128.815 62.8018V52.3795C128.815 50.4314 127.817 47.9314 124.187 47.9314C121.434 47.9314 119.558 50.1717 118.832 52.3795V48.0937L115.928 49.2301V49.3924C116.987 49.3924 117.32 49.7821 117.32 50.9184V61.9576Z"
    fill="black"
  />
<path
    d="M137.716 51.7626C137.716 51.0158 137.202 50.6587 136.567 50.6587C137.141 49.2626 138.835 48.2561 140.711 48.2561C142.224 48.2561 144.765 49.1327 144.765 52.347C144.765 56.1783 134.449 55.5289 134.449 61.3407C134.449 63.6135 136.113 64.8148 138.23 64.8148C141.619 64.8148 143.676 61.3407 144.765 57.7043V62.6069C144.765 64.555 145.733 64.8148 146.489 64.8148C147.155 64.8148 147.699 64.3927 148.032 63.9381L147.941 63.8407C147.76 64.0031 147.457 64.1329 147.124 64.1329C146.671 64.1329 146.277 63.9381 146.277 62.8018V52.899C146.277 50.5288 144.795 47.9314 140.711 47.9314C137.928 47.9314 135.659 49.6522 135.659 51.7626C135.659 52.3795 136.113 52.8665 136.688 52.8665C137.262 52.8665 137.716 52.3795 137.716 51.7626ZM144.765 56.6328C143.706 60.4316 141.467 64.3927 138.563 64.3927C137.051 64.3927 136.083 63.1589 136.083 61.2108C136.083 56.1783 142.556 56.6328 144.765 53.5159V56.6328Z"
    fill="black"
  />
<path
    d="M154.629 44.8144H154.326C154.326 46.9898 153.207 48.2561 151.301 48.2561V48.6457H153.116V61.6329C153.116 63.8407 154.296 64.8148 155.809 64.8148C157.17 64.8148 158.32 63.9706 158.713 62.2498L158.562 62.2173C158.047 63.8407 156.837 64.1329 156.293 64.1329C155.748 64.1329 154.629 63.9057 154.629 62.0225V48.6457H158.864V48.2561H154.629V44.8144Z"
    fill="black"
  />
<path
    d="M175.227 60.5939C173.775 63.094 171.415 64.1979 169.086 64.1979C167.21 64.1979 165.334 63.1264 164.306 60.7887C163.761 58.2562 165.062 56.6328 167.755 55.5938L175.378 52.6392C174.349 49.6847 172.05 47.9314 168.934 47.9314C164.669 47.9314 161.886 51.2756 161.886 56.3731C161.886 61.4706 164.669 64.8148 168.934 64.8148C171.808 64.8148 174.228 63.2888 175.499 60.7563L175.227 60.5939ZM168.027 55.0744C165.425 56.0809 163.913 57.3146 163.913 59.6199C163.671 58.6783 163.519 57.6069 163.519 56.3731C163.519 51.4704 165.697 48.2561 168.934 48.2561C171.173 48.2561 172.897 49.7821 173.775 52.347C173.865 52.6068 173.744 52.8341 173.502 52.9315L168.027 55.0744Z"
    fill="black"
  />
<path
    d="M6.3905 15.1411C5.27972 15.1411 4.5392 15.6871 3.96698 16.7062V3.96726H9.79016C12.483 3.96726 13.7284 4.80439 14.7045 7.64335H14.9738L14.1323 3.5305H0.5V3.71248C1.74542 3.85807 2.21666 4.7316 2.21666 6.36946V26.1694C2.21666 27.8072 1.74542 28.6808 0.5 28.8264V29.0083H5.68364V28.8264C4.43822 28.6808 3.96698 27.8072 3.96698 26.1694V17.1429C4.57286 16.3058 5.27972 15.9782 6.02024 15.9782C7.63592 15.9782 9.18428 17.3249 10.8673 17.3249C12.079 17.3249 12.8532 16.6334 13.4591 15.4323L13.2908 15.3231C12.6849 16.1602 11.9781 16.4878 11.2375 16.4878C9.62186 16.4878 8.0735 15.1411 6.3905 15.1411Z"
    fill="black"
  />
<path
    d="M21.8094 14.7407C21.8094 13.9036 21.2372 13.5033 20.5303 13.5033C21.1699 11.9382 23.0548 10.8099 25.1418 10.8099C26.8248 10.8099 29.6522 11.7926 29.6522 15.3959C29.6522 19.6907 18.1741 18.9628 18.1741 25.4778C18.1741 28.0256 20.0254 29.3723 22.3816 29.3723C26.1516 29.3723 28.4404 25.4778 29.6522 21.4014V26.8973C29.6522 29.0811 30.7293 29.3723 31.5708 29.3723C32.3113 29.3723 32.9172 28.8991 33.2875 28.3896L33.1865 28.2804C32.9845 28.4624 32.6479 28.608 32.2777 28.608C31.7728 28.608 31.3352 28.3896 31.3352 27.1157V16.0146C31.3352 13.3577 29.6859 10.4459 25.1418 10.4459C22.045 10.4459 19.5205 12.375 19.5205 14.7407C19.5205 15.4323 20.0254 15.9782 20.665 15.9782C21.3045 15.9782 21.8094 15.4323 21.8094 14.7407ZM29.6522 20.2003C28.4741 24.4587 25.9833 28.8991 22.7519 28.8991C21.0689 28.8991 19.9918 27.5161 19.9918 25.3323C19.9918 19.6907 27.195 20.2003 29.6522 16.7062V20.2003Z"
    fill="black"
  />
<path
    d="M39.1467 26.1694C39.1467 27.8072 38.6754 28.6808 37.43 28.8264V29.0083H42.5463V28.8264C41.3009 28.6808 40.8297 27.8072 40.8297 26.1694V16.961C41.1326 14.0492 43.3878 10.9191 46.3499 10.9191C48.3022 10.9191 49.7832 12.0838 49.7832 15.6143V26.1694C49.7832 27.8072 49.312 28.6808 48.0666 28.8264V29.0083H53.1829V28.8264C51.9375 28.6808 51.4662 27.8072 51.4662 26.1694V17.6161C51.4662 14.5224 53.8224 10.9191 57.0201 10.9191C58.9724 10.9191 60.4535 12.0838 60.4535 15.6143V26.8973C60.4535 29.0811 61.5306 29.3723 62.3721 29.3723C63.1126 29.3723 63.7185 28.8991 64.0887 28.3896L63.9878 28.2804C63.7858 28.4624 63.4492 28.608 63.0789 28.608C62.574 28.608 62.1365 28.3896 62.1365 27.1157V15.4323C62.1365 13.2485 61.093 10.4459 57.2221 10.4459C54.26 10.4459 52.2404 12.9209 51.4662 15.3959C51.4662 13.2121 50.3891 10.4459 46.5519 10.4459C43.6235 10.4459 41.6375 12.8481 40.8297 15.2867V10.6279L37.5983 11.9018V12.0838C38.7764 12.0838 39.1467 12.5205 39.1467 13.7944V26.1694Z"
    fill="black"
  />
<path
    d="M69.4394 4.80439C69.4394 5.53233 69.9443 6.07828 70.6175 6.07828C71.2907 6.07828 71.7956 5.53233 71.7956 4.80439C71.7956 4.07645 71.2907 3.5305 70.6175 3.5305C69.9443 3.5305 69.4394 4.07645 69.4394 4.80439ZM68.3959 11.9018V12.0838C69.574 12.0838 69.9443 12.5205 69.9443 13.7944V26.1694C69.9443 27.8072 69.473 28.6808 68.2276 28.8264V29.0083H73.3439V28.8264C72.0985 28.6808 71.6273 27.8072 71.6273 26.1694V10.6279L68.3959 11.9018Z"
    fill="black"
  />
<path
    d="M77.893 1.27389V1.45588C79.0711 1.45588 79.4414 1.89264 79.4414 3.16653V26.1694C79.4414 27.8072 78.9702 28.6808 77.7247 28.8264V29.0083H82.841V28.8264C81.5956 28.6808 81.1244 27.8072 81.1244 26.1694V0L77.893 1.27389Z"
    fill="black"
  />
<path
    d="M90.3859 13.6488C89.8473 12.1202 90.0156 11.1375 91.2611 10.9919V10.8099H86.0774V10.9919C87.3565 11.1739 88.0297 12.1202 88.5683 13.6488L94.2231 29.5543L93.045 32.9028C91.8333 36.3605 90.1839 36.8701 89.1741 36.8701C88.1643 36.8701 87.5248 36.3969 87.2219 35.7782C87.8277 35.7418 88.3326 35.2322 88.3326 34.5407C88.3326 33.8491 87.8277 33.3032 87.1882 33.3032C86.5486 33.3032 86.0438 33.8491 86.0438 34.5407C86.0438 36.3605 87.5248 37.234 89.0395 37.234C90.7225 37.234 92.3382 36.3605 93.6173 32.7936L100.417 13.6488C100.955 12.1202 101.628 11.1739 102.907 10.9919V10.8099H99.0029V10.9919C100.248 11.1375 99.7434 14.0128 99.2048 15.5415L95.132 27.0065L90.3859 13.6488Z"
    fill="black"
  />
</svg>
