<svg width="24" height="25" viewBox="0 0 24 25" fill="none" xmlns="http://www.w3.org/2000/svg">
<path
    fillRule="evenodd"
    clipRule="evenodd"
    d="M4.18359 6.11385C4.18359 5.7959 4.30557 5.49098 4.52269 5.26616C4.7398 5.04134 5.03428 4.91504 5.34133 4.91504H19.2342C19.5412 4.91504 19.8357 5.04134 20.0528 5.26616C20.2699 5.49098 20.3919 5.7959 20.3919 6.11385C20.3919 6.43179 20.2699 6.73671 20.0528 6.96153C19.8357 7.18636 19.5412 7.31266 19.2342 7.31266H5.34133C5.03428 7.31266 4.7398 7.18636 4.52269 6.96153C4.30557 6.73671 4.18359 6.43179 4.18359 6.11385ZM4.18359 12.1079C4.18359 11.79 4.30557 11.485 4.52269 11.2602C4.7398 11.0354 5.03428 10.9091 5.34133 10.9091H19.2342C19.5412 10.9091 19.8357 11.0354 20.0528 11.2602C20.2699 11.485 20.3919 11.79 20.3919 12.1079C20.3919 12.4258 20.2699 12.7308 20.0528 12.9556C19.8357 13.1804 19.5412 13.3067 19.2342 13.3067H5.34133C5.03428 13.3067 4.7398 13.1804 4.52269 12.9556C4.30557 12.7308 4.18359 12.4258 4.18359 12.1079ZM4.18359 18.1019C4.18359 17.784 4.30557 17.4791 4.52269 17.2543C4.7398 17.0294 5.03428 16.9031 5.34133 16.9031H19.2342C19.5412 16.9031 19.8357 17.0294 20.0528 17.2543C20.2699 17.4791 20.3919 17.784 20.3919 18.1019C20.3919 18.4199 20.2699 18.7248 20.0528 18.9496C19.8357 19.1745 19.5412 19.3008 19.2342 19.3008H5.34133C5.03428 19.3008 4.7398 19.1745 4.52269 18.9496C4.30557 18.7248 4.18359 18.4199 4.18359 18.1019Z"
    fill="#757785"
  />
</svg>
