<svg width="30" height="22" viewBox="0 0 30 22" fill="none" xmlns="http://www.w3.org/2000/svg">
<path
    d="M30 10.8149C30 10.8149 24.375 0.502441 15 0.502441C5.625 0.502441 0 10.8149 0 10.8149C0 10.8149 5.625 21.1274 15 21.1274C24.375 21.1274 30 10.8149 30 10.8149ZM2.19937 10.8149C3.10596 9.43705 4.1487 8.15373 5.31187 6.98432C7.725 4.56744 11.025 2.37744 15 2.37744C18.975 2.37744 22.2731 4.56744 24.69 6.98432C25.8532 8.15373 26.8959 9.43705 27.8025 10.8149C27.6938 10.9781 27.5738 11.1581 27.4369 11.3549C26.8088 12.2549 25.8806 13.4549 24.69 14.6456C22.2731 17.0624 18.9731 19.2524 15 19.2524C11.025 19.2524 7.72688 17.0624 5.31 14.6456C4.14684 13.4761 3.1041 12.1928 2.1975 10.8149H2.19937Z"
    fill="#E7E8EA"
  />
<path
    d="M15 6.12744C13.7568 6.12744 12.5645 6.6213 11.6854 7.50038C10.8064 8.37946 10.3125 9.57174 10.3125 10.8149C10.3125 12.0581 10.8064 13.2504 11.6854 14.1295C12.5645 15.0086 13.7568 15.5024 15 15.5024C16.2432 15.5024 17.4355 15.0086 18.3146 14.1295C19.1936 13.2504 19.6875 12.0581 19.6875 10.8149C19.6875 9.57174 19.1936 8.37946 18.3146 7.50038C17.4355 6.6213 16.2432 6.12744 15 6.12744ZM8.4375 10.8149C8.4375 9.07446 9.1289 7.40526 10.3596 6.17455C11.5903 4.94385 13.2595 4.25244 15 4.25244C16.7405 4.25244 18.4097 4.94385 19.6404 6.17455C20.8711 7.40526 21.5625 9.07446 21.5625 10.8149C21.5625 12.5554 20.8711 14.2246 19.6404 15.4553C18.4097 16.686 16.7405 17.3774 15 17.3774C13.2595 17.3774 11.5903 16.686 10.3596 15.4553C9.1289 14.2246 8.4375 12.5554 8.4375 10.8149Z"
    fill="#E7E8EA"
  />
</svg>
