<svg width="30" height="31" viewBox="0 0 30 31" fill="none" xmlns="http://www.w3.org/2000/svg">
<path
    d="M13.75 10.837C13.7441 11.0817 13.6428 11.3144 13.4676 11.4854C13.2924 11.6563 13.0573 11.752 12.8125 11.752C11.875 11.752 11.875 10.8132 11.875 10.8132V10.802C11.8757 10.746 11.879 10.6901 11.885 10.6345C11.9403 10.1516 12.1213 9.6917 12.41 9.3007C12.9775 8.53445 13.9975 7.9732 15.6412 8.00195C16.8287 8.0232 17.8825 8.5207 18.5425 9.33945C19.2137 10.1732 19.44 11.302 18.995 12.4132C18.5425 13.5445 17.5187 13.9945 16.93 14.252L16.8675 14.2807C16.5175 14.4345 16.3513 14.5145 16.2513 14.5945L16.25 14.5957V15.5007C16.2502 15.7493 16.1516 15.9879 15.9759 16.1638C15.8002 16.3397 15.5618 16.4387 15.3131 16.4388C15.0645 16.439 14.826 16.3404 14.65 16.1647C14.4741 15.989 14.3752 15.7506 14.375 15.502V14.5645C14.375 13.9107 14.69 13.4432 15.0787 13.1307C15.3912 12.8807 15.785 12.7082 16.0612 12.5857L16.1088 12.5645C16.7863 12.2657 17.1088 12.0807 17.255 11.7157C17.3409 11.5195 17.3702 11.3031 17.3397 11.0911C17.3092 10.8791 17.2202 10.6798 17.0825 10.5157C16.805 10.172 16.2963 9.8882 15.6088 9.87695C14.44 9.85695 14.0525 10.2332 13.9175 10.417C13.8281 10.5383 13.7705 10.6801 13.75 10.8295V10.837ZM15.3125 20.1895C15.644 20.1895 15.962 20.0578 16.1964 19.8233C16.4308 19.5889 16.5625 19.271 16.5625 18.9395C16.5625 18.6079 16.4308 18.29 16.1964 18.0556C15.962 17.8211 15.644 17.6895 15.3125 17.6895C14.981 17.6895 14.663 17.8211 14.4286 18.0556C14.1942 18.29 14.0625 18.6079 14.0625 18.9395C14.0625 19.271 14.1942 19.5889 14.4286 19.8233C14.663 20.0578 14.981 20.1895 15.3125 20.1895ZM5 6.43945C5 5.61065 5.32924 4.8158 5.91529 4.22974C6.50134 3.64369 7.2962 3.31445 8.125 3.31445H22.5C22.9104 3.31445 23.3167 3.39528 23.6959 3.55233C24.075 3.70938 24.4195 3.93956 24.7097 4.22974C24.9999 4.51993 25.2301 4.86442 25.3871 5.24357C25.5442 5.62271 25.625 6.02907 25.625 6.43945V24.252C25.625 24.5006 25.5262 24.7391 25.3504 24.9149C25.1746 25.0907 24.9361 25.1895 24.6875 25.1895H6.875C6.875 25.521 7.0067 25.8389 7.24112 26.0733C7.47554 26.3078 7.79348 26.4395 8.125 26.4395H24.6875C24.9361 26.4395 25.1746 26.5382 25.3504 26.714C25.5262 26.8899 25.625 27.1283 25.625 27.377C25.625 27.6256 25.5262 27.8641 25.3504 28.0399C25.1746 28.2157 24.9361 28.3145 24.6875 28.3145H8.125C7.2962 28.3145 6.50134 27.9852 5.91529 27.3992C5.32924 26.8131 5 26.0183 5 25.1895V6.43945ZM6.875 6.43945V23.3145H23.75V6.43945C23.75 6.10793 23.6183 5.78999 23.3839 5.55557C23.1495 5.32115 22.8315 5.18945 22.5 5.18945H8.125C7.79348 5.18945 7.47554 5.32115 7.24112 5.55557C7.0067 5.78999 6.875 6.10793 6.875 6.43945Z"
    fill="#E7E8EA"
  />
</svg>
