<svg width="30" height="31" viewBox="0 0 30 31" fill="none" xmlns="http://www.w3.org/2000/svg">
<g clip-path="url(#clip0_1313_199)">
<path
      d="M15.0833 9.98169C11.8333 9.98169 9.25 12.565 9.25 15.815C9.25 19.065 11.8333 21.6484 15.0833 21.6484C18.3333 21.6484 20.9167 19.065 20.9167 15.815C20.9167 12.565 18.3333 9.98169 15.0833 9.98169ZM15.0833 19.9817C12.75 19.9817 10.9167 18.1484 10.9167 15.815C10.9167 13.4817 12.75 11.6484 15.0833 11.6484C17.4167 11.6484 19.25 13.4817 19.25 15.815C19.25 18.1484 17.4167 19.9817 15.0833 19.9817Z"
      fill="#E7E8EA"
    />
<path
      d="M27.3346 13.065L25.0013 12.315L24.5013 11.065L25.668 8.89836C25.918 8.39836 25.8346 7.73169 25.418 7.31502L23.418 5.31502C23.0013 4.89836 22.3346 4.81502 21.8346 5.06502L19.668 6.23169L18.418 5.73169L17.668 3.39836C17.5013 2.89836 17.0013 2.48169 16.418 2.48169H13.5846C13.0013 2.48169 12.5013 2.89836 12.418 3.48169L11.668 5.81502C11.168 5.89836 10.7513 6.06502 10.3346 6.31502L8.16797 5.14836C7.66797 4.89836 7.0013 4.98169 6.58464 5.39836L4.58464 7.39836C4.16797 7.81502 4.08464 8.48169 4.33464 8.98169L5.41797 11.065C5.2513 11.4817 5.08464 11.9817 4.91797 12.3984L2.58464 13.1484C2.08464 13.315 1.66797 13.815 1.66797 14.3984V17.2317C1.66797 17.815 2.08464 18.315 2.66797 18.4817L5.0013 19.2317L5.5013 20.4817L4.33464 22.6484C4.08464 23.1484 4.16797 23.815 4.58464 24.2317L6.58464 26.2317C7.0013 26.6484 7.66797 26.7317 8.16797 26.4817L10.3346 25.315L11.5846 25.815L12.3346 28.2317C12.5013 28.7317 13.0013 29.1484 13.5846 29.1484H16.418C17.0013 29.1484 17.5013 28.7317 17.668 28.2317L18.418 25.815L19.668 25.315L21.8346 26.4817C22.3346 26.7317 23.0013 26.6484 23.418 26.2317L25.418 24.2317C25.8346 23.815 25.918 23.1484 25.668 22.6484L24.5013 20.4817L25.0013 19.2317L27.418 18.4817C27.918 18.315 28.3346 17.815 28.3346 17.2317V14.3984C28.3346 13.815 27.918 13.2317 27.3346 13.065ZM26.668 16.9817L23.668 17.8984L23.5846 18.315L22.8346 20.065L22.5846 20.4817L24.0846 23.2317L22.418 24.8984L19.668 23.3984L19.2513 23.6484C18.668 23.9817 18.0846 24.2317 17.5013 24.3984L17.0846 24.4817L16.168 27.4817H13.8346L12.918 24.4817L12.5013 24.3984L10.7513 23.6484L10.3346 23.3984L7.58464 24.8984L5.91797 23.2317L7.41797 20.4817L7.16797 20.065C6.83464 19.4817 6.58464 18.8984 6.41797 18.315L6.33464 17.8984L3.33464 16.9817V14.6484L6.16797 13.815L6.33464 13.3984C6.5013 12.7317 6.7513 12.1484 7.08464 11.565L7.33464 11.1484L5.91797 8.39836L7.58464 6.73169L10.2513 8.23169L10.668 7.98169C11.2513 7.64836 11.8346 7.39836 12.5013 7.23169L12.918 7.06502L13.8346 4.14836H16.168L17.0846 7.06502L17.5013 7.23169C18.0846 7.39836 18.668 7.64836 19.2513 7.98169L19.668 8.23169L22.418 6.73169L24.0846 8.39836L22.5846 11.1484L22.8346 11.565C23.168 12.1484 23.418 12.7317 23.5846 13.315L23.668 13.7317L26.668 14.6484V16.9817Z"
      fill="#E7E8EA"
    />
</g>
<defs>
<clipPath id="clip0_1313_199">
<rect width="30" height="30" fill="white" transform="translate(0 0.814941)" />
</clipPath>
</defs>
</svg>
