<svg width="28" height="22" viewBox="0 0 28 22" fill="none" xmlns="http://www.w3.org/2000/svg">
<path
    d="M25.25 1.06494C23.8625 0.627441 22.3375 0.439941 20.875 0.439941C18.4375 0.439941 15.8125 0.939941 14 2.31494C12.1875 0.939941 9.5625 0.439941 7.125 0.439941C4.6875 0.439941 2.0625 0.939941 0.25 2.31494V20.6274C0.25 20.9399 0.5625 21.2524 0.875 21.2524C1 21.2524 1.0625 21.1899 1.1875 21.1899C2.875 20.3774 5.3125 19.8149 7.125 19.8149C9.5625 19.8149 12.1875 20.3149 14 21.6899C15.6875 20.6274 18.75 19.8149 20.875 19.8149C22.9375 19.8149 25.0625 20.1899 26.8125 21.1274C26.9375 21.1899 27 21.1899 27.125 21.1899C27.4375 21.1899 27.75 20.8774 27.75 20.5649V2.31494C27 1.75244 26.1875 1.37744 25.25 1.06494ZM2.75 17.9399V3.56494C4.125 3.12744 5.625 2.93994 7.125 2.93994C8.8 2.93994 11.0375 3.45244 12.75 4.17744V18.5524C11.0375 17.8274 8.8 17.3149 7.125 17.3149C5.625 17.3149 4.125 17.5024 2.75 17.9399ZM25.25 17.9399C23.875 17.5024 22.375 17.3149 20.875 17.3149C19.2 17.3149 16.9625 17.8274 15.25 18.5524V4.17744C16.9625 3.43994 19.2 2.93994 20.875 2.93994C22.375 2.93994 23.875 3.12744 25.25 3.56494V17.9399Z"
    fill="#E7E8EA"
  />
</svg>
