<svg xmlns="http://www.w3.org/2000/svg" fill="none" viewBox="0 0 165 201">
  <path
    fill="#5167aa"
    d="M30.716 143.292a6.752 6.752 0 0 1-4.758-1.956 6.654 6.654 0 0 1-1.97-4.723v-.723a6.636 6.636 0 0 1 .51-2.556 6.681 6.681 0 0 1 1.46-2.168 6.742 6.742 0 0 1 4.758-1.957h125.393v-2.105H29.755a8.206 8.206 0 0 0-5.782 2.378 8.085 8.085 0 0 0-2.395 5.739v2.06c0 2.152.862 4.217 2.395 5.739a8.209 8.209 0 0 0 5.783 2.377h126.357v-2.105H30.716Z"
  />
  <path
    fill="#f2d6a9"
    d="M30.697 129.209h124.269v14.081H30.697a6.737 6.737 0 0 1-4.746-1.952 6.636 6.636 0 0 1-1.967-4.711v-.755a6.64 6.64 0 0 1 1.966-4.711 6.737 6.737 0 0 1 4.747-1.952Z"
  />
  <path fill="#e4c9a2" d="M154.951 129.213H93.914v14.081h61.037v-14.081Z" />
  <path fill="#c8443e" d="M87.262 132.827h-3.051v7.011l3.051-1.99 3.05 1.99v-7.011h-3.05Z" />
  <path
    fill="#4a62a7"
    d="M156.093 127.107H93.914v2.105h62.179v-2.105Zm0 16.187H93.914v2.105h62.179v-2.105Z"
  />
  <path
    fill="#f2d6a9"
    d="M43.523 175.728v17.49c.001 1.06.335 2.075.93 2.824.595.749 1.4 1.17 2.242 1.17h106.29a5.763 5.763 0 0 0 .48-2.335v-20.813a5.755 5.755 0 0 0-.48-2.334H46.695c-.417 0-.83.103-1.214.304a3.24 3.24 0 0 0-1.03.867 4.184 4.184 0 0 0-.687 1.297 4.913 4.913 0 0 0-.24 1.53Z"
  />
  <path
    fill="#112f45"
    d="M46.645 196.981c-.843 0-1.652-.413-2.248-1.149-.596-.735-.931-1.733-.932-2.774V175.88c0-1.041.336-2.039.932-2.774.596-.736 1.405-1.149 2.248-1.149h108.508c-.331-.74-.817-1.357-1.407-1.787a3.294 3.294 0 0 0-1.947-.655H19.467c-1.017 0-1.992.5-2.711 1.387-.72.888-1.123 2.093-1.123 3.348v20.443c0 1.255.404 2.459 1.123 3.347.718.888 1.694 1.387 2.71 1.388H151.8a3.294 3.294 0 0 0 1.947-.655c.59-.43 1.076-1.047 1.407-1.787l-108.508-.005Z"
  />
  <path
    fill="#f2d6a9"
    d="M137.482 149.192c0-.643-.166-1.276-.48-1.839H45.054c-.841 0-1.648.332-2.242.922a3.137 3.137 0 0 0-.93 2.226v13.779c.001.835.336 1.635.93 2.225.595.59 1.401.921 2.242.921h91.952a3.76 3.76 0 0 0 .48-1.839l-.004-16.395Z"
  />
  <path
    fill="#df9c26"
    d="M41.875 164.282v-13.779c.003-.837.34-1.639.938-2.229a3.192 3.192 0 0 1 2.25-.919h93.604a3.81 3.81 0 0 0-1.404-1.431 3.85 3.85 0 0 0-1.942-.525H3.826a3.838 3.838 0 0 0-2.705 1.111A3.784 3.784 0 0 0 0 149.194v16.395a3.797 3.797 0 0 0 2.362 3.506c.464.191.961.289 1.464.289H135.32a3.85 3.85 0 0 0 1.942-.525 3.818 3.818 0 0 0 1.404-1.431H45.062a3.192 3.192 0 0 1-2.25-.918 3.146 3.146 0 0 1-.937-2.228Z"
  />
  <path
    fill="#39332e"
    d="m29.75 145.399 54.462 1.793 52.782.165-1.673-1.958H29.75Zm47.219-18.292s11.328 2.006 16.945 2.105h39.416v-2.105H76.969Z"
  />
  <path
    fill="#cf6755"
    d="M104.466 175.402h-4.318v9.922l4.318-2.818 4.316 2.818v-9.922h-4.316Zm-46.908-21.361h-4.316v9.922l4.316-2.818 4.318 2.818v-9.922h-4.318Z"
  />
  <path
    fill="#e8b451"
    d="M12.436 145.399H9.96v23.985h2.475v-23.985Zm9.131 0h-6.512v23.985h6.512v-23.985Z"
  />
  <path fill="#4d9cb9" d="M29.747 169.384h-6.513v23.985h6.513v-23.985Z" />
  <path
    fill="#39332e"
    d="M19.658 169.384s-2.201 0-3.346 1.958h127.102s-3.719-1.835-8.079-1.958H19.658Z"
  />
  <path
    fill="#1f396d"
    d="M135.448 103.957s14.898 1.958 10.852 19.63c-3.153 13.771-28.305 66.839-28.305 66.839h-7.045s7.071-59.657 19.476-65.516c0 0-41.077.284-45.054 0-3.978-.284-17.407-3.827-19.114-20.393l69.19-.56Z"
  />
  <path
    fill="#013882"
    d="M118.887 121.135c-5.338-18.271-18.795-17.105-18.795-17.105s1.158.073-23.296.073c-7.43 0-13.778-.908-14.59.415-2.223 3.615.076 19.602 12.303 22.589h23.434c2.911-.794 4.201-1.698 4.201-1.698.427 19.723 28.668 65.018 28.668 65.018h7.909s-14.447-50.854-19.834-69.292Z"
  />
  <path
    fill="#ec8b33"
    d="M109.61 99.169 104.549 84.4c-.438-25.372-4.802-33.276-4.802-33.276-2.735-5.704-8.07-6.325-8.07-6.325s-8.784-2.41-16.74 1.588c-1.826.916-3.379 2.558-4.712 4.725l-.041-.018s-11.087 18.5-9.658 33.31a10.794 10.794 0 0 0 1.086 3.874c-.702 8.858.164 14.896.6 16.244l39.016-.484c.848-.827 1.253-3.919 1.473-7.359a77.972 77.972 0 0 0 3.267 3.911l3.642-1.422Z"
  />
  <path
    fill="#fff"
    stroke="#000"
    stroke-width=".2"
    d="m146.05 74.702-5.201 27.755H109.73l5.2-27.755h31.12Z"
  />
  <path fill="#e2dee4" d="M94.404 104.231h46.549v-1.672H94.404v1.672Z" />
  <path fill="#39332e" d="M140.94 102.559H94.39v.837h46.55v-.837Z" />
  <path fill="#39332e" d="M109.617 103.381v.837l-15.226.014v-1.256l15.226.405Z" />
  <path
    fill="#fbc5a9"
    d="m92.15 45.884-.023-.01c-.15-.526-1.1-4.083-1-9.215l.131-.752a6.774 6.774 0 0 0 .927-1.63c1.4-3.375.8-8.247.8-8.247l-7.98-1.372-1.27-.219-.4 2.31a.223.223 0 0 0-.038.016c-.748.385-1.116 1.646-.432 2.681l-.272 1.563-.71 4.063a87.011 87.011 0 0 1-2.431 9.633h-.014v.057h.011c.815 7.364 10.547 11.765 13.052 8.54 2.505-3.225-.35-7.418-.35-7.418Z"
  />
  <path
    fill="#39332e"
    d="M61.623 88.278s-.106 1.39-.146 2.212c0 0-.148 6.86 35.108 11.974 0 0-13.295-2.727-25.148-7.026-4.398-1.597-8.046-3.657-9.814-7.16Zm14.986-22.792c-2.43 8.69-6.765 19.791-6.765 19.791 9.228 0 28.33 13.505 28.33 13.505S81.457 86.359 71.127 85.037c0 .004 4.346-13.543 5.48-19.55Zm25.133-4.445s2.091 22.55 1.151 32.033c0 0 1.216-13.517-1.151-32.032Z"
  />
  <path
    fill="#fbc5a9"
    d="M98.175 98.787s3.075 1.09 4.002 1.799c.926.709 4.49 1.229 4.458 1.972 0 0-9.652.012-10.073-.095l1.613-3.676Zm11.216.467.638 1.066-.418 2.239h-2.573s-1.049-.954-.849-2.05l3.202-1.255Z"
  />
  <path
    fill="#39332e"
    d="m117.35 190.427-.56 5.054a10.65 10.65 0 0 1 .614 4.523h-7.003a1.465 1.465 0 0 1-.733-.472 1.439 1.439 0 0 1-.329-.803c-.102-1.055 2.401-8.302 2.401-8.302h5.61Zm20.114 0 3.489 5.054s5.778 2.108 5.54 4.523h-11.925a1.465 1.465 0 0 1-.733-.472 1.439 1.439 0 0 1-.329-.803c-.102-1.055-1.647-8.302-1.647-8.302h5.605Z"
  />
  <path
    fill="#030303"
    d="M137.58 48.28h-18.608a.145.145 0 0 0-.102.04.141.141 0 0 0-.042.1v11.896a.145.145 0 0 0 .042.1.145.145 0 0 0 .102.04h18.608a.145.145 0 0 0 .102-.04.141.141 0 0 0 .042-.1V48.42a.145.145 0 0 0-.042-.1.145.145 0 0 0-.102-.04Zm-12.369 4.299-6.101 4.202v-8.1l6.101 3.898Zm-5.759-4.016h17.644l-8.822 5.636-8.822-5.636Zm17.986.117v8.121l-6.115-4.212 6.115-3.909ZM119.11 60.173v-3.046l6.361-4.38 2.725 1.742c.023.015.05.022.078.022a.147.147 0 0 0 .078-.022l2.711-1.733 6.375 4.39v3.03l-18.328-.003Zm45.343-18.293h-45.481a.143.143 0 0 1-.133-.087.145.145 0 0 1-.011-.054V24.66a.143.143 0 0 1 .144-.143h45.481a.14.14 0 0 1 .142.143v17.08a.142.142 0 0 1-.142.141Zm-45.339-.284h45.197v-16.79h-45.197v16.79Z"
  />
  <path
    fill="#030303"
    d="M160.384 37.037h-26.087v.286h26.087v-.286Zm0-3.298h-26.087v.286h26.087v-.286ZM44.035 31.353h-5.002a.14.14 0 0 1-.142-.141v-4.556a.14.14 0 0 1 .142-.141h5.002a.144.144 0 0 1 .102.04.141.141 0 0 1 .042.1v4.557a.141.141 0 0 1-.144.14Zm-4.868-.282h4.724v-4.272h-4.724v4.272Zm4.868 8.819h-5.002a.143.143 0 0 1-.132-.087.142.142 0 0 1-.01-.055v-4.554a.142.142 0 0 1 .142-.143h5.002a.145.145 0 0 1 .144.143v4.554a.143.143 0 0 1-.144.143Zm-4.868-.283h4.724v-4.272h-4.724v4.272Zm6.591-8.55v.286l11.564.012v-.286l-11.564-.012Zm-.25-2.362v.286h11.564v-.286H45.508Zm.25 10.893v.286l11.564.012V39.6l-11.564-.012Zm0-2.278v.286l11.564.012v-.286l-11.564-.012Z"
  />
  <path fill="#fff" d="M131.602 28.788h-9.375v9.307h9.375v-9.307Z" />
  <path
    fill="#3d3f42"
    d="M118.427 14.984c-.026.02-.232-.17-.6-.552l-.671-.713a14.25 14.25 0 0 0-.93-.955 41.279 41.279 0 0 0-6.577-5.363c-.728-.524-1.564-.96-2.401-1.471-.836-.51-1.766-.932-2.707-1.41-.972-.41-1.949-.906-3.015-1.27-.528-.198-1.058-.397-1.6-.595l-1.681-.515c-.563-.198-1.153-.31-1.743-.456-.59-.147-1.184-.308-1.8-.398L92.846.955 90.94.73a37.678 37.678 0 0 0-15.79 1.698l-1.814.624-1.741.719c-.58.222-1.125.512-1.673.772s-1.094.513-1.6.819l-1.533.86c-.494.298-.967.615-1.443.917-.962.58-1.8 1.273-2.669 1.881-.814.665-1.618 1.295-2.34 1.952-.723.658-1.43 1.281-2.028 1.949a40.76 40.76 0 0 0-5.268 6.629c-.288.411-.514.794-.704 1.13l-.502.838c-.276.453-.436.683-.464.667-.028-.016.078-.27.312-.746l.442-.878c.197-.401.416-.79.656-1.168a36.968 36.968 0 0 1 5.202-6.788c.6-.681 1.325-1.3 2.037-1.986.712-.687 1.535-1.311 2.357-1.986.868-.618 1.723-1.323 2.695-1.915.48-.304.959-.63 1.459-.931l1.548-.874c.515-.31 1.073-.556 1.623-.83.55-.274 1.105-.558 1.693-.785l1.76-.729 1.841-.633A38.117 38.117 0 0 1 91.004.216l1.932.226 1.88.34c.621.095 1.222.266 1.822.397.6.131 1.2.274 1.765.467l1.7.524c.555.199 1.091.397 1.625.596 1.079.371 2.063.878 3.045 1.297.951.488 1.879.941 2.733 1.442.855.5 1.683.969 2.417 1.505a37.198 37.198 0 0 1 6.539 5.527c.317.318.615.653.894 1.003l.621.763c.314.433.474.661.45.681Zm35.859 32.618c.053-.024.329.449.645 1.378.436 1.325.647 2.713.622 4.107a9.099 9.099 0 0 1-.5 2.854 6.122 6.122 0 0 1-1.959 2.727 5.517 5.517 0 0 1-3.483 1.309 4.067 4.067 0 0 1-1.961-.525 2.864 2.864 0 0 1-1.235-1.714 2.656 2.656 0 0 1-.088-1.078c.04-.384.211-.744.484-1.019a1.583 1.583 0 0 1 2.099-.012c.551.49.767 1.144.907 1.754.128.603.154 1.223.076 1.835-.296 2.312-1.047 4.327-2.031 5.811-.985 1.484-2.277 2.344-3.239 2.63a4.055 4.055 0 0 1-1.137.186c-.264 0-.4-.012-.4-.043 0-.032.132-.076.38-.128.36-.067.713-.168 1.055-.3.878-.337 2.04-1.153 2.957-2.593.916-1.44 1.624-3.386 1.9-5.625a4.911 4.911 0 0 0-.072-1.666c-.12-.548-.338-1.12-.738-1.468a1.05 1.05 0 0 0-.694-.264 1.016 1.016 0 0 0-.7.26c-.365.346-.421 1.013-.252 1.59a2.365 2.365 0 0 0 1 1.403c.519.29 1.103.446 1.699.451 1.184.014 2.303-.496 3.155-1.191a5.685 5.685 0 0 0 1.817-2.495c.31-.87.481-1.782.508-2.705a14.277 14.277 0 0 0-.454-4.006c-.246-.931-.435-1.438-.361-1.463Z"
  />
  <path
    fill="#bb7a62"
    d="M91.255 35.91s-2.459 3.279-6.364.05c0 0 .674 6.579 6.402 5.074a22.12 22.12 0 0 1-.038-5.124Z"
  />
  <path
    fill="#5b1e13"
    d="M93.097 25.128c-.674-1.086-5.769-3.922-8.003-3.59-2.235.331-3.334 4.724-2.62 10.158 0 0 .374-.812.747-1.817-1.14-1.083-.783-2.665.074-3.106 1.184-.614 1.916.498 2.059.74a7.444 7.444 0 0 0 1.738-1.062s5.637 3.575 6.003 1.106c.002 0 .678-1.342.002-2.429Z"
  />
</svg>
