<svg xmlns="http://www.w3.org/2000/svg" fill="none" viewBox="0 0 210 175">
  <path
    fill="#112f45"
    d="M91.815 125.09a189.73 189.73 0 0 0-.754 27.43c.025.564-.271 1.21-.665 1.604-.394.394-1.04.69-1.608.664-.587-.027-1.197-.218-1.607-.664a2.435 2.435 0 0 1-.665-1.604 190.168 190.168 0 0 1 .757-27.432 1.718 1.718 0 0 1 .196-.874c.09-.28.247-.524.47-.729.393-.393 1.04-.689 1.607-.664.587.027 1.196.219 1.607.664.38.418.72 1.015.662 1.605Zm100.908 10.955a208.856 208.856 0 0 1 2.045 10.838 219.131 219.131 0 0 1 1.533 11.411c.222 2.06.412 4.122.572 6.187.042.553-.284 1.224-.665 1.605-.393.394-1.04.689-1.607.664-.587-.027-1.197-.218-1.607-.664l-.356-.458a2.251 2.251 0 0 1-.309-1.145 206.346 206.346 0 0 0-1.231-11.621l.081.604a207.952 207.952 0 0 0-2.839-16.213c-.13-.595-.086-1.211.228-1.747.277-.471.817-.92 1.359-1.042.582-.133 1.235-.105 1.75.228.483.308.921.775 1.046 1.353Zm-65.564 9.255a190.668 190.668 0 0 0-.929 21.398c.027 2.012.084 4.022.175 6.032.026.564-.271 1.21-.665 1.605-.393.393-1.04.689-1.607.664-.587-.027-1.197-.219-1.607-.664a2.436 2.436 0 0 1-.665-1.605 190.168 190.168 0 0 1 .757-27.432 1.719 1.719 0 0 1 .195-.874c.091-.28.248-.524.47-.729.394-.393 1.04-.689 1.607-.664.588.027 1.197.219 1.608.664.38.419.72 1.015.661 1.605Zm18.364-20.451a189.731 189.731 0 0 1 .754 27.43c-.025.564.271 1.21.665 1.605.394.393 1.04.689 1.608.663.587-.027 1.196-.218 1.607-.663.419-.456.638-.982.665-1.605a190.168 190.168 0 0 0-.251-21.419 186.442 186.442 0 0 0-.507-6.013 1.708 1.708 0 0 0-.195-.874 1.69 1.69 0 0 0-.469-.729c-.394-.393-1.041-.689-1.608-.664-.587.027-1.197.219-1.607.664-.381.418-.721 1.017-.662 1.605Z"
  />
  <path
    fill="#ffc254"
    d="M84.711 128.743s-2.686-42.36 1.527-49.808c4.215-7.448 46.486-2.237 46.486-2.237s10.863-26.144 17.645-33.767c4.886-5.492 11.848-6.339 13.743.562 1.895 6.9-21.861 80.882-21.861 80.882l-57.54 4.368Z"
  />
  <path
    fill="#3f505b"
    d="M123.614 80.504a109.639 109.639 0 0 0-12.772-.862 99.67 99.67 0 0 0-6.338.13c-1.886.102-3.86.317-5.547 1.232-1.541.835-2.884 2.314-3.05 4.12-.028.321-.535.325-.504 0 .151-1.672 1.17-3.087 2.504-4.055 1.545-1.12 3.471-1.53 5.339-1.709 2.131-.203 4.292-.22 6.433-.225 2.19-.004 4.382.059 6.568.185 2.464.144 4.922.371 7.369.68.317.039.32.545-.002.504Z"
  />
  <path
    fill="#ec8b33"
    d="m122.82 146.183-38.121-17.439s-6.302-22.301 10.146-28.033c16.448-5.732 54.836-3.568 54.836-3.568s-2.667-51.453 3.296-56.454c5.965-5.001 52.48 3.487 52.48 3.487l-19.116 82.694-63.521 19.313Z"
  />
  <path
    fill="#304049"
    d="M118.276 126.574a13.437 13.437 0 0 0-4.232-1.838c-.316-.076-.182-.563.135-.486a13.839 13.839 0 0 1 4.352 1.891c.27.176.017.613-.255.433Z"
  />
  <path
    fill="#313d4d"
    d="m58.503 164.812 8.486 5.129-.678.851-1.92 2.593-1.857-.481.547-1.181c-5.031 1.344-14.34 3.364-16.01.425-2.311-4.067 11.432-7.336 11.432-7.336Z"
  />
  <path
    fill="#ffa086"
    d="m75.332 157.908-8.345 12.033s-14.787 3.413-16.118.211c-1.332-3.201 12.73-6.947 12.73-6.947l4.548-11.129 7.185 5.832Z"
  />
  <path
    fill="#313d4d"
    d="m120.123 119.664.368 1.023s-4.262 17.236-8.941 17.064c-4.679-.171-.254-13.567-.254-13.567l8.827-4.52Z"
  />
  <path fill="#313d4d" d="m119.325 123.497 1.001 1.508 1.384-1.325-1.204-2.994-1.181 2.811Z" />
  <path
    fill="#ffa086"
    d="m114.24 106.254 5.877 13.407s-4.849 14.359-8.278 13.811c-3.428-.548.758-14.464.758-14.464l-7.102-9.706 8.745-3.048Z"
  />
  <path
    fill="#1f396d"
    d="M138.721 79.207S111.416 48.88 95.348 54.942c-19.918 7.516 7.368 59.698 7.368 59.698l14.125-5.608-.606-18.876 36.37 16.806 3.05-26.602-16.934-1.153Z"
  />
  <path
    fill="#1e2633"
    d="M169.655 41.607c1.603 1.402 4.429 4.322 8.044 3.15 1.482-.481 1.359-2.313 1.359-2.313s2.415 1.055 3.605-.543c1.486-1.995-.219-3.354-.219-3.354s2.436.334 3.257-1.429c.963-2.068-.894-3.4-.894-3.4s2.264-.156 2.672-2.614c.417-2.518-1.537-3.555-1.537-3.555s2.499-.41 2.991-2.33c.493-1.921-1.712-2.67-1.712-2.67s1.722-1.273 1.661-3.117c-.06-1.843-2.341-2.732-2.341-2.732s2.02-1.896 1.173-4.082c-.846-2.187-3.206-1.978-3.206-1.978s.82-2.239-.986-3.758c-1.807-1.517-3.754-.486-3.754-.486s-.099-2.737-2.537-3.493c-2.437-.757-3.825.79-3.825.79s-.186-1.409-1.759-1.683c-1.574-.274-2.182.612-2.182.612s-.939-2.684-3.79-2.617c-2.852.068-3.126 2.05-3.126 2.05s-2.257-2-3.816-1.092c-1.558.91-.813 2.83-.813 2.83s-1.649-1.65-3.364-.61c-1.716 1.04-1.234 3.064-1.234 3.064s-1.332-.5-2.36.208c-1.028.708-.369 2.31-.369 2.31s-2.716-1.426-3.628-.098c-.913 1.33.876 2.902.876 2.902s-1.949.266-2.499 2.465 1.599 2.931 1.599 2.931-2.264 1.28-1.688 4.224c.592 3.028 3.59 3.74 3.59 3.74s-2.128.629-1.889 2.876c.239 2.248 2.077 2.008 2.077 2.008s-1.646 1.286-1.314 3.778c.246 1.843 1.996 2.82 1.996 2.82s-.703 1.548.263 2.91c1.111 1.567 3.009 1.37 3.009 1.37s-.037 1.788 2.601 2.817c2.674 1.042 5.127-1.111 5.127-1.111l8.942-.79Z"
  />
  <path
    fill="#013882"
    d="M170.785 86.425s3.625 10.618-.859 25.005c-4.383 14.063-59.823 4.16-59.823 4.16l-32.797 47.883-15.578-7.732S83.16 93.405 91.15 87.064c5.489-4.354 52.406.869 52.406.869l3.136-7.889 24.093 6.381Z"
  />
  <path
    fill="#ffa086"
    d="m135.15 56.996-5.716 6.14-18.744-12.131-2.713 3.944s10.846 13.012 18.666 18.538c5.405 3.82 12.969-4.486 13.06-4.892.222-.997 1.784-7.268 1.784-7.268l-6.337-4.331Z"
  />
  <path
    fill="#fff"
    d="M149.981 40.778s-3.741.324-7.061 3.574c-3.319 3.25-9.244 12.295-9.244 12.295l10.061 5.836 6.244-21.705Z"
  />
  <path fill="#f3cea1" d="m143.612 50.957-3.191 9.582-1.921-1.094s2.347-5.077 5.112-8.488Z" />
  <path
    fill="#fff"
    d="m173.078 42.37-12.304-1.329-10.798-.263s-5.504 7.202-8.084 14.034c-2.323 6.15-4.755 22.109-3.182 24.396 1.574 2.287 29.369 9.939 33.183 8.65 3.814-1.287 13.67-42.83 13.67-42.83l-12.485-2.657Z"
  />
  <path
    fill="#e8cfca"
    d="M151.999 92.919c-.14-2.318-22.89-8.443-22.89-8.443l8.644 10.125c0 .002 14.386.635 14.246-1.682Z"
  />
  <path
    fill="#fff"
    d="m137.753 94.602-35.626-9.149-1.754-19.95a1.785 1.785 0 0 1 2.171-1.875l31.368 6.98a2.848 2.848 0 0 1 2.222 2.564l1.619 21.43Z"
  />
  <mask
    id="a"
    width="6"
    height="6"
    x="112"
    y="75"
    maskUnits="userSpaceOnUse"
    style="mask-type:luminance"
  >
    <path fill="#fff" d="m113.695 75.572 3.876.82-.891 4.213-3.876-.82.891-4.213Z" />
  </mask>
  <g mask="url(#a)">
    <mask
      id="b"
      width="5"
      height="6"
      x="113"
      y="75"
      maskUnits="userSpaceOnUse"
      style="mask-type:luminance"
    >
      <path fill="#fff" d="m113.633 75.907 3.644.436-.528 3.951-3.644-.436.528-3.951Z" />
    </mask>
    <g mask="url(#b)">
      <mask
        id="d"
        width="5"
        height="6"
        x="113"
        y="75"
        maskUnits="userSpaceOnUse"
        style="mask-type:luminance"
      >
        <path
          fill="url(#c)"
          d="M0 0h3.695v3.959H0z"
          transform="matrix(.99374 .11247 -.13748 .99057 113.627 75.932)"
        />
      </mask>
      <g mask="url(#d)">
        <path
          fill="url(#e)"
          d="M0 0h3.695v3.959H0z"
          transform="matrix(.99374 .11247 -.13748 .99057 113.627 75.932)"
        />
      </g>
    </g>
  </g>
  <mask
    id="f"
    width="6"
    height="6"
    x="116"
    y="76"
    maskUnits="userSpaceOnUse"
    style="mask-type:luminance"
  >
    <path fill="#fff" d="m117.277 76.359 3.876.819-.885 4.185-3.875-.82.884-4.184Z" />
  </mask>
  <g mask="url(#f)">
    <mask
      id="g"
      width="6"
      height="6"
      x="116"
      y="76"
      maskUnits="userSpaceOnUse"
      style="mask-type:luminance"
    >
      <path fill="#fff" d="m117.581 76.409 3.51 1.072-1.113 3.828-3.51-1.072 1.113-3.828Z" />
    </mask>
    <g mask="url(#g)">
      <mask
        id="i"
        width="6"
        height="6"
        x="116"
        y="76"
        maskUnits="userSpaceOnUse"
        style="mask-type:luminance"
      >
        <path
          fill="url(#h)"
          d="M0 0h3.694v3.959H0z"
          transform="matrix(-.9546 -.29815 -.27428 .96172 121.086 77.506)"
        />
      </mask>
      <g mask="url(#i)">
        <path
          fill="url(#j)"
          d="M0 0h3.694v3.959H0z"
          transform="matrix(-.9546 -.29815 -.27428 .96172 121.086 77.506)"
        />
      </g>
    </g>
  </g>
  <path
    fill="#f3cea1"
    d="M176.862 72.132c-.693-.358-3.348-1.164-3.348-1.164 1.16-2.847 3.779-10.988 6.117-14.949l-2.769 16.113Z"
  />
  <path
    fill="#fff"
    d="M185.565 45.027s9.7 2.012 8.461 10.72c-.557 3.918-3.659 18.444-3.659 18.444l-14.933-4.67c.002 0 4.725-19.973 10.131-24.494Z"
  />
  <path
    fill="#ffa086"
    d="M188.319 73.55s-4.859 15.632-6.571 17.521c-1.713 1.89-24.027.983-25.786.804-1.761-.18-2.436-.834-4.727-2.185-3.167-1.867-5.495 2.326-7.193 1.225l2.253-2.252s-3.294 2.366-4.824.78l3.825-2.444s-3.872 2.249-5.064.755l5.41-2.988s-4.866 2.222-5.712 1.038c0 0 6.014-3.593 7.586-3.105 2.748.854 9.239 4.32 8.889 4.284l16.404-3.33 3.743-13.783 11.767 3.68Z"
  />
  <path
    fill="#aa4636"
    d="M149.661 84.018c-.069.376-.051.736.013 1.079.066.344.192.669.352.98.153.315.367.603.574.899.114.14.225.287.34.431.119.142.242.283.355.442-.172-.082-.335-.183-.5-.284a6.854 6.854 0 0 1-.449-.36c-.273-.273-.534-.572-.707-.93a2.637 2.637 0 0 1-.305-1.146c-.002-.395.089-.804.327-1.111Zm-6.905 2.357c.313-.25.641-.473.975-.688a21.91 21.91 0 0 1 2.062-1.181c.353-.178.713-.348 1.087-.493-.313.25-.641.474-.975.69a22 22 0 0 1-2.062 1.181c-.353.176-.713.346-1.087.49Zm.89 1.697c.267-.22.55-.416.836-.602a16.684 16.684 0 0 1 1.786-1.007c.308-.15.621-.289.948-.405a9.36 9.36 0 0 1-.837.602 16.283 16.283 0 0 1-1.786 1.007 9.32 9.32 0 0 1-.947.405Zm1.458 1.816c.192-.244.402-.466.619-.68a13.548 13.548 0 0 1 1.385-1.192c.246-.182.497-.357.768-.51a7.483 7.483 0 0 1-.619.681 13.925 13.925 0 0 1-1.387 1.19 7.238 7.238 0 0 1-.766.51Z"
  />
  <path
    fill="#ffc254"
    d="M122.816 146.183c-4.561-3.465-2.329-41.318 2.821-47.354 5.151-6.037 59.206-5.791 59.206-5.791s10.244-39.002 12.434-45.187c2.483-7.013 10.397-8.349 12.459-2.119 1.052 3.178-14.125 89.376-17.685 92.682-3.558 3.306-64.673 11.234-69.235 7.769Z"
  />
  <path
    fill="#ec8b33"
    d="M127.649 141.621c3.2-6.011 4.097-12.888 4.688-18.862.246-2.482.47-5.008.688-7.452l.273-3.045c.037-.408.067-.818.098-1.231.089-1.207.18-2.456.447-3.649.345-1.536 1.113-2.674 2.285-3.383 1.105-.669 2.385-.954 3.622-1.228a63.75 63.75 0 0 1 2.883-.568c1.91-.335 3.949-.624 6.413-.91 4.947-.574 9.875-.937 14.497-1.258 1.246-.088 2.493-.17 3.739-.254 3.299-.222 6.71-.449 10.06-.738l.761-.065c2.976-.252 6.052-.513 8.954-1.264.734-.19 1.646-.427 2.23-.965.894-.823 1.524-1.922 2.094-2.976 1.946-3.603 3.298-7.62 4.489-11.162 1.63-4.843 3.101-9.786 4.525-14.565l.604-2.03c1.188-4.004 2.419-8.144 3.737-12.183a156.1 156.1 0 0 1 .994-2.95.432.432 0 0 1 .558-.261.384.384 0 0 1 .247.504c-1.513 4.343-2.85 8.825-4.142 13.16l-.105.353-.74 2.487c-1.21 4.072-2.463 8.282-3.781 12.398-1.353 4.228-2.716 8.355-4.522 12.355-.608 1.348-1.296 2.776-2.21 4.089-.541.778-1.163 1.554-2.04 1.968-.997.47-2.116.709-3.178.912-1.66.318-3.355.523-4.794.68-3.89.428-7.86.695-11.698.954l-2.101.141c-4.507.304-9.166.62-13.74 1.049-4.869.457-8.941.937-12.987 1.793l-.251.053c-1.112.234-2.264.476-3.277.977-1.293.64-2.072 1.766-2.382 3.443-.222 1.209-.316 2.472-.405 3.694-.036.482-.073.98-.116 1.466l-.591 6.52c-.546 6.074-1.111 12.355-3.22 18.187a32.564 32.564 0 0 1-1.872 4.226.389.389 0 0 1-.347.216.427.427 0 0 1-.203-.053c-.185-.097-.312-.331-.184-.573Z"
  />
  <path
    fill="#ec8b33"
    d="m150.079 116.22-2.367-1.931a982.363 982.363 0 0 0-5.339-4.339.373.373 0 0 1-.145-.351.448.448 0 0 1 .283-.335.428.428 0 0 1 .429.067 993.019 993.019 0 0 1 5.344 4.345l2.364 1.927a.375.375 0 0 1 .053.546.462.462 0 0 1-.353.17.425.425 0 0 1-.269-.099Zm3.971.203c.227 0 .421.192.421.42v1.757c0 .228-.194.42-.421.42a.425.425 0 0 1-.421-.42v-1.757c0-.228.192-.42.421-.42Zm-2.159 2.383v-1.963c0-.235.182-.412.421-.412a.43.43 0 0 1 .282.101c.09.076.138.187.138.311v1.963a.407.407 0 0 1-.42.412.407.407 0 0 1-.421-.412Zm-.04 1.113c.176.135.208.36.074.537a309.854 309.854 0 0 1-6.831 8.666.376.376 0 0 1-.353.143.45.45 0 0 1-.335-.284.423.423 0 0 1 .071-.427 304.365 304.365 0 0 0 5.265-6.625c.494-.642.988-1.283 1.477-1.929a.447.447 0 0 1 .632-.081Zm-7.109 12.07c2.663 1.768 5.4 3.452 8.045 5.081.132.08.204.211.199.359a.446.446 0 0 1-.231.378.368.368 0 0 1-.181.047.415.415 0 0 1-.217-.063c-2.65-1.631-5.388-3.316-8.056-5.087-.231-.153-.231-.424-.113-.6a.387.387 0 0 1 .554-.115Zm-4.092.421a.421.421 0 0 1 .401-.158.47.47 0 0 1 .363.291.406.406 0 0 1-.071.41 41.487 41.487 0 0 1-5.073 5.233.416.416 0 0 1-.271.106.424.424 0 0 1-.32-.155c-.146-.168-.183-.449.036-.639a40.094 40.094 0 0 0 4.935-5.088Zm-4.996-7.632a.426.426 0 0 1 .431.065l4.6 3.674a.37.37 0 0 1 .059.541.468.468 0 0 1-.356.175.42.42 0 0 1-.27-.098l-4.6-3.673a.369.369 0 0 1-.146-.35.446.446 0 0 1 .282-.334Zm20.037-10.968c.345-.411.71-.815 1.063-1.206l.367-.407a477.956 477.956 0 0 1 4.663-5.124.39.39 0 0 1 .572-.018c.155.141.217.401.032.603a424.388 424.388 0 0 0-5.751 6.344c-.499.561-.93 1.079-1.155 1.711a.414.414 0 0 1-.406.284.44.44 0 0 1-.336-.15.377.377 0 0 1-.063-.381c.192-.54.505-1.051 1.014-1.656Zm-.455 5.42a.397.397 0 0 1 .386.114 174.234 174.234 0 0 0 7.623 7.361.385.385 0 0 1 .126.373.45.45 0 0 1-.429.345.414.414 0 0 1-.281-.113 179.134 179.134 0 0 1-7.637-7.374.398.398 0 0 1-.104-.395.447.447 0 0 1 .316-.311Zm10.782 8.44c.232.01.414.195.414.421v1.549a.424.424 0 0 1-.413.42h-.017a.426.426 0 0 1-.414-.42v-1.549c0-.113.049-.226.135-.306a.392.392 0 0 1 .295-.115Zm-1.839.251a.413.413 0 0 1 .311-.132.428.428 0 0 1 .413.407l.124 1.548a.395.395 0 0 1-.114.302.423.423 0 0 1-.298.131h-.015a.428.428 0 0 1-.413-.406l-.124-1.548a.388.388 0 0 1 .116-.302Zm2.696 2.501a87.748 87.748 0 0 0 6.046 5.405.375.375 0 0 1 .054.546.464.464 0 0 1-.354.17.429.429 0 0 1-.271-.099 88.23 88.23 0 0 1-6.069-5.425.404.404 0 0 1 0-.585.414.414 0 0 1 .594-.012Zm-3.125.024a.429.429 0 0 1 .404-.169c.16.02.299.119.357.255a.364.364 0 0 1-.056.372 64.804 64.804 0 0 1-6.558 7.419.402.402 0 0 1-.395.104.447.447 0 0 1-.31-.317.393.393 0 0 1 .115-.385 64.055 64.055 0 0 0 6.443-7.279Zm3.34-3.435a.43.43 0 0 1-.261-.091.405.405 0 0 1-.084-.581l7.223-9.477a.408.408 0 0 1 .585-.072.405.405 0 0 1 .085.581l-7.223 9.477a.405.405 0 0 1-.325.163Zm10.3-13.046c.232.01.414.195.414.42v1.549a.424.424 0 0 1-.413.42h-.016a.426.426 0 0 1-.415-.42v-1.549c0-.113.049-.226.135-.306a.387.387 0 0 1 .295-.114Zm-1.573-.146c.239 0 .42.177.42.412v1.86a.407.407 0 0 1-.42.412.426.426 0 0 1-.283-.101.4.4 0 0 1-.138-.311v-1.86c0-.235.18-.412.421-.412Zm-10.092-7.57a.437.437 0 0 1 .436.061 127.883 127.883 0 0 0 9.131 6.488c.231.15.234.419.12.595a.4.4 0 0 1-.334.192.413.413 0 0 1-.224-.069 130.6 130.6 0 0 1-9.255-6.586.367.367 0 0 1-.15-.345.441.441 0 0 1 .276-.336Zm14.493 5.625a83.163 83.163 0 0 1-2.141 1.683.362.362 0 0 1-.372.057.447.447 0 0 1-.256-.355.435.435 0 0 1 .17-.405 78.327 78.327 0 0 0 9.126-8.139c.186-.191.433-.149.581-.006.15.142.207.4.019.596a79.775 79.775 0 0 1-7.127 6.569Zm-2.087 5.024a.418.418 0 0 1-.078-.421.45.45 0 0 1 .332-.29.374.374 0 0 1 .36.138l6.253 7.387c.103.121.13.274.078.42a.45.45 0 0 1-.332.291c-.022.003-.044.007-.066.007a.386.386 0 0 1-.294-.143l-6.253-7.389Zm4.347 12.487c.483-.581.958-1.174 1.412-1.764.145-.189.372-.244.562-.135.101.057.181.17.206.293a.365.365 0 0 1-.064.3 63.322 63.322 0 0 1-6.896 7.595.413.413 0 0 1-.281.116.443.443 0 0 1-.32-.143.393.393 0 0 1 .013-.575 62.72 62.72 0 0 0 5.368-5.687Zm-45.382-13.067a.412.412 0 0 1-.349.193h-.023a.445.445 0 0 1-.374-.237.381.381 0 0 1 .027-.391l3.77-5.786a.404.404 0 0 1 .372-.192.45.45 0 0 1 .374.237.385.385 0 0 1-.027.393l-3.77 5.783Zm52.383-11.565a.444.444 0 0 1 .355-.256c.157-.02.31.044.406.17l6.421 8.428a.362.362 0 0 1 .056.371.449.449 0 0 1-.355.256l-.058.003a.434.434 0 0 1-.348-.173l-6.421-8.428a.37.37 0 0 1-.056-.371Zm5.379 13.23c.204-.185.465-.119.606.035a.39.39 0 0 1-.022.57l-6.278 5.712a.416.416 0 0 1-.409.093.447.447 0 0 1-.301-.325.38.38 0 0 1 .126-.373l6.278-5.712Zm-6.024 9.06a.373.373 0 0 1 .352.144l3.703 4.573a.439.439 0 0 1-.074.623.387.387 0 0 1-.247.093.383.383 0 0 1-.297-.148l-3.703-4.573a.422.422 0 0 1-.067-.428.44.44 0 0 1 .333-.284Z"
  />
  <path
    fill="#ffa086"
    d="M105.681 43.738s1.892 1.554 3.07 3.32c1.179 1.764 1.958 3.945 1.958 3.945l-2.713 3.944s-3.2-.05-4.548-1.15c-1.352-1.102 2.233-10.059 2.233-10.059Z"
  />
  <path
    fill="#d9a08d"
    d="M105.911 36.818c2.144.949-1.367 15.252-3.311 17.407-1.944 2.154-8.128 1.747-9.698.279-2.192-2.052-4.175-16.177-2.899-17.686 1.276-1.511 12.828-1.365 15.908 0Z"
  />
  <path
    fill="#aa4636"
    d="M91.267 37.8c0 .562 3.058 1.379 6.83 1.379 3.772 0 6.831-.817 6.831-1.378 0-.562-3.059-1.015-6.83-1.015-3.773 0-6.831.455-6.831 1.015Z"
  />
  <path
    fill="#d9a08d"
    d="M102.759 53.769a6.82 6.82 0 0 0 3.789-1.192c1.857-1.262 3.504-3.9 4.009-6.414.271-1.346.165-2.494-.303-3.32-1.272-2.246-3.782-1.739-4.93-1.157-.37.188-.538.687-.377 1.117.162.429.591.626.96.44.099-.048 2.216-1.075 3.129.533.239.422.274 1.133.101 2-.408 2.03-1.837 4.323-3.325 5.336-1.654 1.126-3.321.95-3.337.948-.401-.046-.759.292-.8.758-.04.465.248.88.648.93.022.003.179.02.436.02Z"
  />
  <path
    fill="#ffa086"
    d="M105.379 51.17s-1.505-.997-2.488-3.026c-.754-1.554-3.279-1.677-4.283-2.413-1.005-.736-.936-1.546-.936-1.546s2.678-.072 3.949.222c1.27.294 3.541 1.228 4.59 1.062 1.05-.165-.832 5.7-.832 5.7Z"
  />
  <path
    fill="#ffdede"
    d="M90.466 39.344a.337.337 0 0 1 .46-.118c.02.012 1.967 1.106 7.072 1.3 5.038.192 6.808-1.25 6.823-1.263a.338.338 0 0 1 .475.029.335.335 0 0 1-.028.474c-.068.058-1.694 1.45-6.341 1.45-.31 0-.631-.007-.954-.019-5.34-.203-7.309-1.346-7.39-1.395a.334.334 0 0 1-.117-.458Z"
  />
  <path
    fill="#ffc254"
    d="M160.617 31.936a5.466 5.466 0 0 0-5.463-5.456c-3.013 0-5.464 2.447-5.464 5.456a5.465 5.465 0 0 0 10.927 0Zm-.431 0a5.034 5.034 0 0 1-10.065 0 5.034 5.034 0 0 1 5.033-5.025c2.773 0 5.032 2.255 5.032 5.024Z"
  />
  <path
    fill="#ffa086"
    d="M176.865 43.172s-3.619 6.24-12.969 4.308c-5.47-1.13-6.438-6.521-6.438-6.521l3.336.082s.263-1.966.451-3.107c.121-.726.187-1.433.222-2.002.048-.72.044-1.211.044-1.211l8.521-7.91s2.137 12.597 3.065 15.56l3.768.801Z"
  />
  <path
    fill="#aa4636"
    d="M166.54 32.165s-.707 4.557-5.299 5.769h-.001c.121-.726.187-1.434.222-2.002l.002-.001 5.076-3.766Z"
  />
  <path
    fill="#ffa086"
    d="M155.558 16.52s-7.444 14.767.53 19.158c7.04 3.876 13.261-6.939 13.261-6.939 2.391-2.739 4.27-13.125-2.529-15.385-6.798-2.262-10.504 1.879-11.262 3.166Z"
  />
  <path
    fill="#1e2633"
    d="M169.175 23.91s-2.021.636-3.083-1.011c-1.062-1.645-.096-3.027-.096-3.027s-1.441.346-2.109-.793c-.668-1.14.437-1.77.437-1.77s-.725-.072-1.001-.519a1.2 1.2 0 0 1 .088-1.432s-.546 1.995-1.951 1.96c-1.407-.036-1.904-1.607-1.904-1.607s-.194 1.077-1.528 1.535c-1.335.457-2.185-.615-2.185-.615s.052 2.65-3.446 2.117c-2.947-.449-1.228-5.035 1.15-6.867 2.378-1.83 8.187-6.04 14.507-2.596 6.321 3.443 5.683 10.863 4.993 12.202-.692 1.336-3.872 2.424-3.872 2.424Z"
  />
  <path
    fill="#ffa086"
    d="M169.799 27.44c-1.196-.936-1.283-2.819-.195-4.204 1.088-1.385 2.94-1.749 4.136-.812 1.196.936 1.283 2.819.195 4.204-1.089 1.385-2.941 1.749-4.136.812Z"
  />
  <path
    fill="#1e2633"
    d="M172.272 25.16a4.472 4.472 0 0 0-.67-.138 2.237 2.237 0 0 0-.686.022 2.17 2.17 0 0 0-.623.238 4.13 4.13 0 0 0-.522.368l.246.168a4.38 4.38 0 0 1 .51-.798c.097-.126.205-.245.316-.36.057-.055.113-.114.17-.17l.182-.159c.249-.205.525-.381.833-.504.308-.121.657-.18 1.022-.138a1.939 1.939 0 0 0-1.094-.018c-.352.09-.67.259-.95.46l-.202.16a5.649 5.649 0 0 0-.19.171 4.5 4.5 0 0 0-.341.375c-.214.26-.391.548-.532.854l-.002.001c-.03.068.005.152.082.185a.152.152 0 0 0 .165-.02c.147-.133.302-.26.467-.368a2.02 2.02 0 0 1 .535-.262c.389-.123.838-.098 1.284-.067Z"
  />
  <path
    fill="#ffc254"
    d="M170.795 26.482a5.683 5.683 0 0 0-4.842 4.032c-.81 2.729.567 5.678 3.184 6.806a5.688 5.688 0 0 0 7.63-3.351c.975-2.815-.417-5.885-3.109-7.053a6.785 6.785 0 0 1-.368.33c2.747 1.063 4.117 4.232 2.886 7-1.031 2.323-3.637 3.573-6.098 2.926a5.227 5.227 0 0 1-3.625-6.76 5.235 5.235 0 0 1 4.485-3.496.192.192 0 0 0 .145-.296.31.31 0 0 0-.288-.138Z"
  />
  <path
    fill="#ec8b33"
    d="M143.447 129.412c.233.01.414.195.414.42v1.55a.425.425 0 0 1-.412.42h-.017a.426.426 0 0 1-.414-.42v-1.55c0-.112.049-.225.135-.306a.383.383 0 0 1 .294-.114Zm-1.84.248a.417.417 0 0 1 .313-.131c.224.01.394.177.412.407l.125 1.548a.4.4 0 0 1-.115.302.417.417 0 0 1-.297.131h-.016a.428.428 0 0 1-.412-.406l-.125-1.548a.386.386 0 0 1 .115-.303Zm45.934-4.924a.427.427 0 0 1 .414.421v1.549a.424.424 0 0 1-.412.42h-.017a.426.426 0 0 1-.414-.42v-1.549a.425.425 0 0 1 .429-.421Zm-1.848.251a.416.416 0 0 1 .311-.131c.226.01.394.177.412.407l.125 1.548a.4.4 0 0 1-.115.302.417.417 0 0 1-.297.131h-.016a.428.428 0 0 1-.412-.407l-.125-1.547a.393.393 0 0 1 .117-.303Zm-156.656 17.47c-4.568-6.24-9.356-13.278-8.266-20.765.475-3.263 2.052-6.282 2.895-9.476 1.444-5.472.695-11.223.532-16.868-.163-5.645.404-11.66 3.99-16.163.395-.496.864-.995 1.5-1.155 1.445-.363 2.608 1.114 3.295 2.375l5.706 10.48c1.722 3.162 3.472 6.41 3.918 9.935.902 7.136-3.62 13.754-5.253 20.758-1.628 6.981-.529 14.876-4.864 20.726l-3.453.153Z"
  />
  <path
    fill="#112f45"
    d="m31.556 93.36-.167-.596c-1.027-3.669-2.089-7.463-1.37-11.226.09-.465.21-.941.363-1.417a.343.343 0 0 0-.07-.34.444.444 0 0 0-.408-.125.368.368 0 0 0-.279.252c-1.28 4.011-.33 8.214.665 11.838.113.408.225.816.34 1.225.438 1.563.89 3.178 1.198 4.79.377 1.964.49 3.989.335 6.021-.242 3.196-1.055 6.376-1.843 9.451-.202.79-.41 1.607-.608 2.412-.553 2.267-.922 4.171-1.164 5.991-.253 1.897-.414 3.957-.497 6.3-.075 2.185-.075 4.349-.069 6.379v.627c-.002 1.711-.003 3.481.497 5.165.126.426.298.865.512 1.302a.35.35 0 0 0 .318.203.409.409 0 0 0 .181-.043c.206-.1.29-.321.196-.516-.82-1.688-.896-3.543-.908-5.62-.011-2.203-.018-4.191.027-6.226.105-4.614.567-8.638 1.418-12.305.265-1.148.562-2.313.85-3.439.683-2.677 1.39-5.446 1.737-8.234.267-2.157.286-4.108.053-5.965-.254-2.023-.786-4.026-1.307-5.903Z"
  />
  <path
    fill="#f4ba41"
    d="M34.09 141.575c-1.835-4.726-3.67-9.962-1.64-14.622 1.253-2.876 3.823-5.101 5.477-7.803 3.153-5.144 2.76-11.587 5.755-16.809 2.468-4.304 6.994-7.352 9.736-11.518.569-.864 1.096-1.81 2.028-2.355 1.486-.867 3.59-.356 4.79.822 1.2 1.178 1.645 2.845 1.729 4.45.155 2.89-.699 5.738-1.545 8.526-1.943 6.404-4.191 13.247-9.897 17.391-1.591 1.155-3.45 2.101-4.542 3.662-1.208 1.728-1.264 3.894-1.417 5.939-.399 5.351-2.175 11.238-7.24 13.974l-3.234-1.657Zm-7.12-15.869c-1.783-2.365-4.296-4.227-5.974-6.654-1.078-1.559-1.778-3.303-2.549-5.006a63.632 63.632 0 0 0-6.923-11.715c-1.262-1.696-2.698-3.403-4.738-4.272-2.038-.867-4.83-.598-6.07 1.114-.942 1.303-.759 3-.54 4.548l2.375 16.81c.344 2.425.742 4.976 2.39 6.907 1.604 1.878 4.124 2.857 6.314 4.153 3.139 1.857 5.721 4.485 7.4 7.532 1.046 1.899 1.824 4.045 3.648 5.368 1.825 1.322 8.03-.704 8.68-2.743-.22-5.561-.558-11.456-4.014-16.042Z"
  />
  <path
    fill="#112f45"
    d="M57.768 90.247c-.17-.118-.43-.116-.574.09a38.703 38.703 0 0 0-5.147 10.383c-.348 1.096-.63 2.235-.904 3.339-.612 2.479-1.247 5.044-2.68 7.267-1.119 1.738-2.679 3.215-4.189 4.642-1.114 1.053-2.267 2.144-3.242 3.337-2.11 2.583-3.605 5.699-4.443 9.263-.74 3.151-.966 6.598-.667 10.242.034.41.076.841.127 1.282a.38.38 0 0 0 .234.309.477.477 0 0 0 .183.039.405.405 0 0 0 .24-.076.325.325 0 0 0 .13-.309c-.412-3.628-.318-7.05.276-10.167.679-3.551 1.992-6.677 3.9-9.292 1.094-1.498 2.481-2.817 3.821-4.094 1.252-1.193 2.547-2.425 3.612-3.808 1.946-2.524 2.702-5.516 3.436-8.409.158-.627.323-1.274.495-1.905a37.719 37.719 0 0 1 4.67-10.429c.255-.395.529-.803.813-1.213a.337.337 0 0 0-.09-.491Zm-41.481 37.731c-.623-.473-1.267-.962-1.885-1.454-1.01-.805-2.306-1.891-3.371-3.156a12.556 12.556 0 0 1-2.29-4.049c-.813-2.386-.998-4.93-1.178-7.391a98.001 98.001 0 0 0-.175-2.188c-.128-1.346-.337-3.11-.833-4.823-.549-1.894-1.49-3.62-2.25-4.912a85.437 85.437 0 0 0-.716-1.19.371.371 0 0 0-.333-.183.421.421 0 0 0-.359.212c-.06.11-.057.24.012.354 1.069 1.758 1.936 3.235 2.54 4.876.495 1.342.828 2.848 1.047 4.739.12 1.035.199 2.095.273 3.121.156 2.141.32 4.354.877 6.488.432 1.654 1.095 3.129 1.972 4.385.771 1.105 1.796 2.201 3.131 3.351.97.835 2.011 1.625 3.018 2.389 1.456 1.104 2.96 2.247 4.265 3.538 2.427 2.401 3.99 5.366 4.516 8.574.064.388.111.788.145 1.223.017.227.217.355.412.355.012 0 .024 0 .034-.002.215-.016.36-.176.343-.378-.255-3.307-1.617-6.564-3.836-9.167-1.531-1.807-3.477-3.284-5.359-4.712Z"
  />
  <path
    fill="#1f396d"
    d="M12.531 136.717c-2.947-.224 5.089 33.417 7.262 34.931 4.125 2.876 17.025 3.229 21.228-.179 1.858-1.508 9.953-34.483 6.558-34.273-14.918.922-21.49.547-35.047-.479Z"
  />
  <path
    fill="#ddcaca"
    d="M42.238 147.141a2.387 2.387 0 0 0-1.504.324c-.458.283-.785.676-1.103 1.057l-.092.111c-.312.373-.669.743-1.16.933-.466.18-1 .22-1.505.116a2.373 2.373 0 0 1-1.245-.694c-.218-.222-.41-.476-.596-.721a15.917 15.917 0 0 0-.281-.365c-.275-.341-.617-.722-1.076-.974-.525-.29-1.163-.372-1.794-.232-1.019.226-1.734.877-2.426 1.509-.203.186-.415.378-.628.553-.506.416-.969.653-1.459.749-.495.096-1.045.035-1.596-.175-1.137-.435-2.026-1.324-2.745-2.137-.375-.425-.831-.894-1.488-1.064-.587-.153-1.25-.052-1.97.301-.605.296-1.142.706-1.633 1.102a12.528 12.528 0 0 0-2.029 2.067.329.329 0 0 0 .061.478c.163.127.44.141.598-.063a11.943 11.943 0 0 1 2.716-2.534c.471-.319 1.034-.649 1.634-.67.605-.021 1.034.347 1.372.714l.015.015c.771.832 1.568 1.691 2.657 2.252 1.156.595 2.405.652 3.43.158.616-.298 1.096-.743 1.562-1.175.358-.333.729-.677 1.153-.939.596-.37 1.144-.521 1.63-.447.39.058.747.262 1.092.621.215.224.41.479.597.726.37.488.754.99 1.342 1.328.49.281 1.07.422 1.654.422a3.41 3.41 0 0 0 1.586-.38c.503-.265.861-.669 1.215-1.092l.059-.071c.291-.351.594-.714 1.01-.922.676-.338 1.696-.079 2.14.544.102.145.166.303.193.482.03.199.203.32.414.288.203-.032.394-.207.357-.449-.154-1.01-1.202-1.644-2.157-1.746Zm-.074 10.509a.37.37 0 0 0-.33.185c-.366.61-1.148.818-1.758.817a2.362 2.362 0 0 1-1.036-.234c-.303-.153-.514-.37-.727-.748-.255-.448-.568-.882-1.147-1.03-.564-.144-1.122.037-1.491.214-.433.208-.816.517-1.171.944-.088.104-.172.21-.256.316-.207.26-.404.507-.64.729-.365.345-.757.525-1.168.533-.444.008-.907-.156-1.422-.509-.396-.271-.741-.61-1.074-.94-.403-.398-.82-.808-1.34-1.119-.84-.499-1.884-.575-2.94-.208-.66.228-1.258.571-1.835.904a25.89 25.89 0 0 1-.669.375c-.744.4-1.624.79-2.523.655-1.171-.176-2.033-.981-2.444-1.444a4.759 4.759 0 0 1-.449-.605c-.131-.206-.385-.218-.555-.11-.182.114-.233.324-.122.499.605.954 1.473 1.704 2.446 2.112a3.882 3.882 0 0 0 1.496.324h.002c.463 0 .96-.097 1.476-.289.623-.231 1.192-.558 1.744-.873.27-.155.549-.315.83-.461.676-.351 1.686-.783 2.636-.472.695.228 1.213.751 1.716 1.255.221.222.45.452.69.654.778.654 1.578.99 2.323.99.317 0 .623-.061.916-.183.65-.273 1.047-.773 1.43-1.257.22-.278.427-.538.68-.762.221-.196.672-.534 1.194-.574a.853.853 0 0 1 .545.124c.177.118.29.316.398.509l.013.024c.19.336.446.717.906.994.34.206.745.337 1.207.389.908.106 1.834-.16 2.415-.688.151-.137.281-.297.387-.474a.343.343 0 0 0 .01-.354.432.432 0 0 0-.363-.212Zm-21.051-2.669c.606 0 1.205-.257 1.634-.732.601-.666.726-1.562.324-2.34a2.181 2.181 0 0 0-2.532-1.1c-.902.275-1.564 1.082-1.609 1.966-.044.838.535 1.699 1.377 2.047.26.107.535.159.806.159Zm1.135-2.925c.338.474.36 1.035.06 1.5-.273.42-.852.804-1.48.647-.566-.141-1.03-.643-1.098-1.195-.08-.633.377-1.283 1.04-1.483a1.34 1.34 0 0 1 1.478.531Zm9.621 2.989c.53 0 1.04-.247 1.38-.699.505-.667.52-1.58.037-2.168a1.782 1.782 0 0 0-.788-.541 2.014 2.014 0 0 0-1.06-.037c-.768.171-1.34.751-1.426 1.44-.094.753.422 1.558 1.2 1.874.214.089.438.131.657.131Zm.841-1.302c-.165.314-.527.647-1.005.543-.483-.105-.883-.548-.914-1.009-.025-.398.25-.761.685-.906.147-.048.292-.072.433-.072.1 0 .195.012.288.037.188.05.321.155.46.296.228.304.252.736.053 1.111Zm9.586-.97c-.507-.567-1.374-.768-2.185-.504-.887.289-1.468 1.025-1.444 1.833.027.919.767 1.788 1.757 2.065.195.056.392.081.584.081.71 0 1.368-.358 1.713-.971.477-.842.297-1.893-.425-2.504Zm-.174 1.948a1.163 1.163 0 0 1-1.24.773c-.633-.068-1.229-.567-1.387-1.16-.136-.513.123-1.012.66-1.272a1.63 1.63 0 0 1 .7-.16c.31 0 .613.096.816.325.02.031.047.062.08.089.413.346.555.884.371 1.405Zm4.228-14.472a.384.384 0 0 0-.48-.276c-4.065 1.041-8.505.98-12.074.932l-.175-.002c-4.068-.056-8.273-.111-12.398-.375a92.696 92.696 0 0 1-7.051-.699.416.416 0 0 0-.39.155.377.377 0 0 0-.063.369.35.35 0 0 0 .285.209c3.635.511 7.668.816 12.696.961 2.062.059 4.1.091 6.36.123l.186.003c.98.013 1.974.029 2.976.029 1.015 0 2.033-.016 3.044-.059 2.601-.113 4.826-.414 6.806-.92a.364.364 0 0 0 .277-.45Zm-5.694 27.481a50.59 50.59 0 0 1-7.968 1.036 51.4 51.4 0 0 1-8.034-.232 50.568 50.568 0 0 1-4.472-.691.405.405 0 0 0-.385.124.381.381 0 0 0-.081.372c.04.119.143.205.28.232a51.944 51.944 0 0 0 10.146 1.008 51.695 51.695 0 0 0 10.704-1.119.355.355 0 0 0 .278-.237.383.383 0 0 0-.084-.371.391.391 0 0 0-.384-.122Zm.105-1.769a76.314 76.314 0 0 1-8.313.921c-3.061.17-5.763.173-8.26.009-1.783-.118-3.084-.378-4.219-.842a.417.417 0 0 0-.42.055.382.382 0 0 0-.155.346.338.338 0 0 0 .218.266c1.098.449 2.325.726 3.863.869 1.422.132 2.875.154 4.124.163l.582.001a77.733 77.733 0 0 0 12.757-1.058c.207-.036.334-.204.3-.402a.406.406 0 0 0-.477-.328Z"
  />
  <defs>
    <pattern id="c" width="1" height="1" patternContentUnits="objectBoundingBox">
      <use href="#k" transform="scale(.0014)" />
    </pattern>
    <pattern id="e" width="1" height="1" patternContentUnits="objectBoundingBox">
      <use href="#l" transform="scale(.0014)" />
    </pattern>
    <pattern id="h" width="1" height="1" patternContentUnits="objectBoundingBox">
      <use href="#k" transform="scale(.0014)" />
    </pattern>
    <pattern id="j" width="1" height="1" patternContentUnits="objectBoundingBox">
      <use href="#l" transform="scale(.0014)" />
    </pattern>
  </defs>
</svg>
